# Tiled2Unity generated file. Do not modify by hand.
# Wavefront file for 'Map2_mesh_0029.obj'

# Vertices (Count = 112)
v -329.6 -106.4 0
v -330.4 -106.4 0
v -330.4 -105.6 0
v -329.6 -105.6 0
v -327.2 -106.4 0
v -328 -106.4 0
v -328 -105.6 0
v -327.2 -105.6 0
v -325.6 -106.4 0
v -326.4 -106.4 0
v -326.4 -105.6 0
v -325.6 -105.6 0
v -321.6 -106.4 0
v -322.4 -106.4 0
v -322.4 -105.6 0
v -321.6 -105.6 0
v -314.4 -106.4 0
v -315.2 -106.4 0
v -315.2 -105.6 0
v -314.4 -105.6 0
v -312 -106.4 0
v -312.8 -106.4 0
v -312.8 -105.6 0
v -312 -105.6 0
v -305.6 -106.4 0
v -306.4 -106.4 0
v -306.4 -105.6 0
v -305.6 -105.6 0
v -303.2 -106.4 0
v -304 -106.4 0
v -304 -105.6 0
v -303.2 -105.6 0
v -301.6 -106.4 0
v -302.4 -106.4 0
v -302.4 -105.6 0
v -301.6 -105.6 0
v -300 -106.4 0
v -300.8 -106.4 0
v -300.8 -105.6 0
v -300 -105.6 0
v -296 -106.4 0
v -296.8 -106.4 0
v -296.8 -105.6 0
v -296 -105.6 0
v -288.8 -106.4 0
v -289.6 -106.4 0
v -289.6 -105.6 0
v -288.8 -105.6 0
v -286.4 -106.4 0
v -287.2 -106.4 0
v -287.2 -105.6 0
v -286.4 -105.6 0
v -285.6 -104 0
v -286.4 -104 0
v -286.4 -103.2 0
v -285.6 -103.2 0
v -276 -104 0
v -276.8 -104 0
v -276.8 -103.2 0
v -276 -103.2 0
v -273.6 -104 0
v -274.4 -104 0
v -274.4 -103.2 0
v -273.6 -103.2 0
v -272 -104 0
v -272.8 -104 0
v -272.8 -103.2 0
v -272 -103.2 0
v -268 -104 0
v -268.8 -104 0
v -268.8 -103.2 0
v -268 -103.2 0
v -265.6 -104 0
v -266.4 -104 0
v -266.4 -103.2 0
v -265.6 -103.2 0
v -264 -104 0
v -264.8 -104 0
v -264.8 -103.2 0
v -264 -103.2 0
v -260 -104 0
v -260.8 -104 0
v -260.8 -103.2 0
v -260 -103.2 0
v -252.8 -104 0
v -253.6 -104 0
v -253.6 -103.2 0
v -252.8 -103.2 0
v -250.4 -104 0
v -251.2 -104 0
v -251.2 -103.2 0
v -250.4 -103.2 0
v -248.8 -104 0
v -249.6 -104 0
v -249.6 -103.2 0
v -248.8 -103.2 0
v -244.8 -104 0
v -245.6 -104 0
v -245.6 -103.2 0
v -244.8 -103.2 0
v -237.6 -104 0
v -238.4 -104 0
v -238.4 -103.2 0
v -237.6 -103.2 0
v -235.2 -104 0
v -236 -104 0
v -236 -103.2 0
v -235.2 -103.2 0
v -233.6 -104 0
v -234.4 -104 0
v -234.4 -103.2 0
v -233.6 -103.2 0

# Texture cooridinates (Count = 4)
vt 1 0
vt 1 1
vt 0 1
vt 0 0

# Normal
vn 0 0 -1

# Mesh description
g Map2_mesh_0029

# Faces
f 1/1/1 2/2/1 3/3/1 4/4/1
f 5/1/1 6/2/1 7/3/1 8/4/1
f 9/1/1 10/2/1 11/3/1 12/4/1
f 13/1/1 14/2/1 15/3/1 16/4/1
f 17/1/1 18/2/1 19/3/1 20/4/1
f 21/1/1 22/2/1 23/3/1 24/4/1
f 25/1/1 26/2/1 27/3/1 28/4/1
f 29/1/1 30/2/1 31/3/1 32/4/1
f 33/1/1 34/2/1 35/3/1 36/4/1
f 37/1/1 38/2/1 39/3/1 40/4/1
f 41/1/1 42/2/1 43/3/1 44/4/1
f 45/1/1 46/2/1 47/3/1 48/4/1
f 49/1/1 50/2/1 51/3/1 52/4/1
f 53/1/1 54/2/1 55/3/1 56/4/1
f 57/1/1 58/2/1 59/3/1 60/4/1
f 61/1/1 62/2/1 63/3/1 64/4/1
f 65/1/1 66/2/1 67/3/1 68/4/1
f 69/1/1 70/2/1 71/3/1 72/4/1
f 73/1/1 74/2/1 75/3/1 76/4/1
f 77/1/1 78/2/1 79/3/1 80/4/1
f 81/1/1 82/2/1 83/3/1 84/4/1
f 85/1/1 86/2/1 87/3/1 88/4/1
f 89/1/1 90/2/1 91/3/1 92/4/1
f 93/1/1 94/2/1 95/3/1 96/4/1
f 97/1/1 98/2/1 99/3/1 100/4/1
f 101/1/1 102/2/1 103/3/1 104/4/1
f 105/1/1 106/2/1 107/3/1 108/4/1
f 109/1/1 110/2/1 111/3/1 112/4/1

