# Tiled2Unity generated file. Do not modify by hand.
# Wavefront file for 'Map2_mesh_0020.obj'

# Vertices (Count = 48)
v -63.2 -96.8 0
v -64 -96.8 0
v -64 -96 0
v -63.2 -96 0
v -56 -96.8 0
v -56.8 -96.8 0
v -56.8 -96 0
v -56 -96 0
v -63.2 -96 0
v -64 -96 0
v -64 -95.2 0
v -63.2 -95.2 0
v -56 -96 0
v -56.8 -96 0
v -56.8 -95.2 0
v -56 -95.2 0
v -63.2 -95.2 0
v -64 -95.2 0
v -64 -94.4 0
v -63.2 -94.4 0
v -56 -95.2 0
v -56.8 -95.2 0
v -56.8 -94.4 0
v -56 -94.4 0
v -63.2 -94.4 0
v -64 -94.4 0
v -64 -93.6 0
v -63.2 -93.6 0
v -56 -94.4 0
v -56.8 -94.4 0
v -56.8 -93.6 0
v -56 -93.6 0
v -63.2 -93.6 0
v -64 -93.6 0
v -64 -92.8 0
v -63.2 -92.8 0
v -56 -93.6 0
v -56.8 -93.6 0
v -56.8 -92.8 0
v -56 -92.8 0
v -63.2 -92.8 0
v -64 -92.8 0
v -64 -92 0
v -63.2 -92 0
v -56 -92.8 0
v -56.8 -92.8 0
v -56.8 -92 0
v -56 -92 0

# Texture cooridinates (Count = 4)
vt 0.625 0.53125
vt 0.65625 0.53125
vt 0.65625 0.5625
vt 0.625 0.5625

# Normal
vn 0 0 -1

# Mesh description
g Map2_mesh_0020

# Faces
f 1/1/1 2/2/1 3/3/1 4/4/1
f 5/2/1 6/1/1 7/4/1 8/3/1
f 9/1/1 10/2/1 11/3/1 12/4/1
f 13/2/1 14/1/1 15/4/1 16/3/1
f 17/1/1 18/2/1 19/3/1 20/4/1
f 21/2/1 22/1/1 23/4/1 24/3/1
f 25/1/1 26/2/1 27/3/1 28/4/1
f 29/2/1 30/1/1 31/4/1 32/3/1
f 33/1/1 34/2/1 35/3/1 36/4/1
f 37/2/1 38/1/1 39/4/1 40/3/1
f 41/1/1 42/2/1 43/3/1 44/4/1
f 45/2/1 46/1/1 47/4/1 48/3/1

