# Tiled2Unity generated file. Do not modify by hand.
# Wavefront file for 'Map2_mesh_0038.obj'

# Vertices (Count = 72)
v -244.8 -106.4 0
v -245.6 -106.4 0
v -245.6 -105.6 0
v -244.8 -105.6 0
v -244 -106.4 0
v -244.8 -106.4 0
v -244.8 -105.6 0
v -244 -105.6 0
v -243.2 -106.4 0
v -244 -106.4 0
v -244 -105.6 0
v -243.2 -105.6 0
v -239.2 -106.4 0
v -240 -106.4 0
v -240 -105.6 0
v -239.2 -105.6 0
v -238.4 -106.4 0
v -239.2 -106.4 0
v -239.2 -105.6 0
v -238.4 -105.6 0
v -237.6 -106.4 0
v -238.4 -106.4 0
v -238.4 -105.6 0
v -237.6 -105.6 0
v -236 -106.4 0
v -236.8 -106.4 0
v -236.8 -105.6 0
v -236 -105.6 0
v -235.2 -106.4 0
v -236 -106.4 0
v -236 -105.6 0
v -235.2 -105.6 0
v -234.4 -106.4 0
v -235.2 -106.4 0
v -235.2 -105.6 0
v -234.4 -105.6 0
v -233.6 -106.4 0
v -234.4 -106.4 0
v -234.4 -105.6 0
v -233.6 -105.6 0
v -232 -106.4 0
v -232.8 -106.4 0
v -232.8 -105.6 0
v -232 -105.6 0
v -230.4 -106.4 0
v -231.2 -106.4 0
v -231.2 -105.6 0
v -230.4 -105.6 0
v -244.8 -105.6 0
v -245.6 -105.6 0
v -245.6 -104.8 0
v -244.8 -104.8 0
v -244 -105.6 0
v -244.8 -105.6 0
v -244.8 -104.8 0
v -244 -104.8 0
v -244.8 -104.8 0
v -245.6 -104.8 0
v -245.6 -104 0
v -244.8 -104 0
v -244 -104.8 0
v -244.8 -104.8 0
v -244.8 -104 0
v -244 -104 0
v -243.2 -104.8 0
v -244 -104.8 0
v -244 -104 0
v -243.2 -104 0
v -232.8 -104.8 0
v -233.6 -104.8 0
v -233.6 -104 0
v -232.8 -104 0

# Texture cooridinates (Count = 4)
vt 0 0
vt 1 0
vt 1 1
vt 0 1

# Normal
vn 0 0 -1

# Mesh description
g Map2_mesh_0038

# Faces
f 1/1/1 2/2/1 3/3/1 4/4/1
f 5/1/1 6/2/1 7/3/1 8/4/1
f 9/1/1 10/2/1 11/3/1 12/4/1
f 13/1/1 14/2/1 15/3/1 16/4/1
f 17/1/1 18/2/1 19/3/1 20/4/1
f 21/1/1 22/2/1 23/3/1 24/4/1
f 25/1/1 26/2/1 27/3/1 28/4/1
f 29/1/1 30/2/1 31/3/1 32/4/1
f 33/1/1 34/2/1 35/3/1 36/4/1
f 37/1/1 38/2/1 39/3/1 40/4/1
f 41/1/1 42/2/1 43/3/1 44/4/1
f 45/1/1 46/2/1 47/3/1 48/4/1
f 49/1/1 50/2/1 51/3/1 52/4/1
f 53/1/1 54/2/1 55/3/1 56/4/1
f 57/1/1 58/2/1 59/3/1 60/4/1
f 61/1/1 62/2/1 63/3/1 64/4/1
f 65/1/1 66/2/1 67/3/1 68/4/1
f 69/1/1 70/2/1 71/3/1 72/4/1

