# Tiled2Unity generated file. Do not modify by hand.
# Wavefront file for 'Map2_mesh_0024.obj'

# Vertices (Count = 812)
v -331.2 -106.4 0
v -332 -106.4 0
v -332 -105.6 0
v -331.2 -105.6 0
v -331.2 -105.6 0
v -332 -105.6 0
v -332 -104.8 0
v -331.2 -104.8 0
v -331.2 -104.8 0
v -332 -104.8 0
v -332 -104 0
v -331.2 -104 0
v -285.6 -104.8 0
v -286.4 -104.8 0
v -286.4 -104 0
v -285.6 -104 0
v -331.2 -104 0
v -332 -104 0
v -332 -103.2 0
v -331.2 -103.2 0
v -285.6 -104 0
v -286.4 -104 0
v -286.4 -103.2 0
v -285.6 -103.2 0
v -158.4 -104 0
v -159.2 -104 0
v -159.2 -103.2 0
v -158.4 -103.2 0
v -131.2 -104 0
v -132 -104 0
v -132 -103.2 0
v -131.2 -103.2 0
v -331.2 -103.2 0
v -332 -103.2 0
v -332 -102.4 0
v -331.2 -102.4 0
v -285.6 -103.2 0
v -286.4 -103.2 0
v -286.4 -102.4 0
v -285.6 -102.4 0
v -158.4 -103.2 0
v -159.2 -103.2 0
v -159.2 -102.4 0
v -158.4 -102.4 0
v -131.2 -103.2 0
v -132 -103.2 0
v -132 -102.4 0
v -131.2 -102.4 0
v -331.2 -102.4 0
v -332 -102.4 0
v -332 -101.6 0
v -331.2 -101.6 0
v -285.6 -102.4 0
v -286.4 -102.4 0
v -286.4 -101.6 0
v -285.6 -101.6 0
v -158.4 -102.4 0
v -159.2 -102.4 0
v -159.2 -101.6 0
v -158.4 -101.6 0
v -131.2 -102.4 0
v -132 -102.4 0
v -132 -101.6 0
v -131.2 -101.6 0
v -331.2 -101.6 0
v -332 -101.6 0
v -332 -100.8 0
v -331.2 -100.8 0
v -285.6 -101.6 0
v -286.4 -101.6 0
v -286.4 -100.8 0
v -285.6 -100.8 0
v -158.4 -101.6 0
v -159.2 -101.6 0
v -159.2 -100.8 0
v -158.4 -100.8 0
v -131.2 -101.6 0
v -132 -101.6 0
v -132 -100.8 0
v -131.2 -100.8 0
v -331.2 -100.8 0
v -332 -100.8 0
v -332 -100 0
v -331.2 -100 0
v -285.6 -100.8 0
v -286.4 -100.8 0
v -286.4 -100 0
v -285.6 -100 0
v -158.4 -100.8 0
v -159.2 -100.8 0
v -159.2 -100 0
v -158.4 -100 0
v -131.2 -100.8 0
v -132 -100.8 0
v -132 -100 0
v -131.2 -100 0
v -331.2 -100 0
v -332 -100 0
v -332 -99.2 0
v -331.2 -99.2 0
v -285.6 -100 0
v -286.4 -100 0
v -286.4 -99.2 0
v -285.6 -99.2 0
v -158.4 -100 0
v -159.2 -100 0
v -159.2 -99.2 0
v -158.4 -99.2 0
v -131.2 -100 0
v -132 -100 0
v -132 -99.2 0
v -131.2 -99.2 0
v -331.2 -99.2 0
v -332 -99.2 0
v -332 -98.4 0
v -331.2 -98.4 0
v -285.6 -99.2 0
v -286.4 -99.2 0
v -286.4 -98.4 0
v -285.6 -98.4 0
v -331.2 -98.4 0
v -332 -98.4 0
v -332 -97.6 0
v -331.2 -97.6 0
v -285.6 -98.4 0
v -286.4 -98.4 0
v -286.4 -97.6 0
v -285.6 -97.6 0
v -331.2 -97.6 0
v -332 -97.6 0
v -332 -96.8 0
v -331.2 -96.8 0
v -285.6 -97.6 0
v -286.4 -97.6 0
v -286.4 -96.8 0
v -285.6 -96.8 0
v -331.2 -96.8 0
v -332 -96.8 0
v -332 -96 0
v -331.2 -96 0
v -285.6 -96.8 0
v -286.4 -96.8 0
v -286.4 -96 0
v -285.6 -96 0
v -40 -96.8 0
v -40.8 -96.8 0
v -40.8 -96 0
v -40 -96 0
v -39.2 -96.8 0
v -40 -96.8 0
v -40 -96 0
v -39.2 -96 0
v -38.4 -96.8 0
v -39.2 -96.8 0
v -39.2 -96 0
v -38.4 -96 0
v -32.8 -96.8 0
v -33.6 -96.8 0
v -33.6 -96 0
v -32.8 -96 0
v -32 -96.8 0
v -32.8 -96.8 0
v -32.8 -96 0
v -32 -96 0
v -31.2 -96.8 0
v -32 -96.8 0
v -32 -96 0
v -31.2 -96 0
v -331.2 -96 0
v -332 -96 0
v -332 -95.2 0
v -331.2 -95.2 0
v -285.6 -96 0
v -286.4 -96 0
v -286.4 -95.2 0
v -285.6 -95.2 0
v -171.2 -96 0
v -172 -96 0
v -172 -95.2 0
v -171.2 -95.2 0
v -170.4 -96 0
v -171.2 -96 0
v -171.2 -95.2 0
v -170.4 -95.2 0
v -169.6 -96 0
v -170.4 -96 0
v -170.4 -95.2 0
v -169.6 -95.2 0
v -168.8 -96 0
v -169.6 -96 0
v -169.6 -95.2 0
v -168.8 -95.2 0
v -168 -96 0
v -168.8 -96 0
v -168.8 -95.2 0
v -168 -95.2 0
v -167.2 -96 0
v -168 -96 0
v -168 -95.2 0
v -167.2 -95.2 0
v -166.4 -96 0
v -167.2 -96 0
v -167.2 -95.2 0
v -166.4 -95.2 0
v -165.6 -96 0
v -166.4 -96 0
v -166.4 -95.2 0
v -165.6 -95.2 0
v -164.8 -96 0
v -165.6 -96 0
v -165.6 -95.2 0
v -164.8 -95.2 0
v -164 -96 0
v -164.8 -96 0
v -164.8 -95.2 0
v -164 -95.2 0
v -163.2 -96 0
v -164 -96 0
v -164 -95.2 0
v -163.2 -95.2 0
v -162.4 -96 0
v -163.2 -96 0
v -163.2 -95.2 0
v -162.4 -95.2 0
v -161.6 -96 0
v -162.4 -96 0
v -162.4 -95.2 0
v -161.6 -95.2 0
v -160.8 -96 0
v -161.6 -96 0
v -161.6 -95.2 0
v -160.8 -95.2 0
v -160 -96 0
v -160.8 -96 0
v -160.8 -95.2 0
v -160 -95.2 0
v -40 -96 0
v -40.8 -96 0
v -40.8 -95.2 0
v -40 -95.2 0
v -39.2 -96 0
v -40 -96 0
v -40 -95.2 0
v -39.2 -95.2 0
v -38.4 -96 0
v -39.2 -96 0
v -39.2 -95.2 0
v -38.4 -95.2 0
v -32.8 -96 0
v -33.6 -96 0
v -33.6 -95.2 0
v -32.8 -95.2 0
v -32 -96 0
v -32.8 -96 0
v -32.8 -95.2 0
v -32 -95.2 0
v -31.2 -96 0
v -32 -96 0
v -32 -95.2 0
v -31.2 -95.2 0
v -331.2 -95.2 0
v -332 -95.2 0
v -332 -94.4 0
v -331.2 -94.4 0
v -285.6 -95.2 0
v -286.4 -95.2 0
v -286.4 -94.4 0
v -285.6 -94.4 0
v -171.2 -95.2 0
v -172 -95.2 0
v -172 -94.4 0
v -171.2 -94.4 0
v -170.4 -95.2 0
v -171.2 -95.2 0
v -171.2 -94.4 0
v -170.4 -94.4 0
v -169.6 -95.2 0
v -170.4 -95.2 0
v -170.4 -94.4 0
v -169.6 -94.4 0
v -168.8 -95.2 0
v -169.6 -95.2 0
v -169.6 -94.4 0
v -168.8 -94.4 0
v -168 -95.2 0
v -168.8 -95.2 0
v -168.8 -94.4 0
v -168 -94.4 0
v -167.2 -95.2 0
v -168 -95.2 0
v -168 -94.4 0
v -167.2 -94.4 0
v -166.4 -95.2 0
v -167.2 -95.2 0
v -167.2 -94.4 0
v -166.4 -94.4 0
v -165.6 -95.2 0
v -166.4 -95.2 0
v -166.4 -94.4 0
v -165.6 -94.4 0
v -164.8 -95.2 0
v -165.6 -95.2 0
v -165.6 -94.4 0
v -164.8 -94.4 0
v -164 -95.2 0
v -164.8 -95.2 0
v -164.8 -94.4 0
v -164 -94.4 0
v -163.2 -95.2 0
v -164 -95.2 0
v -164 -94.4 0
v -163.2 -94.4 0
v -162.4 -95.2 0
v -163.2 -95.2 0
v -163.2 -94.4 0
v -162.4 -94.4 0
v -161.6 -95.2 0
v -162.4 -95.2 0
v -162.4 -94.4 0
v -161.6 -94.4 0
v -160.8 -95.2 0
v -161.6 -95.2 0
v -161.6 -94.4 0
v -160.8 -94.4 0
v -160 -95.2 0
v -160.8 -95.2 0
v -160.8 -94.4 0
v -160 -94.4 0
v -331.2 -94.4 0
v -332 -94.4 0
v -332 -93.6 0
v -331.2 -93.6 0
v -285.6 -94.4 0
v -286.4 -94.4 0
v -286.4 -93.6 0
v -285.6 -93.6 0
v -171.2 -94.4 0
v -172 -94.4 0
v -172 -93.6 0
v -171.2 -93.6 0
v -170.4 -94.4 0
v -171.2 -94.4 0
v -171.2 -93.6 0
v -170.4 -93.6 0
v -169.6 -94.4 0
v -170.4 -94.4 0
v -170.4 -93.6 0
v -169.6 -93.6 0
v -168.8 -94.4 0
v -169.6 -94.4 0
v -169.6 -93.6 0
v -168.8 -93.6 0
v -168 -94.4 0
v -168.8 -94.4 0
v -168.8 -93.6 0
v -168 -93.6 0
v -167.2 -94.4 0
v -168 -94.4 0
v -168 -93.6 0
v -167.2 -93.6 0
v -166.4 -94.4 0
v -167.2 -94.4 0
v -167.2 -93.6 0
v -166.4 -93.6 0
v -165.6 -94.4 0
v -166.4 -94.4 0
v -166.4 -93.6 0
v -165.6 -93.6 0
v -164.8 -94.4 0
v -165.6 -94.4 0
v -165.6 -93.6 0
v -164.8 -93.6 0
v -164 -94.4 0
v -164.8 -94.4 0
v -164.8 -93.6 0
v -164 -93.6 0
v -163.2 -94.4 0
v -164 -94.4 0
v -164 -93.6 0
v -163.2 -93.6 0
v -162.4 -94.4 0
v -163.2 -94.4 0
v -163.2 -93.6 0
v -162.4 -93.6 0
v -161.6 -94.4 0
v -162.4 -94.4 0
v -162.4 -93.6 0
v -161.6 -93.6 0
v -160.8 -94.4 0
v -161.6 -94.4 0
v -161.6 -93.6 0
v -160.8 -93.6 0
v -160 -94.4 0
v -160.8 -94.4 0
v -160.8 -93.6 0
v -160 -93.6 0
v -104 -94.4 0
v -104.8 -94.4 0
v -104.8 -93.6 0
v -104 -93.6 0
v -103.2 -94.4 0
v -104 -94.4 0
v -104 -93.6 0
v -103.2 -93.6 0
v -102.4 -94.4 0
v -103.2 -94.4 0
v -103.2 -93.6 0
v -102.4 -93.6 0
v -101.6 -94.4 0
v -102.4 -94.4 0
v -102.4 -93.6 0
v -101.6 -93.6 0
v -100.8 -94.4 0
v -101.6 -94.4 0
v -101.6 -93.6 0
v -100.8 -93.6 0
v -98.4 -94.4 0
v -99.2 -94.4 0
v -99.2 -93.6 0
v -98.4 -93.6 0
v -97.6 -94.4 0
v -98.4 -94.4 0
v -98.4 -93.6 0
v -97.6 -93.6 0
v -96.8 -94.4 0
v -97.6 -94.4 0
v -97.6 -93.6 0
v -96.8 -93.6 0
v -96 -94.4 0
v -96.8 -94.4 0
v -96.8 -93.6 0
v -96 -93.6 0
v -95.2 -94.4 0
v -96 -94.4 0
v -96 -93.6 0
v -95.2 -93.6 0
v -76.8 -94.4 0
v -77.6 -94.4 0
v -77.6 -93.6 0
v -76.8 -93.6 0
v -76 -94.4 0
v -76.8 -94.4 0
v -76.8 -93.6 0
v -76 -93.6 0
v -75.2 -94.4 0
v -76 -94.4 0
v -76 -93.6 0
v -75.2 -93.6 0
v -72 -94.4 0
v -72.8 -94.4 0
v -72.8 -93.6 0
v -72 -93.6 0
v -71.2 -94.4 0
v -72 -94.4 0
v -72 -93.6 0
v -71.2 -93.6 0
v -70.4 -94.4 0
v -71.2 -94.4 0
v -71.2 -93.6 0
v -70.4 -93.6 0
v -67.2 -94.4 0
v -68 -94.4 0
v -68 -93.6 0
v -67.2 -93.6 0
v -66.4 -94.4 0
v -67.2 -94.4 0
v -67.2 -93.6 0
v -66.4 -93.6 0
v -65.6 -94.4 0
v -66.4 -94.4 0
v -66.4 -93.6 0
v -65.6 -93.6 0
v -331.2 -93.6 0
v -332 -93.6 0
v -332 -92.8 0
v -331.2 -92.8 0
v -285.6 -93.6 0
v -286.4 -93.6 0
v -286.4 -92.8 0
v -285.6 -92.8 0
v -171.2 -93.6 0
v -172 -93.6 0
v -172 -92.8 0
v -171.2 -92.8 0
v -170.4 -93.6 0
v -171.2 -93.6 0
v -171.2 -92.8 0
v -170.4 -92.8 0
v -169.6 -93.6 0
v -170.4 -93.6 0
v -170.4 -92.8 0
v -169.6 -92.8 0
v -168.8 -93.6 0
v -169.6 -93.6 0
v -169.6 -92.8 0
v -168.8 -92.8 0
v -168 -93.6 0
v -168.8 -93.6 0
v -168.8 -92.8 0
v -168 -92.8 0
v -167.2 -93.6 0
v -168 -93.6 0
v -168 -92.8 0
v -167.2 -92.8 0
v -166.4 -93.6 0
v -167.2 -93.6 0
v -167.2 -92.8 0
v -166.4 -92.8 0
v -165.6 -93.6 0
v -166.4 -93.6 0
v -166.4 -92.8 0
v -165.6 -92.8 0
v -164.8 -93.6 0
v -165.6 -93.6 0
v -165.6 -92.8 0
v -164.8 -92.8 0
v -164 -93.6 0
v -164.8 -93.6 0
v -164.8 -92.8 0
v -164 -92.8 0
v -163.2 -93.6 0
v -164 -93.6 0
v -164 -92.8 0
v -163.2 -92.8 0
v -162.4 -93.6 0
v -163.2 -93.6 0
v -163.2 -92.8 0
v -162.4 -92.8 0
v -161.6 -93.6 0
v -162.4 -93.6 0
v -162.4 -92.8 0
v -161.6 -92.8 0
v -160.8 -93.6 0
v -161.6 -93.6 0
v -161.6 -92.8 0
v -160.8 -92.8 0
v -160 -93.6 0
v -160.8 -93.6 0
v -160.8 -92.8 0
v -160 -92.8 0
v -104 -93.6 0
v -104.8 -93.6 0
v -104.8 -92.8 0
v -104 -92.8 0
v -103.2 -93.6 0
v -104 -93.6 0
v -104 -92.8 0
v -103.2 -92.8 0
v -102.4 -93.6 0
v -103.2 -93.6 0
v -103.2 -92.8 0
v -102.4 -92.8 0
v -101.6 -93.6 0
v -102.4 -93.6 0
v -102.4 -92.8 0
v -101.6 -92.8 0
v -100.8 -93.6 0
v -101.6 -93.6 0
v -101.6 -92.8 0
v -100.8 -92.8 0
v -98.4 -93.6 0
v -99.2 -93.6 0
v -99.2 -92.8 0
v -98.4 -92.8 0
v -97.6 -93.6 0
v -98.4 -93.6 0
v -98.4 -92.8 0
v -97.6 -92.8 0
v -96.8 -93.6 0
v -97.6 -93.6 0
v -97.6 -92.8 0
v -96.8 -92.8 0
v -96 -93.6 0
v -96.8 -93.6 0
v -96.8 -92.8 0
v -96 -92.8 0
v -95.2 -93.6 0
v -96 -93.6 0
v -96 -92.8 0
v -95.2 -92.8 0
v -76.8 -93.6 0
v -77.6 -93.6 0
v -77.6 -92.8 0
v -76.8 -92.8 0
v -76 -93.6 0
v -76.8 -93.6 0
v -76.8 -92.8 0
v -76 -92.8 0
v -75.2 -93.6 0
v -76 -93.6 0
v -76 -92.8 0
v -75.2 -92.8 0
v -72 -93.6 0
v -72.8 -93.6 0
v -72.8 -92.8 0
v -72 -92.8 0
v -71.2 -93.6 0
v -72 -93.6 0
v -72 -92.8 0
v -71.2 -92.8 0
v -70.4 -93.6 0
v -71.2 -93.6 0
v -71.2 -92.8 0
v -70.4 -92.8 0
v -67.2 -93.6 0
v -68 -93.6 0
v -68 -92.8 0
v -67.2 -92.8 0
v -66.4 -93.6 0
v -67.2 -93.6 0
v -67.2 -92.8 0
v -66.4 -92.8 0
v -65.6 -93.6 0
v -66.4 -93.6 0
v -66.4 -92.8 0
v -65.6 -92.8 0
v -170.4 -92.8 0
v -171.2 -92.8 0
v -171.2 -92 0
v -170.4 -92 0
v -169.6 -92.8 0
v -170.4 -92.8 0
v -170.4 -92 0
v -169.6 -92 0
v -168.8 -92.8 0
v -169.6 -92.8 0
v -169.6 -92 0
v -168.8 -92 0
v -166.4 -92.8 0
v -167.2 -92.8 0
v -167.2 -92 0
v -166.4 -92 0
v -165.6 -92.8 0
v -166.4 -92.8 0
v -166.4 -92 0
v -165.6 -92 0
v -164.8 -92.8 0
v -165.6 -92.8 0
v -165.6 -92 0
v -164.8 -92 0
v -162.4 -92.8 0
v -163.2 -92.8 0
v -163.2 -92 0
v -162.4 -92 0
v -161.6 -92.8 0
v -162.4 -92.8 0
v -162.4 -92 0
v -161.6 -92 0
v -160.8 -92.8 0
v -161.6 -92.8 0
v -161.6 -92 0
v -160.8 -92 0
v -104 -92.8 0
v -104.8 -92.8 0
v -104.8 -92 0
v -104 -92 0
v -103.2 -92.8 0
v -104 -92.8 0
v -104 -92 0
v -103.2 -92 0
v -102.4 -92.8 0
v -103.2 -92.8 0
v -103.2 -92 0
v -102.4 -92 0
v -101.6 -92.8 0
v -102.4 -92.8 0
v -102.4 -92 0
v -101.6 -92 0
v -100.8 -92.8 0
v -101.6 -92.8 0
v -101.6 -92 0
v -100.8 -92 0
v -98.4 -92.8 0
v -99.2 -92.8 0
v -99.2 -92 0
v -98.4 -92 0
v -97.6 -92.8 0
v -98.4 -92.8 0
v -98.4 -92 0
v -97.6 -92 0
v -96.8 -92.8 0
v -97.6 -92.8 0
v -97.6 -92 0
v -96.8 -92 0
v -96 -92.8 0
v -96.8 -92.8 0
v -96.8 -92 0
v -96 -92 0
v -95.2 -92.8 0
v -96 -92.8 0
v -96 -92 0
v -95.2 -92 0
v -76.8 -92.8 0
v -77.6 -92.8 0
v -77.6 -92 0
v -76.8 -92 0
v -76 -92.8 0
v -76.8 -92.8 0
v -76.8 -92 0
v -76 -92 0
v -75.2 -92.8 0
v -76 -92.8 0
v -76 -92 0
v -75.2 -92 0
v -72 -92.8 0
v -72.8 -92.8 0
v -72.8 -92 0
v -72 -92 0
v -71.2 -92.8 0
v -72 -92.8 0
v -72 -92 0
v -71.2 -92 0
v -70.4 -92.8 0
v -71.2 -92.8 0
v -71.2 -92 0
v -70.4 -92 0
v -67.2 -92.8 0
v -68 -92.8 0
v -68 -92 0
v -67.2 -92 0
v -66.4 -92.8 0
v -67.2 -92.8 0
v -67.2 -92 0
v -66.4 -92 0
v -65.6 -92.8 0
v -66.4 -92.8 0
v -66.4 -92 0
v -65.6 -92 0
v -169.6 -92 0
v -170.4 -92 0
v -170.4 -91.2 0
v -169.6 -91.2 0
v -165.6 -92 0
v -166.4 -92 0
v -166.4 -91.2 0
v -165.6 -91.2 0
v -161.6 -92 0
v -162.4 -92 0
v -162.4 -91.2 0
v -161.6 -91.2 0
v -104 -92 0
v -104.8 -92 0
v -104.8 -91.2 0
v -104 -91.2 0
v -103.2 -92 0
v -104 -92 0
v -104 -91.2 0
v -103.2 -91.2 0
v -102.4 -92 0
v -103.2 -92 0
v -103.2 -91.2 0
v -102.4 -91.2 0
v -101.6 -92 0
v -102.4 -92 0
v -102.4 -91.2 0
v -101.6 -91.2 0
v -100.8 -92 0
v -101.6 -92 0
v -101.6 -91.2 0
v -100.8 -91.2 0
v -98.4 -92 0
v -99.2 -92 0
v -99.2 -91.2 0
v -98.4 -91.2 0
v -97.6 -92 0
v -98.4 -92 0
v -98.4 -91.2 0
v -97.6 -91.2 0
v -96.8 -92 0
v -97.6 -92 0
v -97.6 -91.2 0
v -96.8 -91.2 0
v -96 -92 0
v -96.8 -92 0
v -96.8 -91.2 0
v -96 -91.2 0
v -95.2 -92 0
v -96 -92 0
v -96 -91.2 0
v -95.2 -91.2 0
v -103.2 -91.2 0
v -104 -91.2 0
v -104 -90.4 0
v -103.2 -90.4 0
v -102.4 -91.2 0
v -103.2 -91.2 0
v -103.2 -90.4 0
v -102.4 -90.4 0
v -101.6 -91.2 0
v -102.4 -91.2 0
v -102.4 -90.4 0
v -101.6 -90.4 0
v -97.6 -91.2 0
v -98.4 -91.2 0
v -98.4 -90.4 0
v -97.6 -90.4 0
v -96.8 -91.2 0
v -97.6 -91.2 0
v -97.6 -90.4 0
v -96.8 -90.4 0
v -96 -91.2 0
v -96.8 -91.2 0
v -96.8 -90.4 0
v -96 -90.4 0
v -102.4 -90.4 0
v -103.2 -90.4 0
v -103.2 -89.6 0
v -102.4 -89.6 0
v -96.8 -90.4 0
v -97.6 -90.4 0
v -97.6 -89.6 0
v -96.8 -89.6 0

# Texture cooridinates (Count = 38)
vt 0.1666667 0.4285714
vt 0.2083333 0.4285714
vt 0.2083333 0.4761904
vt 0.1666667 0.4761904
vt 0.4166667 0.1904762
vt 0.4583333 0.1904762
vt 0.4583333 0.2380952
vt 0.4166667 0.2380952
vt 0.375 0.1904762
vt 0.375 0.2380952
vt 0.3333333 0.1904762
vt 0.3333333 0.2380952
vt 0.2083333 0.09523809
vt 0.25 0.09523809
vt 0.25 0.1428571
vt 0.2083333 0.1428571
vt 0.1666667 0.09523809
vt 0.1666667 0.1428571
vt 0.125 0.09523809
vt 0.125 0.1428571
vt 0.4583333 0.2857143
vt 0.4166667 0.2857143
vt 0.375 0.2857143
vt 0.3333333 0.2857143
vt 0.25 0.1904762
vt 0.2083333 0.1904762
vt 0.1666667 0.1904762
vt 0.125 0.1904762
vt 0.4166667 0.1428571
vt 0.4583333 0.1428571
vt 0.375 0.1428571
vt 0.3333333 0.1428571
vt 0.25 0.2380952
vt 0.2083333 0.2380952
vt 0.1666667 0.2380952
vt 0.125 0.2380952
vt 0.2083333 0.2857143
vt 0.1666667 0.2857143

# Normal
vn 0 0 -1

# Mesh description
g Map2_mesh_0024

# Faces
f 1/1/1 2/2/1 3/3/1 4/4/1
f 5/1/1 6/2/1 7/3/1 8/4/1
f 9/1/1 10/2/1 11/3/1 12/4/1
f 13/2/1 14/1/1 15/4/1 16/3/1
f 17/1/1 18/2/1 19/3/1 20/4/1
f 21/2/1 22/1/1 23/4/1 24/3/1
f 25/2/1 26/1/1 27/4/1 28/3/1
f 29/1/1 30/2/1 31/3/1 32/4/1
f 33/1/1 34/2/1 35/3/1 36/4/1
f 37/2/1 38/1/1 39/4/1 40/3/1
f 41/2/1 42/1/1 43/4/1 44/3/1
f 45/1/1 46/2/1 47/3/1 48/4/1
f 49/1/1 50/2/1 51/3/1 52/4/1
f 53/2/1 54/1/1 55/4/1 56/3/1
f 57/2/1 58/1/1 59/4/1 60/3/1
f 61/1/1 62/2/1 63/3/1 64/4/1
f 65/1/1 66/2/1 67/3/1 68/4/1
f 69/2/1 70/1/1 71/4/1 72/3/1
f 73/2/1 74/1/1 75/4/1 76/3/1
f 77/1/1 78/2/1 79/3/1 80/4/1
f 81/1/1 82/2/1 83/3/1 84/4/1
f 85/2/1 86/1/1 87/4/1 88/3/1
f 89/2/1 90/1/1 91/4/1 92/3/1
f 93/1/1 94/2/1 95/3/1 96/4/1
f 97/1/1 98/2/1 99/3/1 100/4/1
f 101/2/1 102/1/1 103/4/1 104/3/1
f 105/2/1 106/1/1 107/4/1 108/3/1
f 109/1/1 110/2/1 111/3/1 112/4/1
f 113/1/1 114/2/1 115/3/1 116/4/1
f 117/2/1 118/1/1 119/4/1 120/3/1
f 121/1/1 122/2/1 123/3/1 124/4/1
f 125/2/1 126/1/1 127/4/1 128/3/1
f 129/1/1 130/2/1 131/3/1 132/4/1
f 133/2/1 134/1/1 135/4/1 136/3/1
f 137/1/1 138/2/1 139/3/1 140/4/1
f 141/2/1 142/1/1 143/4/1 144/3/1
f 145/5/1 146/6/1 147/7/1 148/8/1
f 149/9/1 150/5/1 151/8/1 152/10/1
f 153/11/1 154/9/1 155/10/1 156/12/1
f 157/5/1 158/6/1 159/7/1 160/8/1
f 161/9/1 162/5/1 163/8/1 164/10/1
f 165/11/1 166/9/1 167/10/1 168/12/1
f 169/1/1 170/2/1 171/3/1 172/4/1
f 173/2/1 174/1/1 175/4/1 176/3/1
f 177/13/1 178/14/1 179/15/1 180/16/1
f 181/17/1 182/13/1 183/16/1 184/18/1
f 185/17/1 186/13/1 187/16/1 188/18/1
f 189/17/1 190/13/1 191/16/1 192/18/1
f 193/19/1 194/17/1 195/18/1 196/20/1
f 197/13/1 198/14/1 199/15/1 200/16/1
f 201/17/1 202/13/1 203/16/1 204/18/1
f 205/17/1 206/13/1 207/16/1 208/18/1
f 209/17/1 210/13/1 211/16/1 212/18/1
f 213/19/1 214/17/1 215/18/1 216/20/1
f 217/13/1 218/14/1 219/15/1 220/16/1
f 221/17/1 222/13/1 223/16/1 224/18/1
f 225/17/1 226/13/1 227/16/1 228/18/1
f 229/17/1 230/13/1 231/16/1 232/18/1
f 233/19/1 234/17/1 235/18/1 236/20/1
f 237/8/1 238/7/1 239/21/1 240/22/1
f 241/10/1 242/8/1 243/22/1 244/23/1
f 245/12/1 246/10/1 247/23/1 248/24/1
f 249/8/1 250/7/1 251/21/1 252/22/1
f 253/10/1 254/8/1 255/22/1 256/23/1
f 257/12/1 258/10/1 259/23/1 260/24/1
f 261/1/1 262/2/1 263/3/1 264/4/1
f 265/2/1 266/1/1 267/4/1 268/3/1
f 269/16/1 270/15/1 271/25/1 272/26/1
f 273/18/1 274/16/1 275/26/1 276/27/1
f 277/18/1 278/16/1 279/26/1 280/27/1
f 281/18/1 282/16/1 283/26/1 284/27/1
f 285/20/1 286/18/1 287/27/1 288/28/1
f 289/16/1 290/15/1 291/25/1 292/26/1
f 293/18/1 294/16/1 295/26/1 296/27/1
f 297/18/1 298/16/1 299/26/1 300/27/1
f 301/18/1 302/16/1 303/26/1 304/27/1
f 305/20/1 306/18/1 307/27/1 308/28/1
f 309/16/1 310/15/1 311/25/1 312/26/1
f 313/18/1 314/16/1 315/26/1 316/27/1
f 317/18/1 318/16/1 319/26/1 320/27/1
f 321/18/1 322/16/1 323/26/1 324/27/1
f 325/20/1 326/18/1 327/27/1 328/28/1
f 329/1/1 330/2/1 331/3/1 332/4/1
f 333/2/1 334/1/1 335/4/1 336/3/1
f 337/16/1 338/15/1 339/25/1 340/26/1
f 341/18/1 342/16/1 343/26/1 344/27/1
f 345/18/1 346/16/1 347/26/1 348/27/1
f 349/18/1 350/16/1 351/26/1 352/27/1
f 353/20/1 354/18/1 355/27/1 356/28/1
f 357/16/1 358/15/1 359/25/1 360/26/1
f 361/18/1 362/16/1 363/26/1 364/27/1
f 365/18/1 366/16/1 367/26/1 368/27/1
f 369/18/1 370/16/1 371/26/1 372/27/1
f 373/20/1 374/18/1 375/27/1 376/28/1
f 377/16/1 378/15/1 379/25/1 380/26/1
f 381/18/1 382/16/1 383/26/1 384/27/1
f 385/18/1 386/16/1 387/26/1 388/27/1
f 389/18/1 390/16/1 391/26/1 392/27/1
f 393/20/1 394/18/1 395/27/1 396/28/1
f 397/13/1 398/14/1 399/15/1 400/16/1
f 401/17/1 402/13/1 403/16/1 404/18/1
f 405/17/1 406/13/1 407/16/1 408/18/1
f 409/17/1 410/13/1 411/16/1 412/18/1
f 413/19/1 414/17/1 415/18/1 416/20/1
f 417/13/1 418/14/1 419/15/1 420/16/1
f 421/17/1 422/13/1 423/16/1 424/18/1
f 425/17/1 426/13/1 427/16/1 428/18/1
f 429/17/1 430/13/1 431/16/1 432/18/1
f 433/19/1 434/17/1 435/18/1 436/20/1
f 437/29/1 438/30/1 439/6/1 440/5/1
f 441/31/1 442/29/1 443/5/1 444/9/1
f 445/32/1 446/31/1 447/9/1 448/11/1
f 449/29/1 450/30/1 451/6/1 452/5/1
f 453/31/1 454/29/1 455/5/1 456/9/1
f 457/32/1 458/31/1 459/9/1 460/11/1
f 461/29/1 462/30/1 463/6/1 464/5/1
f 465/31/1 466/29/1 467/5/1 468/9/1
f 469/32/1 470/31/1 471/9/1 472/11/1
f 473/1/1 474/2/1 475/3/1 476/4/1
f 477/2/1 478/1/1 479/4/1 480/3/1
f 481/26/1 482/25/1 483/33/1 484/34/1
f 485/27/1 486/26/1 487/34/1 488/35/1
f 489/27/1 490/26/1 491/34/1 492/35/1
f 493/27/1 494/26/1 495/34/1 496/35/1
f 497/28/1 498/27/1 499/35/1 500/36/1
f 501/26/1 502/25/1 503/33/1 504/34/1
f 505/27/1 506/26/1 507/34/1 508/35/1
f 509/27/1 510/26/1 511/34/1 512/35/1
f 513/27/1 514/26/1 515/34/1 516/35/1
f 517/28/1 518/27/1 519/35/1 520/36/1
f 521/26/1 522/25/1 523/33/1 524/34/1
f 525/27/1 526/26/1 527/34/1 528/35/1
f 529/27/1 530/26/1 531/34/1 532/35/1
f 533/27/1 534/26/1 535/34/1 536/35/1
f 537/28/1 538/27/1 539/35/1 540/36/1
f 541/16/1 542/15/1 543/25/1 544/26/1
f 545/18/1 546/16/1 547/26/1 548/27/1
f 549/18/1 550/16/1 551/26/1 552/27/1
f 553/18/1 554/16/1 555/26/1 556/27/1
f 557/20/1 558/18/1 559/27/1 560/28/1
f 561/16/1 562/15/1 563/25/1 564/26/1
f 565/18/1 566/16/1 567/26/1 568/27/1
f 569/18/1 570/16/1 571/26/1 572/27/1
f 573/18/1 574/16/1 575/26/1 576/27/1
f 577/20/1 578/18/1 579/27/1 580/28/1
f 581/5/1 582/6/1 583/7/1 584/8/1
f 585/9/1 586/5/1 587/8/1 588/10/1
f 589/11/1 590/9/1 591/10/1 592/12/1
f 593/5/1 594/6/1 595/7/1 596/8/1
f 597/9/1 598/5/1 599/8/1 600/10/1
f 601/11/1 602/9/1 603/10/1 604/12/1
f 605/5/1 606/6/1 607/7/1 608/8/1
f 609/9/1 610/5/1 611/8/1 612/10/1
f 613/11/1 614/9/1 615/10/1 616/12/1
f 617/26/1 618/25/1 619/33/1 620/34/1
f 621/27/1 622/26/1 623/34/1 624/35/1
f 625/25/1 626/26/1 627/34/1 628/33/1
f 629/26/1 630/25/1 631/33/1 632/34/1
f 633/27/1 634/26/1 635/34/1 636/35/1
f 637/25/1 638/26/1 639/34/1 640/33/1
f 641/26/1 642/25/1 643/33/1 644/34/1
f 645/27/1 646/26/1 647/34/1 648/35/1
f 649/25/1 650/26/1 651/34/1 652/33/1
f 653/16/1 654/15/1 655/25/1 656/26/1
f 657/18/1 658/16/1 659/26/1 660/27/1
f 661/18/1 662/16/1 663/26/1 664/27/1
f 665/18/1 666/16/1 667/26/1 668/27/1
f 669/20/1 670/18/1 671/27/1 672/28/1
f 673/16/1 674/15/1 675/25/1 676/26/1
f 677/18/1 678/16/1 679/26/1 680/27/1
f 681/18/1 682/16/1 683/26/1 684/27/1
f 685/18/1 686/16/1 687/26/1 688/27/1
f 689/20/1 690/18/1 691/27/1 692/28/1
f 693/8/1 694/7/1 695/21/1 696/22/1
f 697/10/1 698/8/1 699/22/1 700/23/1
f 701/12/1 702/10/1 703/23/1 704/24/1
f 705/8/1 706/7/1 707/21/1 708/22/1
f 709/10/1 710/8/1 711/22/1 712/23/1
f 713/12/1 714/10/1 715/23/1 716/24/1
f 717/8/1 718/7/1 719/21/1 720/22/1
f 721/10/1 722/8/1 723/22/1 724/23/1
f 725/12/1 726/10/1 727/23/1 728/24/1
f 729/35/1 730/34/1 731/37/1 732/38/1
f 733/35/1 734/34/1 735/37/1 736/38/1
f 737/35/1 738/34/1 739/37/1 740/38/1
f 741/26/1 742/25/1 743/33/1 744/34/1
f 745/27/1 746/26/1 747/34/1 748/35/1
f 749/27/1 750/26/1 751/34/1 752/35/1
f 753/27/1 754/26/1 755/34/1 756/35/1
f 757/28/1 758/27/1 759/35/1 760/36/1
f 761/26/1 762/25/1 763/33/1 764/34/1
f 765/27/1 766/26/1 767/34/1 768/35/1
f 769/27/1 770/26/1 771/34/1 772/35/1
f 773/27/1 774/26/1 775/34/1 776/35/1
f 777/28/1 778/27/1 779/35/1 780/36/1
f 781/26/1 782/25/1 783/33/1 784/34/1
f 785/27/1 786/26/1 787/34/1 788/35/1
f 789/25/1 790/26/1 791/34/1 792/33/1
f 793/26/1 794/25/1 795/33/1 796/34/1
f 797/27/1 798/26/1 799/34/1 800/35/1
f 801/25/1 802/26/1 803/34/1 804/33/1
f 805/35/1 806/34/1 807/37/1 808/38/1
f 809/35/1 810/34/1 811/37/1 812/38/1

