# Tiled2Unity generated file. Do not modify by hand.
# Wavefront file for 'Map2_mesh_0026.obj'

# Vertices (Count = 24)
v -151.2 -106.4 0
v -152 -106.4 0
v -152 -105.6 0
v -151.2 -105.6 0
v -150.4 -106.4 0
v -151.2 -106.4 0
v -151.2 -105.6 0
v -150.4 -105.6 0
v -139.2 -106.4 0
v -140 -106.4 0
v -140 -105.6 0
v -139.2 -105.6 0
v -144.8 -105.6 0
v -145.6 -105.6 0
v -145.6 -104.8 0
v -144.8 -104.8 0
v -136.8 -105.6 0
v -137.6 -105.6 0
v -137.6 -104.8 0
v -136.8 -104.8 0
v -136 -105.6 0
v -136.8 -105.6 0
v -136.8 -104.8 0
v -136 -104.8 0

# Texture cooridinates (Count = 4)
vt 0 0
vt 1 0
vt 1 1
vt 0 1

# Normal
vn 0 0 -1

# Mesh description
g Map2_mesh_0026

# Faces
f 1/1/1 2/2/1 3/3/1 4/4/1
f 5/1/1 6/2/1 7/3/1 8/4/1
f 9/1/1 10/2/1 11/3/1 12/4/1
f 13/1/1 14/2/1 15/3/1 16/4/1
f 17/1/1 18/2/1 19/3/1 20/4/1
f 21/1/1 22/2/1 23/3/1 24/4/1

