# Tiled2Unity generated file. Do not modify by hand.
# Wavefront file for 'Map2_mesh_0008.obj'

# Vertices (Count = 600)
v -119.2 -133.6 0
v -120 -133.6 0
v -120 -132.8 0
v -119.2 -132.8 0
v -114.4 -133.6 0
v -115.2 -133.6 0
v -115.2 -132.8 0
v -114.4 -132.8 0
v -113.6 -133.6 0
v -114.4 -133.6 0
v -114.4 -132.8 0
v -113.6 -132.8 0
v -119.2 -132.8 0
v -120 -132.8 0
v -120 -132 0
v -119.2 -132 0
v -114.4 -132.8 0
v -115.2 -132.8 0
v -115.2 -132 0
v -114.4 -132 0
v -113.6 -132.8 0
v -114.4 -132.8 0
v -114.4 -132 0
v -113.6 -132 0
v -119.2 -132 0
v -120 -132 0
v -120 -131.2 0
v -119.2 -131.2 0
v -114.4 -132 0
v -115.2 -132 0
v -115.2 -131.2 0
v -114.4 -131.2 0
v -113.6 -132 0
v -114.4 -132 0
v -114.4 -131.2 0
v -113.6 -131.2 0
v -119.2 -131.2 0
v -120 -131.2 0
v -120 -130.4 0
v -119.2 -130.4 0
v -114.4 -131.2 0
v -115.2 -131.2 0
v -115.2 -130.4 0
v -114.4 -130.4 0
v -113.6 -131.2 0
v -114.4 -131.2 0
v -114.4 -130.4 0
v -113.6 -130.4 0
v -119.2 -130.4 0
v -120 -130.4 0
v -120 -129.6 0
v -119.2 -129.6 0
v -114.4 -130.4 0
v -115.2 -130.4 0
v -115.2 -129.6 0
v -114.4 -129.6 0
v -113.6 -130.4 0
v -114.4 -130.4 0
v -114.4 -129.6 0
v -113.6 -129.6 0
v -119.2 -129.6 0
v -120 -129.6 0
v -120 -128.8 0
v -119.2 -128.8 0
v -114.4 -129.6 0
v -115.2 -129.6 0
v -115.2 -128.8 0
v -114.4 -128.8 0
v -113.6 -129.6 0
v -114.4 -129.6 0
v -114.4 -128.8 0
v -113.6 -128.8 0
v -119.2 -128.8 0
v -120 -128.8 0
v -120 -128 0
v -119.2 -128 0
v -118.4 -128.8 0
v -119.2 -128.8 0
v -119.2 -128 0
v -118.4 -128 0
v -115.2 -128.8 0
v -116 -128.8 0
v -116 -128 0
v -115.2 -128 0
v -114.4 -128.8 0
v -115.2 -128.8 0
v -115.2 -128 0
v -114.4 -128 0
v -113.6 -128.8 0
v -114.4 -128.8 0
v -114.4 -128 0
v -113.6 -128 0
v -119.2 -128 0
v -120 -128 0
v -120 -127.2 0
v -119.2 -127.2 0
v -118.4 -128 0
v -119.2 -128 0
v -119.2 -127.2 0
v -118.4 -127.2 0
v -117.6 -128 0
v -118.4 -128 0
v -118.4 -127.2 0
v -117.6 -127.2 0
v -116 -128 0
v -116.8 -128 0
v -116.8 -127.2 0
v -116 -127.2 0
v -115.2 -128 0
v -116 -128 0
v -116 -127.2 0
v -115.2 -127.2 0
v -114.4 -128 0
v -115.2 -128 0
v -115.2 -127.2 0
v -114.4 -127.2 0
v -113.6 -128 0
v -114.4 -128 0
v -114.4 -127.2 0
v -113.6 -127.2 0
v -119.2 -127.2 0
v -120 -127.2 0
v -120 -126.4 0
v -119.2 -126.4 0
v -118.4 -127.2 0
v -119.2 -127.2 0
v -119.2 -126.4 0
v -118.4 -126.4 0
v -117.6 -127.2 0
v -118.4 -127.2 0
v -118.4 -126.4 0
v -117.6 -126.4 0
v -116.8 -127.2 0
v -117.6 -127.2 0
v -117.6 -126.4 0
v -116.8 -126.4 0
v -116 -127.2 0
v -116.8 -127.2 0
v -116.8 -126.4 0
v -116 -126.4 0
v -115.2 -127.2 0
v -116 -127.2 0
v -116 -126.4 0
v -115.2 -126.4 0
v -114.4 -127.2 0
v -115.2 -127.2 0
v -115.2 -126.4 0
v -114.4 -126.4 0
v -113.6 -127.2 0
v -114.4 -127.2 0
v -114.4 -126.4 0
v -113.6 -126.4 0
v -119.2 -126.4 0
v -120 -126.4 0
v -120 -125.6 0
v -119.2 -125.6 0
v -118.4 -126.4 0
v -119.2 -126.4 0
v -119.2 -125.6 0
v -118.4 -125.6 0
v -117.6 -126.4 0
v -118.4 -126.4 0
v -118.4 -125.6 0
v -117.6 -125.6 0
v -116.8 -126.4 0
v -117.6 -126.4 0
v -117.6 -125.6 0
v -116.8 -125.6 0
v -116 -126.4 0
v -116.8 -126.4 0
v -116.8 -125.6 0
v -116 -125.6 0
v -115.2 -126.4 0
v -116 -126.4 0
v -116 -125.6 0
v -115.2 -125.6 0
v -114.4 -126.4 0
v -115.2 -126.4 0
v -115.2 -125.6 0
v -114.4 -125.6 0
v -113.6 -126.4 0
v -114.4 -126.4 0
v -114.4 -125.6 0
v -113.6 -125.6 0
v -119.2 -125.6 0
v -120 -125.6 0
v -120 -124.8 0
v -119.2 -124.8 0
v -118.4 -125.6 0
v -119.2 -125.6 0
v -119.2 -124.8 0
v -118.4 -124.8 0
v -117.6 -125.6 0
v -118.4 -125.6 0
v -118.4 -124.8 0
v -117.6 -124.8 0
v -116.8 -125.6 0
v -117.6 -125.6 0
v -117.6 -124.8 0
v -116.8 -124.8 0
v -116 -125.6 0
v -116.8 -125.6 0
v -116.8 -124.8 0
v -116 -124.8 0
v -115.2 -125.6 0
v -116 -125.6 0
v -116 -124.8 0
v -115.2 -124.8 0
v -114.4 -125.6 0
v -115.2 -125.6 0
v -115.2 -124.8 0
v -114.4 -124.8 0
v -113.6 -125.6 0
v -114.4 -125.6 0
v -114.4 -124.8 0
v -113.6 -124.8 0
v -119.2 -124.8 0
v -120 -124.8 0
v -120 -124 0
v -119.2 -124 0
v -118.4 -124.8 0
v -119.2 -124.8 0
v -119.2 -124 0
v -118.4 -124 0
v -117.6 -124.8 0
v -118.4 -124.8 0
v -118.4 -124 0
v -117.6 -124 0
v -116.8 -124.8 0
v -117.6 -124.8 0
v -117.6 -124 0
v -116.8 -124 0
v -116 -124.8 0
v -116.8 -124.8 0
v -116.8 -124 0
v -116 -124 0
v -115.2 -124.8 0
v -116 -124.8 0
v -116 -124 0
v -115.2 -124 0
v -114.4 -124.8 0
v -115.2 -124.8 0
v -115.2 -124 0
v -114.4 -124 0
v -113.6 -124.8 0
v -114.4 -124.8 0
v -114.4 -124 0
v -113.6 -124 0
v -119.2 -124 0
v -120 -124 0
v -120 -123.2 0
v -119.2 -123.2 0
v -118.4 -124 0
v -119.2 -124 0
v -119.2 -123.2 0
v -118.4 -123.2 0
v -117.6 -124 0
v -118.4 -124 0
v -118.4 -123.2 0
v -117.6 -123.2 0
v -116.8 -124 0
v -117.6 -124 0
v -117.6 -123.2 0
v -116.8 -123.2 0
v -116 -124 0
v -116.8 -124 0
v -116.8 -123.2 0
v -116 -123.2 0
v -115.2 -124 0
v -116 -124 0
v -116 -123.2 0
v -115.2 -123.2 0
v -114.4 -124 0
v -115.2 -124 0
v -115.2 -123.2 0
v -114.4 -123.2 0
v -113.6 -124 0
v -114.4 -124 0
v -114.4 -123.2 0
v -113.6 -123.2 0
v -113.6 -123.2 0
v -114.4 -123.2 0
v -114.4 -122.4 0
v -113.6 -122.4 0
v -115.2 -99.2 0
v -116 -99.2 0
v -116 -98.4 0
v -115.2 -98.4 0
v -113.6 -99.2 0
v -114.4 -99.2 0
v -114.4 -98.4 0
v -113.6 -98.4 0
v -115.2 -98.4 0
v -116 -98.4 0
v -116 -97.6 0
v -115.2 -97.6 0
v -113.6 -98.4 0
v -114.4 -98.4 0
v -114.4 -97.6 0
v -113.6 -97.6 0
v -121.6 -97.6 0
v -122.4 -97.6 0
v -122.4 -96.8 0
v -121.6 -96.8 0
v -116.8 -97.6 0
v -117.6 -97.6 0
v -117.6 -96.8 0
v -116.8 -96.8 0
v -115.2 -97.6 0
v -116 -97.6 0
v -116 -96.8 0
v -115.2 -96.8 0
v -113.6 -97.6 0
v -114.4 -97.6 0
v -114.4 -96.8 0
v -113.6 -96.8 0
v -109.6 -97.6 0
v -110.4 -97.6 0
v -110.4 -96.8 0
v -109.6 -96.8 0
v -62.4 -97.6 0
v -63.2 -97.6 0
v -63.2 -96.8 0
v -62.4 -96.8 0
v -61.6 -97.6 0
v -62.4 -97.6 0
v -62.4 -96.8 0
v -61.6 -96.8 0
v -60.8 -97.6 0
v -61.6 -97.6 0
v -61.6 -96.8 0
v -60.8 -96.8 0
v -60 -97.6 0
v -60.8 -97.6 0
v -60.8 -96.8 0
v -60 -96.8 0
v -59.2 -97.6 0
v -60 -97.6 0
v -60 -96.8 0
v -59.2 -96.8 0
v -58.4 -97.6 0
v -59.2 -97.6 0
v -59.2 -96.8 0
v -58.4 -96.8 0
v -57.6 -97.6 0
v -58.4 -97.6 0
v -58.4 -96.8 0
v -57.6 -96.8 0
v -56.8 -97.6 0
v -57.6 -97.6 0
v -57.6 -96.8 0
v -56.8 -96.8 0
v -121.6 -96.8 0
v -122.4 -96.8 0
v -122.4 -96 0
v -121.6 -96 0
v -116.8 -96.8 0
v -117.6 -96.8 0
v -117.6 -96 0
v -116.8 -96 0
v -115.2 -96.8 0
v -116 -96.8 0
v -116 -96 0
v -115.2 -96 0
v -113.6 -96.8 0
v -114.4 -96.8 0
v -114.4 -96 0
v -113.6 -96 0
v -109.6 -96.8 0
v -110.4 -96.8 0
v -110.4 -96 0
v -109.6 -96 0
v -36 -96.8 0
v -36.8 -96.8 0
v -36.8 -96 0
v -36 -96 0
v -35.2 -96.8 0
v -36 -96.8 0
v -36 -96 0
v -35.2 -96 0
v -115.2 -96 0
v -116 -96 0
v -116 -95.2 0
v -115.2 -95.2 0
v -114.4 -96 0
v -115.2 -96 0
v -115.2 -95.2 0
v -114.4 -95.2 0
v -113.6 -96 0
v -114.4 -96 0
v -114.4 -95.2 0
v -113.6 -95.2 0
v -47.2 -96 0
v -48 -96 0
v -48 -95.2 0
v -47.2 -95.2 0
v -43.2 -96 0
v -44 -96 0
v -44 -95.2 0
v -43.2 -95.2 0
v -39.2 -96 0
v -40 -96 0
v -40 -95.2 0
v -39.2 -95.2 0
v -36 -96 0
v -36.8 -96 0
v -36.8 -95.2 0
v -36 -95.2 0
v -35.2 -96 0
v -36 -96 0
v -36 -95.2 0
v -35.2 -95.2 0
v -33.6 -96 0
v -34.4 -96 0
v -34.4 -95.2 0
v -33.6 -95.2 0
v -30.4 -96 0
v -31.2 -96 0
v -31.2 -95.2 0
v -30.4 -95.2 0
v -47.2 -95.2 0
v -48 -95.2 0
v -48 -94.4 0
v -47.2 -94.4 0
v -43.2 -95.2 0
v -44 -95.2 0
v -44 -94.4 0
v -43.2 -94.4 0
v -39.2 -95.2 0
v -40 -95.2 0
v -40 -94.4 0
v -39.2 -94.4 0
v -36 -95.2 0
v -36.8 -95.2 0
v -36.8 -94.4 0
v -36 -94.4 0
v -35.2 -95.2 0
v -36 -95.2 0
v -36 -94.4 0
v -35.2 -94.4 0
v -33.6 -95.2 0
v -34.4 -95.2 0
v -34.4 -94.4 0
v -33.6 -94.4 0
v -30.4 -95.2 0
v -31.2 -95.2 0
v -31.2 -94.4 0
v -30.4 -94.4 0
v -47.2 -94.4 0
v -48 -94.4 0
v -48 -93.6 0
v -47.2 -93.6 0
v -43.2 -94.4 0
v -44 -94.4 0
v -44 -93.6 0
v -43.2 -93.6 0
v -39.2 -94.4 0
v -40 -94.4 0
v -40 -93.6 0
v -39.2 -93.6 0
v -36 -94.4 0
v -36.8 -94.4 0
v -36.8 -93.6 0
v -36 -93.6 0
v -35.2 -94.4 0
v -36 -94.4 0
v -36 -93.6 0
v -35.2 -93.6 0
v -33.6 -94.4 0
v -34.4 -94.4 0
v -34.4 -93.6 0
v -33.6 -93.6 0
v -30.4 -94.4 0
v -31.2 -94.4 0
v -31.2 -93.6 0
v -30.4 -93.6 0
v -121.6 -92.8 0
v -122.4 -92.8 0
v -122.4 -92 0
v -121.6 -92 0
v -116.8 -92.8 0
v -117.6 -92.8 0
v -117.6 -92 0
v -116.8 -92 0
v -109.6 -92.8 0
v -110.4 -92.8 0
v -110.4 -92 0
v -109.6 -92 0
v -121.6 -92 0
v -122.4 -92 0
v -122.4 -91.2 0
v -121.6 -91.2 0
v -116.8 -92 0
v -117.6 -92 0
v -117.6 -91.2 0
v -116.8 -91.2 0
v -109.6 -92 0
v -110.4 -92 0
v -110.4 -91.2 0
v -109.6 -91.2 0
v -63.2 -92 0
v -64 -92 0
v -64 -91.2 0
v -63.2 -91.2 0
v -62.4 -92 0
v -63.2 -92 0
v -63.2 -91.2 0
v -62.4 -91.2 0
v -61.6 -92 0
v -62.4 -92 0
v -62.4 -91.2 0
v -61.6 -91.2 0
v -60.8 -92 0
v -61.6 -92 0
v -61.6 -91.2 0
v -60.8 -91.2 0
v -60 -92 0
v -60.8 -92 0
v -60.8 -91.2 0
v -60 -91.2 0
v -59.2 -92 0
v -60 -92 0
v -60 -91.2 0
v -59.2 -91.2 0
v -58.4 -92 0
v -59.2 -92 0
v -59.2 -91.2 0
v -58.4 -91.2 0
v -57.6 -92 0
v -58.4 -92 0
v -58.4 -91.2 0
v -57.6 -91.2 0
v -56.8 -92 0
v -57.6 -92 0
v -57.6 -91.2 0
v -56.8 -91.2 0
v -56 -92 0
v -56.8 -92 0
v -56.8 -91.2 0
v -56 -91.2 0
v -47.2 -91.2 0
v -48 -91.2 0
v -48 -90.4 0
v -47.2 -90.4 0
v -43.2 -91.2 0
v -44 -91.2 0
v -44 -90.4 0
v -43.2 -90.4 0
v -39.2 -91.2 0
v -40 -91.2 0
v -40 -90.4 0
v -39.2 -90.4 0
v -33.6 -91.2 0
v -34.4 -91.2 0
v -34.4 -90.4 0
v -33.6 -90.4 0
v -30.4 -91.2 0
v -31.2 -91.2 0
v -31.2 -90.4 0
v -30.4 -90.4 0
v -47.2 -90.4 0
v -48 -90.4 0
v -48 -89.6 0
v -47.2 -89.6 0
v -43.2 -90.4 0
v -44 -90.4 0
v -44 -89.6 0
v -43.2 -89.6 0
v -39.2 -90.4 0
v -40 -90.4 0
v -40 -89.6 0
v -39.2 -89.6 0
v -33.6 -90.4 0
v -34.4 -90.4 0
v -34.4 -89.6 0
v -33.6 -89.6 0
v -30.4 -90.4 0
v -31.2 -90.4 0
v -31.2 -89.6 0
v -30.4 -89.6 0
v -47.2 -89.6 0
v -48 -89.6 0
v -48 -88.8 0
v -47.2 -88.8 0
v -43.2 -89.6 0
v -44 -89.6 0
v -44 -88.8 0
v -43.2 -88.8 0
v -39.2 -89.6 0
v -40 -89.6 0
v -40 -88.8 0
v -39.2 -88.8 0
v -33.6 -89.6 0
v -34.4 -89.6 0
v -34.4 -88.8 0
v -33.6 -88.8 0
v -30.4 -89.6 0
v -31.2 -89.6 0
v -31.2 -88.8 0
v -30.4 -88.8 0

# Texture cooridinates (Count = 89)
vt 0.90625 0.09375
vt 0.9375 0.09375
vt 0.9375 0.125
vt 0.90625 0.125
vt 0.59375 0.125
vt 0.625 0.125
vt 0.625 0.15625
vt 0.59375 0.15625
vt 0.9375 0.15625
vt 0.90625 0.15625
vt 0.9375 0.1875
vt 0.90625 0.1875
vt 0.875 0.15625
vt 0.875 0.1875
vt 0.9375 0.21875
vt 0.90625 0.21875
vt 0.875 0.21875
vt 0.84375 0.1875
vt 0.84375 0.21875
vt 0.9375 0.25
vt 0.90625 0.25
vt 0.84375 0.15625
vt 0.6875 0.21875
vt 0.71875 0.21875
vt 0.71875 0.25
vt 0.6875 0.25
vt 0.625 0.09375
vt 0.59375 0.09375
vt 0.65625 0.65625
vt 0.6875 0.65625
vt 0.6875 0.6875
vt 0.65625 0.6875
vt 0.59375 0.65625
vt 0.625 0.65625
vt 0.625 0.6875
vt 0.59375 0.6875
vt 0.6875 0.71875
vt 0.65625 0.71875
vt 0.625 0.71875
vt 0.59375 0.71875
vt 0.0625 0.9375
vt 0.09375 0.9375
vt 0.09375 0.96875
vt 0.0625 0.96875
vt 0.125 0.9375
vt 0.125 0.96875
vt 0.5625 0.375
vt 0.59375 0.375
vt 0.59375 0.40625
vt 0.5625 0.40625
vt 0.09375 1
vt 0.0625 1
vt 0.125 1
vt 0.78125 0.03125
vt 0.8125 0.03125
vt 0.8125 0.0625
vt 0.78125 0.0625
vt 0.75 0.03125
vt 0.75 0.0625
vt 0.6875 0.75
vt 0.65625 0.75
vt 0.625 0.75
vt 0.59375 0.75
vt 0.25 0.65625
vt 0.28125 0.65625
vt 0.28125 0.6875
vt 0.25 0.6875
vt 0.8125 0.09375
vt 0.78125 0.09375
vt 0.75 0.09375
vt 0.21875 0.6875
vt 0.25 0.71875
vt 0.21875 0.71875
vt 0.28125 0.71875
vt 0.8125 0.125
vt 0.78125 0.125
vt 0.75 0.125
vt 0.34375 0.71875
vt 0.3125 0.71875
vt 0.3125 0.75
vt 0.34375 0.75
vt 0.375 0.71875
vt 0.375 0.75
vt 0.4375 0.75
vt 0.46875 0.75
vt 0.46875 0.78125
vt 0.4375 0.78125
vt 0.40625 0.75
vt 0.40625 0.78125

# Normal
vn 0 0 -1

# Mesh description
g Map2_mesh_0008

# Faces
f 1/1/1 2/2/1 3/3/1 4/4/1
f 5/2/1 6/1/1 7/4/1 8/3/1
f 9/5/1 10/6/1 11/7/1 12/8/1
f 13/4/1 14/3/1 15/9/1 16/10/1
f 17/3/1 18/4/1 19/10/1 20/9/1
f 21/5/1 22/6/1 23/7/1 24/8/1
f 25/4/1 26/3/1 27/9/1 28/10/1
f 29/3/1 30/4/1 31/10/1 32/9/1
f 33/5/1 34/6/1 35/7/1 36/8/1
f 37/4/1 38/3/1 39/9/1 40/10/1
f 41/3/1 42/4/1 43/10/1 44/9/1
f 45/5/1 46/6/1 47/7/1 48/8/1
f 49/4/1 50/3/1 51/9/1 52/10/1
f 53/3/1 54/4/1 55/10/1 56/9/1
f 57/5/1 58/6/1 59/7/1 60/8/1
f 61/4/1 62/3/1 63/9/1 64/10/1
f 65/3/1 66/4/1 67/10/1 68/9/1
f 69/5/1 70/6/1 71/7/1 72/8/1
f 73/10/1 74/9/1 75/11/1 76/12/1
f 77/13/1 78/10/1 79/12/1 80/14/1
f 81/10/1 82/13/1 83/14/1 84/12/1
f 85/9/1 86/10/1 87/12/1 88/11/1
f 89/5/1 90/6/1 91/7/1 92/8/1
f 93/12/1 94/11/1 95/15/1 96/16/1
f 97/14/1 98/12/1 99/16/1 100/17/1
f 101/18/1 102/14/1 103/17/1 104/19/1
f 105/14/1 106/18/1 107/19/1 108/17/1
f 109/12/1 110/14/1 111/17/1 112/16/1
f 113/11/1 114/12/1 115/16/1 116/15/1
f 117/5/1 118/6/1 119/7/1 120/8/1
f 121/16/1 122/15/1 123/20/1 124/21/1
f 125/22/1 126/13/1 127/14/1 128/18/1
f 129/22/1 130/13/1 131/14/1 132/18/1
f 133/22/1 134/13/1 135/14/1 136/18/1
f 137/22/1 138/13/1 139/14/1 140/18/1
f 141/22/1 142/13/1 143/14/1 144/18/1
f 145/15/1 146/16/1 147/21/1 148/20/1
f 149/5/1 150/6/1 151/7/1 152/8/1
f 153/16/1 154/15/1 155/20/1 156/21/1
f 157/23/1 158/24/1 159/25/1 160/26/1
f 161/23/1 162/24/1 163/25/1 164/26/1
f 165/23/1 166/24/1 167/25/1 168/26/1
f 169/23/1 170/24/1 171/25/1 172/26/1
f 173/23/1 174/24/1 175/25/1 176/26/1
f 177/15/1 178/16/1 179/21/1 180/20/1
f 181/5/1 182/6/1 183/7/1 184/8/1
f 185/16/1 186/15/1 187/20/1 188/21/1
f 189/22/1 190/13/1 191/14/1 192/18/1
f 193/22/1 194/13/1 195/14/1 196/18/1
f 197/22/1 198/13/1 199/14/1 200/18/1
f 201/22/1 202/13/1 203/14/1 204/18/1
f 205/22/1 206/13/1 207/14/1 208/18/1
f 209/15/1 210/16/1 211/21/1 212/20/1
f 213/5/1 214/6/1 215/7/1 216/8/1
f 217/16/1 218/15/1 219/20/1 220/21/1
f 221/23/1 222/24/1 223/25/1 224/26/1
f 225/23/1 226/24/1 227/25/1 228/26/1
f 229/23/1 230/24/1 231/25/1 232/26/1
f 233/23/1 234/24/1 235/25/1 236/26/1
f 237/23/1 238/24/1 239/25/1 240/26/1
f 241/15/1 242/16/1 243/21/1 244/20/1
f 245/5/1 246/6/1 247/7/1 248/8/1
f 249/16/1 250/15/1 251/20/1 252/21/1
f 253/22/1 254/13/1 255/14/1 256/18/1
f 257/22/1 258/13/1 259/14/1 260/18/1
f 261/22/1 262/13/1 263/14/1 264/18/1
f 265/22/1 266/13/1 267/14/1 268/18/1
f 269/22/1 270/13/1 271/14/1 272/18/1
f 273/15/1 274/16/1 275/21/1 276/20/1
f 277/5/1 278/6/1 279/7/1 280/8/1
f 281/5/1 282/6/1 283/27/1 284/28/1
f 285/29/1 286/30/1 287/31/1 288/32/1
f 289/33/1 290/34/1 291/35/1 292/36/1
f 293/32/1 294/31/1 295/37/1 296/38/1
f 297/36/1 298/35/1 299/39/1 300/40/1
f 301/41/1 302/42/1 303/43/1 304/44/1
f 305/41/1 306/42/1 307/43/1 308/44/1
f 309/32/1 310/31/1 311/37/1 312/38/1
f 313/37/1 314/38/1 315/32/1 316/31/1
f 317/42/1 318/45/1 319/46/1 320/43/1
f 321/47/1 322/48/1 323/49/1 324/50/1
f 325/47/1 326/48/1 327/49/1 328/50/1
f 329/47/1 330/48/1 331/49/1 332/50/1
f 333/47/1 334/48/1 335/49/1 336/50/1
f 337/47/1 338/48/1 339/49/1 340/50/1
f 341/47/1 342/48/1 343/49/1 344/50/1
f 345/47/1 346/48/1 347/49/1 348/50/1
f 349/47/1 350/48/1 351/49/1 352/50/1
f 353/44/1 354/43/1 355/51/1 356/52/1
f 357/44/1 358/43/1 359/51/1 360/52/1
f 361/32/1 362/31/1 363/37/1 364/38/1
f 365/31/1 366/32/1 367/38/1 368/37/1
f 369/43/1 370/46/1 371/53/1 372/51/1
f 373/54/1 374/55/1 375/56/1 376/57/1
f 377/58/1 378/54/1 379/57/1 380/59/1
f 381/38/1 382/37/1 383/60/1 384/61/1
f 385/39/1 386/38/1 387/61/1 388/62/1
f 389/40/1 390/39/1 391/62/1 392/63/1
f 393/64/1 394/65/1 395/66/1 396/67/1
f 397/64/1 398/65/1 399/66/1 400/67/1
f 401/64/1 402/65/1 403/66/1 404/67/1
f 405/57/1 406/56/1 407/68/1 408/69/1
f 409/59/1 410/57/1 411/69/1 412/70/1
f 413/64/1 414/65/1 415/66/1 416/67/1
f 417/64/1 418/65/1 419/66/1 420/67/1
f 421/71/1 422/67/1 423/72/1 424/73/1
f 425/71/1 426/67/1 427/72/1 428/73/1
f 429/71/1 430/67/1 431/72/1 432/73/1
f 433/57/1 434/56/1 435/68/1 436/69/1
f 437/59/1 438/57/1 439/69/1 440/70/1
f 441/71/1 442/67/1 443/72/1 444/73/1
f 445/71/1 446/67/1 447/72/1 448/73/1
f 449/67/1 450/66/1 451/74/1 452/72/1
f 453/67/1 454/66/1 455/74/1 456/72/1
f 457/67/1 458/66/1 459/74/1 460/72/1
f 461/69/1 462/68/1 463/75/1 464/76/1
f 465/70/1 466/69/1 467/76/1 468/77/1
f 469/67/1 470/66/1 471/74/1 472/72/1
f 473/67/1 474/66/1 475/74/1 476/72/1
f 477/41/1 478/42/1 479/43/1 480/44/1
f 481/42/1 482/45/1 483/46/1 484/43/1
f 485/41/1 486/42/1 487/43/1 488/44/1
f 489/44/1 490/43/1 491/51/1 492/52/1
f 493/43/1 494/46/1 495/53/1 496/51/1
f 497/44/1 498/43/1 499/51/1 500/52/1
f 501/78/1 502/79/1 503/80/1 504/81/1
f 505/82/1 506/78/1 507/81/1 508/83/1
f 509/84/1 510/85/1 511/86/1 512/87/1
f 513/88/1 514/84/1 515/87/1 516/89/1
f 517/88/1 518/84/1 519/87/1 520/89/1
f 521/88/1 522/84/1 523/87/1 524/89/1
f 525/88/1 526/84/1 527/87/1 528/89/1
f 529/85/1 530/84/1 531/87/1 532/86/1
f 533/78/1 534/82/1 535/83/1 536/81/1
f 537/79/1 538/78/1 539/81/1 540/80/1
f 541/64/1 542/65/1 543/66/1 544/67/1
f 545/64/1 546/65/1 547/66/1 548/67/1
f 549/64/1 550/65/1 551/66/1 552/67/1
f 553/64/1 554/65/1 555/66/1 556/67/1
f 557/64/1 558/65/1 559/66/1 560/67/1
f 561/71/1 562/67/1 563/72/1 564/73/1
f 565/71/1 566/67/1 567/72/1 568/73/1
f 569/71/1 570/67/1 571/72/1 572/73/1
f 573/71/1 574/67/1 575/72/1 576/73/1
f 577/71/1 578/67/1 579/72/1 580/73/1
f 581/67/1 582/66/1 583/74/1 584/72/1
f 585/67/1 586/66/1 587/74/1 588/72/1
f 589/67/1 590/66/1 591/74/1 592/72/1
f 593/67/1 594/66/1 595/74/1 596/72/1
f 597/67/1 598/66/1 599/74/1 600/72/1

