# Tiled2Unity generated file. Do not modify by hand.
# Wavefront file for 'Map2_mesh_0008.obj'

# Vertices (Count = 32)
v -62.4 -97.6 0
v -63.2 -97.6 0
v -63.2 -96.8 0
v -62.4 -96.8 0
v -61.6 -97.6 0
v -62.4 -97.6 0
v -62.4 -96.8 0
v -61.6 -96.8 0
v -60.8 -97.6 0
v -61.6 -97.6 0
v -61.6 -96.8 0
v -60.8 -96.8 0
v -60 -97.6 0
v -60.8 -97.6 0
v -60.8 -96.8 0
v -60 -96.8 0
v -59.2 -97.6 0
v -60 -97.6 0
v -60 -96.8 0
v -59.2 -96.8 0
v -58.4 -97.6 0
v -59.2 -97.6 0
v -59.2 -96.8 0
v -58.4 -96.8 0
v -57.6 -97.6 0
v -58.4 -97.6 0
v -58.4 -96.8 0
v -57.6 -96.8 0
v -56.8 -97.6 0
v -57.6 -97.6 0
v -57.6 -96.8 0
v -56.8 -96.8 0

# Texture cooridinates (Count = 4)
vt 0.8181818 0.3333333
vt 0.9090909 0.3333333
vt 0.9090909 0.4166667
vt 0.8181818 0.4166667

# Normal
vn 0 0 -1

# Mesh description
g Map2_mesh_0008

# Faces
f 1/1/1 2/2/1 3/3/1 4/4/1
f 5/1/1 6/2/1 7/3/1 8/4/1
f 9/1/1 10/2/1 11/3/1 12/4/1
f 13/1/1 14/2/1 15/3/1 16/4/1
f 17/1/1 18/2/1 19/3/1 20/4/1
f 21/1/1 22/2/1 23/3/1 24/4/1
f 25/1/1 26/2/1 27/3/1 28/4/1
f 29/1/1 30/2/1 31/3/1 32/4/1

