# Tiled2Unity generated file. Do not modify by hand.
# Wavefront file for 'Map2_mesh_0019.obj'

# Vertices (Count = 828)
v -158.4 -99.2 0
v -159.2 -99.2 0
v -159.2 -98.4 0
v -158.4 -98.4 0
v -156.8 -99.2 0
v -157.6 -99.2 0
v -157.6 -98.4 0
v -156.8 -98.4 0
v -156 -99.2 0
v -156.8 -99.2 0
v -156.8 -98.4 0
v -156 -98.4 0
v -155.2 -99.2 0
v -156 -99.2 0
v -156 -98.4 0
v -155.2 -98.4 0
v -154.4 -99.2 0
v -155.2 -99.2 0
v -155.2 -98.4 0
v -154.4 -98.4 0
v -153.6 -99.2 0
v -154.4 -99.2 0
v -154.4 -98.4 0
v -153.6 -98.4 0
v -152.8 -99.2 0
v -153.6 -99.2 0
v -153.6 -98.4 0
v -152.8 -98.4 0
v -152 -99.2 0
v -152.8 -99.2 0
v -152.8 -98.4 0
v -152 -98.4 0
v -151.2 -99.2 0
v -152 -99.2 0
v -152 -98.4 0
v -151.2 -98.4 0
v -150.4 -99.2 0
v -151.2 -99.2 0
v -151.2 -98.4 0
v -150.4 -98.4 0
v -149.6 -99.2 0
v -150.4 -99.2 0
v -150.4 -98.4 0
v -149.6 -98.4 0
v -148.8 -99.2 0
v -149.6 -99.2 0
v -149.6 -98.4 0
v -148.8 -98.4 0
v -148 -99.2 0
v -148.8 -99.2 0
v -148.8 -98.4 0
v -148 -98.4 0
v -147.2 -99.2 0
v -148 -99.2 0
v -148 -98.4 0
v -147.2 -98.4 0
v -146.4 -99.2 0
v -147.2 -99.2 0
v -147.2 -98.4 0
v -146.4 -98.4 0
v -143.2 -99.2 0
v -144 -99.2 0
v -144 -98.4 0
v -143.2 -98.4 0
v -142.4 -99.2 0
v -143.2 -99.2 0
v -143.2 -98.4 0
v -142.4 -98.4 0
v -141.6 -99.2 0
v -142.4 -99.2 0
v -142.4 -98.4 0
v -141.6 -98.4 0
v -140.8 -99.2 0
v -141.6 -99.2 0
v -141.6 -98.4 0
v -140.8 -98.4 0
v -140 -99.2 0
v -140.8 -99.2 0
v -140.8 -98.4 0
v -140 -98.4 0
v -139.2 -99.2 0
v -140 -99.2 0
v -140 -98.4 0
v -139.2 -98.4 0
v -138.4 -99.2 0
v -139.2 -99.2 0
v -139.2 -98.4 0
v -138.4 -98.4 0
v -137.6 -99.2 0
v -138.4 -99.2 0
v -138.4 -98.4 0
v -137.6 -98.4 0
v -135.2 -99.2 0
v -136 -99.2 0
v -136 -98.4 0
v -135.2 -98.4 0
v -134.4 -99.2 0
v -135.2 -99.2 0
v -135.2 -98.4 0
v -134.4 -98.4 0
v -133.6 -99.2 0
v -134.4 -99.2 0
v -134.4 -98.4 0
v -133.6 -98.4 0
v -132.8 -99.2 0
v -133.6 -99.2 0
v -133.6 -98.4 0
v -132.8 -98.4 0
v -132 -99.2 0
v -132.8 -99.2 0
v -132.8 -98.4 0
v -132 -98.4 0
v -131.2 -99.2 0
v -132 -99.2 0
v -132 -98.4 0
v -131.2 -98.4 0
v -158.4 -98.4 0
v -159.2 -98.4 0
v -159.2 -97.6 0
v -158.4 -97.6 0
v -157.6 -98.4 0
v -158.4 -98.4 0
v -158.4 -97.6 0
v -157.6 -97.6 0
v -156.8 -98.4 0
v -157.6 -98.4 0
v -157.6 -97.6 0
v -156.8 -97.6 0
v -156 -98.4 0
v -156.8 -98.4 0
v -156.8 -97.6 0
v -156 -97.6 0
v -155.2 -98.4 0
v -156 -98.4 0
v -156 -97.6 0
v -155.2 -97.6 0
v -154.4 -98.4 0
v -155.2 -98.4 0
v -155.2 -97.6 0
v -154.4 -97.6 0
v -153.6 -98.4 0
v -154.4 -98.4 0
v -154.4 -97.6 0
v -153.6 -97.6 0
v -152.8 -98.4 0
v -153.6 -98.4 0
v -153.6 -97.6 0
v -152.8 -97.6 0
v -152 -98.4 0
v -152.8 -98.4 0
v -152.8 -97.6 0
v -152 -97.6 0
v -151.2 -98.4 0
v -152 -98.4 0
v -152 -97.6 0
v -151.2 -97.6 0
v -150.4 -98.4 0
v -151.2 -98.4 0
v -151.2 -97.6 0
v -150.4 -97.6 0
v -149.6 -98.4 0
v -150.4 -98.4 0
v -150.4 -97.6 0
v -149.6 -97.6 0
v -148.8 -98.4 0
v -149.6 -98.4 0
v -149.6 -97.6 0
v -148.8 -97.6 0
v -148 -98.4 0
v -148.8 -98.4 0
v -148.8 -97.6 0
v -148 -97.6 0
v -147.2 -98.4 0
v -148 -98.4 0
v -148 -97.6 0
v -147.2 -97.6 0
v -146.4 -98.4 0
v -147.2 -98.4 0
v -147.2 -97.6 0
v -146.4 -97.6 0
v -145.6 -98.4 0
v -146.4 -98.4 0
v -146.4 -97.6 0
v -145.6 -97.6 0
v -144.8 -98.4 0
v -145.6 -98.4 0
v -145.6 -97.6 0
v -144.8 -97.6 0
v -144 -98.4 0
v -144.8 -98.4 0
v -144.8 -97.6 0
v -144 -97.6 0
v -143.2 -98.4 0
v -144 -98.4 0
v -144 -97.6 0
v -143.2 -97.6 0
v -142.4 -98.4 0
v -143.2 -98.4 0
v -143.2 -97.6 0
v -142.4 -97.6 0
v -141.6 -98.4 0
v -142.4 -98.4 0
v -142.4 -97.6 0
v -141.6 -97.6 0
v -140.8 -98.4 0
v -141.6 -98.4 0
v -141.6 -97.6 0
v -140.8 -97.6 0
v -140 -98.4 0
v -140.8 -98.4 0
v -140.8 -97.6 0
v -140 -97.6 0
v -139.2 -98.4 0
v -140 -98.4 0
v -140 -97.6 0
v -139.2 -97.6 0
v -138.4 -98.4 0
v -139.2 -98.4 0
v -139.2 -97.6 0
v -138.4 -97.6 0
v -137.6 -98.4 0
v -138.4 -98.4 0
v -138.4 -97.6 0
v -137.6 -97.6 0
v -136.8 -98.4 0
v -137.6 -98.4 0
v -137.6 -97.6 0
v -136.8 -97.6 0
v -136 -98.4 0
v -136.8 -98.4 0
v -136.8 -97.6 0
v -136 -97.6 0
v -135.2 -98.4 0
v -136 -98.4 0
v -136 -97.6 0
v -135.2 -97.6 0
v -134.4 -98.4 0
v -135.2 -98.4 0
v -135.2 -97.6 0
v -134.4 -97.6 0
v -133.6 -98.4 0
v -134.4 -98.4 0
v -134.4 -97.6 0
v -133.6 -97.6 0
v -132.8 -98.4 0
v -133.6 -98.4 0
v -133.6 -97.6 0
v -132.8 -97.6 0
v -132 -98.4 0
v -132.8 -98.4 0
v -132.8 -97.6 0
v -132 -97.6 0
v -131.2 -98.4 0
v -132 -98.4 0
v -132 -97.6 0
v -131.2 -97.6 0
v -76 -96.8 0
v -76.8 -96.8 0
v -76.8 -96 0
v -76 -96 0
v -71.2 -96.8 0
v -72 -96.8 0
v -72 -96 0
v -71.2 -96 0
v -66.4 -96.8 0
v -67.2 -96.8 0
v -67.2 -96 0
v -66.4 -96 0
v -229.6 -96 0
v -230.4 -96 0
v -230.4 -95.2 0
v -229.6 -95.2 0
v -221.6 -96 0
v -222.4 -96 0
v -222.4 -95.2 0
v -221.6 -95.2 0
v -76 -96 0
v -76.8 -96 0
v -76.8 -95.2 0
v -76 -95.2 0
v -71.2 -96 0
v -72 -96 0
v -72 -95.2 0
v -71.2 -95.2 0
v -66.4 -96 0
v -67.2 -96 0
v -67.2 -95.2 0
v -66.4 -95.2 0
v -229.6 -95.2 0
v -230.4 -95.2 0
v -230.4 -94.4 0
v -229.6 -94.4 0
v -221.6 -95.2 0
v -222.4 -95.2 0
v -222.4 -94.4 0
v -221.6 -94.4 0
v -76 -95.2 0
v -76.8 -95.2 0
v -76.8 -94.4 0
v -76 -94.4 0
v -71.2 -95.2 0
v -72 -95.2 0
v -72 -94.4 0
v -71.2 -94.4 0
v -66.4 -95.2 0
v -67.2 -95.2 0
v -67.2 -94.4 0
v -66.4 -94.4 0
v -229.6 -94.4 0
v -230.4 -94.4 0
v -230.4 -93.6 0
v -229.6 -93.6 0
v -221.6 -94.4 0
v -222.4 -94.4 0
v -222.4 -93.6 0
v -221.6 -93.6 0
v -76 -94.4 0
v -76.8 -94.4 0
v -76.8 -93.6 0
v -76 -93.6 0
v -71.2 -94.4 0
v -72 -94.4 0
v -72 -93.6 0
v -71.2 -93.6 0
v -66.4 -94.4 0
v -67.2 -94.4 0
v -67.2 -93.6 0
v -66.4 -93.6 0
v -418.4 -93.6 0
v -419.2 -93.6 0
v -419.2 -92.8 0
v -418.4 -92.8 0
v -412 -93.6 0
v -412.8 -93.6 0
v -412.8 -92.8 0
v -412 -92.8 0
v -409.6 -93.6 0
v -410.4 -93.6 0
v -410.4 -92.8 0
v -409.6 -92.8 0
v -383.2 -93.6 0
v -384 -93.6 0
v -384 -92.8 0
v -383.2 -92.8 0
v -380.8 -93.6 0
v -381.6 -93.6 0
v -381.6 -92.8 0
v -380.8 -92.8 0
v -376 -93.6 0
v -376.8 -93.6 0
v -376.8 -92.8 0
v -376 -92.8 0
v -373.6 -93.6 0
v -374.4 -93.6 0
v -374.4 -92.8 0
v -373.6 -92.8 0
v -370.4 -93.6 0
v -371.2 -93.6 0
v -371.2 -92.8 0
v -370.4 -92.8 0
v -368.8 -93.6 0
v -369.6 -93.6 0
v -369.6 -92.8 0
v -368.8 -92.8 0
v -229.6 -93.6 0
v -230.4 -93.6 0
v -230.4 -92.8 0
v -229.6 -92.8 0
v -221.6 -93.6 0
v -222.4 -93.6 0
v -222.4 -92.8 0
v -221.6 -92.8 0
v -330.4 -92.8 0
v -331.2 -92.8 0
v -331.2 -92 0
v -330.4 -92 0
v -329.6 -92.8 0
v -330.4 -92.8 0
v -330.4 -92 0
v -329.6 -92 0
v -326.4 -92.8 0
v -327.2 -92.8 0
v -327.2 -92 0
v -326.4 -92 0
v -325.6 -92.8 0
v -326.4 -92.8 0
v -326.4 -92 0
v -325.6 -92 0
v -324.8 -92.8 0
v -325.6 -92.8 0
v -325.6 -92 0
v -324.8 -92 0
v -324 -92.8 0
v -324.8 -92.8 0
v -324.8 -92 0
v -324 -92 0
v -323.2 -92.8 0
v -324 -92.8 0
v -324 -92 0
v -323.2 -92 0
v -322.4 -92.8 0
v -323.2 -92.8 0
v -323.2 -92 0
v -322.4 -92 0
v -321.6 -92.8 0
v -322.4 -92.8 0
v -322.4 -92 0
v -321.6 -92 0
v -319.2 -92.8 0
v -320 -92.8 0
v -320 -92 0
v -319.2 -92 0
v -316 -92.8 0
v -316.8 -92.8 0
v -316.8 -92 0
v -316 -92 0
v -315.2 -92.8 0
v -316 -92.8 0
v -316 -92 0
v -315.2 -92 0
v -314.4 -92.8 0
v -315.2 -92.8 0
v -315.2 -92 0
v -314.4 -92 0
v -313.6 -92.8 0
v -314.4 -92.8 0
v -314.4 -92 0
v -313.6 -92 0
v -312.8 -92.8 0
v -313.6 -92.8 0
v -313.6 -92 0
v -312.8 -92 0
v -312 -92.8 0
v -312.8 -92.8 0
v -312.8 -92 0
v -312 -92 0
v -311.2 -92.8 0
v -312 -92.8 0
v -312 -92 0
v -311.2 -92 0
v -310.4 -92.8 0
v -311.2 -92.8 0
v -311.2 -92 0
v -310.4 -92 0
v -307.2 -92.8 0
v -308 -92.8 0
v -308 -92 0
v -307.2 -92 0
v -306.4 -92.8 0
v -307.2 -92.8 0
v -307.2 -92 0
v -306.4 -92 0
v -305.6 -92.8 0
v -306.4 -92.8 0
v -306.4 -92 0
v -305.6 -92 0
v -304.8 -92.8 0
v -305.6 -92.8 0
v -305.6 -92 0
v -304.8 -92 0
v -304 -92.8 0
v -304.8 -92.8 0
v -304.8 -92 0
v -304 -92 0
v -303.2 -92.8 0
v -304 -92.8 0
v -304 -92 0
v -303.2 -92 0
v -302.4 -92.8 0
v -303.2 -92.8 0
v -303.2 -92 0
v -302.4 -92 0
v -301.6 -92.8 0
v -302.4 -92.8 0
v -302.4 -92 0
v -301.6 -92 0
v -298.4 -92.8 0
v -299.2 -92.8 0
v -299.2 -92 0
v -298.4 -92 0
v -297.6 -92.8 0
v -298.4 -92.8 0
v -298.4 -92 0
v -297.6 -92 0
v -296.8 -92.8 0
v -297.6 -92.8 0
v -297.6 -92 0
v -296.8 -92 0
v -296 -92.8 0
v -296.8 -92.8 0
v -296.8 -92 0
v -296 -92 0
v -295.2 -92.8 0
v -296 -92.8 0
v -296 -92 0
v -295.2 -92 0
v -294.4 -92.8 0
v -295.2 -92.8 0
v -295.2 -92 0
v -294.4 -92 0
v -293.6 -92.8 0
v -294.4 -92.8 0
v -294.4 -92 0
v -293.6 -92 0
v -292.8 -92.8 0
v -293.6 -92.8 0
v -293.6 -92 0
v -292.8 -92 0
v -290.4 -92.8 0
v -291.2 -92.8 0
v -291.2 -92 0
v -290.4 -92 0
v -289.6 -92.8 0
v -290.4 -92.8 0
v -290.4 -92 0
v -289.6 -92 0
v -288.8 -92.8 0
v -289.6 -92.8 0
v -289.6 -92 0
v -288.8 -92 0
v -288 -92.8 0
v -288.8 -92.8 0
v -288.8 -92 0
v -288 -92 0
v -287.2 -92.8 0
v -288 -92.8 0
v -288 -92 0
v -287.2 -92 0
v -286.4 -92.8 0
v -287.2 -92.8 0
v -287.2 -92 0
v -286.4 -92 0
v -229.6 -92.8 0
v -230.4 -92.8 0
v -230.4 -92 0
v -229.6 -92 0
v -221.6 -92.8 0
v -222.4 -92.8 0
v -222.4 -92 0
v -221.6 -92 0
v -330.4 -92 0
v -331.2 -92 0
v -331.2 -91.2 0
v -330.4 -91.2 0
v -329.6 -92 0
v -330.4 -92 0
v -330.4 -91.2 0
v -329.6 -91.2 0
v -328.8 -92 0
v -329.6 -92 0
v -329.6 -91.2 0
v -328.8 -91.2 0
v -328 -92 0
v -328.8 -92 0
v -328.8 -91.2 0
v -328 -91.2 0
v -327.2 -92 0
v -328 -92 0
v -328 -91.2 0
v -327.2 -91.2 0
v -326.4 -92 0
v -327.2 -92 0
v -327.2 -91.2 0
v -326.4 -91.2 0
v -325.6 -92 0
v -326.4 -92 0
v -326.4 -91.2 0
v -325.6 -91.2 0
v -324.8 -92 0
v -325.6 -92 0
v -325.6 -91.2 0
v -324.8 -91.2 0
v -324 -92 0
v -324.8 -92 0
v -324.8 -91.2 0
v -324 -91.2 0
v -323.2 -92 0
v -324 -92 0
v -324 -91.2 0
v -323.2 -91.2 0
v -322.4 -92 0
v -323.2 -92 0
v -323.2 -91.2 0
v -322.4 -91.2 0
v -321.6 -92 0
v -322.4 -92 0
v -322.4 -91.2 0
v -321.6 -91.2 0
v -320.8 -92 0
v -321.6 -92 0
v -321.6 -91.2 0
v -320.8 -91.2 0
v -320 -92 0
v -320.8 -92 0
v -320.8 -91.2 0
v -320 -91.2 0
v -319.2 -92 0
v -320 -92 0
v -320 -91.2 0
v -319.2 -91.2 0
v -318.4 -92 0
v -319.2 -92 0
v -319.2 -91.2 0
v -318.4 -91.2 0
v -317.6 -92 0
v -318.4 -92 0
v -318.4 -91.2 0
v -317.6 -91.2 0
v -316.8 -92 0
v -317.6 -92 0
v -317.6 -91.2 0
v -316.8 -91.2 0
v -316 -92 0
v -316.8 -92 0
v -316.8 -91.2 0
v -316 -91.2 0
v -315.2 -92 0
v -316 -92 0
v -316 -91.2 0
v -315.2 -91.2 0
v -314.4 -92 0
v -315.2 -92 0
v -315.2 -91.2 0
v -314.4 -91.2 0
v -313.6 -92 0
v -314.4 -92 0
v -314.4 -91.2 0
v -313.6 -91.2 0
v -312.8 -92 0
v -313.6 -92 0
v -313.6 -91.2 0
v -312.8 -91.2 0
v -312 -92 0
v -312.8 -92 0
v -312.8 -91.2 0
v -312 -91.2 0
v -311.2 -92 0
v -312 -92 0
v -312 -91.2 0
v -311.2 -91.2 0
v -310.4 -92 0
v -311.2 -92 0
v -311.2 -91.2 0
v -310.4 -91.2 0
v -309.6 -92 0
v -310.4 -92 0
v -310.4 -91.2 0
v -309.6 -91.2 0
v -308.8 -92 0
v -309.6 -92 0
v -309.6 -91.2 0
v -308.8 -91.2 0
v -308 -92 0
v -308.8 -92 0
v -308.8 -91.2 0
v -308 -91.2 0
v -307.2 -92 0
v -308 -92 0
v -308 -91.2 0
v -307.2 -91.2 0
v -306.4 -92 0
v -307.2 -92 0
v -307.2 -91.2 0
v -306.4 -91.2 0
v -305.6 -92 0
v -306.4 -92 0
v -306.4 -91.2 0
v -305.6 -91.2 0
v -304.8 -92 0
v -305.6 -92 0
v -305.6 -91.2 0
v -304.8 -91.2 0
v -304 -92 0
v -304.8 -92 0
v -304.8 -91.2 0
v -304 -91.2 0
v -303.2 -92 0
v -304 -92 0
v -304 -91.2 0
v -303.2 -91.2 0
v -302.4 -92 0
v -303.2 -92 0
v -303.2 -91.2 0
v -302.4 -91.2 0
v -301.6 -92 0
v -302.4 -92 0
v -302.4 -91.2 0
v -301.6 -91.2 0
v -300.8 -92 0
v -301.6 -92 0
v -301.6 -91.2 0
v -300.8 -91.2 0
v -300 -92 0
v -300.8 -92 0
v -300.8 -91.2 0
v -300 -91.2 0
v -299.2 -92 0
v -300 -92 0
v -300 -91.2 0
v -299.2 -91.2 0
v -298.4 -92 0
v -299.2 -92 0
v -299.2 -91.2 0
v -298.4 -91.2 0
v -297.6 -92 0
v -298.4 -92 0
v -298.4 -91.2 0
v -297.6 -91.2 0
v -296.8 -92 0
v -297.6 -92 0
v -297.6 -91.2 0
v -296.8 -91.2 0
v -296 -92 0
v -296.8 -92 0
v -296.8 -91.2 0
v -296 -91.2 0
v -295.2 -92 0
v -296 -92 0
v -296 -91.2 0
v -295.2 -91.2 0
v -294.4 -92 0
v -295.2 -92 0
v -295.2 -91.2 0
v -294.4 -91.2 0
v -293.6 -92 0
v -294.4 -92 0
v -294.4 -91.2 0
v -293.6 -91.2 0
v -292.8 -92 0
v -293.6 -92 0
v -293.6 -91.2 0
v -292.8 -91.2 0
v -292 -92 0
v -292.8 -92 0
v -292.8 -91.2 0
v -292 -91.2 0
v -291.2 -92 0
v -292 -92 0
v -292 -91.2 0
v -291.2 -91.2 0
v -290.4 -92 0
v -291.2 -92 0
v -291.2 -91.2 0
v -290.4 -91.2 0
v -289.6 -92 0
v -290.4 -92 0
v -290.4 -91.2 0
v -289.6 -91.2 0
v -288.8 -92 0
v -289.6 -92 0
v -289.6 -91.2 0
v -288.8 -91.2 0
v -288 -92 0
v -288.8 -92 0
v -288.8 -91.2 0
v -288 -91.2 0
v -287.2 -92 0
v -288 -92 0
v -288 -91.2 0
v -287.2 -91.2 0
v -286.4 -92 0
v -287.2 -92 0
v -287.2 -91.2 0
v -286.4 -91.2 0
v -428 -91.2 0
v -428.8 -91.2 0
v -428.8 -90.4 0
v -428 -90.4 0
v -460.8 -90.4 0
v -461.6 -90.4 0
v -461.6 -89.6 0
v -460.8 -89.6 0
v -428 -90.4 0
v -428.8 -90.4 0
v -428.8 -89.6 0
v -428 -89.6 0
v -428 -89.6 0
v -428.8 -89.6 0
v -428.8 -88.8 0
v -428 -88.8 0
v -428 -88.8 0
v -428.8 -88.8 0
v -428.8 -88 0
v -428 -88 0
v -396 -88.8 0
v -396.8 -88.8 0
v -396.8 -88 0
v -396 -88 0
v -393.6 -88.8 0
v -394.4 -88.8 0
v -394.4 -88 0
v -393.6 -88 0
v -388.8 -88.8 0
v -389.6 -88.8 0
v -389.6 -88 0
v -388.8 -88 0
v -386.4 -88.8 0
v -387.2 -88.8 0
v -387.2 -88 0
v -386.4 -88 0
v -428 -88 0
v -428.8 -88 0
v -428.8 -87.2 0
v -428 -87.2 0
v -379.2 -88 0
v -380 -88 0
v -380 -87.2 0
v -379.2 -87.2 0
v -377.6 -88 0
v -378.4 -88 0
v -378.4 -87.2 0
v -377.6 -87.2 0
v -428 -87.2 0
v -428.8 -87.2 0
v -428.8 -86.4 0
v -428 -86.4 0
v -428 -86.4 0
v -428.8 -86.4 0
v -428.8 -85.6 0
v -428 -85.6 0
v -400.8 -85.6 0
v -401.6 -85.6 0
v -401.6 -84.8 0
v -400.8 -84.8 0
v -398.4 -85.6 0
v -399.2 -85.6 0
v -399.2 -84.8 0
v -398.4 -84.8 0

# Texture cooridinates (Count = 26)
vt 0.1666667 0.7619048
vt 0.2083333 0.7619048
vt 0.2083333 0.8095238
vt 0.1666667 0.8095238
vt 0.04166667 0.7619048
vt 0.08333334 0.7619048
vt 0.08333334 0.8095238
vt 0.04166667 0.8095238
vt 0 0.7619048
vt 0 0.8095238
vt 0.2083333 0.8571429
vt 0.1666667 0.8571429
vt 0.08333334 0.8571429
vt 0.04166667 0.8571429
vt 0 0.8571429
vt 0.25 0.09523809
vt 0.2916667 0.09523809
vt 0.2916667 0.1428571
vt 0.25 0.1428571
vt 0.2083333 0.3809524
vt 0.25 0.3809524
vt 0.25 0.4285714
vt 0.2083333 0.4285714
vt 0.1666667 0.4285714
vt 0.1666667 0.4761904
vt 0.2083333 0.4761904

# Normal
vn 0 0 -1

# Mesh description
g Map2_mesh_0019

# Faces
f 1/1/1 2/2/1 3/3/1 4/4/1
f 5/5/1 6/6/1 7/7/1 8/8/1
f 9/5/1 10/6/1 11/7/1 12/8/1
f 13/5/1 14/6/1 15/7/1 16/8/1
f 17/5/1 18/6/1 19/7/1 20/8/1
f 21/5/1 22/6/1 23/7/1 24/8/1
f 25/5/1 26/6/1 27/7/1 28/8/1
f 29/5/1 30/6/1 31/7/1 32/8/1
f 33/5/1 34/6/1 35/7/1 36/8/1
f 37/5/1 38/6/1 39/7/1 40/8/1
f 41/5/1 42/6/1 43/7/1 44/8/1
f 45/5/1 46/6/1 47/7/1 48/8/1
f 49/5/1 50/6/1 51/7/1 52/8/1
f 53/5/1 54/6/1 55/7/1 56/8/1
f 57/5/1 58/6/1 59/7/1 60/8/1
f 61/5/1 62/6/1 63/7/1 64/8/1
f 65/5/1 66/6/1 67/7/1 68/8/1
f 69/5/1 70/6/1 71/7/1 72/8/1
f 73/5/1 74/6/1 75/7/1 76/8/1
f 77/5/1 78/6/1 79/7/1 80/8/1
f 81/5/1 82/6/1 83/7/1 84/8/1
f 85/5/1 86/6/1 87/7/1 88/8/1
f 89/5/1 90/6/1 91/7/1 92/8/1
f 93/5/1 94/6/1 95/7/1 96/8/1
f 97/5/1 98/6/1 99/7/1 100/8/1
f 101/5/1 102/6/1 103/7/1 104/8/1
f 105/5/1 106/6/1 107/7/1 108/8/1
f 109/5/1 110/6/1 111/7/1 112/8/1
f 113/9/1 114/5/1 115/8/1 116/10/1
f 117/4/1 118/3/1 119/11/1 120/12/1
f 121/8/1 122/7/1 123/13/1 124/14/1
f 125/8/1 126/7/1 127/13/1 128/14/1
f 129/8/1 130/7/1 131/13/1 132/14/1
f 133/8/1 134/7/1 135/13/1 136/14/1
f 137/8/1 138/7/1 139/13/1 140/14/1
f 141/8/1 142/7/1 143/13/1 144/14/1
f 145/8/1 146/7/1 147/13/1 148/14/1
f 149/8/1 150/7/1 151/13/1 152/14/1
f 153/8/1 154/7/1 155/13/1 156/14/1
f 157/8/1 158/7/1 159/13/1 160/14/1
f 161/8/1 162/7/1 163/13/1 164/14/1
f 165/8/1 166/7/1 167/13/1 168/14/1
f 169/8/1 170/7/1 171/13/1 172/14/1
f 173/8/1 174/7/1 175/13/1 176/14/1
f 177/8/1 178/7/1 179/13/1 180/14/1
f 181/8/1 182/7/1 183/13/1 184/14/1
f 185/8/1 186/7/1 187/13/1 188/14/1
f 189/8/1 190/7/1 191/13/1 192/14/1
f 193/8/1 194/7/1 195/13/1 196/14/1
f 197/8/1 198/7/1 199/13/1 200/14/1
f 201/8/1 202/7/1 203/13/1 204/14/1
f 205/8/1 206/7/1 207/13/1 208/14/1
f 209/8/1 210/7/1 211/13/1 212/14/1
f 213/8/1 214/7/1 215/13/1 216/14/1
f 217/8/1 218/7/1 219/13/1 220/14/1
f 221/8/1 222/7/1 223/13/1 224/14/1
f 225/8/1 226/7/1 227/13/1 228/14/1
f 229/8/1 230/7/1 231/13/1 232/14/1
f 233/8/1 234/7/1 235/13/1 236/14/1
f 237/8/1 238/7/1 239/13/1 240/14/1
f 241/8/1 242/7/1 243/13/1 244/14/1
f 245/8/1 246/7/1 247/13/1 248/14/1
f 249/8/1 250/7/1 251/13/1 252/14/1
f 253/10/1 254/8/1 255/14/1 256/15/1
f 257/16/1 258/17/1 259/18/1 260/19/1
f 261/16/1 262/17/1 263/18/1 264/19/1
f 265/16/1 266/17/1 267/18/1 268/19/1
f 269/20/1 270/21/1 271/22/1 272/23/1
f 273/21/1 274/20/1 275/23/1 276/22/1
f 277/16/1 278/17/1 279/18/1 280/19/1
f 281/16/1 282/17/1 283/18/1 284/19/1
f 285/16/1 286/17/1 287/18/1 288/19/1
f 289/20/1 290/21/1 291/22/1 292/23/1
f 293/21/1 294/20/1 295/23/1 296/22/1
f 297/16/1 298/17/1 299/18/1 300/19/1
f 301/16/1 302/17/1 303/18/1 304/19/1
f 305/16/1 306/17/1 307/18/1 308/19/1
f 309/20/1 310/21/1 311/22/1 312/23/1
f 313/21/1 314/20/1 315/23/1 316/22/1
f 317/16/1 318/17/1 319/18/1 320/19/1
f 321/16/1 322/17/1 323/18/1 324/19/1
f 325/16/1 326/17/1 327/18/1 328/19/1
f 329/16/1 330/17/1 331/18/1 332/19/1
f 333/16/1 334/17/1 335/18/1 336/19/1
f 337/16/1 338/17/1 339/18/1 340/19/1
f 341/23/1 342/24/1 343/25/1 344/26/1
f 345/25/1 346/26/1 347/23/1 348/24/1
f 349/23/1 350/24/1 351/25/1 352/26/1
f 353/25/1 354/26/1 355/23/1 356/24/1
f 357/23/1 358/24/1 359/25/1 360/26/1
f 361/25/1 362/26/1 363/23/1 364/24/1
f 365/20/1 366/21/1 367/22/1 368/23/1
f 369/21/1 370/20/1 371/23/1 372/22/1
f 373/1/1 374/2/1 375/3/1 376/4/1
f 377/5/1 378/6/1 379/7/1 380/8/1
f 381/5/1 382/6/1 383/7/1 384/8/1
f 385/5/1 386/6/1 387/7/1 388/8/1
f 389/5/1 390/6/1 391/7/1 392/8/1
f 393/5/1 394/6/1 395/7/1 396/8/1
f 397/5/1 398/6/1 399/7/1 400/8/1
f 401/5/1 402/6/1 403/7/1 404/8/1
f 405/5/1 406/6/1 407/7/1 408/8/1
f 409/5/1 410/6/1 411/7/1 412/8/1
f 413/5/1 414/6/1 415/7/1 416/8/1
f 417/5/1 418/6/1 419/7/1 420/8/1
f 421/5/1 422/6/1 423/7/1 424/8/1
f 425/5/1 426/6/1 427/7/1 428/8/1
f 429/5/1 430/6/1 431/7/1 432/8/1
f 433/5/1 434/6/1 435/7/1 436/8/1
f 437/5/1 438/6/1 439/7/1 440/8/1
f 441/5/1 442/6/1 443/7/1 444/8/1
f 445/5/1 446/6/1 447/7/1 448/8/1
f 449/5/1 450/6/1 451/7/1 452/8/1
f 453/5/1 454/6/1 455/7/1 456/8/1
f 457/5/1 458/6/1 459/7/1 460/8/1
f 461/5/1 462/6/1 463/7/1 464/8/1
f 465/5/1 466/6/1 467/7/1 468/8/1
f 469/5/1 470/6/1 471/7/1 472/8/1
f 473/5/1 474/6/1 475/7/1 476/8/1
f 477/5/1 478/6/1 479/7/1 480/8/1
f 481/5/1 482/6/1 483/7/1 484/8/1
f 485/5/1 486/6/1 487/7/1 488/8/1
f 489/5/1 490/6/1 491/7/1 492/8/1
f 493/5/1 494/6/1 495/7/1 496/8/1
f 497/5/1 498/6/1 499/7/1 500/8/1
f 501/5/1 502/6/1 503/7/1 504/8/1
f 505/5/1 506/6/1 507/7/1 508/8/1
f 509/5/1 510/6/1 511/7/1 512/8/1
f 513/5/1 514/6/1 515/7/1 516/8/1
f 517/5/1 518/6/1 519/7/1 520/8/1
f 521/5/1 522/6/1 523/7/1 524/8/1
f 525/5/1 526/6/1 527/7/1 528/8/1
f 529/9/1 530/5/1 531/8/1 532/10/1
f 533/20/1 534/21/1 535/22/1 536/23/1
f 537/21/1 538/20/1 539/23/1 540/22/1
f 541/4/1 542/3/1 543/11/1 544/12/1
f 545/8/1 546/7/1 547/13/1 548/14/1
f 549/8/1 550/7/1 551/13/1 552/14/1
f 553/8/1 554/7/1 555/13/1 556/14/1
f 557/8/1 558/7/1 559/13/1 560/14/1
f 561/8/1 562/7/1 563/13/1 564/14/1
f 565/8/1 566/7/1 567/13/1 568/14/1
f 569/8/1 570/7/1 571/13/1 572/14/1
f 573/8/1 574/7/1 575/13/1 576/14/1
f 577/8/1 578/7/1 579/13/1 580/14/1
f 581/8/1 582/7/1 583/13/1 584/14/1
f 585/8/1 586/7/1 587/13/1 588/14/1
f 589/8/1 590/7/1 591/13/1 592/14/1
f 593/8/1 594/7/1 595/13/1 596/14/1
f 597/8/1 598/7/1 599/13/1 600/14/1
f 601/8/1 602/7/1 603/13/1 604/14/1
f 605/8/1 606/7/1 607/13/1 608/14/1
f 609/8/1 610/7/1 611/13/1 612/14/1
f 613/8/1 614/7/1 615/13/1 616/14/1
f 617/8/1 618/7/1 619/13/1 620/14/1
f 621/8/1 622/7/1 623/13/1 624/14/1
f 625/8/1 626/7/1 627/13/1 628/14/1
f 629/8/1 630/7/1 631/13/1 632/14/1
f 633/8/1 634/7/1 635/13/1 636/14/1
f 637/8/1 638/7/1 639/13/1 640/14/1
f 641/8/1 642/7/1 643/13/1 644/14/1
f 645/8/1 646/7/1 647/13/1 648/14/1
f 649/8/1 650/7/1 651/13/1 652/14/1
f 653/8/1 654/7/1 655/13/1 656/14/1
f 657/8/1 658/7/1 659/13/1 660/14/1
f 661/8/1 662/7/1 663/13/1 664/14/1
f 665/8/1 666/7/1 667/13/1 668/14/1
f 669/8/1 670/7/1 671/13/1 672/14/1
f 673/8/1 674/7/1 675/13/1 676/14/1
f 677/8/1 678/7/1 679/13/1 680/14/1
f 681/8/1 682/7/1 683/13/1 684/14/1
f 685/8/1 686/7/1 687/13/1 688/14/1
f 689/8/1 690/7/1 691/13/1 692/14/1
f 693/8/1 694/7/1 695/13/1 696/14/1
f 697/8/1 698/7/1 699/13/1 700/14/1
f 701/8/1 702/7/1 703/13/1 704/14/1
f 705/8/1 706/7/1 707/13/1 708/14/1
f 709/8/1 710/7/1 711/13/1 712/14/1
f 713/8/1 714/7/1 715/13/1 716/14/1
f 717/8/1 718/7/1 719/13/1 720/14/1
f 721/8/1 722/7/1 723/13/1 724/14/1
f 725/8/1 726/7/1 727/13/1 728/14/1
f 729/8/1 730/7/1 731/13/1 732/14/1
f 733/8/1 734/7/1 735/13/1 736/14/1
f 737/8/1 738/7/1 739/13/1 740/14/1
f 741/8/1 742/7/1 743/13/1 744/14/1
f 745/8/1 746/7/1 747/13/1 748/14/1
f 749/8/1 750/7/1 751/13/1 752/14/1
f 753/8/1 754/7/1 755/13/1 756/14/1
f 757/8/1 758/7/1 759/13/1 760/14/1
f 761/10/1 762/8/1 763/14/1 764/15/1
f 765/16/1 766/17/1 767/18/1 768/19/1
f 769/16/1 770/17/1 771/18/1 772/19/1
f 773/16/1 774/17/1 775/18/1 776/19/1
f 777/16/1 778/17/1 779/18/1 780/19/1
f 781/16/1 782/17/1 783/18/1 784/19/1
f 785/23/1 786/24/1 787/25/1 788/26/1
f 789/25/1 790/26/1 791/23/1 792/24/1
f 793/23/1 794/24/1 795/25/1 796/26/1
f 797/25/1 798/26/1 799/23/1 800/24/1
f 801/16/1 802/17/1 803/18/1 804/19/1
f 805/23/1 806/24/1 807/25/1 808/26/1
f 809/25/1 810/26/1 811/23/1 812/24/1
f 813/16/1 814/17/1 815/18/1 816/19/1
f 817/16/1 818/17/1 819/18/1 820/19/1
f 821/23/1 822/24/1 823/25/1 824/26/1
f 825/25/1 826/26/1 827/23/1 828/24/1

