# Tiled2Unity generated file. Do not modify by hand.
# Wavefront file for 'Map2_mesh_0024.obj'

# Vertices (Count = 76)
v -169.6 -99.2 0
v -170.4 -99.2 0
v -170.4 -98.4 0
v -169.6 -98.4 0
v -165.6 -99.2 0
v -166.4 -99.2 0
v -166.4 -98.4 0
v -165.6 -98.4 0
v -161.6 -99.2 0
v -162.4 -99.2 0
v -162.4 -98.4 0
v -161.6 -98.4 0
v -169.6 -98.4 0
v -170.4 -98.4 0
v -170.4 -97.6 0
v -169.6 -97.6 0
v -165.6 -98.4 0
v -166.4 -98.4 0
v -166.4 -97.6 0
v -165.6 -97.6 0
v -161.6 -98.4 0
v -162.4 -98.4 0
v -162.4 -97.6 0
v -161.6 -97.6 0
v -169.6 -97.6 0
v -170.4 -97.6 0
v -170.4 -96.8 0
v -169.6 -96.8 0
v -165.6 -97.6 0
v -166.4 -97.6 0
v -166.4 -96.8 0
v -165.6 -96.8 0
v -161.6 -97.6 0
v -162.4 -97.6 0
v -162.4 -96.8 0
v -161.6 -96.8 0
v -169.6 -96.8 0
v -170.4 -96.8 0
v -170.4 -96 0
v -169.6 -96 0
v -165.6 -96.8 0
v -166.4 -96.8 0
v -166.4 -96 0
v -165.6 -96 0
v -161.6 -96.8 0
v -162.4 -96.8 0
v -162.4 -96 0
v -161.6 -96 0
v -169.6 -96 0
v -170.4 -96 0
v -170.4 -95.2 0
v -169.6 -95.2 0
v -165.6 -96 0
v -166.4 -96 0
v -166.4 -95.2 0
v -165.6 -95.2 0
v -161.6 -96 0
v -162.4 -96 0
v -162.4 -95.2 0
v -161.6 -95.2 0
v -102.4 -95.2 0
v -103.2 -95.2 0
v -103.2 -94.4 0
v -102.4 -94.4 0
v -96.8 -95.2 0
v -97.6 -95.2 0
v -97.6 -94.4 0
v -96.8 -94.4 0
v -102.4 -94.4 0
v -103.2 -94.4 0
v -103.2 -93.6 0
v -102.4 -93.6 0
v -96.8 -94.4 0
v -97.6 -94.4 0
v -97.6 -93.6 0
v -96.8 -93.6 0

# Texture cooridinates (Count = 4)
vt 0.7272727 0.8333333
vt 0.8181818 0.8333333
vt 0.8181818 0.9166667
vt 0.7272727 0.9166667

# Normal
vn 0 0 -1

# Mesh description
g Map2_mesh_0024

# Faces
f 1/1/1 2/2/1 3/3/1 4/4/1
f 5/1/1 6/2/1 7/3/1 8/4/1
f 9/1/1 10/2/1 11/3/1 12/4/1
f 13/1/1 14/2/1 15/3/1 16/4/1
f 17/1/1 18/2/1 19/3/1 20/4/1
f 21/1/1 22/2/1 23/3/1 24/4/1
f 25/1/1 26/2/1 27/3/1 28/4/1
f 29/1/1 30/2/1 31/3/1 32/4/1
f 33/1/1 34/2/1 35/3/1 36/4/1
f 37/1/1 38/2/1 39/3/1 40/4/1
f 41/1/1 42/2/1 43/3/1 44/4/1
f 45/1/1 46/2/1 47/3/1 48/4/1
f 49/1/1 50/2/1 51/3/1 52/4/1
f 53/1/1 54/2/1 55/3/1 56/4/1
f 57/1/1 58/2/1 59/3/1 60/4/1
f 61/1/1 62/2/1 63/3/1 64/4/1
f 65/1/1 66/2/1 67/3/1 68/4/1
f 69/1/1 70/2/1 71/3/1 72/4/1
f 73/1/1 74/2/1 75/3/1 76/4/1

