# Tiled2Unity generated file. Do not modify by hand.
# Wavefront file for 'Map2_mesh_0027.obj'

# Vertices (Count = 228)
v -330.4 -106.4 0
v -331.2 -106.4 0
v -331.2 -105.6 0
v -330.4 -105.6 0
v -324 -106.4 0
v -324.8 -106.4 0
v -324.8 -105.6 0
v -324 -105.6 0
v -323.2 -106.4 0
v -324 -106.4 0
v -324 -105.6 0
v -323.2 -105.6 0
v -322.4 -106.4 0
v -323.2 -106.4 0
v -323.2 -105.6 0
v -322.4 -105.6 0
v -320.8 -106.4 0
v -321.6 -106.4 0
v -321.6 -105.6 0
v -320.8 -105.6 0
v -320 -106.4 0
v -320.8 -106.4 0
v -320.8 -105.6 0
v -320 -105.6 0
v -318.4 -106.4 0
v -319.2 -106.4 0
v -319.2 -105.6 0
v -318.4 -105.6 0
v -317.6 -106.4 0
v -318.4 -106.4 0
v -318.4 -105.6 0
v -317.6 -105.6 0
v -316 -106.4 0
v -316.8 -106.4 0
v -316.8 -105.6 0
v -316 -105.6 0
v -315.2 -106.4 0
v -316 -106.4 0
v -316 -105.6 0
v -315.2 -105.6 0
v -311.2 -106.4 0
v -312 -106.4 0
v -312 -105.6 0
v -311.2 -105.6 0
v -309.6 -106.4 0
v -310.4 -106.4 0
v -310.4 -105.6 0
v -309.6 -105.6 0
v -308.8 -106.4 0
v -309.6 -106.4 0
v -309.6 -105.6 0
v -308.8 -105.6 0
v -307.2 -106.4 0
v -308 -106.4 0
v -308 -105.6 0
v -307.2 -105.6 0
v -306.4 -106.4 0
v -307.2 -106.4 0
v -307.2 -105.6 0
v -306.4 -105.6 0
v -298.4 -106.4 0
v -299.2 -106.4 0
v -299.2 -105.6 0
v -298.4 -105.6 0
v -297.6 -106.4 0
v -298.4 -106.4 0
v -298.4 -105.6 0
v -297.6 -105.6 0
v -296.8 -106.4 0
v -297.6 -106.4 0
v -297.6 -105.6 0
v -296.8 -105.6 0
v -295.2 -106.4 0
v -296 -106.4 0
v -296 -105.6 0
v -295.2 -105.6 0
v -294.4 -106.4 0
v -295.2 -106.4 0
v -295.2 -105.6 0
v -294.4 -105.6 0
v -292.8 -106.4 0
v -293.6 -106.4 0
v -293.6 -105.6 0
v -292.8 -105.6 0
v -292 -106.4 0
v -292.8 -106.4 0
v -292.8 -105.6 0
v -292 -105.6 0
v -290.4 -106.4 0
v -291.2 -106.4 0
v -291.2 -105.6 0
v -290.4 -105.6 0
v -289.6 -106.4 0
v -290.4 -106.4 0
v -290.4 -105.6 0
v -289.6 -105.6 0
v -284.8 -104 0
v -285.6 -104 0
v -285.6 -103.2 0
v -284.8 -103.2 0
v -284 -104 0
v -284.8 -104 0
v -284.8 -103.2 0
v -284 -103.2 0
v -282.4 -104 0
v -283.2 -104 0
v -283.2 -103.2 0
v -282.4 -103.2 0
v -281.6 -104 0
v -282.4 -104 0
v -282.4 -103.2 0
v -281.6 -103.2 0
v -280 -104 0
v -280.8 -104 0
v -280.8 -103.2 0
v -280 -103.2 0
v -279.2 -104 0
v -280 -104 0
v -280 -103.2 0
v -279.2 -103.2 0
v -278.4 -104 0
v -279.2 -104 0
v -279.2 -103.2 0
v -278.4 -103.2 0
v -277.6 -104 0
v -278.4 -104 0
v -278.4 -103.2 0
v -277.6 -103.2 0
v -276.8 -104 0
v -277.6 -104 0
v -277.6 -103.2 0
v -276.8 -103.2 0
v -270.4 -104 0
v -271.2 -104 0
v -271.2 -103.2 0
v -270.4 -103.2 0
v -269.6 -104 0
v -270.4 -104 0
v -270.4 -103.2 0
v -269.6 -103.2 0
v -268.8 -104 0
v -269.6 -104 0
v -269.6 -103.2 0
v -268.8 -103.2 0
v -262.4 -104 0
v -263.2 -104 0
v -263.2 -103.2 0
v -262.4 -103.2 0
v -261.6 -104 0
v -262.4 -104 0
v -262.4 -103.2 0
v -261.6 -103.2 0
v -260.8 -104 0
v -261.6 -104 0
v -261.6 -103.2 0
v -260.8 -103.2 0
v -259.2 -104 0
v -260 -104 0
v -260 -103.2 0
v -259.2 -103.2 0
v -258.4 -104 0
v -259.2 -104 0
v -259.2 -103.2 0
v -258.4 -103.2 0
v -256.8 -104 0
v -257.6 -104 0
v -257.6 -103.2 0
v -256.8 -103.2 0
v -256 -104 0
v -256.8 -104 0
v -256.8 -103.2 0
v -256 -103.2 0
v -254.4 -104 0
v -255.2 -104 0
v -255.2 -103.2 0
v -254.4 -103.2 0
v -253.6 -104 0
v -254.4 -104 0
v -254.4 -103.2 0
v -253.6 -103.2 0
v -247.2 -104 0
v -248 -104 0
v -248 -103.2 0
v -247.2 -103.2 0
v -246.4 -104 0
v -247.2 -104 0
v -247.2 -103.2 0
v -246.4 -103.2 0
v -245.6 -104 0
v -246.4 -104 0
v -246.4 -103.2 0
v -245.6 -103.2 0
v -244 -104 0
v -244.8 -104 0
v -244.8 -103.2 0
v -244 -103.2 0
v -243.2 -104 0
v -244 -104 0
v -244 -103.2 0
v -243.2 -103.2 0
v -241.6 -104 0
v -242.4 -104 0
v -242.4 -103.2 0
v -241.6 -103.2 0
v -240.8 -104 0
v -241.6 -104 0
v -241.6 -103.2 0
v -240.8 -103.2 0
v -239.2 -104 0
v -240 -104 0
v -240 -103.2 0
v -239.2 -103.2 0
v -238.4 -104 0
v -239.2 -104 0
v -239.2 -103.2 0
v -238.4 -103.2 0
v -232 -104 0
v -232.8 -104 0
v -232.8 -103.2 0
v -232 -103.2 0
v -231.2 -104 0
v -232 -104 0
v -232 -103.2 0
v -231.2 -103.2 0
v -230.4 -104 0
v -231.2 -104 0
v -231.2 -103.2 0
v -230.4 -103.2 0

# Texture cooridinates (Count = 4)
vt 0 0
vt 1 0
vt 1 1
vt 0 1

# Normal
vn 0 0 -1

# Mesh description
g Map2_mesh_0027

# Faces
f 1/1/1 2/2/1 3/3/1 4/4/1
f 5/1/1 6/2/1 7/3/1 8/4/1
f 9/1/1 10/2/1 11/3/1 12/4/1
f 13/1/1 14/2/1 15/3/1 16/4/1
f 17/1/1 18/2/1 19/3/1 20/4/1
f 21/1/1 22/2/1 23/3/1 24/4/1
f 25/1/1 26/2/1 27/3/1 28/4/1
f 29/1/1 30/2/1 31/3/1 32/4/1
f 33/1/1 34/2/1 35/3/1 36/4/1
f 37/1/1 38/2/1 39/3/1 40/4/1
f 41/1/1 42/2/1 43/3/1 44/4/1
f 45/1/1 46/2/1 47/3/1 48/4/1
f 49/1/1 50/2/1 51/3/1 52/4/1
f 53/1/1 54/2/1 55/3/1 56/4/1
f 57/1/1 58/2/1 59/3/1 60/4/1
f 61/1/1 62/2/1 63/3/1 64/4/1
f 65/1/1 66/2/1 67/3/1 68/4/1
f 69/1/1 70/2/1 71/3/1 72/4/1
f 73/1/1 74/2/1 75/3/1 76/4/1
f 77/1/1 78/2/1 79/3/1 80/4/1
f 81/1/1 82/2/1 83/3/1 84/4/1
f 85/1/1 86/2/1 87/3/1 88/4/1
f 89/1/1 90/2/1 91/3/1 92/4/1
f 93/1/1 94/2/1 95/3/1 96/4/1
f 97/1/1 98/2/1 99/3/1 100/4/1
f 101/1/1 102/2/1 103/3/1 104/4/1
f 105/1/1 106/2/1 107/3/1 108/4/1
f 109/1/1 110/2/1 111/3/1 112/4/1
f 113/1/1 114/2/1 115/3/1 116/4/1
f 117/1/1 118/2/1 119/3/1 120/4/1
f 121/1/1 122/2/1 123/3/1 124/4/1
f 125/1/1 126/2/1 127/3/1 128/4/1
f 129/1/1 130/2/1 131/3/1 132/4/1
f 133/1/1 134/2/1 135/3/1 136/4/1
f 137/1/1 138/2/1 139/3/1 140/4/1
f 141/1/1 142/2/1 143/3/1 144/4/1
f 145/1/1 146/2/1 147/3/1 148/4/1
f 149/1/1 150/2/1 151/3/1 152/4/1
f 153/1/1 154/2/1 155/3/1 156/4/1
f 157/1/1 158/2/1 159/3/1 160/4/1
f 161/1/1 162/2/1 163/3/1 164/4/1
f 165/1/1 166/2/1 167/3/1 168/4/1
f 169/1/1 170/2/1 171/3/1 172/4/1
f 173/1/1 174/2/1 175/3/1 176/4/1
f 177/1/1 178/2/1 179/3/1 180/4/1
f 181/1/1 182/2/1 183/3/1 184/4/1
f 185/1/1 186/2/1 187/3/1 188/4/1
f 189/1/1 190/2/1 191/3/1 192/4/1
f 193/1/1 194/2/1 195/3/1 196/4/1
f 197/1/1 198/2/1 199/3/1 200/4/1
f 201/1/1 202/2/1 203/3/1 204/4/1
f 205/1/1 206/2/1 207/3/1 208/4/1
f 209/1/1 210/2/1 211/3/1 212/4/1
f 213/1/1 214/2/1 215/3/1 216/4/1
f 217/1/1 218/2/1 219/3/1 220/4/1
f 221/1/1 222/2/1 223/3/1 224/4/1
f 225/1/1 226/2/1 227/3/1 228/4/1

