# Tiled2Unity generated file. Do not modify by hand.
# Wavefront file for 'Map2_mesh_0023.obj'

# Vertices (Count = 136)
v -157.6 -98.4 0
v -158.4 -98.4 0
v -158.4 -97.6 0
v -157.6 -97.6 0
v -156.8 -98.4 0
v -157.6 -98.4 0
v -157.6 -97.6 0
v -156.8 -97.6 0
v -156 -98.4 0
v -156.8 -98.4 0
v -156.8 -97.6 0
v -156 -97.6 0
v -155.2 -98.4 0
v -156 -98.4 0
v -156 -97.6 0
v -155.2 -97.6 0
v -154.4 -98.4 0
v -155.2 -98.4 0
v -155.2 -97.6 0
v -154.4 -97.6 0
v -153.6 -98.4 0
v -154.4 -98.4 0
v -154.4 -97.6 0
v -153.6 -97.6 0
v -152.8 -98.4 0
v -153.6 -98.4 0
v -153.6 -97.6 0
v -152.8 -97.6 0
v -152 -98.4 0
v -152.8 -98.4 0
v -152.8 -97.6 0
v -152 -97.6 0
v -151.2 -98.4 0
v -152 -98.4 0
v -152 -97.6 0
v -151.2 -97.6 0
v -150.4 -98.4 0
v -151.2 -98.4 0
v -151.2 -97.6 0
v -150.4 -97.6 0
v -149.6 -98.4 0
v -150.4 -98.4 0
v -150.4 -97.6 0
v -149.6 -97.6 0
v -148.8 -98.4 0
v -149.6 -98.4 0
v -149.6 -97.6 0
v -148.8 -97.6 0
v -148 -98.4 0
v -148.8 -98.4 0
v -148.8 -97.6 0
v -148 -97.6 0
v -147.2 -98.4 0
v -148 -98.4 0
v -148 -97.6 0
v -147.2 -97.6 0
v -146.4 -98.4 0
v -147.2 -98.4 0
v -147.2 -97.6 0
v -146.4 -97.6 0
v -145.6 -98.4 0
v -146.4 -98.4 0
v -146.4 -97.6 0
v -145.6 -97.6 0
v -144.8 -98.4 0
v -145.6 -98.4 0
v -145.6 -97.6 0
v -144.8 -97.6 0
v -144 -98.4 0
v -144.8 -98.4 0
v -144.8 -97.6 0
v -144 -97.6 0
v -143.2 -98.4 0
v -144 -98.4 0
v -144 -97.6 0
v -143.2 -97.6 0
v -142.4 -98.4 0
v -143.2 -98.4 0
v -143.2 -97.6 0
v -142.4 -97.6 0
v -141.6 -98.4 0
v -142.4 -98.4 0
v -142.4 -97.6 0
v -141.6 -97.6 0
v -140.8 -98.4 0
v -141.6 -98.4 0
v -141.6 -97.6 0
v -140.8 -97.6 0
v -140 -98.4 0
v -140.8 -98.4 0
v -140.8 -97.6 0
v -140 -97.6 0
v -139.2 -98.4 0
v -140 -98.4 0
v -140 -97.6 0
v -139.2 -97.6 0
v -138.4 -98.4 0
v -139.2 -98.4 0
v -139.2 -97.6 0
v -138.4 -97.6 0
v -137.6 -98.4 0
v -138.4 -98.4 0
v -138.4 -97.6 0
v -137.6 -97.6 0
v -136.8 -98.4 0
v -137.6 -98.4 0
v -137.6 -97.6 0
v -136.8 -97.6 0
v -136 -98.4 0
v -136.8 -98.4 0
v -136.8 -97.6 0
v -136 -97.6 0
v -135.2 -98.4 0
v -136 -98.4 0
v -136 -97.6 0
v -135.2 -97.6 0
v -134.4 -98.4 0
v -135.2 -98.4 0
v -135.2 -97.6 0
v -134.4 -97.6 0
v -133.6 -98.4 0
v -134.4 -98.4 0
v -134.4 -97.6 0
v -133.6 -97.6 0
v -132.8 -98.4 0
v -133.6 -98.4 0
v -133.6 -97.6 0
v -132.8 -97.6 0
v -132 -98.4 0
v -132.8 -98.4 0
v -132.8 -97.6 0
v -132 -97.6 0
v -131.2 -98.4 0
v -132 -98.4 0
v -132 -97.6 0
v -131.2 -97.6 0

# Texture cooridinates (Count = 6)
vt 0.04166667 0.7142857
vt 0.08333334 0.7142857
vt 0.08333334 0.7619048
vt 0.04166667 0.7619048
vt 0 0.7142857
vt 0 0.7619048

# Normal
vn 0 0 -1

# Mesh description
g Map2_mesh_0023

# Faces
f 1/1/1 2/2/1 3/3/1 4/4/1
f 5/1/1 6/2/1 7/3/1 8/4/1
f 9/1/1 10/2/1 11/3/1 12/4/1
f 13/1/1 14/2/1 15/3/1 16/4/1
f 17/1/1 18/2/1 19/3/1 20/4/1
f 21/1/1 22/2/1 23/3/1 24/4/1
f 25/1/1 26/2/1 27/3/1 28/4/1
f 29/1/1 30/2/1 31/3/1 32/4/1
f 33/1/1 34/2/1 35/3/1 36/4/1
f 37/1/1 38/2/1 39/3/1 40/4/1
f 41/1/1 42/2/1 43/3/1 44/4/1
f 45/1/1 46/2/1 47/3/1 48/4/1
f 49/1/1 50/2/1 51/3/1 52/4/1
f 53/1/1 54/2/1 55/3/1 56/4/1
f 57/1/1 58/2/1 59/3/1 60/4/1
f 61/1/1 62/2/1 63/3/1 64/4/1
f 65/1/1 66/2/1 67/3/1 68/4/1
f 69/1/1 70/2/1 71/3/1 72/4/1
f 73/1/1 74/2/1 75/3/1 76/4/1
f 77/1/1 78/2/1 79/3/1 80/4/1
f 81/1/1 82/2/1 83/3/1 84/4/1
f 85/1/1 86/2/1 87/3/1 88/4/1
f 89/1/1 90/2/1 91/3/1 92/4/1
f 93/1/1 94/2/1 95/3/1 96/4/1
f 97/1/1 98/2/1 99/3/1 100/4/1
f 101/1/1 102/2/1 103/3/1 104/4/1
f 105/1/1 106/2/1 107/3/1 108/4/1
f 109/1/1 110/2/1 111/3/1 112/4/1
f 113/1/1 114/2/1 115/3/1 116/4/1
f 117/1/1 118/2/1 119/3/1 120/4/1
f 121/1/1 122/2/1 123/3/1 124/4/1
f 125/1/1 126/2/1 127/3/1 128/4/1
f 129/1/1 130/2/1 131/3/1 132/4/1
f 133/5/1 134/1/1 135/4/1 136/6/1

