# Tiled2Unity generated file. Do not modify by hand.
# Wavefront file for 'Map2_mesh_0022.obj'

# Vertices (Count = 16)
v -102.4 -95.2 0
v -103.2 -95.2 0
v -103.2 -94.4 0
v -102.4 -94.4 0
v -96.8 -95.2 0
v -97.6 -95.2 0
v -97.6 -94.4 0
v -96.8 -94.4 0
v -102.4 -94.4 0
v -103.2 -94.4 0
v -103.2 -93.6 0
v -102.4 -93.6 0
v -96.8 -94.4 0
v -97.6 -94.4 0
v -97.6 -93.6 0
v -96.8 -93.6 0

# Texture cooridinates (Count = 4)
vt 0.7272727 0.8333333
vt 0.8181818 0.8333333
vt 0.8181818 0.9166667
vt 0.7272727 0.9166667

# Normal
vn 0 0 -1

# Mesh description
g Map2_mesh_0022

# Faces
f 1/1/1 2/2/1 3/3/1 4/4/1
f 5/1/1 6/2/1 7/3/1 8/4/1
f 9/1/1 10/2/1 11/3/1 12/4/1
f 13/1/1 14/2/1 15/3/1 16/4/1

