# Tiled2Unity generated file. Do not modify by hand.
# Wavefront file for 'Map2_mesh_0014.obj'

# Vertices (Count = 764)
v -157.6 -104 0
v -158.4 -104 0
v -158.4 -103.2 0
v -157.6 -103.2 0
v -155.2 -104 0
v -156 -104 0
v -156 -103.2 0
v -155.2 -103.2 0
v -154.4 -104 0
v -155.2 -104 0
v -155.2 -103.2 0
v -154.4 -103.2 0
v -153.6 -104 0
v -154.4 -104 0
v -154.4 -103.2 0
v -153.6 -103.2 0
v -152.8 -104 0
v -153.6 -104 0
v -153.6 -103.2 0
v -152.8 -103.2 0
v -150.4 -104 0
v -151.2 -104 0
v -151.2 -103.2 0
v -150.4 -103.2 0
v -149.6 -104 0
v -150.4 -104 0
v -150.4 -103.2 0
v -149.6 -103.2 0
v -148.8 -104 0
v -149.6 -104 0
v -149.6 -103.2 0
v -148.8 -103.2 0
v -148 -104 0
v -148.8 -104 0
v -148.8 -103.2 0
v -148 -103.2 0
v -145.6 -104 0
v -146.4 -104 0
v -146.4 -103.2 0
v -145.6 -103.2 0
v -144.8 -104 0
v -145.6 -104 0
v -145.6 -103.2 0
v -144.8 -103.2 0
v -144 -104 0
v -144.8 -104 0
v -144.8 -103.2 0
v -144 -103.2 0
v -143.2 -104 0
v -144 -104 0
v -144 -103.2 0
v -143.2 -103.2 0
v -140.8 -104 0
v -141.6 -104 0
v -141.6 -103.2 0
v -140.8 -103.2 0
v -140 -104 0
v -140.8 -104 0
v -140.8 -103.2 0
v -140 -103.2 0
v -139.2 -104 0
v -140 -104 0
v -140 -103.2 0
v -139.2 -103.2 0
v -136.8 -104 0
v -137.6 -104 0
v -137.6 -103.2 0
v -136.8 -103.2 0
v -136 -104 0
v -136.8 -104 0
v -136.8 -103.2 0
v -136 -103.2 0
v -135.2 -104 0
v -136 -104 0
v -136 -103.2 0
v -135.2 -103.2 0
v -134.4 -104 0
v -135.2 -104 0
v -135.2 -103.2 0
v -134.4 -103.2 0
v -132 -104 0
v -132.8 -104 0
v -132.8 -103.2 0
v -132 -103.2 0
v -131.2 -104 0
v -132 -104 0
v -132 -103.2 0
v -131.2 -103.2 0
v -157.6 -103.2 0
v -158.4 -103.2 0
v -158.4 -102.4 0
v -157.6 -102.4 0
v -155.2 -103.2 0
v -156 -103.2 0
v -156 -102.4 0
v -155.2 -102.4 0
v -154.4 -103.2 0
v -155.2 -103.2 0
v -155.2 -102.4 0
v -154.4 -102.4 0
v -153.6 -103.2 0
v -154.4 -103.2 0
v -154.4 -102.4 0
v -153.6 -102.4 0
v -152.8 -103.2 0
v -153.6 -103.2 0
v -153.6 -102.4 0
v -152.8 -102.4 0
v -150.4 -103.2 0
v -151.2 -103.2 0
v -151.2 -102.4 0
v -150.4 -102.4 0
v -149.6 -103.2 0
v -150.4 -103.2 0
v -150.4 -102.4 0
v -149.6 -102.4 0
v -148.8 -103.2 0
v -149.6 -103.2 0
v -149.6 -102.4 0
v -148.8 -102.4 0
v -148 -103.2 0
v -148.8 -103.2 0
v -148.8 -102.4 0
v -148 -102.4 0
v -145.6 -103.2 0
v -146.4 -103.2 0
v -146.4 -102.4 0
v -145.6 -102.4 0
v -144.8 -103.2 0
v -145.6 -103.2 0
v -145.6 -102.4 0
v -144.8 -102.4 0
v -144 -103.2 0
v -144.8 -103.2 0
v -144.8 -102.4 0
v -144 -102.4 0
v -143.2 -103.2 0
v -144 -103.2 0
v -144 -102.4 0
v -143.2 -102.4 0
v -140.8 -103.2 0
v -141.6 -103.2 0
v -141.6 -102.4 0
v -140.8 -102.4 0
v -140 -103.2 0
v -140.8 -103.2 0
v -140.8 -102.4 0
v -140 -102.4 0
v -139.2 -103.2 0
v -140 -103.2 0
v -140 -102.4 0
v -139.2 -102.4 0
v -136.8 -103.2 0
v -137.6 -103.2 0
v -137.6 -102.4 0
v -136.8 -102.4 0
v -136 -103.2 0
v -136.8 -103.2 0
v -136.8 -102.4 0
v -136 -102.4 0
v -135.2 -103.2 0
v -136 -103.2 0
v -136 -102.4 0
v -135.2 -102.4 0
v -134.4 -103.2 0
v -135.2 -103.2 0
v -135.2 -102.4 0
v -134.4 -102.4 0
v -132 -103.2 0
v -132.8 -103.2 0
v -132.8 -102.4 0
v -132 -102.4 0
v -131.2 -103.2 0
v -132 -103.2 0
v -132 -102.4 0
v -131.2 -102.4 0
v -157.6 -102.4 0
v -158.4 -102.4 0
v -158.4 -101.6 0
v -157.6 -101.6 0
v -155.2 -102.4 0
v -156 -102.4 0
v -156 -101.6 0
v -155.2 -101.6 0
v -154.4 -102.4 0
v -155.2 -102.4 0
v -155.2 -101.6 0
v -154.4 -101.6 0
v -153.6 -102.4 0
v -154.4 -102.4 0
v -154.4 -101.6 0
v -153.6 -101.6 0
v -152.8 -102.4 0
v -153.6 -102.4 0
v -153.6 -101.6 0
v -152.8 -101.6 0
v -150.4 -102.4 0
v -151.2 -102.4 0
v -151.2 -101.6 0
v -150.4 -101.6 0
v -149.6 -102.4 0
v -150.4 -102.4 0
v -150.4 -101.6 0
v -149.6 -101.6 0
v -148.8 -102.4 0
v -149.6 -102.4 0
v -149.6 -101.6 0
v -148.8 -101.6 0
v -148 -102.4 0
v -148.8 -102.4 0
v -148.8 -101.6 0
v -148 -101.6 0
v -145.6 -102.4 0
v -146.4 -102.4 0
v -146.4 -101.6 0
v -145.6 -101.6 0
v -144.8 -102.4 0
v -145.6 -102.4 0
v -145.6 -101.6 0
v -144.8 -101.6 0
v -144 -102.4 0
v -144.8 -102.4 0
v -144.8 -101.6 0
v -144 -101.6 0
v -143.2 -102.4 0
v -144 -102.4 0
v -144 -101.6 0
v -143.2 -101.6 0
v -140.8 -102.4 0
v -141.6 -102.4 0
v -141.6 -101.6 0
v -140.8 -101.6 0
v -140 -102.4 0
v -140.8 -102.4 0
v -140.8 -101.6 0
v -140 -101.6 0
v -139.2 -102.4 0
v -140 -102.4 0
v -140 -101.6 0
v -139.2 -101.6 0
v -136.8 -102.4 0
v -137.6 -102.4 0
v -137.6 -101.6 0
v -136.8 -101.6 0
v -136 -102.4 0
v -136.8 -102.4 0
v -136.8 -101.6 0
v -136 -101.6 0
v -135.2 -102.4 0
v -136 -102.4 0
v -136 -101.6 0
v -135.2 -101.6 0
v -134.4 -102.4 0
v -135.2 -102.4 0
v -135.2 -101.6 0
v -134.4 -101.6 0
v -132 -102.4 0
v -132.8 -102.4 0
v -132.8 -101.6 0
v -132 -101.6 0
v -131.2 -102.4 0
v -132 -102.4 0
v -132 -101.6 0
v -131.2 -101.6 0
v -157.6 -101.6 0
v -158.4 -101.6 0
v -158.4 -100.8 0
v -157.6 -100.8 0
v -155.2 -101.6 0
v -156 -101.6 0
v -156 -100.8 0
v -155.2 -100.8 0
v -154.4 -101.6 0
v -155.2 -101.6 0
v -155.2 -100.8 0
v -154.4 -100.8 0
v -153.6 -101.6 0
v -154.4 -101.6 0
v -154.4 -100.8 0
v -153.6 -100.8 0
v -152.8 -101.6 0
v -153.6 -101.6 0
v -153.6 -100.8 0
v -152.8 -100.8 0
v -150.4 -101.6 0
v -151.2 -101.6 0
v -151.2 -100.8 0
v -150.4 -100.8 0
v -149.6 -101.6 0
v -150.4 -101.6 0
v -150.4 -100.8 0
v -149.6 -100.8 0
v -148.8 -101.6 0
v -149.6 -101.6 0
v -149.6 -100.8 0
v -148.8 -100.8 0
v -148 -101.6 0
v -148.8 -101.6 0
v -148.8 -100.8 0
v -148 -100.8 0
v -145.6 -101.6 0
v -146.4 -101.6 0
v -146.4 -100.8 0
v -145.6 -100.8 0
v -144.8 -101.6 0
v -145.6 -101.6 0
v -145.6 -100.8 0
v -144.8 -100.8 0
v -144 -101.6 0
v -144.8 -101.6 0
v -144.8 -100.8 0
v -144 -100.8 0
v -143.2 -101.6 0
v -144 -101.6 0
v -144 -100.8 0
v -143.2 -100.8 0
v -140.8 -101.6 0
v -141.6 -101.6 0
v -141.6 -100.8 0
v -140.8 -100.8 0
v -140 -101.6 0
v -140.8 -101.6 0
v -140.8 -100.8 0
v -140 -100.8 0
v -139.2 -101.6 0
v -140 -101.6 0
v -140 -100.8 0
v -139.2 -100.8 0
v -136.8 -101.6 0
v -137.6 -101.6 0
v -137.6 -100.8 0
v -136.8 -100.8 0
v -136 -101.6 0
v -136.8 -101.6 0
v -136.8 -100.8 0
v -136 -100.8 0
v -135.2 -101.6 0
v -136 -101.6 0
v -136 -100.8 0
v -135.2 -100.8 0
v -134.4 -101.6 0
v -135.2 -101.6 0
v -135.2 -100.8 0
v -134.4 -100.8 0
v -132 -101.6 0
v -132.8 -101.6 0
v -132.8 -100.8 0
v -132 -100.8 0
v -131.2 -101.6 0
v -132 -101.6 0
v -132 -100.8 0
v -131.2 -100.8 0
v -157.6 -100.8 0
v -158.4 -100.8 0
v -158.4 -100 0
v -157.6 -100 0
v -156.8 -100.8 0
v -157.6 -100.8 0
v -157.6 -100 0
v -156.8 -100 0
v -156 -100.8 0
v -156.8 -100.8 0
v -156.8 -100 0
v -156 -100 0
v -155.2 -100.8 0
v -156 -100.8 0
v -156 -100 0
v -155.2 -100 0
v -154.4 -100.8 0
v -155.2 -100.8 0
v -155.2 -100 0
v -154.4 -100 0
v -153.6 -100.8 0
v -154.4 -100.8 0
v -154.4 -100 0
v -153.6 -100 0
v -152.8 -100.8 0
v -153.6 -100.8 0
v -153.6 -100 0
v -152.8 -100 0
v -152 -100.8 0
v -152.8 -100.8 0
v -152.8 -100 0
v -152 -100 0
v -151.2 -100.8 0
v -152 -100.8 0
v -152 -100 0
v -151.2 -100 0
v -150.4 -100.8 0
v -151.2 -100.8 0
v -151.2 -100 0
v -150.4 -100 0
v -149.6 -100.8 0
v -150.4 -100.8 0
v -150.4 -100 0
v -149.6 -100 0
v -148.8 -100.8 0
v -149.6 -100.8 0
v -149.6 -100 0
v -148.8 -100 0
v -148 -100.8 0
v -148.8 -100.8 0
v -148.8 -100 0
v -148 -100 0
v -147.2 -100.8 0
v -148 -100.8 0
v -148 -100 0
v -147.2 -100 0
v -146.4 -100.8 0
v -147.2 -100.8 0
v -147.2 -100 0
v -146.4 -100 0
v -145.6 -100.8 0
v -146.4 -100.8 0
v -146.4 -100 0
v -145.6 -100 0
v -144.8 -100.8 0
v -145.6 -100.8 0
v -145.6 -100 0
v -144.8 -100 0
v -144 -100.8 0
v -144.8 -100.8 0
v -144.8 -100 0
v -144 -100 0
v -143.2 -100.8 0
v -144 -100.8 0
v -144 -100 0
v -143.2 -100 0
v -142.4 -100.8 0
v -143.2 -100.8 0
v -143.2 -100 0
v -142.4 -100 0
v -141.6 -100.8 0
v -142.4 -100.8 0
v -142.4 -100 0
v -141.6 -100 0
v -140.8 -100.8 0
v -141.6 -100.8 0
v -141.6 -100 0
v -140.8 -100 0
v -140 -100.8 0
v -140.8 -100.8 0
v -140.8 -100 0
v -140 -100 0
v -139.2 -100.8 0
v -140 -100.8 0
v -140 -100 0
v -139.2 -100 0
v -138.4 -100.8 0
v -139.2 -100.8 0
v -139.2 -100 0
v -138.4 -100 0
v -137.6 -100.8 0
v -138.4 -100.8 0
v -138.4 -100 0
v -137.6 -100 0
v -136.8 -100.8 0
v -137.6 -100.8 0
v -137.6 -100 0
v -136.8 -100 0
v -136 -100.8 0
v -136.8 -100.8 0
v -136.8 -100 0
v -136 -100 0
v -135.2 -100.8 0
v -136 -100.8 0
v -136 -100 0
v -135.2 -100 0
v -134.4 -100.8 0
v -135.2 -100.8 0
v -135.2 -100 0
v -134.4 -100 0
v -133.6 -100.8 0
v -134.4 -100.8 0
v -134.4 -100 0
v -133.6 -100 0
v -132.8 -100.8 0
v -133.6 -100.8 0
v -133.6 -100 0
v -132.8 -100 0
v -132 -100.8 0
v -132.8 -100.8 0
v -132.8 -100 0
v -132 -100 0
v -131.2 -100.8 0
v -132 -100.8 0
v -132 -100 0
v -131.2 -100 0
v -157.6 -100 0
v -158.4 -100 0
v -158.4 -99.2 0
v -157.6 -99.2 0
v -156.8 -100 0
v -157.6 -100 0
v -157.6 -99.2 0
v -156.8 -99.2 0
v -156 -100 0
v -156.8 -100 0
v -156.8 -99.2 0
v -156 -99.2 0
v -155.2 -100 0
v -156 -100 0
v -156 -99.2 0
v -155.2 -99.2 0
v -154.4 -100 0
v -155.2 -100 0
v -155.2 -99.2 0
v -154.4 -99.2 0
v -153.6 -100 0
v -154.4 -100 0
v -154.4 -99.2 0
v -153.6 -99.2 0
v -152.8 -100 0
v -153.6 -100 0
v -153.6 -99.2 0
v -152.8 -99.2 0
v -152 -100 0
v -152.8 -100 0
v -152.8 -99.2 0
v -152 -99.2 0
v -151.2 -100 0
v -152 -100 0
v -152 -99.2 0
v -151.2 -99.2 0
v -150.4 -100 0
v -151.2 -100 0
v -151.2 -99.2 0
v -150.4 -99.2 0
v -149.6 -100 0
v -150.4 -100 0
v -150.4 -99.2 0
v -149.6 -99.2 0
v -148.8 -100 0
v -149.6 -100 0
v -149.6 -99.2 0
v -148.8 -99.2 0
v -148 -100 0
v -148.8 -100 0
v -148.8 -99.2 0
v -148 -99.2 0
v -147.2 -100 0
v -148 -100 0
v -148 -99.2 0
v -147.2 -99.2 0
v -146.4 -100 0
v -147.2 -100 0
v -147.2 -99.2 0
v -146.4 -99.2 0
v -145.6 -100 0
v -146.4 -100 0
v -146.4 -99.2 0
v -145.6 -99.2 0
v -144.8 -100 0
v -145.6 -100 0
v -145.6 -99.2 0
v -144.8 -99.2 0
v -144 -100 0
v -144.8 -100 0
v -144.8 -99.2 0
v -144 -99.2 0
v -143.2 -100 0
v -144 -100 0
v -144 -99.2 0
v -143.2 -99.2 0
v -142.4 -100 0
v -143.2 -100 0
v -143.2 -99.2 0
v -142.4 -99.2 0
v -141.6 -100 0
v -142.4 -100 0
v -142.4 -99.2 0
v -141.6 -99.2 0
v -140.8 -100 0
v -141.6 -100 0
v -141.6 -99.2 0
v -140.8 -99.2 0
v -140 -100 0
v -140.8 -100 0
v -140.8 -99.2 0
v -140 -99.2 0
v -139.2 -100 0
v -140 -100 0
v -140 -99.2 0
v -139.2 -99.2 0
v -138.4 -100 0
v -139.2 -100 0
v -139.2 -99.2 0
v -138.4 -99.2 0
v -137.6 -100 0
v -138.4 -100 0
v -138.4 -99.2 0
v -137.6 -99.2 0
v -136.8 -100 0
v -137.6 -100 0
v -137.6 -99.2 0
v -136.8 -99.2 0
v -136 -100 0
v -136.8 -100 0
v -136.8 -99.2 0
v -136 -99.2 0
v -135.2 -100 0
v -136 -100 0
v -136 -99.2 0
v -135.2 -99.2 0
v -134.4 -100 0
v -135.2 -100 0
v -135.2 -99.2 0
v -134.4 -99.2 0
v -133.6 -100 0
v -134.4 -100 0
v -134.4 -99.2 0
v -133.6 -99.2 0
v -132.8 -100 0
v -133.6 -100 0
v -133.6 -99.2 0
v -132.8 -99.2 0
v -132 -100 0
v -132.8 -100 0
v -132.8 -99.2 0
v -132 -99.2 0
v -131.2 -100 0
v -132 -100 0
v -132 -99.2 0
v -131.2 -99.2 0
v -157.6 -99.2 0
v -158.4 -99.2 0
v -158.4 -98.4 0
v -157.6 -98.4 0
v -156.8 -99.2 0
v -157.6 -99.2 0
v -157.6 -98.4 0
v -156.8 -98.4 0
v -156 -99.2 0
v -156.8 -99.2 0
v -156.8 -98.4 0
v -156 -98.4 0
v -155.2 -99.2 0
v -156 -99.2 0
v -156 -98.4 0
v -155.2 -98.4 0
v -154.4 -99.2 0
v -155.2 -99.2 0
v -155.2 -98.4 0
v -154.4 -98.4 0
v -153.6 -99.2 0
v -154.4 -99.2 0
v -154.4 -98.4 0
v -153.6 -98.4 0
v -152.8 -99.2 0
v -153.6 -99.2 0
v -153.6 -98.4 0
v -152.8 -98.4 0
v -152 -99.2 0
v -152.8 -99.2 0
v -152.8 -98.4 0
v -152 -98.4 0
v -151.2 -99.2 0
v -152 -99.2 0
v -152 -98.4 0
v -151.2 -98.4 0
v -150.4 -99.2 0
v -151.2 -99.2 0
v -151.2 -98.4 0
v -150.4 -98.4 0
v -149.6 -99.2 0
v -150.4 -99.2 0
v -150.4 -98.4 0
v -149.6 -98.4 0
v -148.8 -99.2 0
v -149.6 -99.2 0
v -149.6 -98.4 0
v -148.8 -98.4 0
v -148 -99.2 0
v -148.8 -99.2 0
v -148.8 -98.4 0
v -148 -98.4 0
v -147.2 -99.2 0
v -148 -99.2 0
v -148 -98.4 0
v -147.2 -98.4 0
v -146.4 -99.2 0
v -147.2 -99.2 0
v -147.2 -98.4 0
v -146.4 -98.4 0
v -145.6 -99.2 0
v -146.4 -99.2 0
v -146.4 -98.4 0
v -145.6 -98.4 0
v -144.8 -99.2 0
v -145.6 -99.2 0
v -145.6 -98.4 0
v -144.8 -98.4 0
v -144 -99.2 0
v -144.8 -99.2 0
v -144.8 -98.4 0
v -144 -98.4 0
v -143.2 -99.2 0
v -144 -99.2 0
v -144 -98.4 0
v -143.2 -98.4 0
v -142.4 -99.2 0
v -143.2 -99.2 0
v -143.2 -98.4 0
v -142.4 -98.4 0
v -141.6 -99.2 0
v -142.4 -99.2 0
v -142.4 -98.4 0
v -141.6 -98.4 0
v -140.8 -99.2 0
v -141.6 -99.2 0
v -141.6 -98.4 0
v -140.8 -98.4 0
v -140 -99.2 0
v -140.8 -99.2 0
v -140.8 -98.4 0
v -140 -98.4 0
v -139.2 -99.2 0
v -140 -99.2 0
v -140 -98.4 0
v -139.2 -98.4 0
v -138.4 -99.2 0
v -139.2 -99.2 0
v -139.2 -98.4 0
v -138.4 -98.4 0
v -137.6 -99.2 0
v -138.4 -99.2 0
v -138.4 -98.4 0
v -137.6 -98.4 0
v -136.8 -99.2 0
v -137.6 -99.2 0
v -137.6 -98.4 0
v -136.8 -98.4 0
v -136 -99.2 0
v -136.8 -99.2 0
v -136.8 -98.4 0
v -136 -98.4 0
v -135.2 -99.2 0
v -136 -99.2 0
v -136 -98.4 0
v -135.2 -98.4 0
v -134.4 -99.2 0
v -135.2 -99.2 0
v -135.2 -98.4 0
v -134.4 -98.4 0
v -133.6 -99.2 0
v -134.4 -99.2 0
v -134.4 -98.4 0
v -133.6 -98.4 0
v -132.8 -99.2 0
v -133.6 -99.2 0
v -133.6 -98.4 0
v -132.8 -98.4 0
v -132 -99.2 0
v -132.8 -99.2 0
v -132.8 -98.4 0
v -132 -98.4 0
v -131.2 -99.2 0
v -132 -99.2 0
v -132 -98.4 0
v -131.2 -98.4 0
v -130.4 -99.2 0
v -131.2 -99.2 0
v -131.2 -98.4 0
v -130.4 -98.4 0

# Texture cooridinates (Count = 26)
vt 0.3333333 0.4285714
vt 0.375 0.4285714
vt 0.375 0.4761904
vt 0.3333333 0.4761904
vt 0.25 0.4285714
vt 0.2916667 0.4285714
vt 0.2916667 0.4761904
vt 0.25 0.4761904
vt 0.2916667 0.6190476
vt 0.3333333 0.6190476
vt 0.3333333 0.6666666
vt 0.2916667 0.6666666
vt 0.375 0.5238096
vt 0.3333333 0.5238096
vt 0.2916667 0.5238096
vt 0.25 0.5238096
vt 0.2083333 0.4761904
vt 0.2083333 0.5238096
vt 0.375 0.5714285
vt 0.3333333 0.5714285
vt 0.2916667 0.5714285
vt 0.25 0.5714285
vt 0.2083333 0.5714285
vt 0.375 0.6190476
vt 0.25 0.6190476
vt 0.2083333 0.6190476

# Normal
vn 0 0 -1

# Mesh description
g Map2_mesh_0014

# Faces
f 1/1/1 2/2/1 3/3/1 4/4/1
f 5/2/1 6/1/1 7/4/1 8/3/1
f 9/5/1 10/6/1 11/7/1 12/8/1
f 13/5/1 14/6/1 15/7/1 16/8/1
f 17/1/1 18/2/1 19/3/1 20/4/1
f 21/2/1 22/1/1 23/4/1 24/3/1
f 25/5/1 26/6/1 27/7/1 28/8/1
f 29/5/1 30/6/1 31/7/1 32/8/1
f 33/1/1 34/2/1 35/3/1 36/4/1
f 37/2/1 38/1/1 39/4/1 40/3/1
f 41/9/1 42/10/1 43/11/1 44/12/1
f 45/9/1 46/10/1 47/11/1 48/12/1
f 49/1/1 50/2/1 51/3/1 52/4/1
f 53/2/1 54/1/1 55/4/1 56/3/1
f 57/9/1 58/10/1 59/11/1 60/12/1
f 61/1/1 62/2/1 63/3/1 64/4/1
f 65/2/1 66/1/1 67/4/1 68/3/1
f 69/5/1 70/6/1 71/7/1 72/8/1
f 73/5/1 74/6/1 75/7/1 76/8/1
f 77/1/1 78/2/1 79/3/1 80/4/1
f 81/2/1 82/1/1 83/4/1 84/3/1
f 85/5/1 86/6/1 87/7/1 88/8/1
f 89/1/1 90/2/1 91/3/1 92/4/1
f 93/2/1 94/1/1 95/4/1 96/3/1
f 97/5/1 98/6/1 99/7/1 100/8/1
f 101/5/1 102/6/1 103/7/1 104/8/1
f 105/1/1 106/2/1 107/3/1 108/4/1
f 109/2/1 110/1/1 111/4/1 112/3/1
f 113/5/1 114/6/1 115/7/1 116/8/1
f 117/5/1 118/6/1 119/7/1 120/8/1
f 121/1/1 122/2/1 123/3/1 124/4/1
f 125/2/1 126/1/1 127/4/1 128/3/1
f 129/9/1 130/10/1 131/11/1 132/12/1
f 133/9/1 134/10/1 135/11/1 136/12/1
f 137/1/1 138/2/1 139/3/1 140/4/1
f 141/2/1 142/1/1 143/4/1 144/3/1
f 145/9/1 146/10/1 147/11/1 148/12/1
f 149/1/1 150/2/1 151/3/1 152/4/1
f 153/2/1 154/1/1 155/4/1 156/3/1
f 157/5/1 158/6/1 159/7/1 160/8/1
f 161/5/1 162/6/1 163/7/1 164/8/1
f 165/1/1 166/2/1 167/3/1 168/4/1
f 169/2/1 170/1/1 171/4/1 172/3/1
f 173/5/1 174/6/1 175/7/1 176/8/1
f 177/1/1 178/2/1 179/3/1 180/4/1
f 181/2/1 182/1/1 183/4/1 184/3/1
f 185/5/1 186/6/1 187/7/1 188/8/1
f 189/5/1 190/6/1 191/7/1 192/8/1
f 193/1/1 194/2/1 195/3/1 196/4/1
f 197/2/1 198/1/1 199/4/1 200/3/1
f 201/5/1 202/6/1 203/7/1 204/8/1
f 205/5/1 206/6/1 207/7/1 208/8/1
f 209/1/1 210/2/1 211/3/1 212/4/1
f 213/2/1 214/1/1 215/4/1 216/3/1
f 217/9/1 218/10/1 219/11/1 220/12/1
f 221/9/1 222/10/1 223/11/1 224/12/1
f 225/1/1 226/2/1 227/3/1 228/4/1
f 229/2/1 230/1/1 231/4/1 232/3/1
f 233/9/1 234/10/1 235/11/1 236/12/1
f 237/1/1 238/2/1 239/3/1 240/4/1
f 241/2/1 242/1/1 243/4/1 244/3/1
f 245/5/1 246/6/1 247/7/1 248/8/1
f 249/5/1 250/6/1 251/7/1 252/8/1
f 253/1/1 254/2/1 255/3/1 256/4/1
f 257/2/1 258/1/1 259/4/1 260/3/1
f 261/5/1 262/6/1 263/7/1 264/8/1
f 265/1/1 266/2/1 267/3/1 268/4/1
f 269/2/1 270/1/1 271/4/1 272/3/1
f 273/5/1 274/6/1 275/7/1 276/8/1
f 277/5/1 278/6/1 279/7/1 280/8/1
f 281/1/1 282/2/1 283/3/1 284/4/1
f 285/2/1 286/1/1 287/4/1 288/3/1
f 289/5/1 290/6/1 291/7/1 292/8/1
f 293/5/1 294/6/1 295/7/1 296/8/1
f 297/1/1 298/2/1 299/3/1 300/4/1
f 301/2/1 302/1/1 303/4/1 304/3/1
f 305/9/1 306/10/1 307/11/1 308/12/1
f 309/9/1 310/10/1 311/11/1 312/12/1
f 313/1/1 314/2/1 315/3/1 316/4/1
f 317/2/1 318/1/1 319/4/1 320/3/1
f 321/9/1 322/10/1 323/11/1 324/12/1
f 325/1/1 326/2/1 327/3/1 328/4/1
f 329/2/1 330/1/1 331/4/1 332/3/1
f 333/5/1 334/6/1 335/7/1 336/8/1
f 337/5/1 338/6/1 339/7/1 340/8/1
f 341/1/1 342/2/1 343/3/1 344/4/1
f 345/2/1 346/1/1 347/4/1 348/3/1
f 349/5/1 350/6/1 351/7/1 352/8/1
f 353/4/1 354/3/1 355/13/1 356/14/1
f 357/7/1 358/4/1 359/14/1 360/15/1
f 361/8/1 362/7/1 363/15/1 364/16/1
f 365/17/1 366/8/1 367/16/1 368/18/1
f 369/5/1 370/6/1 371/7/1 372/8/1
f 373/5/1 374/6/1 375/7/1 376/8/1
f 377/4/1 378/3/1 379/13/1 380/14/1
f 381/7/1 382/4/1 383/14/1 384/15/1
f 385/8/1 386/7/1 387/15/1 388/16/1
f 389/17/1 390/8/1 391/16/1 392/18/1
f 393/5/1 394/6/1 395/7/1 396/8/1
f 397/5/1 398/6/1 399/7/1 400/8/1
f 401/4/1 402/3/1 403/13/1 404/14/1
f 405/7/1 406/4/1 407/14/1 408/15/1
f 409/8/1 410/7/1 411/15/1 412/16/1
f 413/17/1 414/8/1 415/16/1 416/18/1
f 417/9/1 418/10/1 419/11/1 420/12/1
f 421/9/1 422/10/1 423/11/1 424/12/1
f 425/4/1 426/3/1 427/13/1 428/14/1
f 429/7/1 430/4/1 431/14/1 432/15/1
f 433/8/1 434/7/1 435/15/1 436/16/1
f 437/17/1 438/8/1 439/16/1 440/18/1
f 441/9/1 442/10/1 443/11/1 444/12/1
f 445/4/1 446/3/1 447/13/1 448/14/1
f 449/7/1 450/4/1 451/14/1 452/15/1
f 453/8/1 454/7/1 455/15/1 456/16/1
f 457/17/1 458/8/1 459/16/1 460/18/1
f 461/5/1 462/6/1 463/7/1 464/8/1
f 465/5/1 466/6/1 467/7/1 468/8/1
f 469/4/1 470/3/1 471/13/1 472/14/1
f 473/7/1 474/4/1 475/14/1 476/15/1
f 477/8/1 478/7/1 479/15/1 480/16/1
f 481/17/1 482/8/1 483/16/1 484/18/1
f 485/5/1 486/6/1 487/7/1 488/8/1
f 489/14/1 490/13/1 491/19/1 492/20/1
f 493/15/1 494/14/1 495/20/1 496/21/1
f 497/16/1 498/15/1 499/21/1 500/22/1
f 501/18/1 502/16/1 503/22/1 504/23/1
f 505/5/1 506/6/1 507/7/1 508/8/1
f 509/5/1 510/6/1 511/7/1 512/8/1
f 513/14/1 514/13/1 515/19/1 516/20/1
f 517/15/1 518/14/1 519/20/1 520/21/1
f 521/16/1 522/15/1 523/21/1 524/22/1
f 525/18/1 526/16/1 527/22/1 528/23/1
f 529/5/1 530/6/1 531/7/1 532/8/1
f 533/5/1 534/6/1 535/7/1 536/8/1
f 537/14/1 538/13/1 539/19/1 540/20/1
f 541/15/1 542/14/1 543/20/1 544/21/1
f 545/16/1 546/15/1 547/21/1 548/22/1
f 549/18/1 550/16/1 551/22/1 552/23/1
f 553/5/1 554/6/1 555/7/1 556/8/1
f 557/5/1 558/6/1 559/7/1 560/8/1
f 561/14/1 562/13/1 563/19/1 564/20/1
f 565/15/1 566/14/1 567/20/1 568/21/1
f 569/16/1 570/15/1 571/21/1 572/22/1
f 573/18/1 574/16/1 575/22/1 576/23/1
f 577/9/1 578/10/1 579/11/1 580/12/1
f 581/9/1 582/10/1 583/11/1 584/12/1
f 585/15/1 586/14/1 587/20/1 588/21/1
f 589/16/1 590/15/1 591/21/1 592/22/1
f 593/18/1 594/16/1 595/22/1 596/23/1
f 597/5/1 598/6/1 599/7/1 600/8/1
f 601/5/1 602/6/1 603/7/1 604/8/1
f 605/14/1 606/13/1 607/19/1 608/20/1
f 609/15/1 610/14/1 611/20/1 612/21/1
f 613/16/1 614/15/1 615/21/1 616/22/1
f 617/18/1 618/16/1 619/22/1 620/23/1
f 621/5/1 622/6/1 623/7/1 624/8/1
f 625/20/1 626/19/1 627/24/1 628/10/1
f 629/21/1 630/20/1 631/10/1 632/9/1
f 633/21/1 634/20/1 635/10/1 636/9/1
f 637/21/1 638/20/1 639/10/1 640/9/1
f 641/21/1 642/20/1 643/10/1 644/9/1
f 645/21/1 646/20/1 647/10/1 648/9/1
f 649/20/1 650/19/1 651/24/1 652/10/1
f 653/21/1 654/20/1 655/10/1 656/9/1
f 657/21/1 658/20/1 659/10/1 660/9/1
f 661/21/1 662/20/1 663/10/1 664/9/1
f 665/21/1 666/20/1 667/10/1 668/9/1
f 669/21/1 670/20/1 671/10/1 672/9/1
f 673/20/1 674/19/1 675/24/1 676/10/1
f 677/21/1 678/20/1 679/10/1 680/9/1
f 681/21/1 682/20/1 683/10/1 684/9/1
f 685/21/1 686/20/1 687/10/1 688/9/1
f 689/21/1 690/20/1 691/10/1 692/9/1
f 693/21/1 694/20/1 695/10/1 696/9/1
f 697/21/1 698/20/1 699/10/1 700/9/1
f 701/21/1 702/20/1 703/10/1 704/9/1
f 705/21/1 706/20/1 707/10/1 708/9/1
f 709/22/1 710/21/1 711/9/1 712/25/1
f 713/21/1 714/20/1 715/10/1 716/9/1
f 717/20/1 718/19/1 719/24/1 720/10/1
f 721/21/1 722/20/1 723/10/1 724/9/1
f 725/21/1 726/20/1 727/10/1 728/9/1
f 729/21/1 730/20/1 731/10/1 732/9/1
f 733/21/1 734/20/1 735/10/1 736/9/1
f 737/21/1 738/20/1 739/10/1 740/9/1
f 741/21/1 742/20/1 743/10/1 744/9/1
f 745/21/1 746/20/1 747/10/1 748/9/1
f 749/21/1 750/20/1 751/10/1 752/9/1
f 753/22/1 754/21/1 755/9/1 756/25/1
f 757/23/1 758/22/1 759/25/1 760/26/1
f 761/6/1 762/1/1 763/4/1 764/7/1

