# Tiled2Unity generated file. Do not modify by hand.
# Wavefront file for 'Map2_mesh_0021.obj'

# Vertices (Count = 296)
v -156.8 -99.2 0
v -157.6 -99.2 0
v -157.6 -98.4 0
v -156.8 -98.4 0
v -156 -99.2 0
v -156.8 -99.2 0
v -156.8 -98.4 0
v -156 -98.4 0
v -155.2 -99.2 0
v -156 -99.2 0
v -156 -98.4 0
v -155.2 -98.4 0
v -154.4 -99.2 0
v -155.2 -99.2 0
v -155.2 -98.4 0
v -154.4 -98.4 0
v -153.6 -99.2 0
v -154.4 -99.2 0
v -154.4 -98.4 0
v -153.6 -98.4 0
v -152.8 -99.2 0
v -153.6 -99.2 0
v -153.6 -98.4 0
v -152.8 -98.4 0
v -152 -99.2 0
v -152.8 -99.2 0
v -152.8 -98.4 0
v -152 -98.4 0
v -151.2 -99.2 0
v -152 -99.2 0
v -152 -98.4 0
v -151.2 -98.4 0
v -150.4 -99.2 0
v -151.2 -99.2 0
v -151.2 -98.4 0
v -150.4 -98.4 0
v -149.6 -99.2 0
v -150.4 -99.2 0
v -150.4 -98.4 0
v -149.6 -98.4 0
v -148.8 -99.2 0
v -149.6 -99.2 0
v -149.6 -98.4 0
v -148.8 -98.4 0
v -148 -99.2 0
v -148.8 -99.2 0
v -148.8 -98.4 0
v -148 -98.4 0
v -147.2 -99.2 0
v -148 -99.2 0
v -148 -98.4 0
v -147.2 -98.4 0
v -146.4 -99.2 0
v -147.2 -99.2 0
v -147.2 -98.4 0
v -146.4 -98.4 0
v -143.2 -99.2 0
v -144 -99.2 0
v -144 -98.4 0
v -143.2 -98.4 0
v -142.4 -99.2 0
v -143.2 -99.2 0
v -143.2 -98.4 0
v -142.4 -98.4 0
v -141.6 -99.2 0
v -142.4 -99.2 0
v -142.4 -98.4 0
v -141.6 -98.4 0
v -140.8 -99.2 0
v -141.6 -99.2 0
v -141.6 -98.4 0
v -140.8 -98.4 0
v -140 -99.2 0
v -140.8 -99.2 0
v -140.8 -98.4 0
v -140 -98.4 0
v -139.2 -99.2 0
v -140 -99.2 0
v -140 -98.4 0
v -139.2 -98.4 0
v -138.4 -99.2 0
v -139.2 -99.2 0
v -139.2 -98.4 0
v -138.4 -98.4 0
v -137.6 -99.2 0
v -138.4 -99.2 0
v -138.4 -98.4 0
v -137.6 -98.4 0
v -135.2 -99.2 0
v -136 -99.2 0
v -136 -98.4 0
v -135.2 -98.4 0
v -134.4 -99.2 0
v -135.2 -99.2 0
v -135.2 -98.4 0
v -134.4 -98.4 0
v -133.6 -99.2 0
v -134.4 -99.2 0
v -134.4 -98.4 0
v -133.6 -98.4 0
v -132.8 -99.2 0
v -133.6 -99.2 0
v -133.6 -98.4 0
v -132.8 -98.4 0
v -132 -99.2 0
v -132.8 -99.2 0
v -132.8 -98.4 0
v -132 -98.4 0
v -131.2 -99.2 0
v -132 -99.2 0
v -132 -98.4 0
v -131.2 -98.4 0
v -157.6 -98.4 0
v -158.4 -98.4 0
v -158.4 -97.6 0
v -157.6 -97.6 0
v -156.8 -98.4 0
v -157.6 -98.4 0
v -157.6 -97.6 0
v -156.8 -97.6 0
v -156 -98.4 0
v -156.8 -98.4 0
v -156.8 -97.6 0
v -156 -97.6 0
v -155.2 -98.4 0
v -156 -98.4 0
v -156 -97.6 0
v -155.2 -97.6 0
v -154.4 -98.4 0
v -155.2 -98.4 0
v -155.2 -97.6 0
v -154.4 -97.6 0
v -153.6 -98.4 0
v -154.4 -98.4 0
v -154.4 -97.6 0
v -153.6 -97.6 0
v -152.8 -98.4 0
v -153.6 -98.4 0
v -153.6 -97.6 0
v -152.8 -97.6 0
v -152 -98.4 0
v -152.8 -98.4 0
v -152.8 -97.6 0
v -152 -97.6 0
v -151.2 -98.4 0
v -152 -98.4 0
v -152 -97.6 0
v -151.2 -97.6 0
v -150.4 -98.4 0
v -151.2 -98.4 0
v -151.2 -97.6 0
v -150.4 -97.6 0
v -149.6 -98.4 0
v -150.4 -98.4 0
v -150.4 -97.6 0
v -149.6 -97.6 0
v -148.8 -98.4 0
v -149.6 -98.4 0
v -149.6 -97.6 0
v -148.8 -97.6 0
v -148 -98.4 0
v -148.8 -98.4 0
v -148.8 -97.6 0
v -148 -97.6 0
v -147.2 -98.4 0
v -148 -98.4 0
v -148 -97.6 0
v -147.2 -97.6 0
v -146.4 -98.4 0
v -147.2 -98.4 0
v -147.2 -97.6 0
v -146.4 -97.6 0
v -145.6 -98.4 0
v -146.4 -98.4 0
v -146.4 -97.6 0
v -145.6 -97.6 0
v -144.8 -98.4 0
v -145.6 -98.4 0
v -145.6 -97.6 0
v -144.8 -97.6 0
v -144 -98.4 0
v -144.8 -98.4 0
v -144.8 -97.6 0
v -144 -97.6 0
v -143.2 -98.4 0
v -144 -98.4 0
v -144 -97.6 0
v -143.2 -97.6 0
v -142.4 -98.4 0
v -143.2 -98.4 0
v -143.2 -97.6 0
v -142.4 -97.6 0
v -141.6 -98.4 0
v -142.4 -98.4 0
v -142.4 -97.6 0
v -141.6 -97.6 0
v -140.8 -98.4 0
v -141.6 -98.4 0
v -141.6 -97.6 0
v -140.8 -97.6 0
v -140 -98.4 0
v -140.8 -98.4 0
v -140.8 -97.6 0
v -140 -97.6 0
v -139.2 -98.4 0
v -140 -98.4 0
v -140 -97.6 0
v -139.2 -97.6 0
v -138.4 -98.4 0
v -139.2 -98.4 0
v -139.2 -97.6 0
v -138.4 -97.6 0
v -137.6 -98.4 0
v -138.4 -98.4 0
v -138.4 -97.6 0
v -137.6 -97.6 0
v -136.8 -98.4 0
v -137.6 -98.4 0
v -137.6 -97.6 0
v -136.8 -97.6 0
v -136 -98.4 0
v -136.8 -98.4 0
v -136.8 -97.6 0
v -136 -97.6 0
v -135.2 -98.4 0
v -136 -98.4 0
v -136 -97.6 0
v -135.2 -97.6 0
v -134.4 -98.4 0
v -135.2 -98.4 0
v -135.2 -97.6 0
v -134.4 -97.6 0
v -133.6 -98.4 0
v -134.4 -98.4 0
v -134.4 -97.6 0
v -133.6 -97.6 0
v -132.8 -98.4 0
v -133.6 -98.4 0
v -133.6 -97.6 0
v -132.8 -97.6 0
v -132 -98.4 0
v -132.8 -98.4 0
v -132.8 -97.6 0
v -132 -97.6 0
v -131.2 -98.4 0
v -132 -98.4 0
v -132 -97.6 0
v -131.2 -97.6 0
v -76 -96.8 0
v -76.8 -96.8 0
v -76.8 -96 0
v -76 -96 0
v -71.2 -96.8 0
v -72 -96.8 0
v -72 -96 0
v -71.2 -96 0
v -66.4 -96.8 0
v -67.2 -96.8 0
v -67.2 -96 0
v -66.4 -96 0
v -76 -96 0
v -76.8 -96 0
v -76.8 -95.2 0
v -76 -95.2 0
v -71.2 -96 0
v -72 -96 0
v -72 -95.2 0
v -71.2 -95.2 0
v -66.4 -96 0
v -67.2 -96 0
v -67.2 -95.2 0
v -66.4 -95.2 0
v -76 -95.2 0
v -76.8 -95.2 0
v -76.8 -94.4 0
v -76 -94.4 0
v -71.2 -95.2 0
v -72 -95.2 0
v -72 -94.4 0
v -71.2 -94.4 0
v -66.4 -95.2 0
v -67.2 -95.2 0
v -67.2 -94.4 0
v -66.4 -94.4 0
v -76 -94.4 0
v -76.8 -94.4 0
v -76.8 -93.6 0
v -76 -93.6 0
v -71.2 -94.4 0
v -72 -94.4 0
v -72 -93.6 0
v -71.2 -93.6 0
v -66.4 -94.4 0
v -67.2 -94.4 0
v -67.2 -93.6 0
v -66.4 -93.6 0

# Texture cooridinates (Count = 13)
vt 0.04166667 0.7619048
vt 0.08333334 0.7619048
vt 0.08333334 0.8095238
vt 0.04166667 0.8095238
vt 0 0.7619048
vt 0 0.8095238
vt 0.08333334 0.8571429
vt 0.04166667 0.8571429
vt 0 0.8571429
vt 0.25 0.09523809
vt 0.2916667 0.09523809
vt 0.2916667 0.1428571
vt 0.25 0.1428571

# Normal
vn 0 0 -1

# Mesh description
g Map2_mesh_0021

# Faces
f 1/1/1 2/2/1 3/3/1 4/4/1
f 5/1/1 6/2/1 7/3/1 8/4/1
f 9/1/1 10/2/1 11/3/1 12/4/1
f 13/1/1 14/2/1 15/3/1 16/4/1
f 17/1/1 18/2/1 19/3/1 20/4/1
f 21/1/1 22/2/1 23/3/1 24/4/1
f 25/1/1 26/2/1 27/3/1 28/4/1
f 29/1/1 30/2/1 31/3/1 32/4/1
f 33/1/1 34/2/1 35/3/1 36/4/1
f 37/1/1 38/2/1 39/3/1 40/4/1
f 41/1/1 42/2/1 43/3/1 44/4/1
f 45/1/1 46/2/1 47/3/1 48/4/1
f 49/1/1 50/2/1 51/3/1 52/4/1
f 53/1/1 54/2/1 55/3/1 56/4/1
f 57/1/1 58/2/1 59/3/1 60/4/1
f 61/1/1 62/2/1 63/3/1 64/4/1
f 65/1/1 66/2/1 67/3/1 68/4/1
f 69/1/1 70/2/1 71/3/1 72/4/1
f 73/1/1 74/2/1 75/3/1 76/4/1
f 77/1/1 78/2/1 79/3/1 80/4/1
f 81/1/1 82/2/1 83/3/1 84/4/1
f 85/1/1 86/2/1 87/3/1 88/4/1
f 89/1/1 90/2/1 91/3/1 92/4/1
f 93/1/1 94/2/1 95/3/1 96/4/1
f 97/1/1 98/2/1 99/3/1 100/4/1
f 101/1/1 102/2/1 103/3/1 104/4/1
f 105/1/1 106/2/1 107/3/1 108/4/1
f 109/5/1 110/1/1 111/4/1 112/6/1
f 113/4/1 114/3/1 115/7/1 116/8/1
f 117/4/1 118/3/1 119/7/1 120/8/1
f 121/4/1 122/3/1 123/7/1 124/8/1
f 125/4/1 126/3/1 127/7/1 128/8/1
f 129/4/1 130/3/1 131/7/1 132/8/1
f 133/4/1 134/3/1 135/7/1 136/8/1
f 137/4/1 138/3/1 139/7/1 140/8/1
f 141/4/1 142/3/1 143/7/1 144/8/1
f 145/4/1 146/3/1 147/7/1 148/8/1
f 149/4/1 150/3/1 151/7/1 152/8/1
f 153/4/1 154/3/1 155/7/1 156/8/1
f 157/4/1 158/3/1 159/7/1 160/8/1
f 161/4/1 162/3/1 163/7/1 164/8/1
f 165/4/1 166/3/1 167/7/1 168/8/1
f 169/4/1 170/3/1 171/7/1 172/8/1
f 173/4/1 174/3/1 175/7/1 176/8/1
f 177/4/1 178/3/1 179/7/1 180/8/1
f 181/4/1 182/3/1 183/7/1 184/8/1
f 185/4/1 186/3/1 187/7/1 188/8/1
f 189/4/1 190/3/1 191/7/1 192/8/1
f 193/4/1 194/3/1 195/7/1 196/8/1
f 197/4/1 198/3/1 199/7/1 200/8/1
f 201/4/1 202/3/1 203/7/1 204/8/1
f 205/4/1 206/3/1 207/7/1 208/8/1
f 209/4/1 210/3/1 211/7/1 212/8/1
f 213/4/1 214/3/1 215/7/1 216/8/1
f 217/4/1 218/3/1 219/7/1 220/8/1
f 221/4/1 222/3/1 223/7/1 224/8/1
f 225/4/1 226/3/1 227/7/1 228/8/1
f 229/4/1 230/3/1 231/7/1 232/8/1
f 233/4/1 234/3/1 235/7/1 236/8/1
f 237/4/1 238/3/1 239/7/1 240/8/1
f 241/4/1 242/3/1 243/7/1 244/8/1
f 245/6/1 246/4/1 247/8/1 248/9/1
f 249/10/1 250/11/1 251/12/1 252/13/1
f 253/10/1 254/11/1 255/12/1 256/13/1
f 257/10/1 258/11/1 259/12/1 260/13/1
f 261/10/1 262/11/1 263/12/1 264/13/1
f 265/10/1 266/11/1 267/12/1 268/13/1
f 269/10/1 270/11/1 271/12/1 272/13/1
f 273/10/1 274/11/1 275/12/1 276/13/1
f 277/10/1 278/11/1 279/12/1 280/13/1
f 281/10/1 282/11/1 283/12/1 284/13/1
f 285/10/1 286/11/1 287/12/1 288/13/1
f 289/10/1 290/11/1 291/12/1 292/13/1
f 293/10/1 294/11/1 295/12/1 296/13/1

