# Tiled2Unity generated file. Do not modify by hand.
# Wavefront file for 'Map2_mesh_0014.obj'

# Vertices (Count = 796)
v -158.4 -104 0
v -159.2 -104 0
v -159.2 -103.2 0
v -158.4 -103.2 0
v -157.6 -104 0
v -158.4 -104 0
v -158.4 -103.2 0
v -157.6 -103.2 0
v -155.2 -104 0
v -156 -104 0
v -156 -103.2 0
v -155.2 -103.2 0
v -154.4 -104 0
v -155.2 -104 0
v -155.2 -103.2 0
v -154.4 -103.2 0
v -153.6 -104 0
v -154.4 -104 0
v -154.4 -103.2 0
v -153.6 -103.2 0
v -152.8 -104 0
v -153.6 -104 0
v -153.6 -103.2 0
v -152.8 -103.2 0
v -150.4 -104 0
v -151.2 -104 0
v -151.2 -103.2 0
v -150.4 -103.2 0
v -149.6 -104 0
v -150.4 -104 0
v -150.4 -103.2 0
v -149.6 -103.2 0
v -148.8 -104 0
v -149.6 -104 0
v -149.6 -103.2 0
v -148.8 -103.2 0
v -148 -104 0
v -148.8 -104 0
v -148.8 -103.2 0
v -148 -103.2 0
v -145.6 -104 0
v -146.4 -104 0
v -146.4 -103.2 0
v -145.6 -103.2 0
v -144.8 -104 0
v -145.6 -104 0
v -145.6 -103.2 0
v -144.8 -103.2 0
v -144 -104 0
v -144.8 -104 0
v -144.8 -103.2 0
v -144 -103.2 0
v -143.2 -104 0
v -144 -104 0
v -144 -103.2 0
v -143.2 -103.2 0
v -140.8 -104 0
v -141.6 -104 0
v -141.6 -103.2 0
v -140.8 -103.2 0
v -140 -104 0
v -140.8 -104 0
v -140.8 -103.2 0
v -140 -103.2 0
v -139.2 -104 0
v -140 -104 0
v -140 -103.2 0
v -139.2 -103.2 0
v -136.8 -104 0
v -137.6 -104 0
v -137.6 -103.2 0
v -136.8 -103.2 0
v -136 -104 0
v -136.8 -104 0
v -136.8 -103.2 0
v -136 -103.2 0
v -135.2 -104 0
v -136 -104 0
v -136 -103.2 0
v -135.2 -103.2 0
v -134.4 -104 0
v -135.2 -104 0
v -135.2 -103.2 0
v -134.4 -103.2 0
v -132 -104 0
v -132.8 -104 0
v -132.8 -103.2 0
v -132 -103.2 0
v -131.2 -104 0
v -132 -104 0
v -132 -103.2 0
v -131.2 -103.2 0
v -158.4 -103.2 0
v -159.2 -103.2 0
v -159.2 -102.4 0
v -158.4 -102.4 0
v -157.6 -103.2 0
v -158.4 -103.2 0
v -158.4 -102.4 0
v -157.6 -102.4 0
v -155.2 -103.2 0
v -156 -103.2 0
v -156 -102.4 0
v -155.2 -102.4 0
v -154.4 -103.2 0
v -155.2 -103.2 0
v -155.2 -102.4 0
v -154.4 -102.4 0
v -153.6 -103.2 0
v -154.4 -103.2 0
v -154.4 -102.4 0
v -153.6 -102.4 0
v -152.8 -103.2 0
v -153.6 -103.2 0
v -153.6 -102.4 0
v -152.8 -102.4 0
v -150.4 -103.2 0
v -151.2 -103.2 0
v -151.2 -102.4 0
v -150.4 -102.4 0
v -149.6 -103.2 0
v -150.4 -103.2 0
v -150.4 -102.4 0
v -149.6 -102.4 0
v -148.8 -103.2 0
v -149.6 -103.2 0
v -149.6 -102.4 0
v -148.8 -102.4 0
v -148 -103.2 0
v -148.8 -103.2 0
v -148.8 -102.4 0
v -148 -102.4 0
v -145.6 -103.2 0
v -146.4 -103.2 0
v -146.4 -102.4 0
v -145.6 -102.4 0
v -144.8 -103.2 0
v -145.6 -103.2 0
v -145.6 -102.4 0
v -144.8 -102.4 0
v -144 -103.2 0
v -144.8 -103.2 0
v -144.8 -102.4 0
v -144 -102.4 0
v -143.2 -103.2 0
v -144 -103.2 0
v -144 -102.4 0
v -143.2 -102.4 0
v -140.8 -103.2 0
v -141.6 -103.2 0
v -141.6 -102.4 0
v -140.8 -102.4 0
v -140 -103.2 0
v -140.8 -103.2 0
v -140.8 -102.4 0
v -140 -102.4 0
v -139.2 -103.2 0
v -140 -103.2 0
v -140 -102.4 0
v -139.2 -102.4 0
v -136.8 -103.2 0
v -137.6 -103.2 0
v -137.6 -102.4 0
v -136.8 -102.4 0
v -136 -103.2 0
v -136.8 -103.2 0
v -136.8 -102.4 0
v -136 -102.4 0
v -135.2 -103.2 0
v -136 -103.2 0
v -136 -102.4 0
v -135.2 -102.4 0
v -134.4 -103.2 0
v -135.2 -103.2 0
v -135.2 -102.4 0
v -134.4 -102.4 0
v -132 -103.2 0
v -132.8 -103.2 0
v -132.8 -102.4 0
v -132 -102.4 0
v -131.2 -103.2 0
v -132 -103.2 0
v -132 -102.4 0
v -131.2 -102.4 0
v -158.4 -102.4 0
v -159.2 -102.4 0
v -159.2 -101.6 0
v -158.4 -101.6 0
v -157.6 -102.4 0
v -158.4 -102.4 0
v -158.4 -101.6 0
v -157.6 -101.6 0
v -155.2 -102.4 0
v -156 -102.4 0
v -156 -101.6 0
v -155.2 -101.6 0
v -154.4 -102.4 0
v -155.2 -102.4 0
v -155.2 -101.6 0
v -154.4 -101.6 0
v -153.6 -102.4 0
v -154.4 -102.4 0
v -154.4 -101.6 0
v -153.6 -101.6 0
v -152.8 -102.4 0
v -153.6 -102.4 0
v -153.6 -101.6 0
v -152.8 -101.6 0
v -150.4 -102.4 0
v -151.2 -102.4 0
v -151.2 -101.6 0
v -150.4 -101.6 0
v -149.6 -102.4 0
v -150.4 -102.4 0
v -150.4 -101.6 0
v -149.6 -101.6 0
v -148.8 -102.4 0
v -149.6 -102.4 0
v -149.6 -101.6 0
v -148.8 -101.6 0
v -148 -102.4 0
v -148.8 -102.4 0
v -148.8 -101.6 0
v -148 -101.6 0
v -145.6 -102.4 0
v -146.4 -102.4 0
v -146.4 -101.6 0
v -145.6 -101.6 0
v -144.8 -102.4 0
v -145.6 -102.4 0
v -145.6 -101.6 0
v -144.8 -101.6 0
v -144 -102.4 0
v -144.8 -102.4 0
v -144.8 -101.6 0
v -144 -101.6 0
v -143.2 -102.4 0
v -144 -102.4 0
v -144 -101.6 0
v -143.2 -101.6 0
v -140.8 -102.4 0
v -141.6 -102.4 0
v -141.6 -101.6 0
v -140.8 -101.6 0
v -140 -102.4 0
v -140.8 -102.4 0
v -140.8 -101.6 0
v -140 -101.6 0
v -139.2 -102.4 0
v -140 -102.4 0
v -140 -101.6 0
v -139.2 -101.6 0
v -136.8 -102.4 0
v -137.6 -102.4 0
v -137.6 -101.6 0
v -136.8 -101.6 0
v -136 -102.4 0
v -136.8 -102.4 0
v -136.8 -101.6 0
v -136 -101.6 0
v -135.2 -102.4 0
v -136 -102.4 0
v -136 -101.6 0
v -135.2 -101.6 0
v -134.4 -102.4 0
v -135.2 -102.4 0
v -135.2 -101.6 0
v -134.4 -101.6 0
v -132 -102.4 0
v -132.8 -102.4 0
v -132.8 -101.6 0
v -132 -101.6 0
v -131.2 -102.4 0
v -132 -102.4 0
v -132 -101.6 0
v -131.2 -101.6 0
v -158.4 -101.6 0
v -159.2 -101.6 0
v -159.2 -100.8 0
v -158.4 -100.8 0
v -157.6 -101.6 0
v -158.4 -101.6 0
v -158.4 -100.8 0
v -157.6 -100.8 0
v -155.2 -101.6 0
v -156 -101.6 0
v -156 -100.8 0
v -155.2 -100.8 0
v -154.4 -101.6 0
v -155.2 -101.6 0
v -155.2 -100.8 0
v -154.4 -100.8 0
v -153.6 -101.6 0
v -154.4 -101.6 0
v -154.4 -100.8 0
v -153.6 -100.8 0
v -152.8 -101.6 0
v -153.6 -101.6 0
v -153.6 -100.8 0
v -152.8 -100.8 0
v -150.4 -101.6 0
v -151.2 -101.6 0
v -151.2 -100.8 0
v -150.4 -100.8 0
v -149.6 -101.6 0
v -150.4 -101.6 0
v -150.4 -100.8 0
v -149.6 -100.8 0
v -148.8 -101.6 0
v -149.6 -101.6 0
v -149.6 -100.8 0
v -148.8 -100.8 0
v -148 -101.6 0
v -148.8 -101.6 0
v -148.8 -100.8 0
v -148 -100.8 0
v -145.6 -101.6 0
v -146.4 -101.6 0
v -146.4 -100.8 0
v -145.6 -100.8 0
v -144.8 -101.6 0
v -145.6 -101.6 0
v -145.6 -100.8 0
v -144.8 -100.8 0
v -144 -101.6 0
v -144.8 -101.6 0
v -144.8 -100.8 0
v -144 -100.8 0
v -143.2 -101.6 0
v -144 -101.6 0
v -144 -100.8 0
v -143.2 -100.8 0
v -140.8 -101.6 0
v -141.6 -101.6 0
v -141.6 -100.8 0
v -140.8 -100.8 0
v -140 -101.6 0
v -140.8 -101.6 0
v -140.8 -100.8 0
v -140 -100.8 0
v -139.2 -101.6 0
v -140 -101.6 0
v -140 -100.8 0
v -139.2 -100.8 0
v -136.8 -101.6 0
v -137.6 -101.6 0
v -137.6 -100.8 0
v -136.8 -100.8 0
v -136 -101.6 0
v -136.8 -101.6 0
v -136.8 -100.8 0
v -136 -100.8 0
v -135.2 -101.6 0
v -136 -101.6 0
v -136 -100.8 0
v -135.2 -100.8 0
v -134.4 -101.6 0
v -135.2 -101.6 0
v -135.2 -100.8 0
v -134.4 -100.8 0
v -132 -101.6 0
v -132.8 -101.6 0
v -132.8 -100.8 0
v -132 -100.8 0
v -131.2 -101.6 0
v -132 -101.6 0
v -132 -100.8 0
v -131.2 -100.8 0
v -158.4 -100.8 0
v -159.2 -100.8 0
v -159.2 -100 0
v -158.4 -100 0
v -157.6 -100.8 0
v -158.4 -100.8 0
v -158.4 -100 0
v -157.6 -100 0
v -156.8 -100.8 0
v -157.6 -100.8 0
v -157.6 -100 0
v -156.8 -100 0
v -156 -100.8 0
v -156.8 -100.8 0
v -156.8 -100 0
v -156 -100 0
v -155.2 -100.8 0
v -156 -100.8 0
v -156 -100 0
v -155.2 -100 0
v -154.4 -100.8 0
v -155.2 -100.8 0
v -155.2 -100 0
v -154.4 -100 0
v -153.6 -100.8 0
v -154.4 -100.8 0
v -154.4 -100 0
v -153.6 -100 0
v -152.8 -100.8 0
v -153.6 -100.8 0
v -153.6 -100 0
v -152.8 -100 0
v -152 -100.8 0
v -152.8 -100.8 0
v -152.8 -100 0
v -152 -100 0
v -151.2 -100.8 0
v -152 -100.8 0
v -152 -100 0
v -151.2 -100 0
v -150.4 -100.8 0
v -151.2 -100.8 0
v -151.2 -100 0
v -150.4 -100 0
v -149.6 -100.8 0
v -150.4 -100.8 0
v -150.4 -100 0
v -149.6 -100 0
v -148.8 -100.8 0
v -149.6 -100.8 0
v -149.6 -100 0
v -148.8 -100 0
v -148 -100.8 0
v -148.8 -100.8 0
v -148.8 -100 0
v -148 -100 0
v -147.2 -100.8 0
v -148 -100.8 0
v -148 -100 0
v -147.2 -100 0
v -146.4 -100.8 0
v -147.2 -100.8 0
v -147.2 -100 0
v -146.4 -100 0
v -145.6 -100.8 0
v -146.4 -100.8 0
v -146.4 -100 0
v -145.6 -100 0
v -144.8 -100.8 0
v -145.6 -100.8 0
v -145.6 -100 0
v -144.8 -100 0
v -144 -100.8 0
v -144.8 -100.8 0
v -144.8 -100 0
v -144 -100 0
v -143.2 -100.8 0
v -144 -100.8 0
v -144 -100 0
v -143.2 -100 0
v -142.4 -100.8 0
v -143.2 -100.8 0
v -143.2 -100 0
v -142.4 -100 0
v -141.6 -100.8 0
v -142.4 -100.8 0
v -142.4 -100 0
v -141.6 -100 0
v -140.8 -100.8 0
v -141.6 -100.8 0
v -141.6 -100 0
v -140.8 -100 0
v -140 -100.8 0
v -140.8 -100.8 0
v -140.8 -100 0
v -140 -100 0
v -139.2 -100.8 0
v -140 -100.8 0
v -140 -100 0
v -139.2 -100 0
v -138.4 -100.8 0
v -139.2 -100.8 0
v -139.2 -100 0
v -138.4 -100 0
v -137.6 -100.8 0
v -138.4 -100.8 0
v -138.4 -100 0
v -137.6 -100 0
v -136.8 -100.8 0
v -137.6 -100.8 0
v -137.6 -100 0
v -136.8 -100 0
v -136 -100.8 0
v -136.8 -100.8 0
v -136.8 -100 0
v -136 -100 0
v -135.2 -100.8 0
v -136 -100.8 0
v -136 -100 0
v -135.2 -100 0
v -134.4 -100.8 0
v -135.2 -100.8 0
v -135.2 -100 0
v -134.4 -100 0
v -133.6 -100.8 0
v -134.4 -100.8 0
v -134.4 -100 0
v -133.6 -100 0
v -132.8 -100.8 0
v -133.6 -100.8 0
v -133.6 -100 0
v -132.8 -100 0
v -132 -100.8 0
v -132.8 -100.8 0
v -132.8 -100 0
v -132 -100 0
v -131.2 -100.8 0
v -132 -100.8 0
v -132 -100 0
v -131.2 -100 0
v -158.4 -100 0
v -159.2 -100 0
v -159.2 -99.2 0
v -158.4 -99.2 0
v -157.6 -100 0
v -158.4 -100 0
v -158.4 -99.2 0
v -157.6 -99.2 0
v -156.8 -100 0
v -157.6 -100 0
v -157.6 -99.2 0
v -156.8 -99.2 0
v -156 -100 0
v -156.8 -100 0
v -156.8 -99.2 0
v -156 -99.2 0
v -155.2 -100 0
v -156 -100 0
v -156 -99.2 0
v -155.2 -99.2 0
v -154.4 -100 0
v -155.2 -100 0
v -155.2 -99.2 0
v -154.4 -99.2 0
v -153.6 -100 0
v -154.4 -100 0
v -154.4 -99.2 0
v -153.6 -99.2 0
v -152.8 -100 0
v -153.6 -100 0
v -153.6 -99.2 0
v -152.8 -99.2 0
v -152 -100 0
v -152.8 -100 0
v -152.8 -99.2 0
v -152 -99.2 0
v -151.2 -100 0
v -152 -100 0
v -152 -99.2 0
v -151.2 -99.2 0
v -150.4 -100 0
v -151.2 -100 0
v -151.2 -99.2 0
v -150.4 -99.2 0
v -149.6 -100 0
v -150.4 -100 0
v -150.4 -99.2 0
v -149.6 -99.2 0
v -148.8 -100 0
v -149.6 -100 0
v -149.6 -99.2 0
v -148.8 -99.2 0
v -148 -100 0
v -148.8 -100 0
v -148.8 -99.2 0
v -148 -99.2 0
v -147.2 -100 0
v -148 -100 0
v -148 -99.2 0
v -147.2 -99.2 0
v -146.4 -100 0
v -147.2 -100 0
v -147.2 -99.2 0
v -146.4 -99.2 0
v -145.6 -100 0
v -146.4 -100 0
v -146.4 -99.2 0
v -145.6 -99.2 0
v -144.8 -100 0
v -145.6 -100 0
v -145.6 -99.2 0
v -144.8 -99.2 0
v -144 -100 0
v -144.8 -100 0
v -144.8 -99.2 0
v -144 -99.2 0
v -143.2 -100 0
v -144 -100 0
v -144 -99.2 0
v -143.2 -99.2 0
v -142.4 -100 0
v -143.2 -100 0
v -143.2 -99.2 0
v -142.4 -99.2 0
v -141.6 -100 0
v -142.4 -100 0
v -142.4 -99.2 0
v -141.6 -99.2 0
v -140.8 -100 0
v -141.6 -100 0
v -141.6 -99.2 0
v -140.8 -99.2 0
v -140 -100 0
v -140.8 -100 0
v -140.8 -99.2 0
v -140 -99.2 0
v -139.2 -100 0
v -140 -100 0
v -140 -99.2 0
v -139.2 -99.2 0
v -138.4 -100 0
v -139.2 -100 0
v -139.2 -99.2 0
v -138.4 -99.2 0
v -137.6 -100 0
v -138.4 -100 0
v -138.4 -99.2 0
v -137.6 -99.2 0
v -136.8 -100 0
v -137.6 -100 0
v -137.6 -99.2 0
v -136.8 -99.2 0
v -136 -100 0
v -136.8 -100 0
v -136.8 -99.2 0
v -136 -99.2 0
v -135.2 -100 0
v -136 -100 0
v -136 -99.2 0
v -135.2 -99.2 0
v -134.4 -100 0
v -135.2 -100 0
v -135.2 -99.2 0
v -134.4 -99.2 0
v -133.6 -100 0
v -134.4 -100 0
v -134.4 -99.2 0
v -133.6 -99.2 0
v -132.8 -100 0
v -133.6 -100 0
v -133.6 -99.2 0
v -132.8 -99.2 0
v -132 -100 0
v -132.8 -100 0
v -132.8 -99.2 0
v -132 -99.2 0
v -131.2 -100 0
v -132 -100 0
v -132 -99.2 0
v -131.2 -99.2 0
v -159.2 -99.2 0
v -160 -99.2 0
v -160 -98.4 0
v -159.2 -98.4 0
v -158.4 -99.2 0
v -159.2 -99.2 0
v -159.2 -98.4 0
v -158.4 -98.4 0
v -157.6 -99.2 0
v -158.4 -99.2 0
v -158.4 -98.4 0
v -157.6 -98.4 0
v -156.8 -99.2 0
v -157.6 -99.2 0
v -157.6 -98.4 0
v -156.8 -98.4 0
v -156 -99.2 0
v -156.8 -99.2 0
v -156.8 -98.4 0
v -156 -98.4 0
v -155.2 -99.2 0
v -156 -99.2 0
v -156 -98.4 0
v -155.2 -98.4 0
v -154.4 -99.2 0
v -155.2 -99.2 0
v -155.2 -98.4 0
v -154.4 -98.4 0
v -153.6 -99.2 0
v -154.4 -99.2 0
v -154.4 -98.4 0
v -153.6 -98.4 0
v -152.8 -99.2 0
v -153.6 -99.2 0
v -153.6 -98.4 0
v -152.8 -98.4 0
v -152 -99.2 0
v -152.8 -99.2 0
v -152.8 -98.4 0
v -152 -98.4 0
v -151.2 -99.2 0
v -152 -99.2 0
v -152 -98.4 0
v -151.2 -98.4 0
v -150.4 -99.2 0
v -151.2 -99.2 0
v -151.2 -98.4 0
v -150.4 -98.4 0
v -149.6 -99.2 0
v -150.4 -99.2 0
v -150.4 -98.4 0
v -149.6 -98.4 0
v -148.8 -99.2 0
v -149.6 -99.2 0
v -149.6 -98.4 0
v -148.8 -98.4 0
v -148 -99.2 0
v -148.8 -99.2 0
v -148.8 -98.4 0
v -148 -98.4 0
v -147.2 -99.2 0
v -148 -99.2 0
v -148 -98.4 0
v -147.2 -98.4 0
v -146.4 -99.2 0
v -147.2 -99.2 0
v -147.2 -98.4 0
v -146.4 -98.4 0
v -145.6 -99.2 0
v -146.4 -99.2 0
v -146.4 -98.4 0
v -145.6 -98.4 0
v -144.8 -99.2 0
v -145.6 -99.2 0
v -145.6 -98.4 0
v -144.8 -98.4 0
v -144 -99.2 0
v -144.8 -99.2 0
v -144.8 -98.4 0
v -144 -98.4 0
v -143.2 -99.2 0
v -144 -99.2 0
v -144 -98.4 0
v -143.2 -98.4 0
v -142.4 -99.2 0
v -143.2 -99.2 0
v -143.2 -98.4 0
v -142.4 -98.4 0
v -141.6 -99.2 0
v -142.4 -99.2 0
v -142.4 -98.4 0
v -141.6 -98.4 0
v -140.8 -99.2 0
v -141.6 -99.2 0
v -141.6 -98.4 0
v -140.8 -98.4 0
v -140 -99.2 0
v -140.8 -99.2 0
v -140.8 -98.4 0
v -140 -98.4 0
v -139.2 -99.2 0
v -140 -99.2 0
v -140 -98.4 0
v -139.2 -98.4 0
v -138.4 -99.2 0
v -139.2 -99.2 0
v -139.2 -98.4 0
v -138.4 -98.4 0
v -137.6 -99.2 0
v -138.4 -99.2 0
v -138.4 -98.4 0
v -137.6 -98.4 0
v -136.8 -99.2 0
v -137.6 -99.2 0
v -137.6 -98.4 0
v -136.8 -98.4 0
v -136 -99.2 0
v -136.8 -99.2 0
v -136.8 -98.4 0
v -136 -98.4 0
v -135.2 -99.2 0
v -136 -99.2 0
v -136 -98.4 0
v -135.2 -98.4 0
v -134.4 -99.2 0
v -135.2 -99.2 0
v -135.2 -98.4 0
v -134.4 -98.4 0
v -133.6 -99.2 0
v -134.4 -99.2 0
v -134.4 -98.4 0
v -133.6 -98.4 0
v -132.8 -99.2 0
v -133.6 -99.2 0
v -133.6 -98.4 0
v -132.8 -98.4 0
v -132 -99.2 0
v -132.8 -99.2 0
v -132.8 -98.4 0
v -132 -98.4 0
v -131.2 -99.2 0
v -132 -99.2 0
v -132 -98.4 0
v -131.2 -98.4 0
v -130.4 -99.2 0
v -131.2 -99.2 0
v -131.2 -98.4 0
v -130.4 -98.4 0

# Texture cooridinates (Count = 28)
vt 0.25 0.4285714
vt 0.2916667 0.4285714
vt 0.2916667 0.4761904
vt 0.25 0.4761904
vt 0.3333333 0.4285714
vt 0.375 0.4285714
vt 0.375 0.4761904
vt 0.3333333 0.4761904
vt 0.2916667 0.6190476
vt 0.3333333 0.6190476
vt 0.3333333 0.6666666
vt 0.2916667 0.6666666
vt 0.375 0.5238096
vt 0.3333333 0.5238096
vt 0.2916667 0.5238096
vt 0.25 0.5238096
vt 0.2083333 0.4761904
vt 0.2083333 0.5238096
vt 0.375 0.5714285
vt 0.3333333 0.5714285
vt 0.2916667 0.5714285
vt 0.25 0.5714285
vt 0.2083333 0.5714285
vt 0.4166667 0.5714285
vt 0.4166667 0.6190476
vt 0.375 0.6190476
vt 0.25 0.6190476
vt 0.2083333 0.6190476

# Normal
vn 0 0 -1

# Mesh description
g Map2_mesh_0014

# Faces
f 1/1/1 2/2/1 3/3/1 4/4/1
f 5/5/1 6/6/1 7/7/1 8/8/1
f 9/6/1 10/5/1 11/8/1 12/7/1
f 13/1/1 14/2/1 15/3/1 16/4/1
f 17/1/1 18/2/1 19/3/1 20/4/1
f 21/5/1 22/6/1 23/7/1 24/8/1
f 25/6/1 26/5/1 27/8/1 28/7/1
f 29/1/1 30/2/1 31/3/1 32/4/1
f 33/1/1 34/2/1 35/3/1 36/4/1
f 37/5/1 38/6/1 39/7/1 40/8/1
f 41/6/1 42/5/1 43/8/1 44/7/1
f 45/9/1 46/10/1 47/11/1 48/12/1
f 49/9/1 50/10/1 51/11/1 52/12/1
f 53/5/1 54/6/1 55/7/1 56/8/1
f 57/6/1 58/5/1 59/8/1 60/7/1
f 61/9/1 62/10/1 63/11/1 64/12/1
f 65/5/1 66/6/1 67/7/1 68/8/1
f 69/6/1 70/5/1 71/8/1 72/7/1
f 73/1/1 74/2/1 75/3/1 76/4/1
f 77/1/1 78/2/1 79/3/1 80/4/1
f 81/5/1 82/6/1 83/7/1 84/8/1
f 85/6/1 86/5/1 87/8/1 88/7/1
f 89/1/1 90/2/1 91/3/1 92/4/1
f 93/1/1 94/2/1 95/3/1 96/4/1
f 97/5/1 98/6/1 99/7/1 100/8/1
f 101/6/1 102/5/1 103/8/1 104/7/1
f 105/1/1 106/2/1 107/3/1 108/4/1
f 109/1/1 110/2/1 111/3/1 112/4/1
f 113/5/1 114/6/1 115/7/1 116/8/1
f 117/6/1 118/5/1 119/8/1 120/7/1
f 121/1/1 122/2/1 123/3/1 124/4/1
f 125/1/1 126/2/1 127/3/1 128/4/1
f 129/5/1 130/6/1 131/7/1 132/8/1
f 133/6/1 134/5/1 135/8/1 136/7/1
f 137/9/1 138/10/1 139/11/1 140/12/1
f 141/9/1 142/10/1 143/11/1 144/12/1
f 145/5/1 146/6/1 147/7/1 148/8/1
f 149/6/1 150/5/1 151/8/1 152/7/1
f 153/9/1 154/10/1 155/11/1 156/12/1
f 157/5/1 158/6/1 159/7/1 160/8/1
f 161/6/1 162/5/1 163/8/1 164/7/1
f 165/1/1 166/2/1 167/3/1 168/4/1
f 169/1/1 170/2/1 171/3/1 172/4/1
f 173/5/1 174/6/1 175/7/1 176/8/1
f 177/6/1 178/5/1 179/8/1 180/7/1
f 181/1/1 182/2/1 183/3/1 184/4/1
f 185/1/1 186/2/1 187/3/1 188/4/1
f 189/5/1 190/6/1 191/7/1 192/8/1
f 193/6/1 194/5/1 195/8/1 196/7/1
f 197/1/1 198/2/1 199/3/1 200/4/1
f 201/1/1 202/2/1 203/3/1 204/4/1
f 205/5/1 206/6/1 207/7/1 208/8/1
f 209/6/1 210/5/1 211/8/1 212/7/1
f 213/1/1 214/2/1 215/3/1 216/4/1
f 217/1/1 218/2/1 219/3/1 220/4/1
f 221/5/1 222/6/1 223/7/1 224/8/1
f 225/6/1 226/5/1 227/8/1 228/7/1
f 229/9/1 230/10/1 231/11/1 232/12/1
f 233/9/1 234/10/1 235/11/1 236/12/1
f 237/5/1 238/6/1 239/7/1 240/8/1
f 241/6/1 242/5/1 243/8/1 244/7/1
f 245/9/1 246/10/1 247/11/1 248/12/1
f 249/5/1 250/6/1 251/7/1 252/8/1
f 253/6/1 254/5/1 255/8/1 256/7/1
f 257/1/1 258/2/1 259/3/1 260/4/1
f 261/1/1 262/2/1 263/3/1 264/4/1
f 265/5/1 266/6/1 267/7/1 268/8/1
f 269/6/1 270/5/1 271/8/1 272/7/1
f 273/1/1 274/2/1 275/3/1 276/4/1
f 277/1/1 278/2/1 279/3/1 280/4/1
f 281/5/1 282/6/1 283/7/1 284/8/1
f 285/6/1 286/5/1 287/8/1 288/7/1
f 289/1/1 290/2/1 291/3/1 292/4/1
f 293/1/1 294/2/1 295/3/1 296/4/1
f 297/5/1 298/6/1 299/7/1 300/8/1
f 301/6/1 302/5/1 303/8/1 304/7/1
f 305/1/1 306/2/1 307/3/1 308/4/1
f 309/1/1 310/2/1 311/3/1 312/4/1
f 313/5/1 314/6/1 315/7/1 316/8/1
f 317/6/1 318/5/1 319/8/1 320/7/1
f 321/9/1 322/10/1 323/11/1 324/12/1
f 325/9/1 326/10/1 327/11/1 328/12/1
f 329/5/1 330/6/1 331/7/1 332/8/1
f 333/6/1 334/5/1 335/8/1 336/7/1
f 337/9/1 338/10/1 339/11/1 340/12/1
f 341/5/1 342/6/1 343/7/1 344/8/1
f 345/6/1 346/5/1 347/8/1 348/7/1
f 349/1/1 350/2/1 351/3/1 352/4/1
f 353/1/1 354/2/1 355/3/1 356/4/1
f 357/5/1 358/6/1 359/7/1 360/8/1
f 361/6/1 362/5/1 363/8/1 364/7/1
f 365/1/1 366/2/1 367/3/1 368/4/1
f 369/1/1 370/2/1 371/3/1 372/4/1
f 373/8/1 374/7/1 375/13/1 376/14/1
f 377/3/1 378/8/1 379/14/1 380/15/1
f 381/4/1 382/3/1 383/15/1 384/16/1
f 385/17/1 386/4/1 387/16/1 388/18/1
f 389/1/1 390/2/1 391/3/1 392/4/1
f 393/1/1 394/2/1 395/3/1 396/4/1
f 397/8/1 398/7/1 399/13/1 400/14/1
f 401/3/1 402/8/1 403/14/1 404/15/1
f 405/4/1 406/3/1 407/15/1 408/16/1
f 409/17/1 410/4/1 411/16/1 412/18/1
f 413/1/1 414/2/1 415/3/1 416/4/1
f 417/1/1 418/2/1 419/3/1 420/4/1
f 421/8/1 422/7/1 423/13/1 424/14/1
f 425/3/1 426/8/1 427/14/1 428/15/1
f 429/4/1 430/3/1 431/15/1 432/16/1
f 433/17/1 434/4/1 435/16/1 436/18/1
f 437/9/1 438/10/1 439/11/1 440/12/1
f 441/9/1 442/10/1 443/11/1 444/12/1
f 445/8/1 446/7/1 447/13/1 448/14/1
f 449/3/1 450/8/1 451/14/1 452/15/1
f 453/4/1 454/3/1 455/15/1 456/16/1
f 457/17/1 458/4/1 459/16/1 460/18/1
f 461/9/1 462/10/1 463/11/1 464/12/1
f 465/8/1 466/7/1 467/13/1 468/14/1
f 469/3/1 470/8/1 471/14/1 472/15/1
f 473/4/1 474/3/1 475/15/1 476/16/1
f 477/17/1 478/4/1 479/16/1 480/18/1
f 481/1/1 482/2/1 483/3/1 484/4/1
f 485/1/1 486/2/1 487/3/1 488/4/1
f 489/8/1 490/7/1 491/13/1 492/14/1
f 493/3/1 494/8/1 495/14/1 496/15/1
f 497/4/1 498/3/1 499/15/1 500/16/1
f 501/17/1 502/4/1 503/16/1 504/18/1
f 505/1/1 506/2/1 507/3/1 508/4/1
f 509/1/1 510/2/1 511/3/1 512/4/1
f 513/14/1 514/13/1 515/19/1 516/20/1
f 517/15/1 518/14/1 519/20/1 520/21/1
f 521/16/1 522/15/1 523/21/1 524/22/1
f 525/18/1 526/16/1 527/22/1 528/23/1
f 529/1/1 530/2/1 531/3/1 532/4/1
f 533/1/1 534/2/1 535/3/1 536/4/1
f 537/14/1 538/13/1 539/19/1 540/20/1
f 541/15/1 542/14/1 543/20/1 544/21/1
f 545/16/1 546/15/1 547/21/1 548/22/1
f 549/18/1 550/16/1 551/22/1 552/23/1
f 553/1/1 554/2/1 555/3/1 556/4/1
f 557/1/1 558/2/1 559/3/1 560/4/1
f 561/14/1 562/13/1 563/19/1 564/20/1
f 565/15/1 566/14/1 567/20/1 568/21/1
f 569/16/1 570/15/1 571/21/1 572/22/1
f 573/18/1 574/16/1 575/22/1 576/23/1
f 577/1/1 578/2/1 579/3/1 580/4/1
f 581/1/1 582/2/1 583/3/1 584/4/1
f 585/14/1 586/13/1 587/19/1 588/20/1
f 589/15/1 590/14/1 591/20/1 592/21/1
f 593/16/1 594/15/1 595/21/1 596/22/1
f 597/18/1 598/16/1 599/22/1 600/23/1
f 601/9/1 602/10/1 603/11/1 604/12/1
f 605/9/1 606/10/1 607/11/1 608/12/1
f 609/15/1 610/14/1 611/20/1 612/21/1
f 613/16/1 614/15/1 615/21/1 616/22/1
f 617/18/1 618/16/1 619/22/1 620/23/1
f 621/1/1 622/2/1 623/3/1 624/4/1
f 625/1/1 626/2/1 627/3/1 628/4/1
f 629/14/1 630/13/1 631/19/1 632/20/1
f 633/15/1 634/14/1 635/20/1 636/21/1
f 637/16/1 638/15/1 639/21/1 640/22/1
f 641/18/1 642/16/1 643/22/1 644/23/1
f 645/1/1 646/2/1 647/3/1 648/4/1
f 649/5/1 650/2/1 651/3/1 652/8/1
f 653/19/1 654/24/1 655/25/1 656/26/1
f 657/20/1 658/19/1 659/26/1 660/10/1
f 661/21/1 662/20/1 663/10/1 664/9/1
f 665/21/1 666/20/1 667/10/1 668/9/1
f 669/21/1 670/20/1 671/10/1 672/9/1
f 673/21/1 674/20/1 675/10/1 676/9/1
f 677/21/1 678/20/1 679/10/1 680/9/1
f 681/20/1 682/19/1 683/26/1 684/10/1
f 685/21/1 686/20/1 687/10/1 688/9/1
f 689/21/1 690/20/1 691/10/1 692/9/1
f 693/21/1 694/20/1 695/10/1 696/9/1
f 697/21/1 698/20/1 699/10/1 700/9/1
f 701/21/1 702/20/1 703/10/1 704/9/1
f 705/20/1 706/19/1 707/26/1 708/10/1
f 709/21/1 710/20/1 711/10/1 712/9/1
f 713/21/1 714/20/1 715/10/1 716/9/1
f 717/21/1 718/20/1 719/10/1 720/9/1
f 721/21/1 722/20/1 723/10/1 724/9/1
f 725/21/1 726/20/1 727/10/1 728/9/1
f 729/21/1 730/20/1 731/10/1 732/9/1
f 733/21/1 734/20/1 735/10/1 736/9/1
f 737/21/1 738/20/1 739/10/1 740/9/1
f 741/22/1 742/21/1 743/9/1 744/27/1
f 745/21/1 746/20/1 747/10/1 748/9/1
f 749/20/1 750/19/1 751/26/1 752/10/1
f 753/21/1 754/20/1 755/10/1 756/9/1
f 757/21/1 758/20/1 759/10/1 760/9/1
f 761/21/1 762/20/1 763/10/1 764/9/1
f 765/21/1 766/20/1 767/10/1 768/9/1
f 769/21/1 770/20/1 771/10/1 772/9/1
f 773/21/1 774/20/1 775/10/1 776/9/1
f 777/21/1 778/20/1 779/10/1 780/9/1
f 781/21/1 782/20/1 783/10/1 784/9/1
f 785/22/1 786/21/1 787/9/1 788/27/1
f 789/23/1 790/22/1 791/27/1 792/28/1
f 793/2/1 794/5/1 795/8/1 796/3/1

