# Tiled2Unity generated file. Do not modify by hand.
# Wavefront file for 'Map2_mesh_0007.obj'

# Vertices (Count = 912)
v -122.4 -99.2 0
v -123.2 -99.2 0
v -123.2 -98.4 0
v -122.4 -98.4 0
v -121.6 -99.2 0
v -122.4 -99.2 0
v -122.4 -98.4 0
v -121.6 -98.4 0
v -120.8 -99.2 0
v -121.6 -99.2 0
v -121.6 -98.4 0
v -120.8 -98.4 0
v -120 -99.2 0
v -120.8 -99.2 0
v -120.8 -98.4 0
v -120 -98.4 0
v -119.2 -99.2 0
v -120 -99.2 0
v -120 -98.4 0
v -119.2 -98.4 0
v -118.4 -99.2 0
v -119.2 -99.2 0
v -119.2 -98.4 0
v -118.4 -98.4 0
v -117.6 -99.2 0
v -118.4 -99.2 0
v -118.4 -98.4 0
v -117.6 -98.4 0
v -116.8 -99.2 0
v -117.6 -99.2 0
v -117.6 -98.4 0
v -116.8 -98.4 0
v -116 -99.2 0
v -116.8 -99.2 0
v -116.8 -98.4 0
v -116 -98.4 0
v -112.8 -99.2 0
v -113.6 -99.2 0
v -113.6 -98.4 0
v -112.8 -98.4 0
v -112 -99.2 0
v -112.8 -99.2 0
v -112.8 -98.4 0
v -112 -98.4 0
v -111.2 -99.2 0
v -112 -99.2 0
v -112 -98.4 0
v -111.2 -98.4 0
v -110.4 -99.2 0
v -111.2 -99.2 0
v -111.2 -98.4 0
v -110.4 -98.4 0
v -109.6 -99.2 0
v -110.4 -99.2 0
v -110.4 -98.4 0
v -109.6 -98.4 0
v -108.8 -99.2 0
v -109.6 -99.2 0
v -109.6 -98.4 0
v -108.8 -98.4 0
v -108 -99.2 0
v -108.8 -99.2 0
v -108.8 -98.4 0
v -108 -98.4 0
v -107.2 -99.2 0
v -108 -99.2 0
v -108 -98.4 0
v -107.2 -98.4 0
v -122.4 -98.4 0
v -123.2 -98.4 0
v -123.2 -97.6 0
v -122.4 -97.6 0
v -121.6 -98.4 0
v -122.4 -98.4 0
v -122.4 -97.6 0
v -121.6 -97.6 0
v -120.8 -98.4 0
v -121.6 -98.4 0
v -121.6 -97.6 0
v -120.8 -97.6 0
v -120 -98.4 0
v -120.8 -98.4 0
v -120.8 -97.6 0
v -120 -97.6 0
v -119.2 -98.4 0
v -120 -98.4 0
v -120 -97.6 0
v -119.2 -97.6 0
v -118.4 -98.4 0
v -119.2 -98.4 0
v -119.2 -97.6 0
v -118.4 -97.6 0
v -117.6 -98.4 0
v -118.4 -98.4 0
v -118.4 -97.6 0
v -117.6 -97.6 0
v -116.8 -98.4 0
v -117.6 -98.4 0
v -117.6 -97.6 0
v -116.8 -97.6 0
v -116 -98.4 0
v -116.8 -98.4 0
v -116.8 -97.6 0
v -116 -97.6 0
v -112.8 -98.4 0
v -113.6 -98.4 0
v -113.6 -97.6 0
v -112.8 -97.6 0
v -112 -98.4 0
v -112.8 -98.4 0
v -112.8 -97.6 0
v -112 -97.6 0
v -111.2 -98.4 0
v -112 -98.4 0
v -112 -97.6 0
v -111.2 -97.6 0
v -110.4 -98.4 0
v -111.2 -98.4 0
v -111.2 -97.6 0
v -110.4 -97.6 0
v -109.6 -98.4 0
v -110.4 -98.4 0
v -110.4 -97.6 0
v -109.6 -97.6 0
v -108.8 -98.4 0
v -109.6 -98.4 0
v -109.6 -97.6 0
v -108.8 -97.6 0
v -108 -98.4 0
v -108.8 -98.4 0
v -108.8 -97.6 0
v -108 -97.6 0
v -107.2 -98.4 0
v -108 -98.4 0
v -108 -97.6 0
v -107.2 -97.6 0
v -122.4 -97.6 0
v -123.2 -97.6 0
v -123.2 -96.8 0
v -122.4 -96.8 0
v -121.6 -97.6 0
v -122.4 -97.6 0
v -122.4 -96.8 0
v -121.6 -96.8 0
v -120.8 -97.6 0
v -121.6 -97.6 0
v -121.6 -96.8 0
v -120.8 -96.8 0
v -120 -97.6 0
v -120.8 -97.6 0
v -120.8 -96.8 0
v -120 -96.8 0
v -119.2 -97.6 0
v -120 -97.6 0
v -120 -96.8 0
v -119.2 -96.8 0
v -118.4 -97.6 0
v -119.2 -97.6 0
v -119.2 -96.8 0
v -118.4 -96.8 0
v -117.6 -97.6 0
v -118.4 -97.6 0
v -118.4 -96.8 0
v -117.6 -96.8 0
v -116.8 -97.6 0
v -117.6 -97.6 0
v -117.6 -96.8 0
v -116.8 -96.8 0
v -116 -97.6 0
v -116.8 -97.6 0
v -116.8 -96.8 0
v -116 -96.8 0
v -112.8 -97.6 0
v -113.6 -97.6 0
v -113.6 -96.8 0
v -112.8 -96.8 0
v -112 -97.6 0
v -112.8 -97.6 0
v -112.8 -96.8 0
v -112 -96.8 0
v -111.2 -97.6 0
v -112 -97.6 0
v -112 -96.8 0
v -111.2 -96.8 0
v -110.4 -97.6 0
v -111.2 -97.6 0
v -111.2 -96.8 0
v -110.4 -96.8 0
v -109.6 -97.6 0
v -110.4 -97.6 0
v -110.4 -96.8 0
v -109.6 -96.8 0
v -108.8 -97.6 0
v -109.6 -97.6 0
v -109.6 -96.8 0
v -108.8 -96.8 0
v -108 -97.6 0
v -108.8 -97.6 0
v -108.8 -96.8 0
v -108 -96.8 0
v -107.2 -97.6 0
v -108 -97.6 0
v -108 -96.8 0
v -107.2 -96.8 0
v -122.4 -96.8 0
v -123.2 -96.8 0
v -123.2 -96 0
v -122.4 -96 0
v -121.6 -96.8 0
v -122.4 -96.8 0
v -122.4 -96 0
v -121.6 -96 0
v -120.8 -96.8 0
v -121.6 -96.8 0
v -121.6 -96 0
v -120.8 -96 0
v -120 -96.8 0
v -120.8 -96.8 0
v -120.8 -96 0
v -120 -96 0
v -119.2 -96.8 0
v -120 -96.8 0
v -120 -96 0
v -119.2 -96 0
v -118.4 -96.8 0
v -119.2 -96.8 0
v -119.2 -96 0
v -118.4 -96 0
v -117.6 -96.8 0
v -118.4 -96.8 0
v -118.4 -96 0
v -117.6 -96 0
v -116.8 -96.8 0
v -117.6 -96.8 0
v -117.6 -96 0
v -116.8 -96 0
v -116 -96.8 0
v -116.8 -96.8 0
v -116.8 -96 0
v -116 -96 0
v -112.8 -96.8 0
v -113.6 -96.8 0
v -113.6 -96 0
v -112.8 -96 0
v -112 -96.8 0
v -112.8 -96.8 0
v -112.8 -96 0
v -112 -96 0
v -111.2 -96.8 0
v -112 -96.8 0
v -112 -96 0
v -111.2 -96 0
v -110.4 -96.8 0
v -111.2 -96.8 0
v -111.2 -96 0
v -110.4 -96 0
v -109.6 -96.8 0
v -110.4 -96.8 0
v -110.4 -96 0
v -109.6 -96 0
v -108.8 -96.8 0
v -109.6 -96.8 0
v -109.6 -96 0
v -108.8 -96 0
v -108 -96.8 0
v -108.8 -96.8 0
v -108.8 -96 0
v -108 -96 0
v -107.2 -96.8 0
v -108 -96.8 0
v -108 -96 0
v -107.2 -96 0
v -122.4 -96 0
v -123.2 -96 0
v -123.2 -95.2 0
v -122.4 -95.2 0
v -121.6 -96 0
v -122.4 -96 0
v -122.4 -95.2 0
v -121.6 -95.2 0
v -120.8 -96 0
v -121.6 -96 0
v -121.6 -95.2 0
v -120.8 -95.2 0
v -120 -96 0
v -120.8 -96 0
v -120.8 -95.2 0
v -120 -95.2 0
v -119.2 -96 0
v -120 -96 0
v -120 -95.2 0
v -119.2 -95.2 0
v -118.4 -96 0
v -119.2 -96 0
v -119.2 -95.2 0
v -118.4 -95.2 0
v -117.6 -96 0
v -118.4 -96 0
v -118.4 -95.2 0
v -117.6 -95.2 0
v -116.8 -96 0
v -117.6 -96 0
v -117.6 -95.2 0
v -116.8 -95.2 0
v -116 -96 0
v -116.8 -96 0
v -116.8 -95.2 0
v -116 -95.2 0
v -115.2 -96 0
v -116 -96 0
v -116 -95.2 0
v -115.2 -95.2 0
v -114.4 -96 0
v -115.2 -96 0
v -115.2 -95.2 0
v -114.4 -95.2 0
v -113.6 -96 0
v -114.4 -96 0
v -114.4 -95.2 0
v -113.6 -95.2 0
v -112.8 -96 0
v -113.6 -96 0
v -113.6 -95.2 0
v -112.8 -95.2 0
v -112 -96 0
v -112.8 -96 0
v -112.8 -95.2 0
v -112 -95.2 0
v -111.2 -96 0
v -112 -96 0
v -112 -95.2 0
v -111.2 -95.2 0
v -110.4 -96 0
v -111.2 -96 0
v -111.2 -95.2 0
v -110.4 -95.2 0
v -109.6 -96 0
v -110.4 -96 0
v -110.4 -95.2 0
v -109.6 -95.2 0
v -108.8 -96 0
v -109.6 -96 0
v -109.6 -95.2 0
v -108.8 -95.2 0
v -108 -96 0
v -108.8 -96 0
v -108.8 -95.2 0
v -108 -95.2 0
v -107.2 -96 0
v -108 -96 0
v -108 -95.2 0
v -107.2 -95.2 0
v -122.4 -95.2 0
v -123.2 -95.2 0
v -123.2 -94.4 0
v -122.4 -94.4 0
v -121.6 -95.2 0
v -122.4 -95.2 0
v -122.4 -94.4 0
v -121.6 -94.4 0
v -120.8 -95.2 0
v -121.6 -95.2 0
v -121.6 -94.4 0
v -120.8 -94.4 0
v -120 -95.2 0
v -120.8 -95.2 0
v -120.8 -94.4 0
v -120 -94.4 0
v -119.2 -95.2 0
v -120 -95.2 0
v -120 -94.4 0
v -119.2 -94.4 0
v -118.4 -95.2 0
v -119.2 -95.2 0
v -119.2 -94.4 0
v -118.4 -94.4 0
v -117.6 -95.2 0
v -118.4 -95.2 0
v -118.4 -94.4 0
v -117.6 -94.4 0
v -116.8 -95.2 0
v -117.6 -95.2 0
v -117.6 -94.4 0
v -116.8 -94.4 0
v -116 -95.2 0
v -116.8 -95.2 0
v -116.8 -94.4 0
v -116 -94.4 0
v -115.2 -95.2 0
v -116 -95.2 0
v -116 -94.4 0
v -115.2 -94.4 0
v -114.4 -95.2 0
v -115.2 -95.2 0
v -115.2 -94.4 0
v -114.4 -94.4 0
v -113.6 -95.2 0
v -114.4 -95.2 0
v -114.4 -94.4 0
v -113.6 -94.4 0
v -112.8 -95.2 0
v -113.6 -95.2 0
v -113.6 -94.4 0
v -112.8 -94.4 0
v -112 -95.2 0
v -112.8 -95.2 0
v -112.8 -94.4 0
v -112 -94.4 0
v -111.2 -95.2 0
v -112 -95.2 0
v -112 -94.4 0
v -111.2 -94.4 0
v -110.4 -95.2 0
v -111.2 -95.2 0
v -111.2 -94.4 0
v -110.4 -94.4 0
v -109.6 -95.2 0
v -110.4 -95.2 0
v -110.4 -94.4 0
v -109.6 -94.4 0
v -108.8 -95.2 0
v -109.6 -95.2 0
v -109.6 -94.4 0
v -108.8 -94.4 0
v -108 -95.2 0
v -108.8 -95.2 0
v -108.8 -94.4 0
v -108 -94.4 0
v -107.2 -95.2 0
v -108 -95.2 0
v -108 -94.4 0
v -107.2 -94.4 0
v -122.4 -94.4 0
v -123.2 -94.4 0
v -123.2 -93.6 0
v -122.4 -93.6 0
v -121.6 -94.4 0
v -122.4 -94.4 0
v -122.4 -93.6 0
v -121.6 -93.6 0
v -120.8 -94.4 0
v -121.6 -94.4 0
v -121.6 -93.6 0
v -120.8 -93.6 0
v -120 -94.4 0
v -120.8 -94.4 0
v -120.8 -93.6 0
v -120 -93.6 0
v -119.2 -94.4 0
v -120 -94.4 0
v -120 -93.6 0
v -119.2 -93.6 0
v -118.4 -94.4 0
v -119.2 -94.4 0
v -119.2 -93.6 0
v -118.4 -93.6 0
v -117.6 -94.4 0
v -118.4 -94.4 0
v -118.4 -93.6 0
v -117.6 -93.6 0
v -116.8 -94.4 0
v -117.6 -94.4 0
v -117.6 -93.6 0
v -116.8 -93.6 0
v -116 -94.4 0
v -116.8 -94.4 0
v -116.8 -93.6 0
v -116 -93.6 0
v -115.2 -94.4 0
v -116 -94.4 0
v -116 -93.6 0
v -115.2 -93.6 0
v -114.4 -94.4 0
v -115.2 -94.4 0
v -115.2 -93.6 0
v -114.4 -93.6 0
v -113.6 -94.4 0
v -114.4 -94.4 0
v -114.4 -93.6 0
v -113.6 -93.6 0
v -112.8 -94.4 0
v -113.6 -94.4 0
v -113.6 -93.6 0
v -112.8 -93.6 0
v -112 -94.4 0
v -112.8 -94.4 0
v -112.8 -93.6 0
v -112 -93.6 0
v -111.2 -94.4 0
v -112 -94.4 0
v -112 -93.6 0
v -111.2 -93.6 0
v -110.4 -94.4 0
v -111.2 -94.4 0
v -111.2 -93.6 0
v -110.4 -93.6 0
v -109.6 -94.4 0
v -110.4 -94.4 0
v -110.4 -93.6 0
v -109.6 -93.6 0
v -108.8 -94.4 0
v -109.6 -94.4 0
v -109.6 -93.6 0
v -108.8 -93.6 0
v -108 -94.4 0
v -108.8 -94.4 0
v -108.8 -93.6 0
v -108 -93.6 0
v -107.2 -94.4 0
v -108 -94.4 0
v -108 -93.6 0
v -107.2 -93.6 0
v -122.4 -93.6 0
v -123.2 -93.6 0
v -123.2 -92.8 0
v -122.4 -92.8 0
v -121.6 -93.6 0
v -122.4 -93.6 0
v -122.4 -92.8 0
v -121.6 -92.8 0
v -120.8 -93.6 0
v -121.6 -93.6 0
v -121.6 -92.8 0
v -120.8 -92.8 0
v -120 -93.6 0
v -120.8 -93.6 0
v -120.8 -92.8 0
v -120 -92.8 0
v -119.2 -93.6 0
v -120 -93.6 0
v -120 -92.8 0
v -119.2 -92.8 0
v -118.4 -93.6 0
v -119.2 -93.6 0
v -119.2 -92.8 0
v -118.4 -92.8 0
v -117.6 -93.6 0
v -118.4 -93.6 0
v -118.4 -92.8 0
v -117.6 -92.8 0
v -116.8 -93.6 0
v -117.6 -93.6 0
v -117.6 -92.8 0
v -116.8 -92.8 0
v -116 -93.6 0
v -116.8 -93.6 0
v -116.8 -92.8 0
v -116 -92.8 0
v -115.2 -93.6 0
v -116 -93.6 0
v -116 -92.8 0
v -115.2 -92.8 0
v -114.4 -93.6 0
v -115.2 -93.6 0
v -115.2 -92.8 0
v -114.4 -92.8 0
v -113.6 -93.6 0
v -114.4 -93.6 0
v -114.4 -92.8 0
v -113.6 -92.8 0
v -112.8 -93.6 0
v -113.6 -93.6 0
v -113.6 -92.8 0
v -112.8 -92.8 0
v -112 -93.6 0
v -112.8 -93.6 0
v -112.8 -92.8 0
v -112 -92.8 0
v -111.2 -93.6 0
v -112 -93.6 0
v -112 -92.8 0
v -111.2 -92.8 0
v -110.4 -93.6 0
v -111.2 -93.6 0
v -111.2 -92.8 0
v -110.4 -92.8 0
v -109.6 -93.6 0
v -110.4 -93.6 0
v -110.4 -92.8 0
v -109.6 -92.8 0
v -108.8 -93.6 0
v -109.6 -93.6 0
v -109.6 -92.8 0
v -108.8 -92.8 0
v -108 -93.6 0
v -108.8 -93.6 0
v -108.8 -92.8 0
v -108 -92.8 0
v -107.2 -93.6 0
v -108 -93.6 0
v -108 -92.8 0
v -107.2 -92.8 0
v -122.4 -92.8 0
v -123.2 -92.8 0
v -123.2 -92 0
v -122.4 -92 0
v -121.6 -92.8 0
v -122.4 -92.8 0
v -122.4 -92 0
v -121.6 -92 0
v -120.8 -92.8 0
v -121.6 -92.8 0
v -121.6 -92 0
v -120.8 -92 0
v -120 -92.8 0
v -120.8 -92.8 0
v -120.8 -92 0
v -120 -92 0
v -119.2 -92.8 0
v -120 -92.8 0
v -120 -92 0
v -119.2 -92 0
v -118.4 -92.8 0
v -119.2 -92.8 0
v -119.2 -92 0
v -118.4 -92 0
v -117.6 -92.8 0
v -118.4 -92.8 0
v -118.4 -92 0
v -117.6 -92 0
v -116.8 -92.8 0
v -117.6 -92.8 0
v -117.6 -92 0
v -116.8 -92 0
v -116 -92.8 0
v -116.8 -92.8 0
v -116.8 -92 0
v -116 -92 0
v -115.2 -92.8 0
v -116 -92.8 0
v -116 -92 0
v -115.2 -92 0
v -114.4 -92.8 0
v -115.2 -92.8 0
v -115.2 -92 0
v -114.4 -92 0
v -113.6 -92.8 0
v -114.4 -92.8 0
v -114.4 -92 0
v -113.6 -92 0
v -112.8 -92.8 0
v -113.6 -92.8 0
v -113.6 -92 0
v -112.8 -92 0
v -112 -92.8 0
v -112.8 -92.8 0
v -112.8 -92 0
v -112 -92 0
v -111.2 -92.8 0
v -112 -92.8 0
v -112 -92 0
v -111.2 -92 0
v -110.4 -92.8 0
v -111.2 -92.8 0
v -111.2 -92 0
v -110.4 -92 0
v -109.6 -92.8 0
v -110.4 -92.8 0
v -110.4 -92 0
v -109.6 -92 0
v -108.8 -92.8 0
v -109.6 -92.8 0
v -109.6 -92 0
v -108.8 -92 0
v -108 -92.8 0
v -108.8 -92.8 0
v -108.8 -92 0
v -108 -92 0
v -107.2 -92.8 0
v -108 -92.8 0
v -108 -92 0
v -107.2 -92 0
v -122.4 -92 0
v -123.2 -92 0
v -123.2 -91.2 0
v -122.4 -91.2 0
v -121.6 -92 0
v -122.4 -92 0
v -122.4 -91.2 0
v -121.6 -91.2 0
v -120.8 -92 0
v -121.6 -92 0
v -121.6 -91.2 0
v -120.8 -91.2 0
v -120 -92 0
v -120.8 -92 0
v -120.8 -91.2 0
v -120 -91.2 0
v -119.2 -92 0
v -120 -92 0
v -120 -91.2 0
v -119.2 -91.2 0
v -118.4 -92 0
v -119.2 -92 0
v -119.2 -91.2 0
v -118.4 -91.2 0
v -117.6 -92 0
v -118.4 -92 0
v -118.4 -91.2 0
v -117.6 -91.2 0
v -116.8 -92 0
v -117.6 -92 0
v -117.6 -91.2 0
v -116.8 -91.2 0
v -116 -92 0
v -116.8 -92 0
v -116.8 -91.2 0
v -116 -91.2 0
v -115.2 -92 0
v -116 -92 0
v -116 -91.2 0
v -115.2 -91.2 0
v -114.4 -92 0
v -115.2 -92 0
v -115.2 -91.2 0
v -114.4 -91.2 0
v -113.6 -92 0
v -114.4 -92 0
v -114.4 -91.2 0
v -113.6 -91.2 0
v -112.8 -92 0
v -113.6 -92 0
v -113.6 -91.2 0
v -112.8 -91.2 0
v -112 -92 0
v -112.8 -92 0
v -112.8 -91.2 0
v -112 -91.2 0
v -111.2 -92 0
v -112 -92 0
v -112 -91.2 0
v -111.2 -91.2 0
v -110.4 -92 0
v -111.2 -92 0
v -111.2 -91.2 0
v -110.4 -91.2 0
v -109.6 -92 0
v -110.4 -92 0
v -110.4 -91.2 0
v -109.6 -91.2 0
v -108.8 -92 0
v -109.6 -92 0
v -109.6 -91.2 0
v -108.8 -91.2 0
v -108 -92 0
v -108.8 -92 0
v -108.8 -91.2 0
v -108 -91.2 0
v -107.2 -92 0
v -108 -92 0
v -108 -91.2 0
v -107.2 -91.2 0
v -122.4 -91.2 0
v -123.2 -91.2 0
v -123.2 -90.4 0
v -122.4 -90.4 0
v -121.6 -91.2 0
v -122.4 -91.2 0
v -122.4 -90.4 0
v -121.6 -90.4 0
v -120.8 -91.2 0
v -121.6 -91.2 0
v -121.6 -90.4 0
v -120.8 -90.4 0
v -120 -91.2 0
v -120.8 -91.2 0
v -120.8 -90.4 0
v -120 -90.4 0
v -119.2 -91.2 0
v -120 -91.2 0
v -120 -90.4 0
v -119.2 -90.4 0
v -118.4 -91.2 0
v -119.2 -91.2 0
v -119.2 -90.4 0
v -118.4 -90.4 0
v -117.6 -91.2 0
v -118.4 -91.2 0
v -118.4 -90.4 0
v -117.6 -90.4 0
v -116.8 -91.2 0
v -117.6 -91.2 0
v -117.6 -90.4 0
v -116.8 -90.4 0
v -116 -91.2 0
v -116.8 -91.2 0
v -116.8 -90.4 0
v -116 -90.4 0
v -115.2 -91.2 0
v -116 -91.2 0
v -116 -90.4 0
v -115.2 -90.4 0
v -114.4 -91.2 0
v -115.2 -91.2 0
v -115.2 -90.4 0
v -114.4 -90.4 0
v -113.6 -91.2 0
v -114.4 -91.2 0
v -114.4 -90.4 0
v -113.6 -90.4 0
v -112.8 -91.2 0
v -113.6 -91.2 0
v -113.6 -90.4 0
v -112.8 -90.4 0
v -112 -91.2 0
v -112.8 -91.2 0
v -112.8 -90.4 0
v -112 -90.4 0
v -111.2 -91.2 0
v -112 -91.2 0
v -112 -90.4 0
v -111.2 -90.4 0
v -110.4 -91.2 0
v -111.2 -91.2 0
v -111.2 -90.4 0
v -110.4 -90.4 0
v -109.6 -91.2 0
v -110.4 -91.2 0
v -110.4 -90.4 0
v -109.6 -90.4 0
v -108.8 -91.2 0
v -109.6 -91.2 0
v -109.6 -90.4 0
v -108.8 -90.4 0
v -108 -91.2 0
v -108.8 -91.2 0
v -108.8 -90.4 0
v -108 -90.4 0
v -107.2 -91.2 0
v -108 -91.2 0
v -108 -90.4 0
v -107.2 -90.4 0
v -122.4 -90.4 0
v -123.2 -90.4 0
v -123.2 -89.6 0
v -122.4 -89.6 0
v -121.6 -90.4 0
v -122.4 -90.4 0
v -122.4 -89.6 0
v -121.6 -89.6 0
v -120.8 -90.4 0
v -121.6 -90.4 0
v -121.6 -89.6 0
v -120.8 -89.6 0
v -120 -90.4 0
v -120.8 -90.4 0
v -120.8 -89.6 0
v -120 -89.6 0
v -119.2 -90.4 0
v -120 -90.4 0
v -120 -89.6 0
v -119.2 -89.6 0
v -118.4 -90.4 0
v -119.2 -90.4 0
v -119.2 -89.6 0
v -118.4 -89.6 0
v -117.6 -90.4 0
v -118.4 -90.4 0
v -118.4 -89.6 0
v -117.6 -89.6 0
v -116.8 -90.4 0
v -117.6 -90.4 0
v -117.6 -89.6 0
v -116.8 -89.6 0
v -116 -90.4 0
v -116.8 -90.4 0
v -116.8 -89.6 0
v -116 -89.6 0
v -115.2 -90.4 0
v -116 -90.4 0
v -116 -89.6 0
v -115.2 -89.6 0
v -114.4 -90.4 0
v -115.2 -90.4 0
v -115.2 -89.6 0
v -114.4 -89.6 0
v -113.6 -90.4 0
v -114.4 -90.4 0
v -114.4 -89.6 0
v -113.6 -89.6 0
v -112.8 -90.4 0
v -113.6 -90.4 0
v -113.6 -89.6 0
v -112.8 -89.6 0
v -112 -90.4 0
v -112.8 -90.4 0
v -112.8 -89.6 0
v -112 -89.6 0
v -111.2 -90.4 0
v -112 -90.4 0
v -112 -89.6 0
v -111.2 -89.6 0
v -110.4 -90.4 0
v -111.2 -90.4 0
v -111.2 -89.6 0
v -110.4 -89.6 0
v -109.6 -90.4 0
v -110.4 -90.4 0
v -110.4 -89.6 0
v -109.6 -89.6 0
v -108.8 -90.4 0
v -109.6 -90.4 0
v -109.6 -89.6 0
v -108.8 -89.6 0
v -108 -90.4 0
v -108.8 -90.4 0
v -108.8 -89.6 0
v -108 -89.6 0
v -107.2 -90.4 0
v -108 -90.4 0
v -108 -89.6 0
v -107.2 -89.6 0

# Texture cooridinates (Count = 25)
vt 0.7071823 0
vt 0.7661142 0
vt 0.7661142 0.25
vt 0.7071823 0.25
vt 0.6482505 0
vt 0.6482505 0.25
vt 0.5893186 0
vt 0.5893186 0.25
vt 0.5303867 0
vt 0.5303867 0.25
vt 0 0
vt 0.05893186 0
vt 0.05893186 0.25
vt 0 0.25
vt 0.7661142 0.5
vt 0.7071823 0.5
vt 0.1178637 0.25
vt 0.1178637 0.5
vt 0.05893186 0.5
vt 0 0.5
vt 0.7661142 0.75
vt 0.7071823 0.75
vt 0.1178637 0.75
vt 0.05893186 0.75
vt 0 0.75

# Normal
vn 0 0 -1

# Mesh description
g Map2_mesh_0007

# Faces
f 1/1/1 2/2/1 3/3/1 4/4/1
f 5/5/1 6/1/1 7/4/1 8/6/1
f 9/7/1 10/5/1 11/6/1 12/8/1
f 13/5/1 14/1/1 15/4/1 16/6/1
f 17/5/1 18/1/1 19/4/1 20/6/1
f 21/5/1 22/1/1 23/4/1 24/6/1
f 25/5/1 26/1/1 27/4/1 28/6/1
f 29/5/1 30/1/1 31/4/1 32/6/1
f 33/5/1 34/1/1 35/4/1 36/6/1
f 37/5/1 38/1/1 39/4/1 40/6/1
f 41/5/1 42/1/1 43/4/1 44/6/1
f 45/5/1 46/1/1 47/4/1 48/6/1
f 49/5/1 50/1/1 51/4/1 52/6/1
f 53/5/1 54/1/1 55/4/1 56/6/1
f 57/7/1 58/5/1 59/6/1 60/8/1
f 61/9/1 62/7/1 63/8/1 64/10/1
f 65/11/1 66/12/1 67/13/1 68/14/1
f 69/4/1 70/3/1 71/15/1 72/16/1
f 73/13/1 74/17/1 75/18/1 76/19/1
f 77/13/1 78/17/1 79/18/1 80/19/1
f 81/13/1 82/17/1 83/18/1 84/19/1
f 85/13/1 86/17/1 87/18/1 88/19/1
f 89/13/1 90/17/1 91/18/1 92/19/1
f 93/13/1 94/17/1 95/18/1 96/19/1
f 97/13/1 98/17/1 99/18/1 100/19/1
f 101/13/1 102/17/1 103/18/1 104/19/1
f 105/13/1 106/17/1 107/18/1 108/19/1
f 109/13/1 110/17/1 111/18/1 112/19/1
f 113/13/1 114/17/1 115/18/1 116/19/1
f 117/13/1 118/17/1 119/18/1 120/19/1
f 121/13/1 122/17/1 123/18/1 124/19/1
f 125/13/1 126/17/1 127/18/1 128/19/1
f 129/13/1 130/17/1 131/18/1 132/19/1
f 133/14/1 134/13/1 135/19/1 136/20/1
f 137/4/1 138/3/1 139/15/1 140/16/1
f 141/13/1 142/17/1 143/18/1 144/19/1
f 145/13/1 146/17/1 147/18/1 148/19/1
f 149/13/1 150/17/1 151/18/1 152/19/1
f 153/13/1 154/17/1 155/18/1 156/19/1
f 157/13/1 158/17/1 159/18/1 160/19/1
f 161/13/1 162/17/1 163/18/1 164/19/1
f 165/13/1 166/17/1 167/18/1 168/19/1
f 169/13/1 170/17/1 171/18/1 172/19/1
f 173/13/1 174/17/1 175/18/1 176/19/1
f 177/13/1 178/17/1 179/18/1 180/19/1
f 181/13/1 182/17/1 183/18/1 184/19/1
f 185/13/1 186/17/1 187/18/1 188/19/1
f 189/13/1 190/17/1 191/18/1 192/19/1
f 193/13/1 194/17/1 195/18/1 196/19/1
f 197/13/1 198/17/1 199/18/1 200/19/1
f 201/14/1 202/13/1 203/19/1 204/20/1
f 205/4/1 206/3/1 207/15/1 208/16/1
f 209/13/1 210/17/1 211/18/1 212/19/1
f 213/13/1 214/17/1 215/18/1 216/19/1
f 217/13/1 218/17/1 219/18/1 220/19/1
f 221/13/1 222/17/1 223/18/1 224/19/1
f 225/13/1 226/17/1 227/18/1 228/19/1
f 229/13/1 230/17/1 231/18/1 232/19/1
f 233/13/1 234/17/1 235/18/1 236/19/1
f 237/13/1 238/17/1 239/18/1 240/19/1
f 241/13/1 242/17/1 243/18/1 244/19/1
f 245/13/1 246/17/1 247/18/1 248/19/1
f 249/13/1 250/17/1 251/18/1 252/19/1
f 253/13/1 254/17/1 255/18/1 256/19/1
f 257/13/1 258/17/1 259/18/1 260/19/1
f 261/13/1 262/17/1 263/18/1 264/19/1
f 265/13/1 266/17/1 267/18/1 268/19/1
f 269/14/1 270/13/1 271/19/1 272/20/1
f 273/4/1 274/3/1 275/15/1 276/16/1
f 277/13/1 278/17/1 279/18/1 280/19/1
f 281/13/1 282/17/1 283/18/1 284/19/1
f 285/13/1 286/17/1 287/18/1 288/19/1
f 289/13/1 290/17/1 291/18/1 292/19/1
f 293/13/1 294/17/1 295/18/1 296/19/1
f 297/13/1 298/17/1 299/18/1 300/19/1
f 301/13/1 302/17/1 303/18/1 304/19/1
f 305/13/1 306/17/1 307/18/1 308/19/1
f 309/13/1 310/17/1 311/18/1 312/19/1
f 313/13/1 314/17/1 315/18/1 316/19/1
f 317/13/1 318/17/1 319/18/1 320/19/1
f 321/13/1 322/17/1 323/18/1 324/19/1
f 325/13/1 326/17/1 327/18/1 328/19/1
f 329/13/1 330/17/1 331/18/1 332/19/1
f 333/13/1 334/17/1 335/18/1 336/19/1
f 337/13/1 338/17/1 339/18/1 340/19/1
f 341/13/1 342/17/1 343/18/1 344/19/1
f 345/13/1 346/17/1 347/18/1 348/19/1
f 349/14/1 350/13/1 351/19/1 352/20/1
f 353/4/1 354/3/1 355/15/1 356/16/1
f 357/13/1 358/17/1 359/18/1 360/19/1
f 361/13/1 362/17/1 363/18/1 364/19/1
f 365/13/1 366/17/1 367/18/1 368/19/1
f 369/13/1 370/17/1 371/18/1 372/19/1
f 373/13/1 374/17/1 375/18/1 376/19/1
f 377/13/1 378/17/1 379/18/1 380/19/1
f 381/13/1 382/17/1 383/18/1 384/19/1
f 385/13/1 386/17/1 387/18/1 388/19/1
f 389/13/1 390/17/1 391/18/1 392/19/1
f 393/13/1 394/17/1 395/18/1 396/19/1
f 397/13/1 398/17/1 399/18/1 400/19/1
f 401/13/1 402/17/1 403/18/1 404/19/1
f 405/13/1 406/17/1 407/18/1 408/19/1
f 409/13/1 410/17/1 411/18/1 412/19/1
f 413/13/1 414/17/1 415/18/1 416/19/1
f 417/13/1 418/17/1 419/18/1 420/19/1
f 421/13/1 422/17/1 423/18/1 424/19/1
f 425/13/1 426/17/1 427/18/1 428/19/1
f 429/14/1 430/13/1 431/19/1 432/20/1
f 433/4/1 434/3/1 435/15/1 436/16/1
f 437/13/1 438/17/1 439/18/1 440/19/1
f 441/13/1 442/17/1 443/18/1 444/19/1
f 445/13/1 446/17/1 447/18/1 448/19/1
f 449/13/1 450/17/1 451/18/1 452/19/1
f 453/13/1 454/17/1 455/18/1 456/19/1
f 457/13/1 458/17/1 459/18/1 460/19/1
f 461/13/1 462/17/1 463/18/1 464/19/1
f 465/13/1 466/17/1 467/18/1 468/19/1
f 469/13/1 470/17/1 471/18/1 472/19/1
f 473/13/1 474/17/1 475/18/1 476/19/1
f 477/13/1 478/17/1 479/18/1 480/19/1
f 481/13/1 482/17/1 483/18/1 484/19/1
f 485/13/1 486/17/1 487/18/1 488/19/1
f 489/13/1 490/17/1 491/18/1 492/19/1
f 493/13/1 494/17/1 495/18/1 496/19/1
f 497/13/1 498/17/1 499/18/1 500/19/1
f 501/13/1 502/17/1 503/18/1 504/19/1
f 505/13/1 506/17/1 507/18/1 508/19/1
f 509/14/1 510/13/1 511/19/1 512/20/1
f 513/4/1 514/3/1 515/15/1 516/16/1
f 517/13/1 518/17/1 519/18/1 520/19/1
f 521/13/1 522/17/1 523/18/1 524/19/1
f 525/13/1 526/17/1 527/18/1 528/19/1
f 529/13/1 530/17/1 531/18/1 532/19/1
f 533/13/1 534/17/1 535/18/1 536/19/1
f 537/13/1 538/17/1 539/18/1 540/19/1
f 541/13/1 542/17/1 543/18/1 544/19/1
f 545/13/1 546/17/1 547/18/1 548/19/1
f 549/13/1 550/17/1 551/18/1 552/19/1
f 553/13/1 554/17/1 555/18/1 556/19/1
f 557/13/1 558/17/1 559/18/1 560/19/1
f 561/13/1 562/17/1 563/18/1 564/19/1
f 565/13/1 566/17/1 567/18/1 568/19/1
f 569/13/1 570/17/1 571/18/1 572/19/1
f 573/13/1 574/17/1 575/18/1 576/19/1
f 577/13/1 578/17/1 579/18/1 580/19/1
f 581/13/1 582/17/1 583/18/1 584/19/1
f 585/13/1 586/17/1 587/18/1 588/19/1
f 589/14/1 590/13/1 591/19/1 592/20/1
f 593/4/1 594/3/1 595/15/1 596/16/1
f 597/13/1 598/17/1 599/18/1 600/19/1
f 601/13/1 602/17/1 603/18/1 604/19/1
f 605/13/1 606/17/1 607/18/1 608/19/1
f 609/13/1 610/17/1 611/18/1 612/19/1
f 613/13/1 614/17/1 615/18/1 616/19/1
f 617/13/1 618/17/1 619/18/1 620/19/1
f 621/13/1 622/17/1 623/18/1 624/19/1
f 625/13/1 626/17/1 627/18/1 628/19/1
f 629/13/1 630/17/1 631/18/1 632/19/1
f 633/13/1 634/17/1 635/18/1 636/19/1
f 637/13/1 638/17/1 639/18/1 640/19/1
f 641/13/1 642/17/1 643/18/1 644/19/1
f 645/13/1 646/17/1 647/18/1 648/19/1
f 649/13/1 650/17/1 651/18/1 652/19/1
f 653/13/1 654/17/1 655/18/1 656/19/1
f 657/13/1 658/17/1 659/18/1 660/19/1
f 661/13/1 662/17/1 663/18/1 664/19/1
f 665/13/1 666/17/1 667/18/1 668/19/1
f 669/14/1 670/13/1 671/19/1 672/20/1
f 673/4/1 674/3/1 675/15/1 676/16/1
f 677/13/1 678/17/1 679/18/1 680/19/1
f 681/13/1 682/17/1 683/18/1 684/19/1
f 685/13/1 686/17/1 687/18/1 688/19/1
f 689/13/1 690/17/1 691/18/1 692/19/1
f 693/13/1 694/17/1 695/18/1 696/19/1
f 697/13/1 698/17/1 699/18/1 700/19/1
f 701/13/1 702/17/1 703/18/1 704/19/1
f 705/13/1 706/17/1 707/18/1 708/19/1
f 709/13/1 710/17/1 711/18/1 712/19/1
f 713/13/1 714/17/1 715/18/1 716/19/1
f 717/13/1 718/17/1 719/18/1 720/19/1
f 721/13/1 722/17/1 723/18/1 724/19/1
f 725/13/1 726/17/1 727/18/1 728/19/1
f 729/13/1 730/17/1 731/18/1 732/19/1
f 733/13/1 734/17/1 735/18/1 736/19/1
f 737/13/1 738/17/1 739/18/1 740/19/1
f 741/13/1 742/17/1 743/18/1 744/19/1
f 745/13/1 746/17/1 747/18/1 748/19/1
f 749/14/1 750/13/1 751/19/1 752/20/1
f 753/4/1 754/3/1 755/15/1 756/16/1
f 757/13/1 758/17/1 759/18/1 760/19/1
f 761/13/1 762/17/1 763/18/1 764/19/1
f 765/13/1 766/17/1 767/18/1 768/19/1
f 769/13/1 770/17/1 771/18/1 772/19/1
f 773/13/1 774/17/1 775/18/1 776/19/1
f 777/13/1 778/17/1 779/18/1 780/19/1
f 781/13/1 782/17/1 783/18/1 784/19/1
f 785/13/1 786/17/1 787/18/1 788/19/1
f 789/13/1 790/17/1 791/18/1 792/19/1
f 793/13/1 794/17/1 795/18/1 796/19/1
f 797/13/1 798/17/1 799/18/1 800/19/1
f 801/13/1 802/17/1 803/18/1 804/19/1
f 805/13/1 806/17/1 807/18/1 808/19/1
f 809/13/1 810/17/1 811/18/1 812/19/1
f 813/13/1 814/17/1 815/18/1 816/19/1
f 817/13/1 818/17/1 819/18/1 820/19/1
f 821/13/1 822/17/1 823/18/1 824/19/1
f 825/13/1 826/17/1 827/18/1 828/19/1
f 829/14/1 830/13/1 831/19/1 832/20/1
f 833/16/1 834/15/1 835/21/1 836/22/1
f 837/19/1 838/18/1 839/23/1 840/24/1
f 841/19/1 842/18/1 843/23/1 844/24/1
f 845/19/1 846/18/1 847/23/1 848/24/1
f 849/19/1 850/18/1 851/23/1 852/24/1
f 853/19/1 854/18/1 855/23/1 856/24/1
f 857/19/1 858/18/1 859/23/1 860/24/1
f 861/19/1 862/18/1 863/23/1 864/24/1
f 865/19/1 866/18/1 867/23/1 868/24/1
f 869/19/1 870/18/1 871/23/1 872/24/1
f 873/19/1 874/18/1 875/23/1 876/24/1
f 877/19/1 878/18/1 879/23/1 880/24/1
f 881/19/1 882/18/1 883/23/1 884/24/1
f 885/19/1 886/18/1 887/23/1 888/24/1
f 889/19/1 890/18/1 891/23/1 892/24/1
f 893/19/1 894/18/1 895/23/1 896/24/1
f 897/19/1 898/18/1 899/23/1 900/24/1
f 901/19/1 902/18/1 903/23/1 904/24/1
f 905/19/1 906/18/1 907/23/1 908/24/1
f 909/20/1 910/19/1 911/24/1 912/25/1

