# Tiled2Unity generated file. Do not modify by hand.
# Wavefront file for 'Map2_mesh_0026.obj'

# Vertices (Count = 224)
v -127.2 -99.2 0
v -128 -99.2 0
v -128 -98.4 0
v -127.2 -98.4 0
v -156 -98.4 0
v -156.8 -98.4 0
v -156.8 -97.6 0
v -156 -97.6 0
v -151.2 -98.4 0
v -152 -98.4 0
v -152 -97.6 0
v -151.2 -97.6 0
v -146.4 -98.4 0
v -147.2 -98.4 0
v -147.2 -97.6 0
v -146.4 -97.6 0
v -141.6 -98.4 0
v -142.4 -98.4 0
v -142.4 -97.6 0
v -141.6 -97.6 0
v -136.8 -98.4 0
v -137.6 -98.4 0
v -137.6 -97.6 0
v -136.8 -97.6 0
v -132 -98.4 0
v -132.8 -98.4 0
v -132.8 -97.6 0
v -132 -97.6 0
v -127.2 -98.4 0
v -128 -98.4 0
v -128 -97.6 0
v -127.2 -97.6 0
v -156 -97.6 0
v -156.8 -97.6 0
v -156.8 -96.8 0
v -156 -96.8 0
v -151.2 -97.6 0
v -152 -97.6 0
v -152 -96.8 0
v -151.2 -96.8 0
v -146.4 -97.6 0
v -147.2 -97.6 0
v -147.2 -96.8 0
v -146.4 -96.8 0
v -141.6 -97.6 0
v -142.4 -97.6 0
v -142.4 -96.8 0
v -141.6 -96.8 0
v -136.8 -97.6 0
v -137.6 -97.6 0
v -137.6 -96.8 0
v -136.8 -96.8 0
v -132 -97.6 0
v -132.8 -97.6 0
v -132.8 -96.8 0
v -132 -96.8 0
v -127.2 -97.6 0
v -128 -97.6 0
v -128 -96.8 0
v -127.2 -96.8 0
v -156 -96.8 0
v -156.8 -96.8 0
v -156.8 -96 0
v -156 -96 0
v -151.2 -96.8 0
v -152 -96.8 0
v -152 -96 0
v -151.2 -96 0
v -146.4 -96.8 0
v -147.2 -96.8 0
v -147.2 -96 0
v -146.4 -96 0
v -141.6 -96.8 0
v -142.4 -96.8 0
v -142.4 -96 0
v -141.6 -96 0
v -136.8 -96.8 0
v -137.6 -96.8 0
v -137.6 -96 0
v -136.8 -96 0
v -132 -96.8 0
v -132.8 -96.8 0
v -132.8 -96 0
v -132 -96 0
v -127.2 -96.8 0
v -128 -96.8 0
v -128 -96 0
v -127.2 -96 0
v -156 -96 0
v -156.8 -96 0
v -156.8 -95.2 0
v -156 -95.2 0
v -151.2 -96 0
v -152 -96 0
v -152 -95.2 0
v -151.2 -95.2 0
v -146.4 -96 0
v -147.2 -96 0
v -147.2 -95.2 0
v -146.4 -95.2 0
v -141.6 -96 0
v -142.4 -96 0
v -142.4 -95.2 0
v -141.6 -95.2 0
v -136.8 -96 0
v -137.6 -96 0
v -137.6 -95.2 0
v -136.8 -95.2 0
v -132 -96 0
v -132.8 -96 0
v -132.8 -95.2 0
v -132 -95.2 0
v -127.2 -96 0
v -128 -96 0
v -128 -95.2 0
v -127.2 -95.2 0
v -156 -95.2 0
v -156.8 -95.2 0
v -156.8 -94.4 0
v -156 -94.4 0
v -151.2 -95.2 0
v -152 -95.2 0
v -152 -94.4 0
v -151.2 -94.4 0
v -146.4 -95.2 0
v -147.2 -95.2 0
v -147.2 -94.4 0
v -146.4 -94.4 0
v -141.6 -95.2 0
v -142.4 -95.2 0
v -142.4 -94.4 0
v -141.6 -94.4 0
v -136.8 -95.2 0
v -137.6 -95.2 0
v -137.6 -94.4 0
v -136.8 -94.4 0
v -132 -95.2 0
v -132.8 -95.2 0
v -132.8 -94.4 0
v -132 -94.4 0
v -127.2 -95.2 0
v -128 -95.2 0
v -128 -94.4 0
v -127.2 -94.4 0
v -156 -94.4 0
v -156.8 -94.4 0
v -156.8 -93.6 0
v -156 -93.6 0
v -151.2 -94.4 0
v -152 -94.4 0
v -152 -93.6 0
v -151.2 -93.6 0
v -146.4 -94.4 0
v -147.2 -94.4 0
v -147.2 -93.6 0
v -146.4 -93.6 0
v -141.6 -94.4 0
v -142.4 -94.4 0
v -142.4 -93.6 0
v -141.6 -93.6 0
v -136.8 -94.4 0
v -137.6 -94.4 0
v -137.6 -93.6 0
v -136.8 -93.6 0
v -132 -94.4 0
v -132.8 -94.4 0
v -132.8 -93.6 0
v -132 -93.6 0
v -127.2 -94.4 0
v -128 -94.4 0
v -128 -93.6 0
v -127.2 -93.6 0
v -156 -93.6 0
v -156.8 -93.6 0
v -156.8 -92.8 0
v -156 -92.8 0
v -151.2 -93.6 0
v -152 -93.6 0
v -152 -92.8 0
v -151.2 -92.8 0
v -146.4 -93.6 0
v -147.2 -93.6 0
v -147.2 -92.8 0
v -146.4 -92.8 0
v -141.6 -93.6 0
v -142.4 -93.6 0
v -142.4 -92.8 0
v -141.6 -92.8 0
v -136.8 -93.6 0
v -137.6 -93.6 0
v -137.6 -92.8 0
v -136.8 -92.8 0
v -132 -93.6 0
v -132.8 -93.6 0
v -132.8 -92.8 0
v -132 -92.8 0
v -127.2 -93.6 0
v -128 -93.6 0
v -128 -92.8 0
v -127.2 -92.8 0
v -156 -92.8 0
v -156.8 -92.8 0
v -156.8 -92 0
v -156 -92 0
v -151.2 -92.8 0
v -152 -92.8 0
v -152 -92 0
v -151.2 -92 0
v -146.4 -92.8 0
v -147.2 -92.8 0
v -147.2 -92 0
v -146.4 -92 0
v -141.6 -92.8 0
v -142.4 -92.8 0
v -142.4 -92 0
v -141.6 -92 0
v -136.8 -92.8 0
v -137.6 -92.8 0
v -137.6 -92 0
v -136.8 -92 0
v -132 -92.8 0
v -132.8 -92.8 0
v -132.8 -92 0
v -132 -92 0

# Texture cooridinates (Count = 9)
vt 0 0.25
vt 0.3333333 0.25
vt 0.3333333 0.5
vt 0 0.5
vt 0.3333333 0.75
vt 0 0.75
vt 0.6666667 0.75
vt 0.6666667 1
vt 0.3333333 1

# Normal
vn 0 0 -1

# Mesh description
g Map2_mesh_0026

# Faces
f 1/1/1 2/2/1 3/3/1 4/4/1
f 5/1/1 6/2/1 7/3/1 8/4/1
f 9/1/1 10/2/1 11/3/1 12/4/1
f 13/1/1 14/2/1 15/3/1 16/4/1
f 17/1/1 18/2/1 19/3/1 20/4/1
f 21/1/1 22/2/1 23/3/1 24/4/1
f 25/1/1 26/2/1 27/3/1 28/4/1
f 29/1/1 30/2/1 31/3/1 32/4/1
f 33/1/1 34/2/1 35/3/1 36/4/1
f 37/1/1 38/2/1 39/3/1 40/4/1
f 41/1/1 42/2/1 43/3/1 44/4/1
f 45/1/1 46/2/1 47/3/1 48/4/1
f 49/1/1 50/2/1 51/3/1 52/4/1
f 53/1/1 54/2/1 55/3/1 56/4/1
f 57/1/1 58/2/1 59/3/1 60/4/1
f 61/1/1 62/2/1 63/3/1 64/4/1
f 65/1/1 66/2/1 67/3/1 68/4/1
f 69/1/1 70/2/1 71/3/1 72/4/1
f 73/1/1 74/2/1 75/3/1 76/4/1
f 77/1/1 78/2/1 79/3/1 80/4/1
f 81/1/1 82/2/1 83/3/1 84/4/1
f 85/1/1 86/2/1 87/3/1 88/4/1
f 89/1/1 90/2/1 91/3/1 92/4/1
f 93/1/1 94/2/1 95/3/1 96/4/1
f 97/1/1 98/2/1 99/3/1 100/4/1
f 101/1/1 102/2/1 103/3/1 104/4/1
f 105/1/1 106/2/1 107/3/1 108/4/1
f 109/1/1 110/2/1 111/3/1 112/4/1
f 113/1/1 114/2/1 115/3/1 116/4/1
f 117/1/1 118/2/1 119/3/1 120/4/1
f 121/1/1 122/2/1 123/3/1 124/4/1
f 125/1/1 126/2/1 127/3/1 128/4/1
f 129/1/1 130/2/1 131/3/1 132/4/1
f 133/1/1 134/2/1 135/3/1 136/4/1
f 137/1/1 138/2/1 139/3/1 140/4/1
f 141/1/1 142/2/1 143/3/1 144/4/1
f 145/1/1 146/2/1 147/3/1 148/4/1
f 149/1/1 150/2/1 151/3/1 152/4/1
f 153/1/1 154/2/1 155/3/1 156/4/1
f 157/1/1 158/2/1 159/3/1 160/4/1
f 161/1/1 162/2/1 163/3/1 164/4/1
f 165/1/1 166/2/1 167/3/1 168/4/1
f 169/4/1 170/3/1 171/5/1 172/6/1
f 173/4/1 174/3/1 175/5/1 176/6/1
f 177/4/1 178/3/1 179/5/1 180/6/1
f 181/4/1 182/3/1 183/5/1 184/6/1
f 185/4/1 186/3/1 187/5/1 188/6/1
f 189/4/1 190/3/1 191/5/1 192/6/1
f 193/4/1 194/3/1 195/5/1 196/6/1
f 197/5/1 198/7/1 199/8/1 200/9/1
f 201/5/1 202/7/1 203/8/1 204/9/1
f 205/5/1 206/7/1 207/8/1 208/9/1
f 209/5/1 210/7/1 211/8/1 212/9/1
f 213/5/1 214/7/1 215/8/1 216/9/1
f 217/5/1 218/7/1 219/8/1 220/9/1
f 221/5/1 222/7/1 223/8/1 224/9/1

