# Tiled2Unity generated file. Do not modify by hand.
# Wavefront file for 'Map2_mesh_0021.obj'

# Vertices (Count = 12)
v -236.8 -104 0
v -237.6 -104 0
v -237.6 -103.2 0
v -236.8 -103.2 0
v -236 -104 0
v -236.8 -104 0
v -236.8 -103.2 0
v -236 -103.2 0
v -234.4 -104 0
v -235.2 -104 0
v -235.2 -103.2 0
v -234.4 -103.2 0

# Texture cooridinates (Count = 4)
vt 1 1
vt 0 1
vt 0 0
vt 1 0

# Normal
vn 0 0 -1

# Mesh description
g Map2_mesh_0021

# Faces
f 1/1/1 2/2/1 3/3/1 4/4/1
f 5/1/1 6/2/1 7/3/1 8/4/1
f 9/1/1 10/2/1 11/3/1 12/4/1

