# Tiled2Unity generated file. Do not modify by hand.
# Wavefront file for 'Map2_mesh_0007.obj'

# Vertices (Count = 12)
v -287.2 -92.8 0
v -288 -92.8 0
v -288 -92 0
v -287.2 -92 0
v -287.2 -92 0
v -288 -92 0
v -288 -91.2 0
v -287.2 -91.2 0
v -287.2 -91.2 0
v -288 -91.2 0
v -288 -90.4 0
v -287.2 -90.4 0

# Texture cooridinates (Count = 8)
vt 0.71875 0.25
vt 0.75 0.25
vt 0.75 0.28125
vt 0.71875 0.28125
vt 0.75 0.3125
vt 0.71875 0.3125
vt 0.75 0.34375
vt 0.71875 0.34375

# Normal
vn 0 0 -1

# Mesh description
g Map2_mesh_0007

# Faces
f 1/1/1 2/2/1 3/3/1 4/4/1
f 5/4/1 6/3/1 7/5/1 8/6/1
f 9/6/1 10/5/1 11/7/1 12/8/1

