# Tiled2Unity generated file. Do not modify by hand.
# Wavefront file for 'Map2_mesh_0028.obj'

# Vertices (Count = 72)
v -324.8 -106.4 0
v -325.6 -106.4 0
v -325.6 -105.6 0
v -324.8 -105.6 0
v -319.2 -106.4 0
v -320 -106.4 0
v -320 -105.6 0
v -319.2 -105.6 0
v -316.8 -106.4 0
v -317.6 -106.4 0
v -317.6 -105.6 0
v -316.8 -105.6 0
v -310.4 -106.4 0
v -311.2 -106.4 0
v -311.2 -105.6 0
v -310.4 -105.6 0
v -308 -106.4 0
v -308.8 -106.4 0
v -308.8 -105.6 0
v -308 -105.6 0
v -299.2 -106.4 0
v -300 -106.4 0
v -300 -105.6 0
v -299.2 -105.6 0
v -293.6 -106.4 0
v -294.4 -106.4 0
v -294.4 -105.6 0
v -293.6 -105.6 0
v -291.2 -106.4 0
v -292 -106.4 0
v -292 -105.6 0
v -291.2 -105.6 0
v -283.2 -104 0
v -284 -104 0
v -284 -103.2 0
v -283.2 -103.2 0
v -280.8 -104 0
v -281.6 -104 0
v -281.6 -103.2 0
v -280.8 -103.2 0
v -271.2 -104 0
v -272 -104 0
v -272 -103.2 0
v -271.2 -103.2 0
v -263.2 -104 0
v -264 -104 0
v -264 -103.2 0
v -263.2 -103.2 0
v -257.6 -104 0
v -258.4 -104 0
v -258.4 -103.2 0
v -257.6 -103.2 0
v -255.2 -104 0
v -256 -104 0
v -256 -103.2 0
v -255.2 -103.2 0
v -248 -104 0
v -248.8 -104 0
v -248.8 -103.2 0
v -248 -103.2 0
v -242.4 -104 0
v -243.2 -104 0
v -243.2 -103.2 0
v -242.4 -103.2 0
v -240 -104 0
v -240.8 -104 0
v -240.8 -103.2 0
v -240 -103.2 0
v -232.8 -104 0
v -233.6 -104 0
v -233.6 -103.2 0
v -232.8 -103.2 0

# Texture cooridinates (Count = 4)
vt 0 1
vt 0 0
vt 1 0
vt 1 1

# Normal
vn 0 0 -1

# Mesh description
g Map2_mesh_0028

# Faces
f 1/1/1 2/2/1 3/3/1 4/4/1
f 5/1/1 6/2/1 7/3/1 8/4/1
f 9/1/1 10/2/1 11/3/1 12/4/1
f 13/1/1 14/2/1 15/3/1 16/4/1
f 17/1/1 18/2/1 19/3/1 20/4/1
f 21/1/1 22/2/1 23/3/1 24/4/1
f 25/1/1 26/2/1 27/3/1 28/4/1
f 29/1/1 30/2/1 31/3/1 32/4/1
f 33/1/1 34/2/1 35/3/1 36/4/1
f 37/1/1 38/2/1 39/3/1 40/4/1
f 41/1/1 42/2/1 43/3/1 44/4/1
f 45/1/1 46/2/1 47/3/1 48/4/1
f 49/1/1 50/2/1 51/3/1 52/4/1
f 53/1/1 54/2/1 55/3/1 56/4/1
f 57/1/1 58/2/1 59/3/1 60/4/1
f 61/1/1 62/2/1 63/3/1 64/4/1
f 65/1/1 66/2/1 67/3/1 68/4/1
f 69/1/1 70/2/1 71/3/1 72/4/1

