# Tiled2Unity generated file. Do not modify by hand.
# Wavefront file for 'Map2_mesh_0023.obj'

# Vertices (Count = 304)
v -158.4 -99.2 0
v -159.2 -99.2 0
v -159.2 -98.4 0
v -158.4 -98.4 0
v -156.8 -99.2 0
v -157.6 -99.2 0
v -157.6 -98.4 0
v -156.8 -98.4 0
v -156 -99.2 0
v -156.8 -99.2 0
v -156.8 -98.4 0
v -156 -98.4 0
v -155.2 -99.2 0
v -156 -99.2 0
v -156 -98.4 0
v -155.2 -98.4 0
v -154.4 -99.2 0
v -155.2 -99.2 0
v -155.2 -98.4 0
v -154.4 -98.4 0
v -153.6 -99.2 0
v -154.4 -99.2 0
v -154.4 -98.4 0
v -153.6 -98.4 0
v -152.8 -99.2 0
v -153.6 -99.2 0
v -153.6 -98.4 0
v -152.8 -98.4 0
v -152 -99.2 0
v -152.8 -99.2 0
v -152.8 -98.4 0
v -152 -98.4 0
v -151.2 -99.2 0
v -152 -99.2 0
v -152 -98.4 0
v -151.2 -98.4 0
v -150.4 -99.2 0
v -151.2 -99.2 0
v -151.2 -98.4 0
v -150.4 -98.4 0
v -149.6 -99.2 0
v -150.4 -99.2 0
v -150.4 -98.4 0
v -149.6 -98.4 0
v -148.8 -99.2 0
v -149.6 -99.2 0
v -149.6 -98.4 0
v -148.8 -98.4 0
v -148 -99.2 0
v -148.8 -99.2 0
v -148.8 -98.4 0
v -148 -98.4 0
v -147.2 -99.2 0
v -148 -99.2 0
v -148 -98.4 0
v -147.2 -98.4 0
v -146.4 -99.2 0
v -147.2 -99.2 0
v -147.2 -98.4 0
v -146.4 -98.4 0
v -143.2 -99.2 0
v -144 -99.2 0
v -144 -98.4 0
v -143.2 -98.4 0
v -142.4 -99.2 0
v -143.2 -99.2 0
v -143.2 -98.4 0
v -142.4 -98.4 0
v -141.6 -99.2 0
v -142.4 -99.2 0
v -142.4 -98.4 0
v -141.6 -98.4 0
v -140.8 -99.2 0
v -141.6 -99.2 0
v -141.6 -98.4 0
v -140.8 -98.4 0
v -140 -99.2 0
v -140.8 -99.2 0
v -140.8 -98.4 0
v -140 -98.4 0
v -139.2 -99.2 0
v -140 -99.2 0
v -140 -98.4 0
v -139.2 -98.4 0
v -138.4 -99.2 0
v -139.2 -99.2 0
v -139.2 -98.4 0
v -138.4 -98.4 0
v -137.6 -99.2 0
v -138.4 -99.2 0
v -138.4 -98.4 0
v -137.6 -98.4 0
v -135.2 -99.2 0
v -136 -99.2 0
v -136 -98.4 0
v -135.2 -98.4 0
v -134.4 -99.2 0
v -135.2 -99.2 0
v -135.2 -98.4 0
v -134.4 -98.4 0
v -133.6 -99.2 0
v -134.4 -99.2 0
v -134.4 -98.4 0
v -133.6 -98.4 0
v -132.8 -99.2 0
v -133.6 -99.2 0
v -133.6 -98.4 0
v -132.8 -98.4 0
v -132 -99.2 0
v -132.8 -99.2 0
v -132.8 -98.4 0
v -132 -98.4 0
v -131.2 -99.2 0
v -132 -99.2 0
v -132 -98.4 0
v -131.2 -98.4 0
v -158.4 -98.4 0
v -159.2 -98.4 0
v -159.2 -97.6 0
v -158.4 -97.6 0
v -157.6 -98.4 0
v -158.4 -98.4 0
v -158.4 -97.6 0
v -157.6 -97.6 0
v -156.8 -98.4 0
v -157.6 -98.4 0
v -157.6 -97.6 0
v -156.8 -97.6 0
v -156 -98.4 0
v -156.8 -98.4 0
v -156.8 -97.6 0
v -156 -97.6 0
v -155.2 -98.4 0
v -156 -98.4 0
v -156 -97.6 0
v -155.2 -97.6 0
v -154.4 -98.4 0
v -155.2 -98.4 0
v -155.2 -97.6 0
v -154.4 -97.6 0
v -153.6 -98.4 0
v -154.4 -98.4 0
v -154.4 -97.6 0
v -153.6 -97.6 0
v -152.8 -98.4 0
v -153.6 -98.4 0
v -153.6 -97.6 0
v -152.8 -97.6 0
v -152 -98.4 0
v -152.8 -98.4 0
v -152.8 -97.6 0
v -152 -97.6 0
v -151.2 -98.4 0
v -152 -98.4 0
v -152 -97.6 0
v -151.2 -97.6 0
v -150.4 -98.4 0
v -151.2 -98.4 0
v -151.2 -97.6 0
v -150.4 -97.6 0
v -149.6 -98.4 0
v -150.4 -98.4 0
v -150.4 -97.6 0
v -149.6 -97.6 0
v -148.8 -98.4 0
v -149.6 -98.4 0
v -149.6 -97.6 0
v -148.8 -97.6 0
v -148 -98.4 0
v -148.8 -98.4 0
v -148.8 -97.6 0
v -148 -97.6 0
v -147.2 -98.4 0
v -148 -98.4 0
v -148 -97.6 0
v -147.2 -97.6 0
v -146.4 -98.4 0
v -147.2 -98.4 0
v -147.2 -97.6 0
v -146.4 -97.6 0
v -145.6 -98.4 0
v -146.4 -98.4 0
v -146.4 -97.6 0
v -145.6 -97.6 0
v -144.8 -98.4 0
v -145.6 -98.4 0
v -145.6 -97.6 0
v -144.8 -97.6 0
v -144 -98.4 0
v -144.8 -98.4 0
v -144.8 -97.6 0
v -144 -97.6 0
v -143.2 -98.4 0
v -144 -98.4 0
v -144 -97.6 0
v -143.2 -97.6 0
v -142.4 -98.4 0
v -143.2 -98.4 0
v -143.2 -97.6 0
v -142.4 -97.6 0
v -141.6 -98.4 0
v -142.4 -98.4 0
v -142.4 -97.6 0
v -141.6 -97.6 0
v -140.8 -98.4 0
v -141.6 -98.4 0
v -141.6 -97.6 0
v -140.8 -97.6 0
v -140 -98.4 0
v -140.8 -98.4 0
v -140.8 -97.6 0
v -140 -97.6 0
v -139.2 -98.4 0
v -140 -98.4 0
v -140 -97.6 0
v -139.2 -97.6 0
v -138.4 -98.4 0
v -139.2 -98.4 0
v -139.2 -97.6 0
v -138.4 -97.6 0
v -137.6 -98.4 0
v -138.4 -98.4 0
v -138.4 -97.6 0
v -137.6 -97.6 0
v -136.8 -98.4 0
v -137.6 -98.4 0
v -137.6 -97.6 0
v -136.8 -97.6 0
v -136 -98.4 0
v -136.8 -98.4 0
v -136.8 -97.6 0
v -136 -97.6 0
v -135.2 -98.4 0
v -136 -98.4 0
v -136 -97.6 0
v -135.2 -97.6 0
v -134.4 -98.4 0
v -135.2 -98.4 0
v -135.2 -97.6 0
v -134.4 -97.6 0
v -133.6 -98.4 0
v -134.4 -98.4 0
v -134.4 -97.6 0
v -133.6 -97.6 0
v -132.8 -98.4 0
v -133.6 -98.4 0
v -133.6 -97.6 0
v -132.8 -97.6 0
v -132 -98.4 0
v -132.8 -98.4 0
v -132.8 -97.6 0
v -132 -97.6 0
v -131.2 -98.4 0
v -132 -98.4 0
v -132 -97.6 0
v -131.2 -97.6 0
v -76 -96.8 0
v -76.8 -96.8 0
v -76.8 -96 0
v -76 -96 0
v -71.2 -96.8 0
v -72 -96.8 0
v -72 -96 0
v -71.2 -96 0
v -66.4 -96.8 0
v -67.2 -96.8 0
v -67.2 -96 0
v -66.4 -96 0
v -76 -96 0
v -76.8 -96 0
v -76.8 -95.2 0
v -76 -95.2 0
v -71.2 -96 0
v -72 -96 0
v -72 -95.2 0
v -71.2 -95.2 0
v -66.4 -96 0
v -67.2 -96 0
v -67.2 -95.2 0
v -66.4 -95.2 0
v -76 -95.2 0
v -76.8 -95.2 0
v -76.8 -94.4 0
v -76 -94.4 0
v -71.2 -95.2 0
v -72 -95.2 0
v -72 -94.4 0
v -71.2 -94.4 0
v -66.4 -95.2 0
v -67.2 -95.2 0
v -67.2 -94.4 0
v -66.4 -94.4 0
v -76 -94.4 0
v -76.8 -94.4 0
v -76.8 -93.6 0
v -76 -93.6 0
v -71.2 -94.4 0
v -72 -94.4 0
v -72 -93.6 0
v -71.2 -93.6 0
v -66.4 -94.4 0
v -67.2 -94.4 0
v -67.2 -93.6 0
v -66.4 -93.6 0

# Texture cooridinates (Count = 19)
vt 0.1666667 0.7619048
vt 0.2083333 0.7619048
vt 0.2083333 0.8095238
vt 0.1666667 0.8095238
vt 0.04166667 0.7619048
vt 0.08333334 0.7619048
vt 0.08333334 0.8095238
vt 0.04166667 0.8095238
vt 0 0.7619048
vt 0 0.8095238
vt 0.2083333 0.8571429
vt 0.1666667 0.8571429
vt 0.08333334 0.8571429
vt 0.04166667 0.8571429
vt 0 0.8571429
vt 0.25 0.09523809
vt 0.2916667 0.09523809
vt 0.2916667 0.1428571
vt 0.25 0.1428571

# Normal
vn 0 0 -1

# Mesh description
g Map2_mesh_0023

# Faces
f 1/1/1 2/2/1 3/3/1 4/4/1
f 5/5/1 6/6/1 7/7/1 8/8/1
f 9/5/1 10/6/1 11/7/1 12/8/1
f 13/5/1 14/6/1 15/7/1 16/8/1
f 17/5/1 18/6/1 19/7/1 20/8/1
f 21/5/1 22/6/1 23/7/1 24/8/1
f 25/5/1 26/6/1 27/7/1 28/8/1
f 29/5/1 30/6/1 31/7/1 32/8/1
f 33/5/1 34/6/1 35/7/1 36/8/1
f 37/5/1 38/6/1 39/7/1 40/8/1
f 41/5/1 42/6/1 43/7/1 44/8/1
f 45/5/1 46/6/1 47/7/1 48/8/1
f 49/5/1 50/6/1 51/7/1 52/8/1
f 53/5/1 54/6/1 55/7/1 56/8/1
f 57/5/1 58/6/1 59/7/1 60/8/1
f 61/5/1 62/6/1 63/7/1 64/8/1
f 65/5/1 66/6/1 67/7/1 68/8/1
f 69/5/1 70/6/1 71/7/1 72/8/1
f 73/5/1 74/6/1 75/7/1 76/8/1
f 77/5/1 78/6/1 79/7/1 80/8/1
f 81/5/1 82/6/1 83/7/1 84/8/1
f 85/5/1 86/6/1 87/7/1 88/8/1
f 89/5/1 90/6/1 91/7/1 92/8/1
f 93/5/1 94/6/1 95/7/1 96/8/1
f 97/5/1 98/6/1 99/7/1 100/8/1
f 101/5/1 102/6/1 103/7/1 104/8/1
f 105/5/1 106/6/1 107/7/1 108/8/1
f 109/5/1 110/6/1 111/7/1 112/8/1
f 113/9/1 114/5/1 115/8/1 116/10/1
f 117/4/1 118/3/1 119/11/1 120/12/1
f 121/8/1 122/7/1 123/13/1 124/14/1
f 125/8/1 126/7/1 127/13/1 128/14/1
f 129/8/1 130/7/1 131/13/1 132/14/1
f 133/8/1 134/7/1 135/13/1 136/14/1
f 137/8/1 138/7/1 139/13/1 140/14/1
f 141/8/1 142/7/1 143/13/1 144/14/1
f 145/8/1 146/7/1 147/13/1 148/14/1
f 149/8/1 150/7/1 151/13/1 152/14/1
f 153/8/1 154/7/1 155/13/1 156/14/1
f 157/8/1 158/7/1 159/13/1 160/14/1
f 161/8/1 162/7/1 163/13/1 164/14/1
f 165/8/1 166/7/1 167/13/1 168/14/1
f 169/8/1 170/7/1 171/13/1 172/14/1
f 173/8/1 174/7/1 175/13/1 176/14/1
f 177/8/1 178/7/1 179/13/1 180/14/1
f 181/8/1 182/7/1 183/13/1 184/14/1
f 185/8/1 186/7/1 187/13/1 188/14/1
f 189/8/1 190/7/1 191/13/1 192/14/1
f 193/8/1 194/7/1 195/13/1 196/14/1
f 197/8/1 198/7/1 199/13/1 200/14/1
f 201/8/1 202/7/1 203/13/1 204/14/1
f 205/8/1 206/7/1 207/13/1 208/14/1
f 209/8/1 210/7/1 211/13/1 212/14/1
f 213/8/1 214/7/1 215/13/1 216/14/1
f 217/8/1 218/7/1 219/13/1 220/14/1
f 221/8/1 222/7/1 223/13/1 224/14/1
f 225/8/1 226/7/1 227/13/1 228/14/1
f 229/8/1 230/7/1 231/13/1 232/14/1
f 233/8/1 234/7/1 235/13/1 236/14/1
f 237/8/1 238/7/1 239/13/1 240/14/1
f 241/8/1 242/7/1 243/13/1 244/14/1
f 245/8/1 246/7/1 247/13/1 248/14/1
f 249/8/1 250/7/1 251/13/1 252/14/1
f 253/10/1 254/8/1 255/14/1 256/15/1
f 257/16/1 258/17/1 259/18/1 260/19/1
f 261/16/1 262/17/1 263/18/1 264/19/1
f 265/16/1 266/17/1 267/18/1 268/19/1
f 269/16/1 270/17/1 271/18/1 272/19/1
f 273/16/1 274/17/1 275/18/1 276/19/1
f 277/16/1 278/17/1 279/18/1 280/19/1
f 281/16/1 282/17/1 283/18/1 284/19/1
f 285/16/1 286/17/1 287/18/1 288/19/1
f 289/16/1 290/17/1 291/18/1 292/19/1
f 293/16/1 294/17/1 295/18/1 296/19/1
f 297/16/1 298/17/1 299/18/1 300/19/1
f 301/16/1 302/17/1 303/18/1 304/19/1

