# Tiled2Unity generated file. Do not modify by hand.
# Wavefront file for 'Map3_mesh_0020.obj'

# Vertices (Count = 20)
v -364 -108 0
v -364.8 -108 0
v -364.8 -107.2 0
v -364 -107.2 0
v -363.2 -108 0
v -364 -108 0
v -364 -107.2 0
v -363.2 -107.2 0
v -353.6 -108 0
v -354.4 -108 0
v -354.4 -107.2 0
v -353.6 -107.2 0
v -352.8 -108 0
v -353.6 -108 0
v -353.6 -107.2 0
v -352.8 -107.2 0
v -349.6 -108 0
v -350.4 -108 0
v -350.4 -107.2 0
v -349.6 -107.2 0

# Texture cooridinates (Count = 4)
vt 0 0
vt 1 0
vt 1 1
vt 0 1

# Normal
vn 0 0 -1

# Mesh description
g Map3_mesh_0020

# Faces
f 1/1/1 2/2/1 3/3/1 4/4/1
f 5/1/1 6/2/1 7/3/1 8/4/1
f 9/1/1 10/2/1 11/3/1 12/4/1
f 13/1/1 14/2/1 15/3/1 16/4/1
f 17/1/1 18/2/1 19/3/1 20/4/1

