# Tiled2Unity generated file. Do not modify by hand.
# Wavefront file for 'Map3_mesh_0007.obj'

# Vertices (Count = 936)
v -496 -84.8 0
v -496.8 -84.8 0
v -496.8 -84 0
v -496 -84 0
v -495.2 -84.8 0
v -496 -84.8 0
v -496 -84 0
v -495.2 -84 0
v -494.4 -84.8 0
v -495.2 -84.8 0
v -495.2 -84 0
v -494.4 -84 0
v -493.6 -84.8 0
v -494.4 -84.8 0
v -494.4 -84 0
v -493.6 -84 0
v -492.8 -84.8 0
v -493.6 -84.8 0
v -493.6 -84 0
v -492.8 -84 0
v -492 -84.8 0
v -492.8 -84.8 0
v -492.8 -84 0
v -492 -84 0
v -491.2 -84.8 0
v -492 -84.8 0
v -492 -84 0
v -491.2 -84 0
v -490.4 -84.8 0
v -491.2 -84.8 0
v -491.2 -84 0
v -490.4 -84 0
v -489.6 -84.8 0
v -490.4 -84.8 0
v -490.4 -84 0
v -489.6 -84 0
v -488.8 -84.8 0
v -489.6 -84.8 0
v -489.6 -84 0
v -488.8 -84 0
v -488 -84.8 0
v -488.8 -84.8 0
v -488.8 -84 0
v -488 -84 0
v -487.2 -84.8 0
v -488 -84.8 0
v -488 -84 0
v -487.2 -84 0
v -486.4 -84.8 0
v -487.2 -84.8 0
v -487.2 -84 0
v -486.4 -84 0
v -485.6 -84.8 0
v -486.4 -84.8 0
v -486.4 -84 0
v -485.6 -84 0
v -484.8 -84.8 0
v -485.6 -84.8 0
v -485.6 -84 0
v -484.8 -84 0
v -484 -84.8 0
v -484.8 -84.8 0
v -484.8 -84 0
v -484 -84 0
v -483.2 -84.8 0
v -484 -84.8 0
v -484 -84 0
v -483.2 -84 0
v -482.4 -84.8 0
v -483.2 -84.8 0
v -483.2 -84 0
v -482.4 -84 0
v -481.6 -84.8 0
v -482.4 -84.8 0
v -482.4 -84 0
v -481.6 -84 0
v -480.8 -84.8 0
v -481.6 -84.8 0
v -481.6 -84 0
v -480.8 -84 0
v -480 -84.8 0
v -480.8 -84.8 0
v -480.8 -84 0
v -480 -84 0
v -479.2 -84.8 0
v -480 -84.8 0
v -480 -84 0
v -479.2 -84 0
v -478.4 -84.8 0
v -479.2 -84.8 0
v -479.2 -84 0
v -478.4 -84 0
v -477.6 -84.8 0
v -478.4 -84.8 0
v -478.4 -84 0
v -477.6 -84 0
v -476.8 -84.8 0
v -477.6 -84.8 0
v -477.6 -84 0
v -476.8 -84 0
v -476 -84.8 0
v -476.8 -84.8 0
v -476.8 -84 0
v -476 -84 0
v -475.2 -84.8 0
v -476 -84.8 0
v -476 -84 0
v -475.2 -84 0
v -474.4 -84.8 0
v -475.2 -84.8 0
v -475.2 -84 0
v -474.4 -84 0
v -473.6 -84.8 0
v -474.4 -84.8 0
v -474.4 -84 0
v -473.6 -84 0
v -472.8 -84.8 0
v -473.6 -84.8 0
v -473.6 -84 0
v -472.8 -84 0
v -472 -84.8 0
v -472.8 -84.8 0
v -472.8 -84 0
v -472 -84 0
v -471.2 -84.8 0
v -472 -84.8 0
v -472 -84 0
v -471.2 -84 0
v -470.4 -84.8 0
v -471.2 -84.8 0
v -471.2 -84 0
v -470.4 -84 0
v -469.6 -84.8 0
v -470.4 -84.8 0
v -470.4 -84 0
v -469.6 -84 0
v -468.8 -84.8 0
v -469.6 -84.8 0
v -469.6 -84 0
v -468.8 -84 0
v -468 -84.8 0
v -468.8 -84.8 0
v -468.8 -84 0
v -468 -84 0
v -467.2 -84.8 0
v -468 -84.8 0
v -468 -84 0
v -467.2 -84 0
v -466.4 -84.8 0
v -467.2 -84.8 0
v -467.2 -84 0
v -466.4 -84 0
v -465.6 -84.8 0
v -466.4 -84.8 0
v -466.4 -84 0
v -465.6 -84 0
v -464.8 -84.8 0
v -465.6 -84.8 0
v -465.6 -84 0
v -464.8 -84 0
v -464 -84.8 0
v -464.8 -84.8 0
v -464.8 -84 0
v -464 -84 0
v -463.2 -84.8 0
v -464 -84.8 0
v -464 -84 0
v -463.2 -84 0
v -462.4 -84.8 0
v -463.2 -84.8 0
v -463.2 -84 0
v -462.4 -84 0
v -461.6 -84.8 0
v -462.4 -84.8 0
v -462.4 -84 0
v -461.6 -84 0
v -460.8 -84.8 0
v -461.6 -84.8 0
v -461.6 -84 0
v -460.8 -84 0
v -460 -84.8 0
v -460.8 -84.8 0
v -460.8 -84 0
v -460 -84 0
v -459.2 -84.8 0
v -460 -84.8 0
v -460 -84 0
v -459.2 -84 0
v -496 -84 0
v -496.8 -84 0
v -496.8 -83.2 0
v -496 -83.2 0
v -495.2 -84 0
v -496 -84 0
v -496 -83.2 0
v -495.2 -83.2 0
v -494.4 -84 0
v -495.2 -84 0
v -495.2 -83.2 0
v -494.4 -83.2 0
v -493.6 -84 0
v -494.4 -84 0
v -494.4 -83.2 0
v -493.6 -83.2 0
v -492.8 -84 0
v -493.6 -84 0
v -493.6 -83.2 0
v -492.8 -83.2 0
v -492 -84 0
v -492.8 -84 0
v -492.8 -83.2 0
v -492 -83.2 0
v -491.2 -84 0
v -492 -84 0
v -492 -83.2 0
v -491.2 -83.2 0
v -490.4 -84 0
v -491.2 -84 0
v -491.2 -83.2 0
v -490.4 -83.2 0
v -489.6 -84 0
v -490.4 -84 0
v -490.4 -83.2 0
v -489.6 -83.2 0
v -488.8 -84 0
v -489.6 -84 0
v -489.6 -83.2 0
v -488.8 -83.2 0
v -488 -84 0
v -488.8 -84 0
v -488.8 -83.2 0
v -488 -83.2 0
v -487.2 -84 0
v -488 -84 0
v -488 -83.2 0
v -487.2 -83.2 0
v -486.4 -84 0
v -487.2 -84 0
v -487.2 -83.2 0
v -486.4 -83.2 0
v -485.6 -84 0
v -486.4 -84 0
v -486.4 -83.2 0
v -485.6 -83.2 0
v -484.8 -84 0
v -485.6 -84 0
v -485.6 -83.2 0
v -484.8 -83.2 0
v -484 -84 0
v -484.8 -84 0
v -484.8 -83.2 0
v -484 -83.2 0
v -483.2 -84 0
v -484 -84 0
v -484 -83.2 0
v -483.2 -83.2 0
v -482.4 -84 0
v -483.2 -84 0
v -483.2 -83.2 0
v -482.4 -83.2 0
v -481.6 -84 0
v -482.4 -84 0
v -482.4 -83.2 0
v -481.6 -83.2 0
v -480.8 -84 0
v -481.6 -84 0
v -481.6 -83.2 0
v -480.8 -83.2 0
v -480 -84 0
v -480.8 -84 0
v -480.8 -83.2 0
v -480 -83.2 0
v -479.2 -84 0
v -480 -84 0
v -480 -83.2 0
v -479.2 -83.2 0
v -478.4 -84 0
v -479.2 -84 0
v -479.2 -83.2 0
v -478.4 -83.2 0
v -477.6 -84 0
v -478.4 -84 0
v -478.4 -83.2 0
v -477.6 -83.2 0
v -476.8 -84 0
v -477.6 -84 0
v -477.6 -83.2 0
v -476.8 -83.2 0
v -476 -84 0
v -476.8 -84 0
v -476.8 -83.2 0
v -476 -83.2 0
v -475.2 -84 0
v -476 -84 0
v -476 -83.2 0
v -475.2 -83.2 0
v -474.4 -84 0
v -475.2 -84 0
v -475.2 -83.2 0
v -474.4 -83.2 0
v -473.6 -84 0
v -474.4 -84 0
v -474.4 -83.2 0
v -473.6 -83.2 0
v -472.8 -84 0
v -473.6 -84 0
v -473.6 -83.2 0
v -472.8 -83.2 0
v -472 -84 0
v -472.8 -84 0
v -472.8 -83.2 0
v -472 -83.2 0
v -471.2 -84 0
v -472 -84 0
v -472 -83.2 0
v -471.2 -83.2 0
v -470.4 -84 0
v -471.2 -84 0
v -471.2 -83.2 0
v -470.4 -83.2 0
v -469.6 -84 0
v -470.4 -84 0
v -470.4 -83.2 0
v -469.6 -83.2 0
v -468.8 -84 0
v -469.6 -84 0
v -469.6 -83.2 0
v -468.8 -83.2 0
v -468 -84 0
v -468.8 -84 0
v -468.8 -83.2 0
v -468 -83.2 0
v -467.2 -84 0
v -468 -84 0
v -468 -83.2 0
v -467.2 -83.2 0
v -466.4 -84 0
v -467.2 -84 0
v -467.2 -83.2 0
v -466.4 -83.2 0
v -465.6 -84 0
v -466.4 -84 0
v -466.4 -83.2 0
v -465.6 -83.2 0
v -464.8 -84 0
v -465.6 -84 0
v -465.6 -83.2 0
v -464.8 -83.2 0
v -464 -84 0
v -464.8 -84 0
v -464.8 -83.2 0
v -464 -83.2 0
v -463.2 -84 0
v -464 -84 0
v -464 -83.2 0
v -463.2 -83.2 0
v -462.4 -84 0
v -463.2 -84 0
v -463.2 -83.2 0
v -462.4 -83.2 0
v -461.6 -84 0
v -462.4 -84 0
v -462.4 -83.2 0
v -461.6 -83.2 0
v -460.8 -84 0
v -461.6 -84 0
v -461.6 -83.2 0
v -460.8 -83.2 0
v -460 -84 0
v -460.8 -84 0
v -460.8 -83.2 0
v -460 -83.2 0
v -459.2 -84 0
v -460 -84 0
v -460 -83.2 0
v -459.2 -83.2 0
v -496 -83.2 0
v -496.8 -83.2 0
v -496.8 -82.4 0
v -496 -82.4 0
v -495.2 -83.2 0
v -496 -83.2 0
v -496 -82.4 0
v -495.2 -82.4 0
v -494.4 -83.2 0
v -495.2 -83.2 0
v -495.2 -82.4 0
v -494.4 -82.4 0
v -493.6 -83.2 0
v -494.4 -83.2 0
v -494.4 -82.4 0
v -493.6 -82.4 0
v -492.8 -83.2 0
v -493.6 -83.2 0
v -493.6 -82.4 0
v -492.8 -82.4 0
v -492 -83.2 0
v -492.8 -83.2 0
v -492.8 -82.4 0
v -492 -82.4 0
v -491.2 -83.2 0
v -492 -83.2 0
v -492 -82.4 0
v -491.2 -82.4 0
v -490.4 -83.2 0
v -491.2 -83.2 0
v -491.2 -82.4 0
v -490.4 -82.4 0
v -489.6 -83.2 0
v -490.4 -83.2 0
v -490.4 -82.4 0
v -489.6 -82.4 0
v -488.8 -83.2 0
v -489.6 -83.2 0
v -489.6 -82.4 0
v -488.8 -82.4 0
v -488 -83.2 0
v -488.8 -83.2 0
v -488.8 -82.4 0
v -488 -82.4 0
v -487.2 -83.2 0
v -488 -83.2 0
v -488 -82.4 0
v -487.2 -82.4 0
v -486.4 -83.2 0
v -487.2 -83.2 0
v -487.2 -82.4 0
v -486.4 -82.4 0
v -485.6 -83.2 0
v -486.4 -83.2 0
v -486.4 -82.4 0
v -485.6 -82.4 0
v -484.8 -83.2 0
v -485.6 -83.2 0
v -485.6 -82.4 0
v -484.8 -82.4 0
v -484 -83.2 0
v -484.8 -83.2 0
v -484.8 -82.4 0
v -484 -82.4 0
v -483.2 -83.2 0
v -484 -83.2 0
v -484 -82.4 0
v -483.2 -82.4 0
v -482.4 -83.2 0
v -483.2 -83.2 0
v -483.2 -82.4 0
v -482.4 -82.4 0
v -481.6 -83.2 0
v -482.4 -83.2 0
v -482.4 -82.4 0
v -481.6 -82.4 0
v -480.8 -83.2 0
v -481.6 -83.2 0
v -481.6 -82.4 0
v -480.8 -82.4 0
v -480 -83.2 0
v -480.8 -83.2 0
v -480.8 -82.4 0
v -480 -82.4 0
v -479.2 -83.2 0
v -480 -83.2 0
v -480 -82.4 0
v -479.2 -82.4 0
v -478.4 -83.2 0
v -479.2 -83.2 0
v -479.2 -82.4 0
v -478.4 -82.4 0
v -477.6 -83.2 0
v -478.4 -83.2 0
v -478.4 -82.4 0
v -477.6 -82.4 0
v -476.8 -83.2 0
v -477.6 -83.2 0
v -477.6 -82.4 0
v -476.8 -82.4 0
v -476 -83.2 0
v -476.8 -83.2 0
v -476.8 -82.4 0
v -476 -82.4 0
v -475.2 -83.2 0
v -476 -83.2 0
v -476 -82.4 0
v -475.2 -82.4 0
v -474.4 -83.2 0
v -475.2 -83.2 0
v -475.2 -82.4 0
v -474.4 -82.4 0
v -473.6 -83.2 0
v -474.4 -83.2 0
v -474.4 -82.4 0
v -473.6 -82.4 0
v -472.8 -83.2 0
v -473.6 -83.2 0
v -473.6 -82.4 0
v -472.8 -82.4 0
v -472 -83.2 0
v -472.8 -83.2 0
v -472.8 -82.4 0
v -472 -82.4 0
v -471.2 -83.2 0
v -472 -83.2 0
v -472 -82.4 0
v -471.2 -82.4 0
v -470.4 -83.2 0
v -471.2 -83.2 0
v -471.2 -82.4 0
v -470.4 -82.4 0
v -469.6 -83.2 0
v -470.4 -83.2 0
v -470.4 -82.4 0
v -469.6 -82.4 0
v -468.8 -83.2 0
v -469.6 -83.2 0
v -469.6 -82.4 0
v -468.8 -82.4 0
v -468 -83.2 0
v -468.8 -83.2 0
v -468.8 -82.4 0
v -468 -82.4 0
v -467.2 -83.2 0
v -468 -83.2 0
v -468 -82.4 0
v -467.2 -82.4 0
v -466.4 -83.2 0
v -467.2 -83.2 0
v -467.2 -82.4 0
v -466.4 -82.4 0
v -465.6 -83.2 0
v -466.4 -83.2 0
v -466.4 -82.4 0
v -465.6 -82.4 0
v -464.8 -83.2 0
v -465.6 -83.2 0
v -465.6 -82.4 0
v -464.8 -82.4 0
v -464 -83.2 0
v -464.8 -83.2 0
v -464.8 -82.4 0
v -464 -82.4 0
v -463.2 -83.2 0
v -464 -83.2 0
v -464 -82.4 0
v -463.2 -82.4 0
v -462.4 -83.2 0
v -463.2 -83.2 0
v -463.2 -82.4 0
v -462.4 -82.4 0
v -461.6 -83.2 0
v -462.4 -83.2 0
v -462.4 -82.4 0
v -461.6 -82.4 0
v -460.8 -83.2 0
v -461.6 -83.2 0
v -461.6 -82.4 0
v -460.8 -82.4 0
v -460 -83.2 0
v -460.8 -83.2 0
v -460.8 -82.4 0
v -460 -82.4 0
v -459.2 -83.2 0
v -460 -83.2 0
v -460 -82.4 0
v -459.2 -82.4 0
v -496 -82.4 0
v -496.8 -82.4 0
v -496.8 -81.6 0
v -496 -81.6 0
v -495.2 -82.4 0
v -496 -82.4 0
v -496 -81.6 0
v -495.2 -81.6 0
v -494.4 -82.4 0
v -495.2 -82.4 0
v -495.2 -81.6 0
v -494.4 -81.6 0
v -493.6 -82.4 0
v -494.4 -82.4 0
v -494.4 -81.6 0
v -493.6 -81.6 0
v -492.8 -82.4 0
v -493.6 -82.4 0
v -493.6 -81.6 0
v -492.8 -81.6 0
v -492 -82.4 0
v -492.8 -82.4 0
v -492.8 -81.6 0
v -492 -81.6 0
v -491.2 -82.4 0
v -492 -82.4 0
v -492 -81.6 0
v -491.2 -81.6 0
v -490.4 -82.4 0
v -491.2 -82.4 0
v -491.2 -81.6 0
v -490.4 -81.6 0
v -489.6 -82.4 0
v -490.4 -82.4 0
v -490.4 -81.6 0
v -489.6 -81.6 0
v -488.8 -82.4 0
v -489.6 -82.4 0
v -489.6 -81.6 0
v -488.8 -81.6 0
v -488 -82.4 0
v -488.8 -82.4 0
v -488.8 -81.6 0
v -488 -81.6 0
v -487.2 -82.4 0
v -488 -82.4 0
v -488 -81.6 0
v -487.2 -81.6 0
v -486.4 -82.4 0
v -487.2 -82.4 0
v -487.2 -81.6 0
v -486.4 -81.6 0
v -485.6 -82.4 0
v -486.4 -82.4 0
v -486.4 -81.6 0
v -485.6 -81.6 0
v -484.8 -82.4 0
v -485.6 -82.4 0
v -485.6 -81.6 0
v -484.8 -81.6 0
v -484 -82.4 0
v -484.8 -82.4 0
v -484.8 -81.6 0
v -484 -81.6 0
v -483.2 -82.4 0
v -484 -82.4 0
v -484 -81.6 0
v -483.2 -81.6 0
v -482.4 -82.4 0
v -483.2 -82.4 0
v -483.2 -81.6 0
v -482.4 -81.6 0
v -481.6 -82.4 0
v -482.4 -82.4 0
v -482.4 -81.6 0
v -481.6 -81.6 0
v -480.8 -82.4 0
v -481.6 -82.4 0
v -481.6 -81.6 0
v -480.8 -81.6 0
v -480 -82.4 0
v -480.8 -82.4 0
v -480.8 -81.6 0
v -480 -81.6 0
v -479.2 -82.4 0
v -480 -82.4 0
v -480 -81.6 0
v -479.2 -81.6 0
v -478.4 -82.4 0
v -479.2 -82.4 0
v -479.2 -81.6 0
v -478.4 -81.6 0
v -477.6 -82.4 0
v -478.4 -82.4 0
v -478.4 -81.6 0
v -477.6 -81.6 0
v -476.8 -82.4 0
v -477.6 -82.4 0
v -477.6 -81.6 0
v -476.8 -81.6 0
v -476 -82.4 0
v -476.8 -82.4 0
v -476.8 -81.6 0
v -476 -81.6 0
v -475.2 -82.4 0
v -476 -82.4 0
v -476 -81.6 0
v -475.2 -81.6 0
v -474.4 -82.4 0
v -475.2 -82.4 0
v -475.2 -81.6 0
v -474.4 -81.6 0
v -473.6 -82.4 0
v -474.4 -82.4 0
v -474.4 -81.6 0
v -473.6 -81.6 0
v -472.8 -82.4 0
v -473.6 -82.4 0
v -473.6 -81.6 0
v -472.8 -81.6 0
v -472 -82.4 0
v -472.8 -82.4 0
v -472.8 -81.6 0
v -472 -81.6 0
v -471.2 -82.4 0
v -472 -82.4 0
v -472 -81.6 0
v -471.2 -81.6 0
v -470.4 -82.4 0
v -471.2 -82.4 0
v -471.2 -81.6 0
v -470.4 -81.6 0
v -469.6 -82.4 0
v -470.4 -82.4 0
v -470.4 -81.6 0
v -469.6 -81.6 0
v -468.8 -82.4 0
v -469.6 -82.4 0
v -469.6 -81.6 0
v -468.8 -81.6 0
v -468 -82.4 0
v -468.8 -82.4 0
v -468.8 -81.6 0
v -468 -81.6 0
v -467.2 -82.4 0
v -468 -82.4 0
v -468 -81.6 0
v -467.2 -81.6 0
v -466.4 -82.4 0
v -467.2 -82.4 0
v -467.2 -81.6 0
v -466.4 -81.6 0
v -465.6 -82.4 0
v -466.4 -82.4 0
v -466.4 -81.6 0
v -465.6 -81.6 0
v -464.8 -82.4 0
v -465.6 -82.4 0
v -465.6 -81.6 0
v -464.8 -81.6 0
v -464 -82.4 0
v -464.8 -82.4 0
v -464.8 -81.6 0
v -464 -81.6 0
v -463.2 -82.4 0
v -464 -82.4 0
v -464 -81.6 0
v -463.2 -81.6 0
v -462.4 -82.4 0
v -463.2 -82.4 0
v -463.2 -81.6 0
v -462.4 -81.6 0
v -461.6 -82.4 0
v -462.4 -82.4 0
v -462.4 -81.6 0
v -461.6 -81.6 0
v -460.8 -82.4 0
v -461.6 -82.4 0
v -461.6 -81.6 0
v -460.8 -81.6 0
v -460 -82.4 0
v -460.8 -82.4 0
v -460.8 -81.6 0
v -460 -81.6 0
v -459.2 -82.4 0
v -460 -82.4 0
v -460 -81.6 0
v -459.2 -81.6 0
v -495.2 -81.6 0
v -496 -81.6 0
v -496 -80.8 0
v -495.2 -80.8 0
v -494.4 -81.6 0
v -495.2 -81.6 0
v -495.2 -80.8 0
v -494.4 -80.8 0
v -493.6 -81.6 0
v -494.4 -81.6 0
v -494.4 -80.8 0
v -493.6 -80.8 0
v -492.8 -81.6 0
v -493.6 -81.6 0
v -493.6 -80.8 0
v -492.8 -80.8 0
v -492 -81.6 0
v -492.8 -81.6 0
v -492.8 -80.8 0
v -492 -80.8 0
v -460 -81.6 0
v -460.8 -81.6 0
v -460.8 -80.8 0
v -460 -80.8 0
v -459.2 -81.6 0
v -460 -81.6 0
v -460 -80.8 0
v -459.2 -80.8 0
v -454.4 -81.6 0
v -455.2 -81.6 0
v -455.2 -80.8 0
v -454.4 -80.8 0
v -453.6 -81.6 0
v -454.4 -81.6 0
v -454.4 -80.8 0
v -453.6 -80.8 0
v -452.8 -81.6 0
v -453.6 -81.6 0
v -453.6 -80.8 0
v -452.8 -80.8 0
v -452 -81.6 0
v -452.8 -81.6 0
v -452.8 -80.8 0
v -452 -80.8 0
v -451.2 -81.6 0
v -452 -81.6 0
v -452 -80.8 0
v -451.2 -80.8 0
v -450.4 -81.6 0
v -451.2 -81.6 0
v -451.2 -80.8 0
v -450.4 -80.8 0
v -449.6 -81.6 0
v -450.4 -81.6 0
v -450.4 -80.8 0
v -449.6 -80.8 0
v -448.8 -81.6 0
v -449.6 -81.6 0
v -449.6 -80.8 0
v -448.8 -80.8 0
v -448 -81.6 0
v -448.8 -81.6 0
v -448.8 -80.8 0
v -448 -80.8 0
v -447.2 -81.6 0
v -448 -81.6 0
v -448 -80.8 0
v -447.2 -80.8 0
v -446.4 -81.6 0
v -447.2 -81.6 0
v -447.2 -80.8 0
v -446.4 -80.8 0
v -445.6 -81.6 0
v -446.4 -81.6 0
v -446.4 -80.8 0
v -445.6 -80.8 0
v -444.8 -81.6 0
v -445.6 -81.6 0
v -445.6 -80.8 0
v -444.8 -80.8 0
v -444 -81.6 0
v -444.8 -81.6 0
v -444.8 -80.8 0
v -444 -80.8 0
v -443.2 -81.6 0
v -444 -81.6 0
v -444 -80.8 0
v -443.2 -80.8 0
v -442.4 -81.6 0
v -443.2 -81.6 0
v -443.2 -80.8 0
v -442.4 -80.8 0
v -495.2 -80.8 0
v -496 -80.8 0
v -496 -80 0
v -495.2 -80 0
v -494.4 -80.8 0
v -495.2 -80.8 0
v -495.2 -80 0
v -494.4 -80 0
v -493.6 -80.8 0
v -494.4 -80.8 0
v -494.4 -80 0
v -493.6 -80 0
v -492.8 -80.8 0
v -493.6 -80.8 0
v -493.6 -80 0
v -492.8 -80 0
v -492 -80.8 0
v -492.8 -80.8 0
v -492.8 -80 0
v -492 -80 0
v -460 -80.8 0
v -460.8 -80.8 0
v -460.8 -80 0
v -460 -80 0
v -459.2 -80.8 0
v -460 -80.8 0
v -460 -80 0
v -459.2 -80 0
v -454.4 -80.8 0
v -455.2 -80.8 0
v -455.2 -80 0
v -454.4 -80 0
v -453.6 -80.8 0
v -454.4 -80.8 0
v -454.4 -80 0
v -453.6 -80 0
v -452.8 -80.8 0
v -453.6 -80.8 0
v -453.6 -80 0
v -452.8 -80 0
v -452 -80.8 0
v -452.8 -80.8 0
v -452.8 -80 0
v -452 -80 0
v -451.2 -80.8 0
v -452 -80.8 0
v -452 -80 0
v -451.2 -80 0
v -450.4 -80.8 0
v -451.2 -80.8 0
v -451.2 -80 0
v -450.4 -80 0
v -449.6 -80.8 0
v -450.4 -80.8 0
v -450.4 -80 0
v -449.6 -80 0
v -448.8 -80.8 0
v -449.6 -80.8 0
v -449.6 -80 0
v -448.8 -80 0
v -448 -80.8 0
v -448.8 -80.8 0
v -448.8 -80 0
v -448 -80 0
v -447.2 -80.8 0
v -448 -80.8 0
v -448 -80 0
v -447.2 -80 0
v -446.4 -80.8 0
v -447.2 -80.8 0
v -447.2 -80 0
v -446.4 -80 0
v -445.6 -80.8 0
v -446.4 -80.8 0
v -446.4 -80 0
v -445.6 -80 0
v -444.8 -80.8 0
v -445.6 -80.8 0
v -445.6 -80 0
v -444.8 -80 0
v -444 -80.8 0
v -444.8 -80.8 0
v -444.8 -80 0
v -444 -80 0
v -443.2 -80.8 0
v -444 -80.8 0
v -444 -80 0
v -443.2 -80 0
v -442.4 -80.8 0
v -443.2 -80.8 0
v -443.2 -80 0
v -442.4 -80 0

# Texture cooridinates (Count = 25)
vt 0.0625 0.84375
vt 0.09375 0.84375
vt 0.09375 0.875
vt 0.0625 0.875
vt 0.03125 0.84375
vt 0.03125 0.875
vt 0 0.84375
vt 0 0.875
vt 0.09375 0.90625
vt 0.0625 0.90625
vt 0.03125 0.90625
vt 0 0.90625
vt 0.09375 0.9375
vt 0.0625 0.9375
vt 0.03125 0.9375
vt 0 0.9375
vt 0.5625 0.4375
vt 0.53125 0.4375
vt 0.53125 0.46875
vt 0.5625 0.46875
vt 0.59375 0.4375
vt 0.59375 0.46875
vt 0.53125 0.5
vt 0.5625 0.5
vt 0.59375 0.5

# Normal
vn 0 0 -1

# Mesh description
g Map3_mesh_0007

# Faces
f 1/1/1 2/2/1 3/3/1 4/4/1
f 5/5/1 6/1/1 7/4/1 8/6/1
f 9/5/1 10/1/1 11/4/1 12/6/1
f 13/5/1 14/1/1 15/4/1 16/6/1
f 17/5/1 18/1/1 19/4/1 20/6/1
f 21/5/1 22/1/1 23/4/1 24/6/1
f 25/5/1 26/1/1 27/4/1 28/6/1
f 29/5/1 30/1/1 31/4/1 32/6/1
f 33/5/1 34/1/1 35/4/1 36/6/1
f 37/5/1 38/1/1 39/4/1 40/6/1
f 41/5/1 42/1/1 43/4/1 44/6/1
f 45/5/1 46/1/1 47/4/1 48/6/1
f 49/5/1 50/1/1 51/4/1 52/6/1
f 53/5/1 54/1/1 55/4/1 56/6/1
f 57/5/1 58/1/1 59/4/1 60/6/1
f 61/5/1 62/1/1 63/4/1 64/6/1
f 65/5/1 66/1/1 67/4/1 68/6/1
f 69/5/1 70/1/1 71/4/1 72/6/1
f 73/5/1 74/1/1 75/4/1 76/6/1
f 77/5/1 78/1/1 79/4/1 80/6/1
f 81/5/1 82/1/1 83/4/1 84/6/1
f 85/5/1 86/1/1 87/4/1 88/6/1
f 89/5/1 90/1/1 91/4/1 92/6/1
f 93/5/1 94/1/1 95/4/1 96/6/1
f 97/5/1 98/1/1 99/4/1 100/6/1
f 101/5/1 102/1/1 103/4/1 104/6/1
f 105/5/1 106/1/1 107/4/1 108/6/1
f 109/5/1 110/1/1 111/4/1 112/6/1
f 113/5/1 114/1/1 115/4/1 116/6/1
f 117/5/1 118/1/1 119/4/1 120/6/1
f 121/5/1 122/1/1 123/4/1 124/6/1
f 125/5/1 126/1/1 127/4/1 128/6/1
f 129/5/1 130/1/1 131/4/1 132/6/1
f 133/5/1 134/1/1 135/4/1 136/6/1
f 137/5/1 138/1/1 139/4/1 140/6/1
f 141/5/1 142/1/1 143/4/1 144/6/1
f 145/5/1 146/1/1 147/4/1 148/6/1
f 149/5/1 150/1/1 151/4/1 152/6/1
f 153/5/1 154/1/1 155/4/1 156/6/1
f 157/5/1 158/1/1 159/4/1 160/6/1
f 161/5/1 162/1/1 163/4/1 164/6/1
f 165/5/1 166/1/1 167/4/1 168/6/1
f 169/5/1 170/1/1 171/4/1 172/6/1
f 173/5/1 174/1/1 175/4/1 176/6/1
f 177/5/1 178/1/1 179/4/1 180/6/1
f 181/5/1 182/1/1 183/4/1 184/6/1
f 185/7/1 186/5/1 187/6/1 188/8/1
f 189/4/1 190/3/1 191/9/1 192/10/1
f 193/6/1 194/4/1 195/10/1 196/11/1
f 197/6/1 198/4/1 199/10/1 200/11/1
f 201/6/1 202/4/1 203/10/1 204/11/1
f 205/6/1 206/4/1 207/10/1 208/11/1
f 209/6/1 210/4/1 211/10/1 212/11/1
f 213/6/1 214/4/1 215/10/1 216/11/1
f 217/6/1 218/4/1 219/10/1 220/11/1
f 221/6/1 222/4/1 223/10/1 224/11/1
f 225/6/1 226/4/1 227/10/1 228/11/1
f 229/6/1 230/4/1 231/10/1 232/11/1
f 233/6/1 234/4/1 235/10/1 236/11/1
f 237/6/1 238/4/1 239/10/1 240/11/1
f 241/6/1 242/4/1 243/10/1 244/11/1
f 245/6/1 246/4/1 247/10/1 248/11/1
f 249/6/1 250/4/1 251/10/1 252/11/1
f 253/6/1 254/4/1 255/10/1 256/11/1
f 257/6/1 258/4/1 259/10/1 260/11/1
f 261/6/1 262/4/1 263/10/1 264/11/1
f 265/6/1 266/4/1 267/10/1 268/11/1
f 269/6/1 270/4/1 271/10/1 272/11/1
f 273/6/1 274/4/1 275/10/1 276/11/1
f 277/6/1 278/4/1 279/10/1 280/11/1
f 281/6/1 282/4/1 283/10/1 284/11/1
f 285/6/1 286/4/1 287/10/1 288/11/1
f 289/6/1 290/4/1 291/10/1 292/11/1
f 293/6/1 294/4/1 295/10/1 296/11/1
f 297/6/1 298/4/1 299/10/1 300/11/1
f 301/6/1 302/4/1 303/10/1 304/11/1
f 305/6/1 306/4/1 307/10/1 308/11/1
f 309/6/1 310/4/1 311/10/1 312/11/1
f 313/6/1 314/4/1 315/10/1 316/11/1
f 317/6/1 318/4/1 319/10/1 320/11/1
f 321/6/1 322/4/1 323/10/1 324/11/1
f 325/6/1 326/4/1 327/10/1 328/11/1
f 329/6/1 330/4/1 331/10/1 332/11/1
f 333/6/1 334/4/1 335/10/1 336/11/1
f 337/6/1 338/4/1 339/10/1 340/11/1
f 341/6/1 342/4/1 343/10/1 344/11/1
f 345/6/1 346/4/1 347/10/1 348/11/1
f 349/6/1 350/4/1 351/10/1 352/11/1
f 353/6/1 354/4/1 355/10/1 356/11/1
f 357/6/1 358/4/1 359/10/1 360/11/1
f 361/6/1 362/4/1 363/10/1 364/11/1
f 365/6/1 366/4/1 367/10/1 368/11/1
f 369/6/1 370/4/1 371/10/1 372/11/1
f 373/8/1 374/6/1 375/11/1 376/12/1
f 377/4/1 378/3/1 379/9/1 380/10/1
f 381/6/1 382/4/1 383/10/1 384/11/1
f 385/6/1 386/4/1 387/10/1 388/11/1
f 389/6/1 390/4/1 391/10/1 392/11/1
f 393/6/1 394/4/1 395/10/1 396/11/1
f 397/6/1 398/4/1 399/10/1 400/11/1
f 401/6/1 402/4/1 403/10/1 404/11/1
f 405/6/1 406/4/1 407/10/1 408/11/1
f 409/6/1 410/4/1 411/10/1 412/11/1
f 413/6/1 414/4/1 415/10/1 416/11/1
f 417/6/1 418/4/1 419/10/1 420/11/1
f 421/6/1 422/4/1 423/10/1 424/11/1
f 425/6/1 426/4/1 427/10/1 428/11/1
f 429/6/1 430/4/1 431/10/1 432/11/1
f 433/6/1 434/4/1 435/10/1 436/11/1
f 437/6/1 438/4/1 439/10/1 440/11/1
f 441/6/1 442/4/1 443/10/1 444/11/1
f 445/6/1 446/4/1 447/10/1 448/11/1
f 449/6/1 450/4/1 451/10/1 452/11/1
f 453/6/1 454/4/1 455/10/1 456/11/1
f 457/6/1 458/4/1 459/10/1 460/11/1
f 461/6/1 462/4/1 463/10/1 464/11/1
f 465/6/1 466/4/1 467/10/1 468/11/1
f 469/6/1 470/4/1 471/10/1 472/11/1
f 473/6/1 474/4/1 475/10/1 476/11/1
f 477/6/1 478/4/1 479/10/1 480/11/1
f 481/6/1 482/4/1 483/10/1 484/11/1
f 485/6/1 486/4/1 487/10/1 488/11/1
f 489/6/1 490/4/1 491/10/1 492/11/1
f 493/6/1 494/4/1 495/10/1 496/11/1
f 497/6/1 498/4/1 499/10/1 500/11/1
f 501/6/1 502/4/1 503/10/1 504/11/1
f 505/6/1 506/4/1 507/10/1 508/11/1
f 509/6/1 510/4/1 511/10/1 512/11/1
f 513/6/1 514/4/1 515/10/1 516/11/1
f 517/6/1 518/4/1 519/10/1 520/11/1
f 521/6/1 522/4/1 523/10/1 524/11/1
f 525/6/1 526/4/1 527/10/1 528/11/1
f 529/6/1 530/4/1 531/10/1 532/11/1
f 533/6/1 534/4/1 535/10/1 536/11/1
f 537/6/1 538/4/1 539/10/1 540/11/1
f 541/6/1 542/4/1 543/10/1 544/11/1
f 545/6/1 546/4/1 547/10/1 548/11/1
f 549/6/1 550/4/1 551/10/1 552/11/1
f 553/6/1 554/4/1 555/10/1 556/11/1
f 557/6/1 558/4/1 559/10/1 560/11/1
f 561/8/1 562/6/1 563/11/1 564/12/1
f 565/10/1 566/9/1 567/13/1 568/14/1
f 569/11/1 570/10/1 571/14/1 572/15/1
f 573/11/1 574/10/1 575/14/1 576/15/1
f 577/11/1 578/10/1 579/14/1 580/15/1
f 581/11/1 582/10/1 583/14/1 584/15/1
f 585/11/1 586/10/1 587/14/1 588/15/1
f 589/11/1 590/10/1 591/14/1 592/15/1
f 593/11/1 594/10/1 595/14/1 596/15/1
f 597/11/1 598/10/1 599/14/1 600/15/1
f 601/11/1 602/10/1 603/14/1 604/15/1
f 605/11/1 606/10/1 607/14/1 608/15/1
f 609/11/1 610/10/1 611/14/1 612/15/1
f 613/11/1 614/10/1 615/14/1 616/15/1
f 617/11/1 618/10/1 619/14/1 620/15/1
f 621/11/1 622/10/1 623/14/1 624/15/1
f 625/11/1 626/10/1 627/14/1 628/15/1
f 629/11/1 630/10/1 631/14/1 632/15/1
f 633/11/1 634/10/1 635/14/1 636/15/1
f 637/11/1 638/10/1 639/14/1 640/15/1
f 641/11/1 642/10/1 643/14/1 644/15/1
f 645/11/1 646/10/1 647/14/1 648/15/1
f 649/11/1 650/10/1 651/14/1 652/15/1
f 653/11/1 654/10/1 655/14/1 656/15/1
f 657/11/1 658/10/1 659/14/1 660/15/1
f 661/11/1 662/10/1 663/14/1 664/15/1
f 665/11/1 666/10/1 667/14/1 668/15/1
f 669/11/1 670/10/1 671/14/1 672/15/1
f 673/11/1 674/10/1 675/14/1 676/15/1
f 677/11/1 678/10/1 679/14/1 680/15/1
f 681/11/1 682/10/1 683/14/1 684/15/1
f 685/11/1 686/10/1 687/14/1 688/15/1
f 689/11/1 690/10/1 691/14/1 692/15/1
f 693/11/1 694/10/1 695/14/1 696/15/1
f 697/11/1 698/10/1 699/14/1 700/15/1
f 701/11/1 702/10/1 703/14/1 704/15/1
f 705/11/1 706/10/1 707/14/1 708/15/1
f 709/11/1 710/10/1 711/14/1 712/15/1
f 713/11/1 714/10/1 715/14/1 716/15/1
f 717/11/1 718/10/1 719/14/1 720/15/1
f 721/11/1 722/10/1 723/14/1 724/15/1
f 725/11/1 726/10/1 727/14/1 728/15/1
f 729/11/1 730/10/1 731/14/1 732/15/1
f 733/11/1 734/10/1 735/14/1 736/15/1
f 737/11/1 738/10/1 739/14/1 740/15/1
f 741/11/1 742/10/1 743/14/1 744/15/1
f 745/11/1 746/10/1 747/14/1 748/15/1
f 749/12/1 750/11/1 751/15/1 752/16/1
f 753/17/1 754/18/1 755/19/1 756/20/1
f 757/21/1 758/17/1 759/20/1 760/22/1
f 761/17/1 762/21/1 763/22/1 764/20/1
f 765/17/1 766/21/1 767/22/1 768/20/1
f 769/18/1 770/17/1 771/20/1 772/19/1
f 773/17/1 774/21/1 775/22/1 776/20/1
f 777/18/1 778/17/1 779/20/1 780/19/1
f 781/17/1 782/18/1 783/19/1 784/20/1
f 785/17/1 786/21/1 787/22/1 788/20/1
f 789/17/1 790/21/1 791/22/1 792/20/1
f 793/17/1 794/21/1 795/22/1 796/20/1
f 797/17/1 798/21/1 799/22/1 800/20/1
f 801/17/1 802/21/1 803/22/1 804/20/1
f 805/17/1 806/21/1 807/22/1 808/20/1
f 809/17/1 810/21/1 811/22/1 812/20/1
f 813/17/1 814/21/1 815/22/1 816/20/1
f 817/17/1 818/21/1 819/22/1 820/20/1
f 821/17/1 822/21/1 823/22/1 824/20/1
f 825/17/1 826/21/1 827/22/1 828/20/1
f 829/17/1 830/21/1 831/22/1 832/20/1
f 833/17/1 834/21/1 835/22/1 836/20/1
f 837/17/1 838/21/1 839/22/1 840/20/1
f 841/18/1 842/17/1 843/20/1 844/19/1
f 845/20/1 846/19/1 847/23/1 848/24/1
f 849/22/1 850/20/1 851/24/1 852/25/1
f 853/20/1 854/22/1 855/25/1 856/24/1
f 857/20/1 858/22/1 859/25/1 860/24/1
f 861/19/1 862/20/1 863/24/1 864/23/1
f 865/20/1 866/22/1 867/25/1 868/24/1
f 869/19/1 870/20/1 871/24/1 872/23/1
f 873/20/1 874/19/1 875/23/1 876/24/1
f 877/20/1 878/22/1 879/25/1 880/24/1
f 881/20/1 882/22/1 883/25/1 884/24/1
f 885/20/1 886/22/1 887/25/1 888/24/1
f 889/20/1 890/22/1 891/25/1 892/24/1
f 893/20/1 894/22/1 895/25/1 896/24/1
f 897/20/1 898/22/1 899/25/1 900/24/1
f 901/20/1 902/22/1 903/25/1 904/24/1
f 905/20/1 906/22/1 907/25/1 908/24/1
f 909/20/1 910/22/1 911/25/1 912/24/1
f 913/20/1 914/22/1 915/25/1 916/24/1
f 917/20/1 918/22/1 919/25/1 920/24/1
f 921/20/1 922/22/1 923/25/1 924/24/1
f 925/20/1 926/22/1 927/25/1 928/24/1
f 929/20/1 930/22/1 931/25/1 932/24/1
f 933/19/1 934/20/1 935/24/1 936/23/1

