# Tiled2Unity generated file. Do not modify by hand.
# Wavefront file for 'Map3_mesh_0015.obj'

# Vertices (Count = 60)
v -381.6 -107.2 0
v -382.4 -107.2 0
v -382.4 -106.4 0
v -381.6 -106.4 0
v -380.8 -107.2 0
v -381.6 -107.2 0
v -381.6 -106.4 0
v -380.8 -106.4 0
v -380 -107.2 0
v -380.8 -107.2 0
v -380.8 -106.4 0
v -380 -106.4 0
v -378.4 -107.2 0
v -379.2 -107.2 0
v -379.2 -106.4 0
v -378.4 -106.4 0
v -377.6 -107.2 0
v -378.4 -107.2 0
v -378.4 -106.4 0
v -377.6 -106.4 0
v -376.8 -107.2 0
v -377.6 -107.2 0
v -377.6 -106.4 0
v -376.8 -106.4 0
v -372.8 -107.2 0
v -373.6 -107.2 0
v -373.6 -106.4 0
v -372.8 -106.4 0
v -372 -107.2 0
v -372.8 -107.2 0
v -372.8 -106.4 0
v -372 -106.4 0
v -371.2 -107.2 0
v -372 -107.2 0
v -372 -106.4 0
v -371.2 -106.4 0
v -362.4 -107.2 0
v -363.2 -107.2 0
v -363.2 -106.4 0
v -362.4 -106.4 0
v -361.6 -107.2 0
v -362.4 -107.2 0
v -362.4 -106.4 0
v -361.6 -106.4 0
v -360.8 -107.2 0
v -361.6 -107.2 0
v -361.6 -106.4 0
v -360.8 -106.4 0
v -352 -107.2 0
v -352.8 -107.2 0
v -352.8 -106.4 0
v -352 -106.4 0
v -351.2 -107.2 0
v -352 -107.2 0
v -352 -106.4 0
v -351.2 -106.4 0
v -347.2 -107.2 0
v -348 -107.2 0
v -348 -106.4 0
v -347.2 -106.4 0

# Texture cooridinates (Count = 4)
vt 1 0
vt 1 1
vt 0 1
vt 0 0

# Normal
vn 0 0 -1

# Mesh description
g Map3_mesh_0015

# Faces
f 1/1/1 2/2/1 3/3/1 4/4/1
f 5/1/1 6/2/1 7/3/1 8/4/1
f 9/1/1 10/2/1 11/3/1 12/4/1
f 13/1/1 14/2/1 15/3/1 16/4/1
f 17/1/1 18/2/1 19/3/1 20/4/1
f 21/1/1 22/2/1 23/3/1 24/4/1
f 25/1/1 26/2/1 27/3/1 28/4/1
f 29/1/1 30/2/1 31/3/1 32/4/1
f 33/1/1 34/2/1 35/3/1 36/4/1
f 37/1/1 38/2/1 39/3/1 40/4/1
f 41/1/1 42/2/1 43/3/1 44/4/1
f 45/1/1 46/2/1 47/3/1 48/4/1
f 49/1/1 50/2/1 51/3/1 52/4/1
f 53/1/1 54/2/1 55/3/1 56/4/1
f 57/1/1 58/2/1 59/3/1 60/4/1

