# Tiled2Unity generated file. Do not modify by hand.
# Wavefront file for 'Map3_mesh_0013.obj'

# Vertices (Count = 312)
v -84.8 -84.8 0
v -85.6 -84.8 0
v -85.6 -84 0
v -84.8 -84 0
v -72 -84.8 0
v -72.8 -84.8 0
v -72.8 -84 0
v -72 -84 0
v -49.6 -84.8 0
v -50.4 -84.8 0
v -50.4 -84 0
v -49.6 -84 0
v -39.2 -84.8 0
v -40 -84.8 0
v -40 -84 0
v -39.2 -84 0
v -29.6 -84.8 0
v -30.4 -84.8 0
v -30.4 -84 0
v -29.6 -84 0
v -19.2 -84.8 0
v -20 -84.8 0
v -20 -84 0
v -19.2 -84 0
v -84.8 -84 0
v -85.6 -84 0
v -85.6 -83.2 0
v -84.8 -83.2 0
v -72 -84 0
v -72.8 -84 0
v -72.8 -83.2 0
v -72 -83.2 0
v -49.6 -84 0
v -50.4 -84 0
v -50.4 -83.2 0
v -49.6 -83.2 0
v -39.2 -84 0
v -40 -84 0
v -40 -83.2 0
v -39.2 -83.2 0
v -29.6 -84 0
v -30.4 -84 0
v -30.4 -83.2 0
v -29.6 -83.2 0
v -19.2 -84 0
v -20 -84 0
v -20 -83.2 0
v -19.2 -83.2 0
v -84.8 -83.2 0
v -85.6 -83.2 0
v -85.6 -82.4 0
v -84.8 -82.4 0
v -72 -83.2 0
v -72.8 -83.2 0
v -72.8 -82.4 0
v -72 -82.4 0
v -49.6 -83.2 0
v -50.4 -83.2 0
v -50.4 -82.4 0
v -49.6 -82.4 0
v -39.2 -83.2 0
v -40 -83.2 0
v -40 -82.4 0
v -39.2 -82.4 0
v -29.6 -83.2 0
v -30.4 -83.2 0
v -30.4 -82.4 0
v -29.6 -82.4 0
v -19.2 -83.2 0
v -20 -83.2 0
v -20 -82.4 0
v -19.2 -82.4 0
v -84.8 -82.4 0
v -85.6 -82.4 0
v -85.6 -81.6 0
v -84.8 -81.6 0
v -72 -82.4 0
v -72.8 -82.4 0
v -72.8 -81.6 0
v -72 -81.6 0
v -49.6 -82.4 0
v -50.4 -82.4 0
v -50.4 -81.6 0
v -49.6 -81.6 0
v -39.2 -82.4 0
v -40 -82.4 0
v -40 -81.6 0
v -39.2 -81.6 0
v -29.6 -82.4 0
v -30.4 -82.4 0
v -30.4 -81.6 0
v -29.6 -81.6 0
v -19.2 -82.4 0
v -20 -82.4 0
v -20 -81.6 0
v -19.2 -81.6 0
v -84.8 -81.6 0
v -85.6 -81.6 0
v -85.6 -80.8 0
v -84.8 -80.8 0
v -72 -81.6 0
v -72.8 -81.6 0
v -72.8 -80.8 0
v -72 -80.8 0
v -49.6 -81.6 0
v -50.4 -81.6 0
v -50.4 -80.8 0
v -49.6 -80.8 0
v -39.2 -81.6 0
v -40 -81.6 0
v -40 -80.8 0
v -39.2 -80.8 0
v -29.6 -81.6 0
v -30.4 -81.6 0
v -30.4 -80.8 0
v -29.6 -80.8 0
v -19.2 -81.6 0
v -20 -81.6 0
v -20 -80.8 0
v -19.2 -80.8 0
v -84.8 -80.8 0
v -85.6 -80.8 0
v -85.6 -80 0
v -84.8 -80 0
v -72 -80.8 0
v -72.8 -80.8 0
v -72.8 -80 0
v -72 -80 0
v -49.6 -80.8 0
v -50.4 -80.8 0
v -50.4 -80 0
v -49.6 -80 0
v -39.2 -80.8 0
v -40 -80.8 0
v -40 -80 0
v -39.2 -80 0
v -29.6 -80.8 0
v -30.4 -80.8 0
v -30.4 -80 0
v -29.6 -80 0
v -19.2 -80.8 0
v -20 -80.8 0
v -20 -80 0
v -19.2 -80 0
v -84.8 -80 0
v -85.6 -80 0
v -85.6 -79.2 0
v -84.8 -79.2 0
v -72 -80 0
v -72.8 -80 0
v -72.8 -79.2 0
v -72 -79.2 0
v -60 -80 0
v -60.8 -80 0
v -60.8 -79.2 0
v -60 -79.2 0
v -49.6 -80 0
v -50.4 -80 0
v -50.4 -79.2 0
v -49.6 -79.2 0
v -39.2 -80 0
v -40 -80 0
v -40 -79.2 0
v -39.2 -79.2 0
v -29.6 -80 0
v -30.4 -80 0
v -30.4 -79.2 0
v -29.6 -79.2 0
v -19.2 -80 0
v -20 -80 0
v -20 -79.2 0
v -19.2 -79.2 0
v -84.8 -79.2 0
v -85.6 -79.2 0
v -85.6 -78.4 0
v -84.8 -78.4 0
v -72 -79.2 0
v -72.8 -79.2 0
v -72.8 -78.4 0
v -72 -78.4 0
v -60 -79.2 0
v -60.8 -79.2 0
v -60.8 -78.4 0
v -60 -78.4 0
v -49.6 -79.2 0
v -50.4 -79.2 0
v -50.4 -78.4 0
v -49.6 -78.4 0
v -39.2 -79.2 0
v -40 -79.2 0
v -40 -78.4 0
v -39.2 -78.4 0
v -29.6 -79.2 0
v -30.4 -79.2 0
v -30.4 -78.4 0
v -29.6 -78.4 0
v -19.2 -79.2 0
v -20 -79.2 0
v -20 -78.4 0
v -19.2 -78.4 0
v -84.8 -78.4 0
v -85.6 -78.4 0
v -85.6 -77.6 0
v -84.8 -77.6 0
v -72 -78.4 0
v -72.8 -78.4 0
v -72.8 -77.6 0
v -72 -77.6 0
v -60 -78.4 0
v -60.8 -78.4 0
v -60.8 -77.6 0
v -60 -77.6 0
v -49.6 -78.4 0
v -50.4 -78.4 0
v -50.4 -77.6 0
v -49.6 -77.6 0
v -39.2 -78.4 0
v -40 -78.4 0
v -40 -77.6 0
v -39.2 -77.6 0
v -29.6 -78.4 0
v -30.4 -78.4 0
v -30.4 -77.6 0
v -29.6 -77.6 0
v -19.2 -78.4 0
v -20 -78.4 0
v -20 -77.6 0
v -19.2 -77.6 0
v -84.8 -77.6 0
v -85.6 -77.6 0
v -85.6 -76.8 0
v -84.8 -76.8 0
v -72 -77.6 0
v -72.8 -77.6 0
v -72.8 -76.8 0
v -72 -76.8 0
v -60 -77.6 0
v -60.8 -77.6 0
v -60.8 -76.8 0
v -60 -76.8 0
v -49.6 -77.6 0
v -50.4 -77.6 0
v -50.4 -76.8 0
v -49.6 -76.8 0
v -39.2 -77.6 0
v -40 -77.6 0
v -40 -76.8 0
v -39.2 -76.8 0
v -29.6 -77.6 0
v -30.4 -77.6 0
v -30.4 -76.8 0
v -29.6 -76.8 0
v -19.2 -77.6 0
v -20 -77.6 0
v -20 -76.8 0
v -19.2 -76.8 0
v -84.8 -76.8 0
v -85.6 -76.8 0
v -85.6 -76 0
v -84.8 -76 0
v -72 -76.8 0
v -72.8 -76.8 0
v -72.8 -76 0
v -72 -76 0
v -60 -76.8 0
v -60.8 -76.8 0
v -60.8 -76 0
v -60 -76 0
v -49.6 -76.8 0
v -50.4 -76.8 0
v -50.4 -76 0
v -49.6 -76 0
v -39.2 -76.8 0
v -40 -76.8 0
v -40 -76 0
v -39.2 -76 0
v -29.6 -76.8 0
v -30.4 -76.8 0
v -30.4 -76 0
v -29.6 -76 0
v -19.2 -76.8 0
v -20 -76.8 0
v -20 -76 0
v -19.2 -76 0
v -84.8 -76 0
v -85.6 -76 0
v -85.6 -75.2 0
v -84.8 -75.2 0
v -72 -76 0
v -72.8 -76 0
v -72.8 -75.2 0
v -72 -75.2 0
v -60 -76 0
v -60.8 -76 0
v -60.8 -75.2 0
v -60 -75.2 0
v -49.6 -76 0
v -50.4 -76 0
v -50.4 -75.2 0
v -49.6 -75.2 0
v -39.2 -76 0
v -40 -76 0
v -40 -75.2 0
v -39.2 -75.2 0
v -29.6 -76 0
v -30.4 -76 0
v -30.4 -75.2 0
v -29.6 -75.2 0
v -19.2 -76 0
v -20 -76 0
v -20 -75.2 0
v -19.2 -75.2 0

# Texture cooridinates (Count = 4)
vt 0.7272727 0.8333333
vt 0.8181818 0.8333333
vt 0.8181818 0.9166667
vt 0.7272727 0.9166667

# Normal
vn 0 0 -1

# Mesh description
g Map3_mesh_0013

# Faces
f 1/1/1 2/2/1 3/3/1 4/4/1
f 5/1/1 6/2/1 7/3/1 8/4/1
f 9/1/1 10/2/1 11/3/1 12/4/1
f 13/4/1 14/3/1 15/2/1 16/1/1
f 17/4/1 18/3/1 19/2/1 20/1/1
f 21/4/1 22/3/1 23/2/1 24/1/1
f 25/1/1 26/2/1 27/3/1 28/4/1
f 29/1/1 30/2/1 31/3/1 32/4/1
f 33/1/1 34/2/1 35/3/1 36/4/1
f 37/4/1 38/3/1 39/2/1 40/1/1
f 41/4/1 42/3/1 43/2/1 44/1/1
f 45/4/1 46/3/1 47/2/1 48/1/1
f 49/1/1 50/2/1 51/3/1 52/4/1
f 53/1/1 54/2/1 55/3/1 56/4/1
f 57/1/1 58/2/1 59/3/1 60/4/1
f 61/4/1 62/3/1 63/2/1 64/1/1
f 65/4/1 66/3/1 67/2/1 68/1/1
f 69/4/1 70/3/1 71/2/1 72/1/1
f 73/1/1 74/2/1 75/3/1 76/4/1
f 77/1/1 78/2/1 79/3/1 80/4/1
f 81/1/1 82/2/1 83/3/1 84/4/1
f 85/4/1 86/3/1 87/2/1 88/1/1
f 89/4/1 90/3/1 91/2/1 92/1/1
f 93/4/1 94/3/1 95/2/1 96/1/1
f 97/1/1 98/2/1 99/3/1 100/4/1
f 101/1/1 102/2/1 103/3/1 104/4/1
f 105/1/1 106/2/1 107/3/1 108/4/1
f 109/4/1 110/3/1 111/2/1 112/1/1
f 113/4/1 114/3/1 115/2/1 116/1/1
f 117/4/1 118/3/1 119/2/1 120/1/1
f 121/1/1 122/2/1 123/3/1 124/4/1
f 125/1/1 126/2/1 127/3/1 128/4/1
f 129/1/1 130/2/1 131/3/1 132/4/1
f 133/4/1 134/3/1 135/2/1 136/1/1
f 137/4/1 138/3/1 139/2/1 140/1/1
f 141/4/1 142/3/1 143/2/1 144/1/1
f 145/1/1 146/2/1 147/3/1 148/4/1
f 149/1/1 150/2/1 151/3/1 152/4/1
f 153/1/1 154/2/1 155/3/1 156/4/1
f 157/1/1 158/2/1 159/3/1 160/4/1
f 161/4/1 162/3/1 163/2/1 164/1/1
f 165/4/1 166/3/1 167/2/1 168/1/1
f 169/4/1 170/3/1 171/2/1 172/1/1
f 173/1/1 174/2/1 175/3/1 176/4/1
f 177/1/1 178/2/1 179/3/1 180/4/1
f 181/1/1 182/2/1 183/3/1 184/4/1
f 185/1/1 186/2/1 187/3/1 188/4/1
f 189/4/1 190/3/1 191/2/1 192/1/1
f 193/4/1 194/3/1 195/2/1 196/1/1
f 197/4/1 198/3/1 199/2/1 200/1/1
f 201/1/1 202/2/1 203/3/1 204/4/1
f 205/1/1 206/2/1 207/3/1 208/4/1
f 209/1/1 210/2/1 211/3/1 212/4/1
f 213/1/1 214/2/1 215/3/1 216/4/1
f 217/4/1 218/3/1 219/2/1 220/1/1
f 221/4/1 222/3/1 223/2/1 224/1/1
f 225/4/1 226/3/1 227/2/1 228/1/1
f 229/1/1 230/2/1 231/3/1 232/4/1
f 233/1/1 234/2/1 235/3/1 236/4/1
f 237/1/1 238/2/1 239/3/1 240/4/1
f 241/1/1 242/2/1 243/3/1 244/4/1
f 245/4/1 246/3/1 247/2/1 248/1/1
f 249/4/1 250/3/1 251/2/1 252/1/1
f 253/4/1 254/3/1 255/2/1 256/1/1
f 257/1/1 258/2/1 259/3/1 260/4/1
f 261/1/1 262/2/1 263/3/1 264/4/1
f 265/1/1 266/2/1 267/3/1 268/4/1
f 269/1/1 270/2/1 271/3/1 272/4/1
f 273/4/1 274/3/1 275/2/1 276/1/1
f 277/4/1 278/3/1 279/2/1 280/1/1
f 281/4/1 282/3/1 283/2/1 284/1/1
f 285/1/1 286/2/1 287/3/1 288/4/1
f 289/1/1 290/2/1 291/3/1 292/4/1
f 293/1/1 294/2/1 295/3/1 296/4/1
f 297/1/1 298/2/1 299/3/1 300/4/1
f 301/4/1 302/3/1 303/2/1 304/1/1
f 305/4/1 306/3/1 307/2/1 308/1/1
f 309/4/1 310/3/1 311/2/1 312/1/1

