# Tiled2Unity generated file. Do not modify by hand.
# Wavefront file for 'BossMap2_mesh_0005.obj'

# Vertices (Count = 712)
v -91.2 -92.8 0
v -92 -92.8 0
v -92 -92 0
v -91.2 -92 0
v -84.8 -92.8 0
v -85.6 -92.8 0
v -85.6 -92 0
v -84.8 -92 0
v -74.4 -92.8 0
v -75.2 -92.8 0
v -75.2 -92 0
v -74.4 -92 0
v -64.8 -92.8 0
v -65.6 -92.8 0
v -65.6 -92 0
v -64.8 -92 0
v -54.4 -92.8 0
v -55.2 -92.8 0
v -55.2 -92 0
v -54.4 -92 0
v -48 -92.8 0
v -48.8 -92.8 0
v -48.8 -92 0
v -48 -92 0
v -91.2 -92 0
v -92 -92 0
v -92 -91.2 0
v -91.2 -91.2 0
v -84.8 -92 0
v -85.6 -92 0
v -85.6 -91.2 0
v -84.8 -91.2 0
v -74.4 -92 0
v -75.2 -92 0
v -75.2 -91.2 0
v -74.4 -91.2 0
v -64.8 -92 0
v -65.6 -92 0
v -65.6 -91.2 0
v -64.8 -91.2 0
v -54.4 -92 0
v -55.2 -92 0
v -55.2 -91.2 0
v -54.4 -91.2 0
v -48 -92 0
v -48.8 -92 0
v -48.8 -91.2 0
v -48 -91.2 0
v -111.2 -91.2 0
v -112 -91.2 0
v -112 -90.4 0
v -111.2 -90.4 0
v -91.2 -91.2 0
v -92 -91.2 0
v -92 -90.4 0
v -91.2 -90.4 0
v -84.8 -91.2 0
v -85.6 -91.2 0
v -85.6 -90.4 0
v -84.8 -90.4 0
v -74.4 -91.2 0
v -75.2 -91.2 0
v -75.2 -90.4 0
v -74.4 -90.4 0
v -64.8 -91.2 0
v -65.6 -91.2 0
v -65.6 -90.4 0
v -64.8 -90.4 0
v -54.4 -91.2 0
v -55.2 -91.2 0
v -55.2 -90.4 0
v -54.4 -90.4 0
v -48 -91.2 0
v -48.8 -91.2 0
v -48.8 -90.4 0
v -48 -90.4 0
v -30.4 -91.2 0
v -31.2 -91.2 0
v -31.2 -90.4 0
v -30.4 -90.4 0
v -111.2 -90.4 0
v -112 -90.4 0
v -112 -89.6 0
v -111.2 -89.6 0
v -91.2 -90.4 0
v -92 -90.4 0
v -92 -89.6 0
v -91.2 -89.6 0
v -84.8 -90.4 0
v -85.6 -90.4 0
v -85.6 -89.6 0
v -84.8 -89.6 0
v -74.4 -90.4 0
v -75.2 -90.4 0
v -75.2 -89.6 0
v -74.4 -89.6 0
v -64.8 -90.4 0
v -65.6 -90.4 0
v -65.6 -89.6 0
v -64.8 -89.6 0
v -54.4 -90.4 0
v -55.2 -90.4 0
v -55.2 -89.6 0
v -54.4 -89.6 0
v -48 -90.4 0
v -48.8 -90.4 0
v -48.8 -89.6 0
v -48 -89.6 0
v -30.4 -90.4 0
v -31.2 -90.4 0
v -31.2 -89.6 0
v -30.4 -89.6 0
v -111.2 -89.6 0
v -112 -89.6 0
v -112 -88.8 0
v -111.2 -88.8 0
v -91.2 -89.6 0
v -92 -89.6 0
v -92 -88.8 0
v -91.2 -88.8 0
v -84.8 -89.6 0
v -85.6 -89.6 0
v -85.6 -88.8 0
v -84.8 -88.8 0
v -74.4 -89.6 0
v -75.2 -89.6 0
v -75.2 -88.8 0
v -74.4 -88.8 0
v -64.8 -89.6 0
v -65.6 -89.6 0
v -65.6 -88.8 0
v -64.8 -88.8 0
v -54.4 -89.6 0
v -55.2 -89.6 0
v -55.2 -88.8 0
v -54.4 -88.8 0
v -48 -89.6 0
v -48.8 -89.6 0
v -48.8 -88.8 0
v -48 -88.8 0
v -30.4 -89.6 0
v -31.2 -89.6 0
v -31.2 -88.8 0
v -30.4 -88.8 0
v -111.2 -88.8 0
v -112 -88.8 0
v -112 -88 0
v -111.2 -88 0
v -91.2 -88.8 0
v -92 -88.8 0
v -92 -88 0
v -91.2 -88 0
v -84.8 -88.8 0
v -85.6 -88.8 0
v -85.6 -88 0
v -84.8 -88 0
v -74.4 -88.8 0
v -75.2 -88.8 0
v -75.2 -88 0
v -74.4 -88 0
v -64.8 -88.8 0
v -65.6 -88.8 0
v -65.6 -88 0
v -64.8 -88 0
v -54.4 -88.8 0
v -55.2 -88.8 0
v -55.2 -88 0
v -54.4 -88 0
v -48 -88.8 0
v -48.8 -88.8 0
v -48.8 -88 0
v -48 -88 0
v -30.4 -88.8 0
v -31.2 -88.8 0
v -31.2 -88 0
v -30.4 -88 0
v -111.2 -88 0
v -112 -88 0
v -112 -87.2 0
v -111.2 -87.2 0
v -91.2 -88 0
v -92 -88 0
v -92 -87.2 0
v -91.2 -87.2 0
v -84.8 -88 0
v -85.6 -88 0
v -85.6 -87.2 0
v -84.8 -87.2 0
v -74.4 -88 0
v -75.2 -88 0
v -75.2 -87.2 0
v -74.4 -87.2 0
v -64.8 -88 0
v -65.6 -88 0
v -65.6 -87.2 0
v -64.8 -87.2 0
v -54.4 -88 0
v -55.2 -88 0
v -55.2 -87.2 0
v -54.4 -87.2 0
v -48 -88 0
v -48.8 -88 0
v -48.8 -87.2 0
v -48 -87.2 0
v -30.4 -88 0
v -31.2 -88 0
v -31.2 -87.2 0
v -30.4 -87.2 0
v -111.2 -87.2 0
v -112 -87.2 0
v -112 -86.4 0
v -111.2 -86.4 0
v -91.2 -87.2 0
v -92 -87.2 0
v -92 -86.4 0
v -91.2 -86.4 0
v -84.8 -87.2 0
v -85.6 -87.2 0
v -85.6 -86.4 0
v -84.8 -86.4 0
v -74.4 -87.2 0
v -75.2 -87.2 0
v -75.2 -86.4 0
v -74.4 -86.4 0
v -64.8 -87.2 0
v -65.6 -87.2 0
v -65.6 -86.4 0
v -64.8 -86.4 0
v -54.4 -87.2 0
v -55.2 -87.2 0
v -55.2 -86.4 0
v -54.4 -86.4 0
v -48 -87.2 0
v -48.8 -87.2 0
v -48.8 -86.4 0
v -48 -86.4 0
v -30.4 -87.2 0
v -31.2 -87.2 0
v -31.2 -86.4 0
v -30.4 -86.4 0
v -111.2 -86.4 0
v -112 -86.4 0
v -112 -85.6 0
v -111.2 -85.6 0
v -74.4 -86.4 0
v -75.2 -86.4 0
v -75.2 -85.6 0
v -74.4 -85.6 0
v -64.8 -86.4 0
v -65.6 -86.4 0
v -65.6 -85.6 0
v -64.8 -85.6 0
v -30.4 -86.4 0
v -31.2 -86.4 0
v -31.2 -85.6 0
v -30.4 -85.6 0
v -111.2 -85.6 0
v -112 -85.6 0
v -112 -84.8 0
v -111.2 -84.8 0
v -74.4 -85.6 0
v -75.2 -85.6 0
v -75.2 -84.8 0
v -74.4 -84.8 0
v -64.8 -85.6 0
v -65.6 -85.6 0
v -65.6 -84.8 0
v -64.8 -84.8 0
v -30.4 -85.6 0
v -31.2 -85.6 0
v -31.2 -84.8 0
v -30.4 -84.8 0
v -111.2 -84.8 0
v -112 -84.8 0
v -112 -84 0
v -111.2 -84 0
v -74.4 -84.8 0
v -75.2 -84.8 0
v -75.2 -84 0
v -74.4 -84 0
v -64.8 -84.8 0
v -65.6 -84.8 0
v -65.6 -84 0
v -64.8 -84 0
v -30.4 -84.8 0
v -31.2 -84.8 0
v -31.2 -84 0
v -30.4 -84 0
v -111.2 -84 0
v -112 -84 0
v -112 -83.2 0
v -111.2 -83.2 0
v -74.4 -84 0
v -75.2 -84 0
v -75.2 -83.2 0
v -74.4 -83.2 0
v -64.8 -84 0
v -65.6 -84 0
v -65.6 -83.2 0
v -64.8 -83.2 0
v -30.4 -84 0
v -31.2 -84 0
v -31.2 -83.2 0
v -30.4 -83.2 0
v -111.2 -83.2 0
v -112 -83.2 0
v -112 -82.4 0
v -111.2 -82.4 0
v -74.4 -83.2 0
v -75.2 -83.2 0
v -75.2 -82.4 0
v -74.4 -82.4 0
v -64.8 -83.2 0
v -65.6 -83.2 0
v -65.6 -82.4 0
v -64.8 -82.4 0
v -30.4 -83.2 0
v -31.2 -83.2 0
v -31.2 -82.4 0
v -30.4 -82.4 0
v -111.2 -82.4 0
v -112 -82.4 0
v -112 -81.6 0
v -111.2 -81.6 0
v -74.4 -82.4 0
v -75.2 -82.4 0
v -75.2 -81.6 0
v -74.4 -81.6 0
v -64.8 -82.4 0
v -65.6 -82.4 0
v -65.6 -81.6 0
v -64.8 -81.6 0
v -30.4 -82.4 0
v -31.2 -82.4 0
v -31.2 -81.6 0
v -30.4 -81.6 0
v -111.2 -81.6 0
v -112 -81.6 0
v -112 -80.8 0
v -111.2 -80.8 0
v -74.4 -81.6 0
v -75.2 -81.6 0
v -75.2 -80.8 0
v -74.4 -80.8 0
v -64.8 -81.6 0
v -65.6 -81.6 0
v -65.6 -80.8 0
v -64.8 -80.8 0
v -30.4 -81.6 0
v -31.2 -81.6 0
v -31.2 -80.8 0
v -30.4 -80.8 0
v -111.2 -80.8 0
v -112 -80.8 0
v -112 -80 0
v -111.2 -80 0
v -74.4 -80.8 0
v -75.2 -80.8 0
v -75.2 -80 0
v -74.4 -80 0
v -64.8 -80.8 0
v -65.6 -80.8 0
v -65.6 -80 0
v -64.8 -80 0
v -30.4 -80.8 0
v -31.2 -80.8 0
v -31.2 -80 0
v -30.4 -80 0
v -111.2 -80 0
v -112 -80 0
v -112 -79.2 0
v -111.2 -79.2 0
v -74.4 -80 0
v -75.2 -80 0
v -75.2 -79.2 0
v -74.4 -79.2 0
v -64.8 -80 0
v -65.6 -80 0
v -65.6 -79.2 0
v -64.8 -79.2 0
v -30.4 -80 0
v -31.2 -80 0
v -31.2 -79.2 0
v -30.4 -79.2 0
v -111.2 -79.2 0
v -112 -79.2 0
v -112 -78.4 0
v -111.2 -78.4 0
v -74.4 -79.2 0
v -75.2 -79.2 0
v -75.2 -78.4 0
v -74.4 -78.4 0
v -64.8 -79.2 0
v -65.6 -79.2 0
v -65.6 -78.4 0
v -64.8 -78.4 0
v -30.4 -79.2 0
v -31.2 -79.2 0
v -31.2 -78.4 0
v -30.4 -78.4 0
v -111.2 -78.4 0
v -112 -78.4 0
v -112 -77.6 0
v -111.2 -77.6 0
v -74.4 -78.4 0
v -75.2 -78.4 0
v -75.2 -77.6 0
v -74.4 -77.6 0
v -64.8 -78.4 0
v -65.6 -78.4 0
v -65.6 -77.6 0
v -64.8 -77.6 0
v -30.4 -78.4 0
v -31.2 -78.4 0
v -31.2 -77.6 0
v -30.4 -77.6 0
v -111.2 -77.6 0
v -112 -77.6 0
v -112 -76.8 0
v -111.2 -76.8 0
v -74.4 -77.6 0
v -75.2 -77.6 0
v -75.2 -76.8 0
v -74.4 -76.8 0
v -64.8 -77.6 0
v -65.6 -77.6 0
v -65.6 -76.8 0
v -64.8 -76.8 0
v -30.4 -77.6 0
v -31.2 -77.6 0
v -31.2 -76.8 0
v -30.4 -76.8 0
v -111.2 -76.8 0
v -112 -76.8 0
v -112 -76 0
v -111.2 -76 0
v -74.4 -76.8 0
v -75.2 -76.8 0
v -75.2 -76 0
v -74.4 -76 0
v -64.8 -76.8 0
v -65.6 -76.8 0
v -65.6 -76 0
v -64.8 -76 0
v -30.4 -76.8 0
v -31.2 -76.8 0
v -31.2 -76 0
v -30.4 -76 0
v -111.2 -76 0
v -112 -76 0
v -112 -75.2 0
v -111.2 -75.2 0
v -74.4 -76 0
v -75.2 -76 0
v -75.2 -75.2 0
v -74.4 -75.2 0
v -64.8 -76 0
v -65.6 -76 0
v -65.6 -75.2 0
v -64.8 -75.2 0
v -30.4 -76 0
v -31.2 -76 0
v -31.2 -75.2 0
v -30.4 -75.2 0
v -111.2 -75.2 0
v -112 -75.2 0
v -112 -74.4 0
v -111.2 -74.4 0
v -74.4 -75.2 0
v -75.2 -75.2 0
v -75.2 -74.4 0
v -74.4 -74.4 0
v -64.8 -75.2 0
v -65.6 -75.2 0
v -65.6 -74.4 0
v -64.8 -74.4 0
v -30.4 -75.2 0
v -31.2 -75.2 0
v -31.2 -74.4 0
v -30.4 -74.4 0
v -111.2 -74.4 0
v -112 -74.4 0
v -112 -73.6 0
v -111.2 -73.6 0
v -74.4 -74.4 0
v -75.2 -74.4 0
v -75.2 -73.6 0
v -74.4 -73.6 0
v -64.8 -74.4 0
v -65.6 -74.4 0
v -65.6 -73.6 0
v -64.8 -73.6 0
v -30.4 -74.4 0
v -31.2 -74.4 0
v -31.2 -73.6 0
v -30.4 -73.6 0
v -111.2 -73.6 0
v -112 -73.6 0
v -112 -72.8 0
v -111.2 -72.8 0
v -74.4 -73.6 0
v -75.2 -73.6 0
v -75.2 -72.8 0
v -74.4 -72.8 0
v -64.8 -73.6 0
v -65.6 -73.6 0
v -65.6 -72.8 0
v -64.8 -72.8 0
v -30.4 -73.6 0
v -31.2 -73.6 0
v -31.2 -72.8 0
v -30.4 -72.8 0
v -111.2 -72.8 0
v -112 -72.8 0
v -112 -72 0
v -111.2 -72 0
v -74.4 -72.8 0
v -75.2 -72.8 0
v -75.2 -72 0
v -74.4 -72 0
v -64.8 -72.8 0
v -65.6 -72.8 0
v -65.6 -72 0
v -64.8 -72 0
v -30.4 -72.8 0
v -31.2 -72.8 0
v -31.2 -72 0
v -30.4 -72 0
v -111.2 -72 0
v -112 -72 0
v -112 -71.2 0
v -111.2 -71.2 0
v -74.4 -72 0
v -75.2 -72 0
v -75.2 -71.2 0
v -74.4 -71.2 0
v -64.8 -72 0
v -65.6 -72 0
v -65.6 -71.2 0
v -64.8 -71.2 0
v -30.4 -72 0
v -31.2 -72 0
v -31.2 -71.2 0
v -30.4 -71.2 0
v -74.4 -71.2 0
v -75.2 -71.2 0
v -75.2 -70.4 0
v -74.4 -70.4 0
v -64.8 -71.2 0
v -65.6 -71.2 0
v -65.6 -70.4 0
v -64.8 -70.4 0
v -74.4 -70.4 0
v -75.2 -70.4 0
v -75.2 -69.6 0
v -74.4 -69.6 0
v -64.8 -70.4 0
v -65.6 -70.4 0
v -65.6 -69.6 0
v -64.8 -69.6 0
v -74.4 -69.6 0
v -75.2 -69.6 0
v -75.2 -68.8 0
v -74.4 -68.8 0
v -64.8 -69.6 0
v -65.6 -69.6 0
v -65.6 -68.8 0
v -64.8 -68.8 0
v -74.4 -68.8 0
v -75.2 -68.8 0
v -75.2 -68 0
v -74.4 -68 0
v -64.8 -68.8 0
v -65.6 -68.8 0
v -65.6 -68 0
v -64.8 -68 0
v -74.4 -68 0
v -75.2 -68 0
v -75.2 -67.2 0
v -74.4 -67.2 0
v -64.8 -68 0
v -65.6 -68 0
v -65.6 -67.2 0
v -64.8 -67.2 0
v -74.4 -67.2 0
v -75.2 -67.2 0
v -75.2 -66.4 0
v -74.4 -66.4 0
v -64.8 -67.2 0
v -65.6 -67.2 0
v -65.6 -66.4 0
v -64.8 -66.4 0
v -74.4 -66.4 0
v -75.2 -66.4 0
v -75.2 -65.6 0
v -74.4 -65.6 0
v -64.8 -66.4 0
v -65.6 -66.4 0
v -65.6 -65.6 0
v -64.8 -65.6 0
v -74.4 -65.6 0
v -75.2 -65.6 0
v -75.2 -64.8 0
v -74.4 -64.8 0
v -64.8 -65.6 0
v -65.6 -65.6 0
v -65.6 -64.8 0
v -64.8 -64.8 0
v -74.4 -64.8 0
v -75.2 -64.8 0
v -75.2 -64 0
v -74.4 -64 0
v -64.8 -64.8 0
v -65.6 -64.8 0
v -65.6 -64 0
v -64.8 -64 0
v -74.4 -64 0
v -75.2 -64 0
v -75.2 -63.2 0
v -74.4 -63.2 0
v -64.8 -64 0
v -65.6 -64 0
v -65.6 -63.2 0
v -64.8 -63.2 0
v -74.4 -63.2 0
v -75.2 -63.2 0
v -75.2 -62.4 0
v -74.4 -62.4 0
v -64.8 -63.2 0
v -65.6 -63.2 0
v -65.6 -62.4 0
v -64.8 -62.4 0
v -74.4 -62.4 0
v -75.2 -62.4 0
v -75.2 -61.6 0
v -74.4 -61.6 0
v -64.8 -62.4 0
v -65.6 -62.4 0
v -65.6 -61.6 0
v -64.8 -61.6 0
v -74.4 -61.6 0
v -75.2 -61.6 0
v -75.2 -60.8 0
v -74.4 -60.8 0
v -64.8 -61.6 0
v -65.6 -61.6 0
v -65.6 -60.8 0
v -64.8 -60.8 0
v -74.4 -60.8 0
v -75.2 -60.8 0
v -75.2 -60 0
v -74.4 -60 0
v -64.8 -60.8 0
v -65.6 -60.8 0
v -65.6 -60 0
v -64.8 -60 0
v -74.4 -60 0
v -75.2 -60 0
v -75.2 -59.2 0
v -74.4 -59.2 0
v -64.8 -60 0
v -65.6 -60 0
v -65.6 -59.2 0
v -64.8 -59.2 0
v -74.4 -59.2 0
v -75.2 -59.2 0
v -75.2 -58.4 0
v -74.4 -58.4 0
v -64.8 -59.2 0
v -65.6 -59.2 0
v -65.6 -58.4 0
v -64.8 -58.4 0
v -74.4 -58.4 0
v -75.2 -58.4 0
v -75.2 -57.6 0
v -74.4 -57.6 0
v -64.8 -58.4 0
v -65.6 -58.4 0
v -65.6 -57.6 0
v -64.8 -57.6 0
v -74.4 -57.6 0
v -75.2 -57.6 0
v -75.2 -56.8 0
v -74.4 -56.8 0
v -64.8 -57.6 0
v -65.6 -57.6 0
v -65.6 -56.8 0
v -64.8 -56.8 0
v -74.4 -56.8 0
v -75.2 -56.8 0
v -75.2 -56 0
v -74.4 -56 0
v -64.8 -56.8 0
v -65.6 -56.8 0
v -65.6 -56 0
v -64.8 -56 0
v -74.4 -56 0
v -75.2 -56 0
v -75.2 -55.2 0
v -74.4 -55.2 0
v -64.8 -56 0
v -65.6 -56 0
v -65.6 -55.2 0
v -64.8 -55.2 0
v -74.4 -55.2 0
v -75.2 -55.2 0
v -75.2 -54.4 0
v -74.4 -54.4 0
v -64.8 -55.2 0
v -65.6 -55.2 0
v -65.6 -54.4 0
v -64.8 -54.4 0

# Texture cooridinates (Count = 12)
vt 0.4444444 0
vt 0.5555556 0
vt 0.5555556 0.3333333
vt 0.4444444 0.3333333
vt 0.6666667 0
vt 0.7777778 0
vt 0.7777778 0.3333333
vt 0.6666667 0.3333333
vt 0.5555556 0.6666666
vt 0.4444444 0.6666666
vt 0.7777778 0.6666666
vt 0.6666667 0.6666666

# Normal
vn 0 0 -1

# Mesh description
g BossMap2_mesh_0005

# Faces
f 1/1/1 2/2/1 3/3/1 4/4/1
f 5/1/1 6/2/1 7/3/1 8/4/1
f 9/5/1 10/6/1 11/7/1 12/8/1
f 13/5/1 14/6/1 15/7/1 16/8/1
f 17/1/1 18/2/1 19/3/1 20/4/1
f 21/1/1 22/2/1 23/3/1 24/4/1
f 25/4/1 26/3/1 27/9/1 28/10/1
f 29/4/1 30/3/1 31/9/1 32/10/1
f 33/8/1 34/7/1 35/11/1 36/12/1
f 37/8/1 38/7/1 39/11/1 40/12/1
f 41/4/1 42/3/1 43/9/1 44/10/1
f 45/4/1 46/3/1 47/9/1 48/10/1
f 49/5/1 50/6/1 51/7/1 52/8/1
f 53/4/1 54/3/1 55/9/1 56/10/1
f 57/4/1 58/3/1 59/9/1 60/10/1
f 61/8/1 62/7/1 63/11/1 64/12/1
f 65/8/1 66/7/1 67/11/1 68/12/1
f 69/4/1 70/3/1 71/9/1 72/10/1
f 73/4/1 74/3/1 75/9/1 76/10/1
f 77/5/1 78/6/1 79/7/1 80/8/1
f 81/8/1 82/7/1 83/11/1 84/12/1
f 85/4/1 86/3/1 87/9/1 88/10/1
f 89/4/1 90/3/1 91/9/1 92/10/1
f 93/8/1 94/7/1 95/11/1 96/12/1
f 97/8/1 98/7/1 99/11/1 100/12/1
f 101/4/1 102/3/1 103/9/1 104/10/1
f 105/4/1 106/3/1 107/9/1 108/10/1
f 109/8/1 110/7/1 111/11/1 112/12/1
f 113/8/1 114/7/1 115/11/1 116/12/1
f 117/4/1 118/3/1 119/9/1 120/10/1
f 121/4/1 122/3/1 123/9/1 124/10/1
f 125/8/1 126/7/1 127/11/1 128/12/1
f 129/8/1 130/7/1 131/11/1 132/12/1
f 133/4/1 134/3/1 135/9/1 136/10/1
f 137/4/1 138/3/1 139/9/1 140/10/1
f 141/8/1 142/7/1 143/11/1 144/12/1
f 145/8/1 146/7/1 147/11/1 148/12/1
f 149/4/1 150/3/1 151/9/1 152/10/1
f 153/4/1 154/3/1 155/9/1 156/10/1
f 157/8/1 158/7/1 159/11/1 160/12/1
f 161/8/1 162/7/1 163/11/1 164/12/1
f 165/4/1 166/3/1 167/9/1 168/10/1
f 169/4/1 170/3/1 171/9/1 172/10/1
f 173/8/1 174/7/1 175/11/1 176/12/1
f 177/8/1 178/7/1 179/11/1 180/12/1
f 181/4/1 182/3/1 183/9/1 184/10/1
f 185/4/1 186/3/1 187/9/1 188/10/1
f 189/8/1 190/7/1 191/11/1 192/12/1
f 193/8/1 194/7/1 195/11/1 196/12/1
f 197/4/1 198/3/1 199/9/1 200/10/1
f 201/4/1 202/3/1 203/9/1 204/10/1
f 205/8/1 206/7/1 207/11/1 208/12/1
f 209/8/1 210/7/1 211/11/1 212/12/1
f 213/4/1 214/3/1 215/9/1 216/10/1
f 217/4/1 218/3/1 219/9/1 220/10/1
f 221/8/1 222/7/1 223/11/1 224/12/1
f 225/8/1 226/7/1 227/11/1 228/12/1
f 229/4/1 230/3/1 231/9/1 232/10/1
f 233/4/1 234/3/1 235/9/1 236/10/1
f 237/8/1 238/7/1 239/11/1 240/12/1
f 241/8/1 242/7/1 243/11/1 244/12/1
f 245/8/1 246/7/1 247/11/1 248/12/1
f 249/8/1 250/7/1 251/11/1 252/12/1
f 253/8/1 254/7/1 255/11/1 256/12/1
f 257/8/1 258/7/1 259/11/1 260/12/1
f 261/8/1 262/7/1 263/11/1 264/12/1
f 265/8/1 266/7/1 267/11/1 268/12/1
f 269/8/1 270/7/1 271/11/1 272/12/1
f 273/8/1 274/7/1 275/11/1 276/12/1
f 277/8/1 278/7/1 279/11/1 280/12/1
f 281/8/1 282/7/1 283/11/1 284/12/1
f 285/8/1 286/7/1 287/11/1 288/12/1
f 289/8/1 290/7/1 291/11/1 292/12/1
f 293/8/1 294/7/1 295/11/1 296/12/1
f 297/8/1 298/7/1 299/11/1 300/12/1
f 301/8/1 302/7/1 303/11/1 304/12/1
f 305/8/1 306/7/1 307/11/1 308/12/1
f 309/8/1 310/7/1 311/11/1 312/12/1
f 313/8/1 314/7/1 315/11/1 316/12/1
f 317/8/1 318/7/1 319/11/1 320/12/1
f 321/8/1 322/7/1 323/11/1 324/12/1
f 325/8/1 326/7/1 327/11/1 328/12/1
f 329/8/1 330/7/1 331/11/1 332/12/1
f 333/8/1 334/7/1 335/11/1 336/12/1
f 337/8/1 338/7/1 339/11/1 340/12/1
f 341/8/1 342/7/1 343/11/1 344/12/1
f 345/8/1 346/7/1 347/11/1 348/12/1
f 349/8/1 350/7/1 351/11/1 352/12/1
f 353/8/1 354/7/1 355/11/1 356/12/1
f 357/8/1 358/7/1 359/11/1 360/12/1
f 361/8/1 362/7/1 363/11/1 364/12/1
f 365/8/1 366/7/1 367/11/1 368/12/1
f 369/8/1 370/7/1 371/11/1 372/12/1
f 373/8/1 374/7/1 375/11/1 376/12/1
f 377/8/1 378/7/1 379/11/1 380/12/1
f 381/8/1 382/7/1 383/11/1 384/12/1
f 385/8/1 386/7/1 387/11/1 388/12/1
f 389/8/1 390/7/1 391/11/1 392/12/1
f 393/8/1 394/7/1 395/11/1 396/12/1
f 397/8/1 398/7/1 399/11/1 400/12/1
f 401/8/1 402/7/1 403/11/1 404/12/1
f 405/8/1 406/7/1 407/11/1 408/12/1
f 409/8/1 410/7/1 411/11/1 412/12/1
f 413/8/1 414/7/1 415/11/1 416/12/1
f 417/8/1 418/7/1 419/11/1 420/12/1
f 421/8/1 422/7/1 423/11/1 424/12/1
f 425/8/1 426/7/1 427/11/1 428/12/1
f 429/8/1 430/7/1 431/11/1 432/12/1
f 433/8/1 434/7/1 435/11/1 436/12/1
f 437/8/1 438/7/1 439/11/1 440/12/1
f 441/8/1 442/7/1 443/11/1 444/12/1
f 445/8/1 446/7/1 447/11/1 448/12/1
f 449/8/1 450/7/1 451/11/1 452/12/1
f 453/8/1 454/7/1 455/11/1 456/12/1
f 457/8/1 458/7/1 459/11/1 460/12/1
f 461/8/1 462/7/1 463/11/1 464/12/1
f 465/8/1 466/7/1 467/11/1 468/12/1
f 469/8/1 470/7/1 471/11/1 472/12/1
f 473/8/1 474/7/1 475/11/1 476/12/1
f 477/8/1 478/7/1 479/11/1 480/12/1
f 481/8/1 482/7/1 483/11/1 484/12/1
f 485/8/1 486/7/1 487/11/1 488/12/1
f 489/8/1 490/7/1 491/11/1 492/12/1
f 493/8/1 494/7/1 495/11/1 496/12/1
f 497/8/1 498/7/1 499/11/1 500/12/1
f 501/8/1 502/7/1 503/11/1 504/12/1
f 505/8/1 506/7/1 507/11/1 508/12/1
f 509/8/1 510/7/1 511/11/1 512/12/1
f 513/8/1 514/7/1 515/11/1 516/12/1
f 517/8/1 518/7/1 519/11/1 520/12/1
f 521/8/1 522/7/1 523/11/1 524/12/1
f 525/8/1 526/7/1 527/11/1 528/12/1
f 529/8/1 530/7/1 531/11/1 532/12/1
f 533/8/1 534/7/1 535/11/1 536/12/1
f 537/8/1 538/7/1 539/11/1 540/12/1
f 541/8/1 542/7/1 543/11/1 544/12/1
f 545/8/1 546/7/1 547/11/1 548/12/1
f 549/8/1 550/7/1 551/11/1 552/12/1
f 553/8/1 554/7/1 555/11/1 556/12/1
f 557/8/1 558/7/1 559/11/1 560/12/1
f 561/8/1 562/7/1 563/11/1 564/12/1
f 565/8/1 566/7/1 567/11/1 568/12/1
f 569/8/1 570/7/1 571/11/1 572/12/1
f 573/8/1 574/7/1 575/11/1 576/12/1
f 577/8/1 578/7/1 579/11/1 580/12/1
f 581/8/1 582/7/1 583/11/1 584/12/1
f 585/8/1 586/7/1 587/11/1 588/12/1
f 589/8/1 590/7/1 591/11/1 592/12/1
f 593/8/1 594/7/1 595/11/1 596/12/1
f 597/8/1 598/7/1 599/11/1 600/12/1
f 601/8/1 602/7/1 603/11/1 604/12/1
f 605/8/1 606/7/1 607/11/1 608/12/1
f 609/8/1 610/7/1 611/11/1 612/12/1
f 613/8/1 614/7/1 615/11/1 616/12/1
f 617/8/1 618/7/1 619/11/1 620/12/1
f 621/8/1 622/7/1 623/11/1 624/12/1
f 625/8/1 626/7/1 627/11/1 628/12/1
f 629/8/1 630/7/1 631/11/1 632/12/1
f 633/8/1 634/7/1 635/11/1 636/12/1
f 637/8/1 638/7/1 639/11/1 640/12/1
f 641/8/1 642/7/1 643/11/1 644/12/1
f 645/8/1 646/7/1 647/11/1 648/12/1
f 649/8/1 650/7/1 651/11/1 652/12/1
f 653/8/1 654/7/1 655/11/1 656/12/1
f 657/8/1 658/7/1 659/11/1 660/12/1
f 661/8/1 662/7/1 663/11/1 664/12/1
f 665/8/1 666/7/1 667/11/1 668/12/1
f 669/8/1 670/7/1 671/11/1 672/12/1
f 673/8/1 674/7/1 675/11/1 676/12/1
f 677/8/1 678/7/1 679/11/1 680/12/1
f 681/8/1 682/7/1 683/11/1 684/12/1
f 685/8/1 686/7/1 687/11/1 688/12/1
f 689/8/1 690/7/1 691/11/1 692/12/1
f 693/8/1 694/7/1 695/11/1 696/12/1
f 697/8/1 698/7/1 699/11/1 700/12/1
f 701/8/1 702/7/1 703/11/1 704/12/1
f 705/8/1 706/7/1 707/11/1 708/12/1
f 709/8/1 710/7/1 711/11/1 712/12/1

