# Tiled2Unity generated file. Do not modify by hand.
# Wavefront file for 'BossMap2_mesh_0006.obj'

# Vertices (Count = 760)
v -97.6 -92.8 0
v -98.4 -92.8 0
v -98.4 -92 0
v -97.6 -92 0
v -91.2 -92.8 0
v -92 -92.8 0
v -92 -92 0
v -91.2 -92 0
v -84.8 -92.8 0
v -85.6 -92.8 0
v -85.6 -92 0
v -84.8 -92 0
v -74.4 -92.8 0
v -75.2 -92.8 0
v -75.2 -92 0
v -74.4 -92 0
v -64.8 -92.8 0
v -65.6 -92.8 0
v -65.6 -92 0
v -64.8 -92 0
v -54.4 -92.8 0
v -55.2 -92.8 0
v -55.2 -92 0
v -54.4 -92 0
v -48 -92.8 0
v -48.8 -92.8 0
v -48.8 -92 0
v -48 -92 0
v -41.6 -92.8 0
v -42.4 -92.8 0
v -42.4 -92 0
v -41.6 -92 0
v -111.2 -92 0
v -112 -92 0
v -112 -91.2 0
v -111.2 -91.2 0
v -97.6 -92 0
v -98.4 -92 0
v -98.4 -91.2 0
v -97.6 -91.2 0
v -91.2 -92 0
v -92 -92 0
v -92 -91.2 0
v -91.2 -91.2 0
v -84.8 -92 0
v -85.6 -92 0
v -85.6 -91.2 0
v -84.8 -91.2 0
v -74.4 -92 0
v -75.2 -92 0
v -75.2 -91.2 0
v -74.4 -91.2 0
v -64.8 -92 0
v -65.6 -92 0
v -65.6 -91.2 0
v -64.8 -91.2 0
v -54.4 -92 0
v -55.2 -92 0
v -55.2 -91.2 0
v -54.4 -91.2 0
v -48 -92 0
v -48.8 -92 0
v -48.8 -91.2 0
v -48 -91.2 0
v -41.6 -92 0
v -42.4 -92 0
v -42.4 -91.2 0
v -41.6 -91.2 0
v -30.4 -92 0
v -31.2 -92 0
v -31.2 -91.2 0
v -30.4 -91.2 0
v -111.2 -91.2 0
v -112 -91.2 0
v -112 -90.4 0
v -111.2 -90.4 0
v -97.6 -91.2 0
v -98.4 -91.2 0
v -98.4 -90.4 0
v -97.6 -90.4 0
v -91.2 -91.2 0
v -92 -91.2 0
v -92 -90.4 0
v -91.2 -90.4 0
v -84.8 -91.2 0
v -85.6 -91.2 0
v -85.6 -90.4 0
v -84.8 -90.4 0
v -74.4 -91.2 0
v -75.2 -91.2 0
v -75.2 -90.4 0
v -74.4 -90.4 0
v -64.8 -91.2 0
v -65.6 -91.2 0
v -65.6 -90.4 0
v -64.8 -90.4 0
v -54.4 -91.2 0
v -55.2 -91.2 0
v -55.2 -90.4 0
v -54.4 -90.4 0
v -48 -91.2 0
v -48.8 -91.2 0
v -48.8 -90.4 0
v -48 -90.4 0
v -41.6 -91.2 0
v -42.4 -91.2 0
v -42.4 -90.4 0
v -41.6 -90.4 0
v -30.4 -91.2 0
v -31.2 -91.2 0
v -31.2 -90.4 0
v -30.4 -90.4 0
v -111.2 -90.4 0
v -112 -90.4 0
v -112 -89.6 0
v -111.2 -89.6 0
v -97.6 -90.4 0
v -98.4 -90.4 0
v -98.4 -89.6 0
v -97.6 -89.6 0
v -91.2 -90.4 0
v -92 -90.4 0
v -92 -89.6 0
v -91.2 -89.6 0
v -84.8 -90.4 0
v -85.6 -90.4 0
v -85.6 -89.6 0
v -84.8 -89.6 0
v -74.4 -90.4 0
v -75.2 -90.4 0
v -75.2 -89.6 0
v -74.4 -89.6 0
v -64.8 -90.4 0
v -65.6 -90.4 0
v -65.6 -89.6 0
v -64.8 -89.6 0
v -54.4 -90.4 0
v -55.2 -90.4 0
v -55.2 -89.6 0
v -54.4 -89.6 0
v -48 -90.4 0
v -48.8 -90.4 0
v -48.8 -89.6 0
v -48 -89.6 0
v -41.6 -90.4 0
v -42.4 -90.4 0
v -42.4 -89.6 0
v -41.6 -89.6 0
v -30.4 -90.4 0
v -31.2 -90.4 0
v -31.2 -89.6 0
v -30.4 -89.6 0
v -111.2 -89.6 0
v -112 -89.6 0
v -112 -88.8 0
v -111.2 -88.8 0
v -97.6 -89.6 0
v -98.4 -89.6 0
v -98.4 -88.8 0
v -97.6 -88.8 0
v -91.2 -89.6 0
v -92 -89.6 0
v -92 -88.8 0
v -91.2 -88.8 0
v -84.8 -89.6 0
v -85.6 -89.6 0
v -85.6 -88.8 0
v -84.8 -88.8 0
v -74.4 -89.6 0
v -75.2 -89.6 0
v -75.2 -88.8 0
v -74.4 -88.8 0
v -64.8 -89.6 0
v -65.6 -89.6 0
v -65.6 -88.8 0
v -64.8 -88.8 0
v -54.4 -89.6 0
v -55.2 -89.6 0
v -55.2 -88.8 0
v -54.4 -88.8 0
v -48 -89.6 0
v -48.8 -89.6 0
v -48.8 -88.8 0
v -48 -88.8 0
v -41.6 -89.6 0
v -42.4 -89.6 0
v -42.4 -88.8 0
v -41.6 -88.8 0
v -30.4 -89.6 0
v -31.2 -89.6 0
v -31.2 -88.8 0
v -30.4 -88.8 0
v -111.2 -88.8 0
v -112 -88.8 0
v -112 -88 0
v -111.2 -88 0
v -91.2 -88.8 0
v -92 -88.8 0
v -92 -88 0
v -91.2 -88 0
v -84.8 -88.8 0
v -85.6 -88.8 0
v -85.6 -88 0
v -84.8 -88 0
v -74.4 -88.8 0
v -75.2 -88.8 0
v -75.2 -88 0
v -74.4 -88 0
v -64.8 -88.8 0
v -65.6 -88.8 0
v -65.6 -88 0
v -64.8 -88 0
v -54.4 -88.8 0
v -55.2 -88.8 0
v -55.2 -88 0
v -54.4 -88 0
v -48 -88.8 0
v -48.8 -88.8 0
v -48.8 -88 0
v -48 -88 0
v -30.4 -88.8 0
v -31.2 -88.8 0
v -31.2 -88 0
v -30.4 -88 0
v -111.2 -88 0
v -112 -88 0
v -112 -87.2 0
v -111.2 -87.2 0
v -91.2 -88 0
v -92 -88 0
v -92 -87.2 0
v -91.2 -87.2 0
v -84.8 -88 0
v -85.6 -88 0
v -85.6 -87.2 0
v -84.8 -87.2 0
v -74.4 -88 0
v -75.2 -88 0
v -75.2 -87.2 0
v -74.4 -87.2 0
v -64.8 -88 0
v -65.6 -88 0
v -65.6 -87.2 0
v -64.8 -87.2 0
v -54.4 -88 0
v -55.2 -88 0
v -55.2 -87.2 0
v -54.4 -87.2 0
v -48 -88 0
v -48.8 -88 0
v -48.8 -87.2 0
v -48 -87.2 0
v -30.4 -88 0
v -31.2 -88 0
v -31.2 -87.2 0
v -30.4 -87.2 0
v -111.2 -87.2 0
v -112 -87.2 0
v -112 -86.4 0
v -111.2 -86.4 0
v -91.2 -87.2 0
v -92 -87.2 0
v -92 -86.4 0
v -91.2 -86.4 0
v -84.8 -87.2 0
v -85.6 -87.2 0
v -85.6 -86.4 0
v -84.8 -86.4 0
v -74.4 -87.2 0
v -75.2 -87.2 0
v -75.2 -86.4 0
v -74.4 -86.4 0
v -64.8 -87.2 0
v -65.6 -87.2 0
v -65.6 -86.4 0
v -64.8 -86.4 0
v -54.4 -87.2 0
v -55.2 -87.2 0
v -55.2 -86.4 0
v -54.4 -86.4 0
v -48 -87.2 0
v -48.8 -87.2 0
v -48.8 -86.4 0
v -48 -86.4 0
v -30.4 -87.2 0
v -31.2 -87.2 0
v -31.2 -86.4 0
v -30.4 -86.4 0
v -111.2 -86.4 0
v -112 -86.4 0
v -112 -85.6 0
v -111.2 -85.6 0
v -74.4 -86.4 0
v -75.2 -86.4 0
v -75.2 -85.6 0
v -74.4 -85.6 0
v -64.8 -86.4 0
v -65.6 -86.4 0
v -65.6 -85.6 0
v -64.8 -85.6 0
v -30.4 -86.4 0
v -31.2 -86.4 0
v -31.2 -85.6 0
v -30.4 -85.6 0
v -111.2 -85.6 0
v -112 -85.6 0
v -112 -84.8 0
v -111.2 -84.8 0
v -74.4 -85.6 0
v -75.2 -85.6 0
v -75.2 -84.8 0
v -74.4 -84.8 0
v -64.8 -85.6 0
v -65.6 -85.6 0
v -65.6 -84.8 0
v -64.8 -84.8 0
v -30.4 -85.6 0
v -31.2 -85.6 0
v -31.2 -84.8 0
v -30.4 -84.8 0
v -111.2 -84.8 0
v -112 -84.8 0
v -112 -84 0
v -111.2 -84 0
v -74.4 -84.8 0
v -75.2 -84.8 0
v -75.2 -84 0
v -74.4 -84 0
v -64.8 -84.8 0
v -65.6 -84.8 0
v -65.6 -84 0
v -64.8 -84 0
v -30.4 -84.8 0
v -31.2 -84.8 0
v -31.2 -84 0
v -30.4 -84 0
v -111.2 -84 0
v -112 -84 0
v -112 -83.2 0
v -111.2 -83.2 0
v -74.4 -84 0
v -75.2 -84 0
v -75.2 -83.2 0
v -74.4 -83.2 0
v -64.8 -84 0
v -65.6 -84 0
v -65.6 -83.2 0
v -64.8 -83.2 0
v -30.4 -84 0
v -31.2 -84 0
v -31.2 -83.2 0
v -30.4 -83.2 0
v -111.2 -83.2 0
v -112 -83.2 0
v -112 -82.4 0
v -111.2 -82.4 0
v -74.4 -83.2 0
v -75.2 -83.2 0
v -75.2 -82.4 0
v -74.4 -82.4 0
v -64.8 -83.2 0
v -65.6 -83.2 0
v -65.6 -82.4 0
v -64.8 -82.4 0
v -30.4 -83.2 0
v -31.2 -83.2 0
v -31.2 -82.4 0
v -30.4 -82.4 0
v -111.2 -82.4 0
v -112 -82.4 0
v -112 -81.6 0
v -111.2 -81.6 0
v -74.4 -82.4 0
v -75.2 -82.4 0
v -75.2 -81.6 0
v -74.4 -81.6 0
v -64.8 -82.4 0
v -65.6 -82.4 0
v -65.6 -81.6 0
v -64.8 -81.6 0
v -30.4 -82.4 0
v -31.2 -82.4 0
v -31.2 -81.6 0
v -30.4 -81.6 0
v -111.2 -81.6 0
v -112 -81.6 0
v -112 -80.8 0
v -111.2 -80.8 0
v -74.4 -81.6 0
v -75.2 -81.6 0
v -75.2 -80.8 0
v -74.4 -80.8 0
v -64.8 -81.6 0
v -65.6 -81.6 0
v -65.6 -80.8 0
v -64.8 -80.8 0
v -30.4 -81.6 0
v -31.2 -81.6 0
v -31.2 -80.8 0
v -30.4 -80.8 0
v -111.2 -80.8 0
v -112 -80.8 0
v -112 -80 0
v -111.2 -80 0
v -74.4 -80.8 0
v -75.2 -80.8 0
v -75.2 -80 0
v -74.4 -80 0
v -64.8 -80.8 0
v -65.6 -80.8 0
v -65.6 -80 0
v -64.8 -80 0
v -30.4 -80.8 0
v -31.2 -80.8 0
v -31.2 -80 0
v -30.4 -80 0
v -111.2 -80 0
v -112 -80 0
v -112 -79.2 0
v -111.2 -79.2 0
v -74.4 -80 0
v -75.2 -80 0
v -75.2 -79.2 0
v -74.4 -79.2 0
v -64.8 -80 0
v -65.6 -80 0
v -65.6 -79.2 0
v -64.8 -79.2 0
v -30.4 -80 0
v -31.2 -80 0
v -31.2 -79.2 0
v -30.4 -79.2 0
v -111.2 -79.2 0
v -112 -79.2 0
v -112 -78.4 0
v -111.2 -78.4 0
v -74.4 -79.2 0
v -75.2 -79.2 0
v -75.2 -78.4 0
v -74.4 -78.4 0
v -64.8 -79.2 0
v -65.6 -79.2 0
v -65.6 -78.4 0
v -64.8 -78.4 0
v -30.4 -79.2 0
v -31.2 -79.2 0
v -31.2 -78.4 0
v -30.4 -78.4 0
v -111.2 -78.4 0
v -112 -78.4 0
v -112 -77.6 0
v -111.2 -77.6 0
v -74.4 -78.4 0
v -75.2 -78.4 0
v -75.2 -77.6 0
v -74.4 -77.6 0
v -64.8 -78.4 0
v -65.6 -78.4 0
v -65.6 -77.6 0
v -64.8 -77.6 0
v -30.4 -78.4 0
v -31.2 -78.4 0
v -31.2 -77.6 0
v -30.4 -77.6 0
v -111.2 -77.6 0
v -112 -77.6 0
v -112 -76.8 0
v -111.2 -76.8 0
v -74.4 -77.6 0
v -75.2 -77.6 0
v -75.2 -76.8 0
v -74.4 -76.8 0
v -64.8 -77.6 0
v -65.6 -77.6 0
v -65.6 -76.8 0
v -64.8 -76.8 0
v -30.4 -77.6 0
v -31.2 -77.6 0
v -31.2 -76.8 0
v -30.4 -76.8 0
v -111.2 -76.8 0
v -112 -76.8 0
v -112 -76 0
v -111.2 -76 0
v -74.4 -76.8 0
v -75.2 -76.8 0
v -75.2 -76 0
v -74.4 -76 0
v -64.8 -76.8 0
v -65.6 -76.8 0
v -65.6 -76 0
v -64.8 -76 0
v -30.4 -76.8 0
v -31.2 -76.8 0
v -31.2 -76 0
v -30.4 -76 0
v -111.2 -76 0
v -112 -76 0
v -112 -75.2 0
v -111.2 -75.2 0
v -74.4 -76 0
v -75.2 -76 0
v -75.2 -75.2 0
v -74.4 -75.2 0
v -64.8 -76 0
v -65.6 -76 0
v -65.6 -75.2 0
v -64.8 -75.2 0
v -30.4 -76 0
v -31.2 -76 0
v -31.2 -75.2 0
v -30.4 -75.2 0
v -111.2 -75.2 0
v -112 -75.2 0
v -112 -74.4 0
v -111.2 -74.4 0
v -74.4 -75.2 0
v -75.2 -75.2 0
v -75.2 -74.4 0
v -74.4 -74.4 0
v -64.8 -75.2 0
v -65.6 -75.2 0
v -65.6 -74.4 0
v -64.8 -74.4 0
v -30.4 -75.2 0
v -31.2 -75.2 0
v -31.2 -74.4 0
v -30.4 -74.4 0
v -111.2 -74.4 0
v -112 -74.4 0
v -112 -73.6 0
v -111.2 -73.6 0
v -74.4 -74.4 0
v -75.2 -74.4 0
v -75.2 -73.6 0
v -74.4 -73.6 0
v -64.8 -74.4 0
v -65.6 -74.4 0
v -65.6 -73.6 0
v -64.8 -73.6 0
v -30.4 -74.4 0
v -31.2 -74.4 0
v -31.2 -73.6 0
v -30.4 -73.6 0
v -111.2 -73.6 0
v -112 -73.6 0
v -112 -72.8 0
v -111.2 -72.8 0
v -74.4 -73.6 0
v -75.2 -73.6 0
v -75.2 -72.8 0
v -74.4 -72.8 0
v -64.8 -73.6 0
v -65.6 -73.6 0
v -65.6 -72.8 0
v -64.8 -72.8 0
v -30.4 -73.6 0
v -31.2 -73.6 0
v -31.2 -72.8 0
v -30.4 -72.8 0
v -111.2 -72.8 0
v -112 -72.8 0
v -112 -72 0
v -111.2 -72 0
v -74.4 -72.8 0
v -75.2 -72.8 0
v -75.2 -72 0
v -74.4 -72 0
v -64.8 -72.8 0
v -65.6 -72.8 0
v -65.6 -72 0
v -64.8 -72 0
v -30.4 -72.8 0
v -31.2 -72.8 0
v -31.2 -72 0
v -30.4 -72 0
v -111.2 -72 0
v -112 -72 0
v -112 -71.2 0
v -111.2 -71.2 0
v -74.4 -72 0
v -75.2 -72 0
v -75.2 -71.2 0
v -74.4 -71.2 0
v -64.8 -72 0
v -65.6 -72 0
v -65.6 -71.2 0
v -64.8 -71.2 0
v -30.4 -72 0
v -31.2 -72 0
v -31.2 -71.2 0
v -30.4 -71.2 0
v -74.4 -71.2 0
v -75.2 -71.2 0
v -75.2 -70.4 0
v -74.4 -70.4 0
v -64.8 -71.2 0
v -65.6 -71.2 0
v -65.6 -70.4 0
v -64.8 -70.4 0
v -74.4 -70.4 0
v -75.2 -70.4 0
v -75.2 -69.6 0
v -74.4 -69.6 0
v -64.8 -70.4 0
v -65.6 -70.4 0
v -65.6 -69.6 0
v -64.8 -69.6 0
v -74.4 -69.6 0
v -75.2 -69.6 0
v -75.2 -68.8 0
v -74.4 -68.8 0
v -64.8 -69.6 0
v -65.6 -69.6 0
v -65.6 -68.8 0
v -64.8 -68.8 0
v -74.4 -68.8 0
v -75.2 -68.8 0
v -75.2 -68 0
v -74.4 -68 0
v -64.8 -68.8 0
v -65.6 -68.8 0
v -65.6 -68 0
v -64.8 -68 0
v -74.4 -68 0
v -75.2 -68 0
v -75.2 -67.2 0
v -74.4 -67.2 0
v -64.8 -68 0
v -65.6 -68 0
v -65.6 -67.2 0
v -64.8 -67.2 0
v -74.4 -67.2 0
v -75.2 -67.2 0
v -75.2 -66.4 0
v -74.4 -66.4 0
v -64.8 -67.2 0
v -65.6 -67.2 0
v -65.6 -66.4 0
v -64.8 -66.4 0
v -74.4 -66.4 0
v -75.2 -66.4 0
v -75.2 -65.6 0
v -74.4 -65.6 0
v -64.8 -66.4 0
v -65.6 -66.4 0
v -65.6 -65.6 0
v -64.8 -65.6 0
v -74.4 -65.6 0
v -75.2 -65.6 0
v -75.2 -64.8 0
v -74.4 -64.8 0
v -64.8 -65.6 0
v -65.6 -65.6 0
v -65.6 -64.8 0
v -64.8 -64.8 0
v -74.4 -64.8 0
v -75.2 -64.8 0
v -75.2 -64 0
v -74.4 -64 0
v -64.8 -64.8 0
v -65.6 -64.8 0
v -65.6 -64 0
v -64.8 -64 0
v -74.4 -64 0
v -75.2 -64 0
v -75.2 -63.2 0
v -74.4 -63.2 0
v -64.8 -64 0
v -65.6 -64 0
v -65.6 -63.2 0
v -64.8 -63.2 0
v -74.4 -63.2 0
v -75.2 -63.2 0
v -75.2 -62.4 0
v -74.4 -62.4 0
v -64.8 -63.2 0
v -65.6 -63.2 0
v -65.6 -62.4 0
v -64.8 -62.4 0
v -74.4 -62.4 0
v -75.2 -62.4 0
v -75.2 -61.6 0
v -74.4 -61.6 0
v -64.8 -62.4 0
v -65.6 -62.4 0
v -65.6 -61.6 0
v -64.8 -61.6 0
v -74.4 -61.6 0
v -75.2 -61.6 0
v -75.2 -60.8 0
v -74.4 -60.8 0
v -64.8 -61.6 0
v -65.6 -61.6 0
v -65.6 -60.8 0
v -64.8 -60.8 0
v -74.4 -60.8 0
v -75.2 -60.8 0
v -75.2 -60 0
v -74.4 -60 0
v -64.8 -60.8 0
v -65.6 -60.8 0
v -65.6 -60 0
v -64.8 -60 0
v -74.4 -60 0
v -75.2 -60 0
v -75.2 -59.2 0
v -74.4 -59.2 0
v -64.8 -60 0
v -65.6 -60 0
v -65.6 -59.2 0
v -64.8 -59.2 0
v -74.4 -59.2 0
v -75.2 -59.2 0
v -75.2 -58.4 0
v -74.4 -58.4 0
v -64.8 -59.2 0
v -65.6 -59.2 0
v -65.6 -58.4 0
v -64.8 -58.4 0
v -74.4 -58.4 0
v -75.2 -58.4 0
v -75.2 -57.6 0
v -74.4 -57.6 0
v -64.8 -58.4 0
v -65.6 -58.4 0
v -65.6 -57.6 0
v -64.8 -57.6 0
v -74.4 -57.6 0
v -75.2 -57.6 0
v -75.2 -56.8 0
v -74.4 -56.8 0
v -64.8 -57.6 0
v -65.6 -57.6 0
v -65.6 -56.8 0
v -64.8 -56.8 0
v -74.4 -56.8 0
v -75.2 -56.8 0
v -75.2 -56 0
v -74.4 -56 0
v -64.8 -56.8 0
v -65.6 -56.8 0
v -65.6 -56 0
v -64.8 -56 0
v -74.4 -56 0
v -75.2 -56 0
v -75.2 -55.2 0
v -74.4 -55.2 0
v -64.8 -56 0
v -65.6 -56 0
v -65.6 -55.2 0
v -64.8 -55.2 0
v -74.4 -55.2 0
v -75.2 -55.2 0
v -75.2 -54.4 0
v -74.4 -54.4 0
v -64.8 -55.2 0
v -65.6 -55.2 0
v -65.6 -54.4 0
v -64.8 -54.4 0

# Texture cooridinates (Count = 12)
vt 0.6666667 0
vt 0.7777778 0
vt 0.7777778 0.3333333
vt 0.6666667 0.3333333
vt 0.4444444 0
vt 0.5555556 0
vt 0.5555556 0.3333333
vt 0.4444444 0.3333333
vt 0.7777778 0.6666666
vt 0.6666667 0.6666666
vt 0.5555556 0.6666666
vt 0.4444444 0.6666666

# Normal
vn 0 0 -1

# Mesh description
g BossMap2_mesh_0006

# Faces
f 1/1/1 2/2/1 3/3/1 4/4/1
f 5/5/1 6/6/1 7/7/1 8/8/1
f 9/5/1 10/6/1 11/7/1 12/8/1
f 13/1/1 14/2/1 15/3/1 16/4/1
f 17/1/1 18/2/1 19/3/1 20/4/1
f 21/5/1 22/6/1 23/7/1 24/8/1
f 25/5/1 26/6/1 27/7/1 28/8/1
f 29/1/1 30/2/1 31/3/1 32/4/1
f 33/1/1 34/2/1 35/3/1 36/4/1
f 37/4/1 38/3/1 39/9/1 40/10/1
f 41/8/1 42/7/1 43/11/1 44/12/1
f 45/8/1 46/7/1 47/11/1 48/12/1
f 49/4/1 50/3/1 51/9/1 52/10/1
f 53/4/1 54/3/1 55/9/1 56/10/1
f 57/8/1 58/7/1 59/11/1 60/12/1
f 61/8/1 62/7/1 63/11/1 64/12/1
f 65/4/1 66/3/1 67/9/1 68/10/1
f 69/1/1 70/2/1 71/3/1 72/4/1
f 73/4/1 74/3/1 75/9/1 76/10/1
f 77/4/1 78/3/1 79/9/1 80/10/1
f 81/8/1 82/7/1 83/11/1 84/12/1
f 85/8/1 86/7/1 87/11/1 88/12/1
f 89/4/1 90/3/1 91/9/1 92/10/1
f 93/4/1 94/3/1 95/9/1 96/10/1
f 97/8/1 98/7/1 99/11/1 100/12/1
f 101/8/1 102/7/1 103/11/1 104/12/1
f 105/4/1 106/3/1 107/9/1 108/10/1
f 109/4/1 110/3/1 111/9/1 112/10/1
f 113/4/1 114/3/1 115/9/1 116/10/1
f 117/4/1 118/3/1 119/9/1 120/10/1
f 121/8/1 122/7/1 123/11/1 124/12/1
f 125/8/1 126/7/1 127/11/1 128/12/1
f 129/4/1 130/3/1 131/9/1 132/10/1
f 133/4/1 134/3/1 135/9/1 136/10/1
f 137/8/1 138/7/1 139/11/1 140/12/1
f 141/8/1 142/7/1 143/11/1 144/12/1
f 145/4/1 146/3/1 147/9/1 148/10/1
f 149/4/1 150/3/1 151/9/1 152/10/1
f 153/4/1 154/3/1 155/9/1 156/10/1
f 157/4/1 158/3/1 159/9/1 160/10/1
f 161/8/1 162/7/1 163/11/1 164/12/1
f 165/8/1 166/7/1 167/11/1 168/12/1
f 169/4/1 170/3/1 171/9/1 172/10/1
f 173/4/1 174/3/1 175/9/1 176/10/1
f 177/8/1 178/7/1 179/11/1 180/12/1
f 181/8/1 182/7/1 183/11/1 184/12/1
f 185/4/1 186/3/1 187/9/1 188/10/1
f 189/4/1 190/3/1 191/9/1 192/10/1
f 193/4/1 194/3/1 195/9/1 196/10/1
f 197/8/1 198/7/1 199/11/1 200/12/1
f 201/8/1 202/7/1 203/11/1 204/12/1
f 205/4/1 206/3/1 207/9/1 208/10/1
f 209/4/1 210/3/1 211/9/1 212/10/1
f 213/8/1 214/7/1 215/11/1 216/12/1
f 217/8/1 218/7/1 219/11/1 220/12/1
f 221/4/1 222/3/1 223/9/1 224/10/1
f 225/4/1 226/3/1 227/9/1 228/10/1
f 229/8/1 230/7/1 231/11/1 232/12/1
f 233/8/1 234/7/1 235/11/1 236/12/1
f 237/4/1 238/3/1 239/9/1 240/10/1
f 241/4/1 242/3/1 243/9/1 244/10/1
f 245/8/1 246/7/1 247/11/1 248/12/1
f 249/8/1 250/7/1 251/11/1 252/12/1
f 253/4/1 254/3/1 255/9/1 256/10/1
f 257/4/1 258/3/1 259/9/1 260/10/1
f 261/8/1 262/7/1 263/11/1 264/12/1
f 265/8/1 266/7/1 267/11/1 268/12/1
f 269/4/1 270/3/1 271/9/1 272/10/1
f 273/4/1 274/3/1 275/9/1 276/10/1
f 277/8/1 278/7/1 279/11/1 280/12/1
f 281/8/1 282/7/1 283/11/1 284/12/1
f 285/4/1 286/3/1 287/9/1 288/10/1
f 289/4/1 290/3/1 291/9/1 292/10/1
f 293/4/1 294/3/1 295/9/1 296/10/1
f 297/4/1 298/3/1 299/9/1 300/10/1
f 301/4/1 302/3/1 303/9/1 304/10/1
f 305/4/1 306/3/1 307/9/1 308/10/1
f 309/4/1 310/3/1 311/9/1 312/10/1
f 313/4/1 314/3/1 315/9/1 316/10/1
f 317/4/1 318/3/1 319/9/1 320/10/1
f 321/4/1 322/3/1 323/9/1 324/10/1
f 325/4/1 326/3/1 327/9/1 328/10/1
f 329/4/1 330/3/1 331/9/1 332/10/1
f 333/4/1 334/3/1 335/9/1 336/10/1
f 337/4/1 338/3/1 339/9/1 340/10/1
f 341/4/1 342/3/1 343/9/1 344/10/1
f 345/4/1 346/3/1 347/9/1 348/10/1
f 349/4/1 350/3/1 351/9/1 352/10/1
f 353/4/1 354/3/1 355/9/1 356/10/1
f 357/4/1 358/3/1 359/9/1 360/10/1
f 361/4/1 362/3/1 363/9/1 364/10/1
f 365/4/1 366/3/1 367/9/1 368/10/1
f 369/4/1 370/3/1 371/9/1 372/10/1
f 373/4/1 374/3/1 375/9/1 376/10/1
f 377/4/1 378/3/1 379/9/1 380/10/1
f 381/4/1 382/3/1 383/9/1 384/10/1
f 385/4/1 386/3/1 387/9/1 388/10/1
f 389/4/1 390/3/1 391/9/1 392/10/1
f 393/4/1 394/3/1 395/9/1 396/10/1
f 397/4/1 398/3/1 399/9/1 400/10/1
f 401/4/1 402/3/1 403/9/1 404/10/1
f 405/4/1 406/3/1 407/9/1 408/10/1
f 409/4/1 410/3/1 411/9/1 412/10/1
f 413/4/1 414/3/1 415/9/1 416/10/1
f 417/4/1 418/3/1 419/9/1 420/10/1
f 421/4/1 422/3/1 423/9/1 424/10/1
f 425/4/1 426/3/1 427/9/1 428/10/1
f 429/4/1 430/3/1 431/9/1 432/10/1
f 433/4/1 434/3/1 435/9/1 436/10/1
f 437/4/1 438/3/1 439/9/1 440/10/1
f 441/4/1 442/3/1 443/9/1 444/10/1
f 445/4/1 446/3/1 447/9/1 448/10/1
f 449/4/1 450/3/1 451/9/1 452/10/1
f 453/4/1 454/3/1 455/9/1 456/10/1
f 457/4/1 458/3/1 459/9/1 460/10/1
f 461/4/1 462/3/1 463/9/1 464/10/1
f 465/4/1 466/3/1 467/9/1 468/10/1
f 469/4/1 470/3/1 471/9/1 472/10/1
f 473/4/1 474/3/1 475/9/1 476/10/1
f 477/4/1 478/3/1 479/9/1 480/10/1
f 481/4/1 482/3/1 483/9/1 484/10/1
f 485/4/1 486/3/1 487/9/1 488/10/1
f 489/4/1 490/3/1 491/9/1 492/10/1
f 493/4/1 494/3/1 495/9/1 496/10/1
f 497/4/1 498/3/1 499/9/1 500/10/1
f 501/4/1 502/3/1 503/9/1 504/10/1
f 505/4/1 506/3/1 507/9/1 508/10/1
f 509/4/1 510/3/1 511/9/1 512/10/1
f 513/4/1 514/3/1 515/9/1 516/10/1
f 517/4/1 518/3/1 519/9/1 520/10/1
f 521/4/1 522/3/1 523/9/1 524/10/1
f 525/4/1 526/3/1 527/9/1 528/10/1
f 529/4/1 530/3/1 531/9/1 532/10/1
f 533/4/1 534/3/1 535/9/1 536/10/1
f 537/4/1 538/3/1 539/9/1 540/10/1
f 541/4/1 542/3/1 543/9/1 544/10/1
f 545/4/1 546/3/1 547/9/1 548/10/1
f 549/4/1 550/3/1 551/9/1 552/10/1
f 553/4/1 554/3/1 555/9/1 556/10/1
f 557/4/1 558/3/1 559/9/1 560/10/1
f 561/4/1 562/3/1 563/9/1 564/10/1
f 565/4/1 566/3/1 567/9/1 568/10/1
f 569/4/1 570/3/1 571/9/1 572/10/1
f 573/4/1 574/3/1 575/9/1 576/10/1
f 577/4/1 578/3/1 579/9/1 580/10/1
f 581/4/1 582/3/1 583/9/1 584/10/1
f 585/4/1 586/3/1 587/9/1 588/10/1
f 589/4/1 590/3/1 591/9/1 592/10/1
f 593/4/1 594/3/1 595/9/1 596/10/1
f 597/4/1 598/3/1 599/9/1 600/10/1
f 601/4/1 602/3/1 603/9/1 604/10/1
f 605/4/1 606/3/1 607/9/1 608/10/1
f 609/4/1 610/3/1 611/9/1 612/10/1
f 613/4/1 614/3/1 615/9/1 616/10/1
f 617/4/1 618/3/1 619/9/1 620/10/1
f 621/4/1 622/3/1 623/9/1 624/10/1
f 625/4/1 626/3/1 627/9/1 628/10/1
f 629/4/1 630/3/1 631/9/1 632/10/1
f 633/4/1 634/3/1 635/9/1 636/10/1
f 637/4/1 638/3/1 639/9/1 640/10/1
f 641/4/1 642/3/1 643/9/1 644/10/1
f 645/4/1 646/3/1 647/9/1 648/10/1
f 649/4/1 650/3/1 651/9/1 652/10/1
f 653/4/1 654/3/1 655/9/1 656/10/1
f 657/4/1 658/3/1 659/9/1 660/10/1
f 661/4/1 662/3/1 663/9/1 664/10/1
f 665/4/1 666/3/1 667/9/1 668/10/1
f 669/4/1 670/3/1 671/9/1 672/10/1
f 673/4/1 674/3/1 675/9/1 676/10/1
f 677/4/1 678/3/1 679/9/1 680/10/1
f 681/4/1 682/3/1 683/9/1 684/10/1
f 685/4/1 686/3/1 687/9/1 688/10/1
f 689/4/1 690/3/1 691/9/1 692/10/1
f 693/4/1 694/3/1 695/9/1 696/10/1
f 697/4/1 698/3/1 699/9/1 700/10/1
f 701/4/1 702/3/1 703/9/1 704/10/1
f 705/4/1 706/3/1 707/9/1 708/10/1
f 709/4/1 710/3/1 711/9/1 712/10/1
f 713/4/1 714/3/1 715/9/1 716/10/1
f 717/4/1 718/3/1 719/9/1 720/10/1
f 721/4/1 722/3/1 723/9/1 724/10/1
f 725/4/1 726/3/1 727/9/1 728/10/1
f 729/4/1 730/3/1 731/9/1 732/10/1
f 733/4/1 734/3/1 735/9/1 736/10/1
f 737/4/1 738/3/1 739/9/1 740/10/1
f 741/4/1 742/3/1 743/9/1 744/10/1
f 745/4/1 746/3/1 747/9/1 748/10/1
f 749/4/1 750/3/1 751/9/1 752/10/1
f 753/4/1 754/3/1 755/9/1 756/10/1
f 757/4/1 758/3/1 759/9/1 760/10/1

