# Tiled2Unity generated file. Do not modify by hand.
# Wavefront file for 'Map_mesh_0066.obj'

# Vertices (Count = 28)
v -128 -39.2 0
v -128.8 -39.2 0
v -128.8 -38.4 0
v -128 -38.4 0
v -126.4 -39.2 0
v -127.2 -39.2 0
v -127.2 -38.4 0
v -126.4 -38.4 0
v -124.8 -39.2 0
v -125.6 -39.2 0
v -125.6 -38.4 0
v -124.8 -38.4 0
v -122.4 -39.2 0
v -123.2 -39.2 0
v -123.2 -38.4 0
v -122.4 -38.4 0
v -120.8 -39.2 0
v -121.6 -39.2 0
v -121.6 -38.4 0
v -120.8 -38.4 0
v -110.4 -39.2 0
v -111.2 -39.2 0
v -111.2 -38.4 0
v -110.4 -38.4 0
v -108.8 -39.2 0
v -109.6 -39.2 0
v -109.6 -38.4 0
v -108.8 -38.4 0

# Texture cooridinates (Count = 4)
vt 0 0
vt 1 0
vt 1 1
vt 0 1

# Normal
vn 0 0 -1

# Mesh description
g Map_mesh_0066

# Faces
f 1/1/1 2/2/1 3/3/1 4/4/1
f 5/1/1 6/2/1 7/3/1 8/4/1
f 9/1/1 10/2/1 11/3/1 12/4/1
f 13/1/1 14/2/1 15/3/1 16/4/1
f 17/1/1 18/2/1 19/3/1 20/4/1
f 21/1/1 22/2/1 23/3/1 24/4/1
f 25/1/1 26/2/1 27/3/1 28/4/1

