# Tiled2Unity generated file. Do not modify by hand.
# Wavefront file for 'Map_mesh_0061.obj'

# Vertices (Count = 20)
v -238.4 -26.4 0
v -240 -26.4 0
v -240 -25.6 0
v -238.4 -25.6 0
v -236.8 -26.4 0
v -238.4 -26.4 0
v -238.4 -25.6 0
v -236.8 -25.6 0
v -235.2 -26.4 0
v -236.8 -26.4 0
v -236.8 -25.6 0
v -235.2 -25.6 0
v -233.6 -26.4 0
v -235.2 -26.4 0
v -235.2 -25.6 0
v -233.6 -25.6 0
v -232 -26.4 0
v -233.6 -26.4 0
v -233.6 -25.6 0
v -232 -25.6 0

# Texture cooridinates (Count = 4)
vt 0 0.5
vt 0.3333333 0.5
vt 0.3333333 1
vt 0 1

# Normal
vn 0 0 -1

# Mesh description
g Map_mesh_0061

# Faces
f 1/1/1 2/2/1 3/3/1 4/4/1
f 5/1/1 6/2/1 7/3/1 8/4/1
f 9/1/1 10/2/1 11/3/1 12/4/1
f 13/1/1 14/2/1 15/3/1 16/4/1
f 17/1/1 18/2/1 19/3/1 20/4/1

