# Tiled2Unity generated file. Do not modify by hand.
# Wavefront file for 'Map_mesh_0076.obj'

# Vertices (Count = 52)
v -151.2 -41.6 0
v -152 -41.6 0
v -152 -40.8 0
v -151.2 -40.8 0
v -150.4 -41.6 0
v -151.2 -41.6 0
v -151.2 -40.8 0
v -150.4 -40.8 0
v -149.6 -41.6 0
v -150.4 -41.6 0
v -150.4 -40.8 0
v -149.6 -40.8 0
v -148.8 -41.6 0
v -149.6 -41.6 0
v -149.6 -40.8 0
v -148.8 -40.8 0
v -147.2 -41.6 0
v -148 -41.6 0
v -148 -40.8 0
v -147.2 -40.8 0
v -146.4 -41.6 0
v -147.2 -41.6 0
v -147.2 -40.8 0
v -146.4 -40.8 0
v -145.6 -41.6 0
v -146.4 -41.6 0
v -146.4 -40.8 0
v -145.6 -40.8 0
v -138.4 -41.6 0
v -139.2 -41.6 0
v -139.2 -40.8 0
v -138.4 -40.8 0
v -137.6 -41.6 0
v -138.4 -41.6 0
v -138.4 -40.8 0
v -137.6 -40.8 0
v -136.8 -41.6 0
v -137.6 -41.6 0
v -137.6 -40.8 0
v -136.8 -40.8 0
v -136 -41.6 0
v -136.8 -41.6 0
v -136.8 -40.8 0
v -136 -40.8 0
v -134.4 -41.6 0
v -135.2 -41.6 0
v -135.2 -40.8 0
v -134.4 -40.8 0
v -133.6 -41.6 0
v -134.4 -41.6 0
v -134.4 -40.8 0
v -133.6 -40.8 0

# Texture cooridinates (Count = 4)
vt 0 0
vt 1 0
vt 1 1
vt 0 1

# Normal
vn 0 0 -1

# Mesh description
g Map_mesh_0076

# Faces
f 1/1/1 2/2/1 3/3/1 4/4/1
f 5/1/1 6/2/1 7/3/1 8/4/1
f 9/1/1 10/2/1 11/3/1 12/4/1
f 13/1/1 14/2/1 15/3/1 16/4/1
f 17/1/1 18/2/1 19/3/1 20/4/1
f 21/1/1 22/2/1 23/3/1 24/4/1
f 25/1/1 26/2/1 27/3/1 28/4/1
f 29/1/1 30/2/1 31/3/1 32/4/1
f 33/1/1 34/2/1 35/3/1 36/4/1
f 37/1/1 38/2/1 39/3/1 40/4/1
f 41/1/1 42/2/1 43/3/1 44/4/1
f 45/1/1 46/2/1 47/3/1 48/4/1
f 49/1/1 50/2/1 51/3/1 52/4/1

