# Tiled2Unity generated file. Do not modify by hand.
# Wavefront file for 'Map_mesh_0029.obj'

# Vertices (Count = 56)
v -47.2 -40 0
v -48.8 -40 0
v -48.8 -39.2 0
v -47.2 -39.2 0
v -45.6 -40 0
v -47.2 -40 0
v -47.2 -39.2 0
v -45.6 -39.2 0
v -44 -40 0
v -45.6 -40 0
v -45.6 -39.2 0
v -44 -39.2 0
v -42.4 -40 0
v -44 -40 0
v -44 -39.2 0
v -42.4 -39.2 0
v -40.8 -40 0
v -42.4 -40 0
v -42.4 -39.2 0
v -40.8 -39.2 0
v -39.2 -40 0
v -40.8 -40 0
v -40.8 -39.2 0
v -39.2 -39.2 0
v -37.6 -40 0
v -39.2 -40 0
v -39.2 -39.2 0
v -37.6 -39.2 0
v -36 -40 0
v -37.6 -40 0
v -37.6 -39.2 0
v -36 -39.2 0
v -34.4 -40 0
v -36 -40 0
v -36 -39.2 0
v -34.4 -39.2 0
v -32.8 -40 0
v -34.4 -40 0
v -34.4 -39.2 0
v -32.8 -39.2 0
v -7.2 -40 0
v -8.8 -40 0
v -8.8 -39.2 0
v -7.2 -39.2 0
v -4.8 -40 0
v -6.4 -40 0
v -6.4 -39.2 0
v -4.8 -39.2 0
v -2.4 -40 0
v -4 -40 0
v -4 -39.2 0
v -2.4 -39.2 0
v 0 -40 0
v -1.6 -40 0
v -1.6 -39.2 0
v 0 -39.2 0

# Texture cooridinates (Count = 6)
vt 0 0
vt 0.3333333 0
vt 0.3333333 0.5
vt 0 0.5
vt 0.3333333 1
vt 0 1

# Normal
vn 0 0 -1

# Mesh description
g Map_mesh_0029

# Faces
f 1/1/1 2/2/1 3/3/1 4/4/1
f 5/1/1 6/2/1 7/3/1 8/4/1
f 9/4/1 10/3/1 11/5/1 12/6/1
f 13/4/1 14/3/1 15/5/1 16/6/1
f 17/4/1 18/3/1 19/5/1 20/6/1
f 21/1/1 22/2/1 23/3/1 24/4/1
f 25/1/1 26/2/1 27/3/1 28/4/1
f 29/1/1 30/2/1 31/3/1 32/4/1
f 33/4/1 34/3/1 35/5/1 36/6/1
f 37/4/1 38/3/1 39/5/1 40/6/1
f 41/1/1 42/2/1 43/3/1 44/4/1
f 45/1/1 46/2/1 47/3/1 48/4/1
f 49/1/1 50/2/1 51/3/1 52/4/1
f 53/1/1 54/2/1 55/3/1 56/4/1

