# Tiled2Unity generated file. Do not modify by hand.
# Wavefront file for 'Map_mesh_0023.obj'

# Vertices (Count = 16)
v -66.4 -51.2 0
v -67.2 -51.2 0
v -67.2 -50.4 0
v -66.4 -50.4 0
v -72.8 -48 0
v -73.6 -48 0
v -73.6 -47.2 0
v -72.8 -47.2 0
v -61.6 -46.4 0
v -62.4 -46.4 0
v -62.4 -45.6 0
v -61.6 -45.6 0
v -84.8 -44.8 0
v -85.6 -44.8 0
v -85.6 -44 0
v -84.8 -44 0

# Texture cooridinates (Count = 4)
vt 0 0
vt 1 0
vt 1 1
vt 0 1

# Normal
vn 0 0 -1

# Mesh description
g Map_mesh_0023

# Faces
f 1/1/1 2/2/1 3/3/1 4/4/1
f 5/1/1 6/2/1 7/3/1 8/4/1
f 9/1/1 10/2/1 11/3/1 12/4/1
f 13/1/1 14/2/1 15/3/1 16/4/1

