# Tiled2Unity generated file. Do not modify by hand.
# Wavefront file for 'Map_mesh_0041.obj'

# Vertices (Count = 484)
v -144.8 -42.4 0
v -145.6 -42.4 0
v -145.6 -41.6 0
v -144.8 -41.6 0
v -139.2 -42.4 0
v -140 -42.4 0
v -140 -41.6 0
v -139.2 -41.6 0
v -144.8 -41.6 0
v -145.6 -41.6 0
v -145.6 -40.8 0
v -144.8 -40.8 0
v -139.2 -41.6 0
v -140 -41.6 0
v -140 -40.8 0
v -139.2 -40.8 0
v -144.8 -40.8 0
v -145.6 -40.8 0
v -145.6 -40 0
v -144.8 -40 0
v -139.2 -40.8 0
v -140 -40.8 0
v -140 -40 0
v -139.2 -40 0
v -144.8 -40 0
v -145.6 -40 0
v -145.6 -39.2 0
v -144.8 -39.2 0
v -139.2 -40 0
v -140 -40 0
v -140 -39.2 0
v -139.2 -39.2 0
v -72.8 -40 0
v -73.6 -40 0
v -73.6 -39.2 0
v -72.8 -39.2 0
v -144.8 -39.2 0
v -145.6 -39.2 0
v -145.6 -38.4 0
v -144.8 -38.4 0
v -139.2 -39.2 0
v -140 -39.2 0
v -140 -38.4 0
v -139.2 -38.4 0
v -72.8 -39.2 0
v -73.6 -39.2 0
v -73.6 -38.4 0
v -72.8 -38.4 0
v -56 -39.2 0
v -56.8 -39.2 0
v -56.8 -38.4 0
v -56 -38.4 0
v -144.8 -38.4 0
v -145.6 -38.4 0
v -145.6 -37.6 0
v -144.8 -37.6 0
v -139.2 -38.4 0
v -140 -38.4 0
v -140 -37.6 0
v -139.2 -37.6 0
v -72.8 -38.4 0
v -73.6 -38.4 0
v -73.6 -37.6 0
v -72.8 -37.6 0
v -64 -38.4 0
v -64.8 -38.4 0
v -64.8 -37.6 0
v -64 -37.6 0
v -56 -38.4 0
v -56.8 -38.4 0
v -56.8 -37.6 0
v -56 -37.6 0
v -11.2 -38.4 0
v -12 -38.4 0
v -12 -37.6 0
v -11.2 -37.6 0
v -144.8 -37.6 0
v -145.6 -37.6 0
v -145.6 -36.8 0
v -144.8 -36.8 0
v -139.2 -37.6 0
v -140 -37.6 0
v -140 -36.8 0
v -139.2 -36.8 0
v -72.8 -37.6 0
v -73.6 -37.6 0
v -73.6 -36.8 0
v -72.8 -36.8 0
v -64 -37.6 0
v -64.8 -37.6 0
v -64.8 -36.8 0
v -64 -36.8 0
v -56 -37.6 0
v -56.8 -37.6 0
v -56.8 -36.8 0
v -56 -36.8 0
v -11.2 -37.6 0
v -12 -37.6 0
v -12 -36.8 0
v -11.2 -36.8 0
v -144.8 -36.8 0
v -145.6 -36.8 0
v -145.6 -36 0
v -144.8 -36 0
v -139.2 -36.8 0
v -140 -36.8 0
v -140 -36 0
v -139.2 -36 0
v -72.8 -36.8 0
v -73.6 -36.8 0
v -73.6 -36 0
v -72.8 -36 0
v -64 -36.8 0
v -64.8 -36.8 0
v -64.8 -36 0
v -64 -36 0
v -56 -36.8 0
v -56.8 -36.8 0
v -56.8 -36 0
v -56 -36 0
v -12 -36.8 0
v -12.8 -36.8 0
v -12.8 -36 0
v -12 -36 0
v -11.2 -36.8 0
v -12 -36.8 0
v -12 -36 0
v -11.2 -36 0
v -144.8 -36 0
v -145.6 -36 0
v -145.6 -35.2 0
v -144.8 -35.2 0
v -139.2 -36 0
v -140 -36 0
v -140 -35.2 0
v -139.2 -35.2 0
v -72.8 -36 0
v -73.6 -36 0
v -73.6 -35.2 0
v -72.8 -35.2 0
v -64 -36 0
v -64.8 -36 0
v -64.8 -35.2 0
v -64 -35.2 0
v -56 -36 0
v -56.8 -36 0
v -56.8 -35.2 0
v -56 -35.2 0
v -12 -36 0
v -12.8 -36 0
v -12.8 -35.2 0
v -12 -35.2 0
v -11.2 -36 0
v -12 -36 0
v -12 -35.2 0
v -11.2 -35.2 0
v -144.8 -35.2 0
v -145.6 -35.2 0
v -145.6 -34.4 0
v -144.8 -34.4 0
v -139.2 -35.2 0
v -140 -35.2 0
v -140 -34.4 0
v -139.2 -34.4 0
v -72.8 -35.2 0
v -73.6 -35.2 0
v -73.6 -34.4 0
v -72.8 -34.4 0
v -64 -35.2 0
v -64.8 -35.2 0
v -64.8 -34.4 0
v -64 -34.4 0
v -12 -35.2 0
v -12.8 -35.2 0
v -12.8 -34.4 0
v -12 -34.4 0
v -11.2 -35.2 0
v -12 -35.2 0
v -12 -34.4 0
v -11.2 -34.4 0
v -144.8 -34.4 0
v -145.6 -34.4 0
v -145.6 -33.6 0
v -144.8 -33.6 0
v -139.2 -34.4 0
v -140 -34.4 0
v -140 -33.6 0
v -139.2 -33.6 0
v -92 -34.4 0
v -92.8 -34.4 0
v -92.8 -33.6 0
v -92 -33.6 0
v -72.8 -34.4 0
v -73.6 -34.4 0
v -73.6 -33.6 0
v -72.8 -33.6 0
v -64 -34.4 0
v -64.8 -34.4 0
v -64.8 -33.6 0
v -64 -33.6 0
v -12 -34.4 0
v -12.8 -34.4 0
v -12.8 -33.6 0
v -12 -33.6 0
v -11.2 -34.4 0
v -12 -34.4 0
v -12 -33.6 0
v -11.2 -33.6 0
v -144.8 -33.6 0
v -145.6 -33.6 0
v -145.6 -32.8 0
v -144.8 -32.8 0
v -139.2 -33.6 0
v -140 -33.6 0
v -140 -32.8 0
v -139.2 -32.8 0
v -92 -33.6 0
v -92.8 -33.6 0
v -92.8 -32.8 0
v -92 -32.8 0
v -72.8 -33.6 0
v -73.6 -33.6 0
v -73.6 -32.8 0
v -72.8 -32.8 0
v -12 -33.6 0
v -12.8 -33.6 0
v -12.8 -32.8 0
v -12 -32.8 0
v -11.2 -33.6 0
v -12 -33.6 0
v -12 -32.8 0
v -11.2 -32.8 0
v -92 -32.8 0
v -92.8 -32.8 0
v -92.8 -32 0
v -92 -32 0
v -72.8 -32.8 0
v -73.6 -32.8 0
v -73.6 -32 0
v -72.8 -32 0
v -12 -32.8 0
v -12.8 -32.8 0
v -12.8 -32 0
v -12 -32 0
v -11.2 -32.8 0
v -12 -32.8 0
v -12 -32 0
v -11.2 -32 0
v -92 -32 0
v -92.8 -32 0
v -92.8 -31.2 0
v -92 -31.2 0
v -72.8 -32 0
v -73.6 -32 0
v -73.6 -31.2 0
v -72.8 -31.2 0
v -12 -32 0
v -12.8 -32 0
v -12.8 -31.2 0
v -12 -31.2 0
v -11.2 -32 0
v -12 -32 0
v -12 -31.2 0
v -11.2 -31.2 0
v -92 -31.2 0
v -92.8 -31.2 0
v -92.8 -30.4 0
v -92 -30.4 0
v -12 -31.2 0
v -12.8 -31.2 0
v -12.8 -30.4 0
v -12 -30.4 0
v -11.2 -31.2 0
v -12 -31.2 0
v -12 -30.4 0
v -11.2 -30.4 0
v -92 -30.4 0
v -92.8 -30.4 0
v -92.8 -29.6 0
v -92 -29.6 0
v -12 -30.4 0
v -12.8 -30.4 0
v -12.8 -29.6 0
v -12 -29.6 0
v -11.2 -30.4 0
v -12 -30.4 0
v -12 -29.6 0
v -11.2 -29.6 0
v -92 -29.6 0
v -92.8 -29.6 0
v -92.8 -28.8 0
v -92 -28.8 0
v -12 -29.6 0
v -12.8 -29.6 0
v -12.8 -28.8 0
v -12 -28.8 0
v -11.2 -29.6 0
v -12 -29.6 0
v -12 -28.8 0
v -11.2 -28.8 0
v -12 -28.8 0
v -12.8 -28.8 0
v -12.8 -28 0
v -12 -28 0
v -11.2 -28.8 0
v -12 -28.8 0
v -12 -28 0
v -11.2 -28 0
v -92.8 -28 0
v -93.6 -28 0
v -93.6 -27.2 0
v -92.8 -27.2 0
v -84 -28 0
v -84.8 -28 0
v -84.8 -27.2 0
v -84 -27.2 0
v -12 -28 0
v -12.8 -28 0
v -12.8 -27.2 0
v -12 -27.2 0
v -11.2 -28 0
v -12 -28 0
v -12 -27.2 0
v -11.2 -27.2 0
v -92.8 -27.2 0
v -93.6 -27.2 0
v -93.6 -26.4 0
v -92.8 -26.4 0
v -84 -27.2 0
v -84.8 -27.2 0
v -84.8 -26.4 0
v -84 -26.4 0
v -12 -27.2 0
v -12.8 -27.2 0
v -12.8 -26.4 0
v -12 -26.4 0
v -11.2 -27.2 0
v -12 -27.2 0
v -12 -26.4 0
v -11.2 -26.4 0
v -92.8 -26.4 0
v -93.6 -26.4 0
v -93.6 -25.6 0
v -92.8 -25.6 0
v -84 -26.4 0
v -84.8 -26.4 0
v -84.8 -25.6 0
v -84 -25.6 0
v -12 -26.4 0
v -12.8 -26.4 0
v -12.8 -25.6 0
v -12 -25.6 0
v -11.2 -26.4 0
v -12 -26.4 0
v -12 -25.6 0
v -11.2 -25.6 0
v -92.8 -25.6 0
v -93.6 -25.6 0
v -93.6 -24.8 0
v -92.8 -24.8 0
v -84 -25.6 0
v -84.8 -25.6 0
v -84.8 -24.8 0
v -84 -24.8 0
v -116 -24.8 0
v -116.8 -24.8 0
v -116.8 -24 0
v -116 -24 0
v -112 -24.8 0
v -112.8 -24.8 0
v -112.8 -24 0
v -112 -24 0
v -105.6 -24.8 0
v -106.4 -24.8 0
v -106.4 -24 0
v -105.6 -24 0
v -100 -24.8 0
v -100.8 -24.8 0
v -100.8 -24 0
v -100 -24 0
v -92.8 -24.8 0
v -93.6 -24.8 0
v -93.6 -24 0
v -92.8 -24 0
v -84 -24.8 0
v -84.8 -24.8 0
v -84.8 -24 0
v -84 -24 0
v -116 -24 0
v -116.8 -24 0
v -116.8 -23.2 0
v -116 -23.2 0
v -112 -24 0
v -112.8 -24 0
v -112.8 -23.2 0
v -112 -23.2 0
v -105.6 -24 0
v -106.4 -24 0
v -106.4 -23.2 0
v -105.6 -23.2 0
v -100 -24 0
v -100.8 -24 0
v -100.8 -23.2 0
v -100 -23.2 0
v -92.8 -24 0
v -93.6 -24 0
v -93.6 -23.2 0
v -92.8 -23.2 0
v -84 -24 0
v -84.8 -24 0
v -84.8 -23.2 0
v -84 -23.2 0
v -116 -23.2 0
v -116.8 -23.2 0
v -116.8 -22.4 0
v -116 -22.4 0
v -112 -23.2 0
v -112.8 -23.2 0
v -112.8 -22.4 0
v -112 -22.4 0
v -105.6 -23.2 0
v -106.4 -23.2 0
v -106.4 -22.4 0
v -105.6 -22.4 0
v -100 -23.2 0
v -100.8 -23.2 0
v -100.8 -22.4 0
v -100 -22.4 0
v -92.8 -23.2 0
v -93.6 -23.2 0
v -93.6 -22.4 0
v -92.8 -22.4 0
v -84 -23.2 0
v -84.8 -23.2 0
v -84.8 -22.4 0
v -84 -22.4 0
v -116 -22.4 0
v -116.8 -22.4 0
v -116.8 -21.6 0
v -116 -21.6 0
v -112 -22.4 0
v -112.8 -22.4 0
v -112.8 -21.6 0
v -112 -21.6 0
v -105.6 -22.4 0
v -106.4 -22.4 0
v -106.4 -21.6 0
v -105.6 -21.6 0
v -100 -22.4 0
v -100.8 -22.4 0
v -100.8 -21.6 0
v -100 -21.6 0
v -116 -21.6 0
v -116.8 -21.6 0
v -116.8 -20.8 0
v -116 -20.8 0
v -112 -21.6 0
v -112.8 -21.6 0
v -112.8 -20.8 0
v -112 -20.8 0
v -105.6 -21.6 0
v -106.4 -21.6 0
v -106.4 -20.8 0
v -105.6 -20.8 0
v -100 -21.6 0
v -100.8 -21.6 0
v -100.8 -20.8 0
v -100 -20.8 0
v -116 -20.8 0
v -116.8 -20.8 0
v -116.8 -20 0
v -116 -20 0
v -112 -20.8 0
v -112.8 -20.8 0
v -112.8 -20 0
v -112 -20 0
v -116 -20 0
v -116.8 -20 0
v -116.8 -19.2 0
v -116 -19.2 0
v -112 -20 0
v -112.8 -20 0
v -112.8 -19.2 0
v -112 -19.2 0

# Texture cooridinates (Count = 27)
vt 0.2222222 0
vt 0.3333333 0
vt 0.3333333 0.3333333
vt 0.2222222 0.3333333
vt 0.3333333 0.6666666
vt 0.2222222 0.6666666
vt 0.7777778 0
vt 0.8888889 0
vt 0.8888889 0.3333333
vt 0.7777778 0.3333333
vt 0.8888889 0.6666666
vt 0.7777778 0.6666666
vt 0 0
vt 0.1111111 0
vt 0.1111111 0.3333333
vt 0 0.3333333
vt 0.1111111 0.6666666
vt 0 0.6666666
vt 0.4444444 0.3333333
vt 0.5555556 0.3333333
vt 0.5555556 0.6666666
vt 0.4444444 0.6666666
vt 0.2222222 1
vt 0.1111111 1
vt 0 1
vt 0.6666667 0.3333333
vt 0.6666667 0.6666666

# Normal
vn 0 0 -1

# Mesh description
g Map_mesh_0041

# Faces
f 1/1/1 2/2/1 3/3/1 4/4/1
f 5/1/1 6/2/1 7/3/1 8/4/1
f 9/4/1 10/3/1 11/5/1 12/6/1
f 13/4/1 14/3/1 15/5/1 16/6/1
f 17/4/1 18/3/1 19/5/1 20/6/1
f 21/4/1 22/3/1 23/5/1 24/6/1
f 25/4/1 26/3/1 27/5/1 28/6/1
f 29/4/1 30/3/1 31/5/1 32/6/1
f 33/7/1 34/8/1 35/9/1 36/10/1
f 37/4/1 38/3/1 39/5/1 40/6/1
f 41/4/1 42/3/1 43/5/1 44/6/1
f 45/10/1 46/9/1 47/11/1 48/12/1
f 49/7/1 50/8/1 51/9/1 52/10/1
f 53/4/1 54/3/1 55/5/1 56/6/1
f 57/4/1 58/3/1 59/5/1 60/6/1
f 61/10/1 62/9/1 63/11/1 64/12/1
f 65/7/1 66/8/1 67/9/1 68/10/1
f 69/10/1 70/9/1 71/11/1 72/12/1
f 73/13/1 74/14/1 75/15/1 76/16/1
f 77/4/1 78/3/1 79/5/1 80/6/1
f 81/4/1 82/3/1 83/5/1 84/6/1
f 85/10/1 86/9/1 87/11/1 88/12/1
f 89/10/1 90/9/1 91/11/1 92/12/1
f 93/10/1 94/9/1 95/11/1 96/12/1
f 97/16/1 98/15/1 99/17/1 100/18/1
f 101/4/1 102/3/1 103/5/1 104/6/1
f 105/4/1 106/3/1 107/5/1 108/6/1
f 109/10/1 110/9/1 111/11/1 112/12/1
f 113/10/1 114/9/1 115/11/1 116/12/1
f 117/10/1 118/9/1 119/11/1 120/12/1
f 121/15/1 122/4/1 123/6/1 124/17/1
f 125/16/1 126/15/1 127/17/1 128/18/1
f 129/4/1 130/3/1 131/5/1 132/6/1
f 133/4/1 134/3/1 135/5/1 136/6/1
f 137/10/1 138/9/1 139/11/1 140/12/1
f 141/10/1 142/9/1 143/11/1 144/12/1
f 145/10/1 146/9/1 147/11/1 148/12/1
f 149/15/1 150/4/1 151/6/1 152/17/1
f 153/16/1 154/15/1 155/17/1 156/18/1
f 157/4/1 158/3/1 159/5/1 160/6/1
f 161/4/1 162/3/1 163/5/1 164/6/1
f 165/10/1 166/9/1 167/11/1 168/12/1
f 169/10/1 170/9/1 171/11/1 172/12/1
f 173/15/1 174/4/1 175/6/1 176/17/1
f 177/16/1 178/15/1 179/17/1 180/18/1
f 181/4/1 182/3/1 183/5/1 184/6/1
f 185/4/1 186/3/1 187/5/1 188/6/1
f 189/19/1 190/20/1 191/21/1 192/22/1
f 193/10/1 194/9/1 195/11/1 196/12/1
f 197/10/1 198/9/1 199/11/1 200/12/1
f 201/15/1 202/4/1 203/6/1 204/17/1
f 205/16/1 206/15/1 207/17/1 208/18/1
f 209/4/1 210/3/1 211/5/1 212/6/1
f 213/4/1 214/3/1 215/5/1 216/6/1
f 217/19/1 218/20/1 219/21/1 220/22/1
f 221/10/1 222/9/1 223/11/1 224/12/1
f 225/15/1 226/4/1 227/6/1 228/17/1
f 229/16/1 230/15/1 231/17/1 232/18/1
f 233/19/1 234/20/1 235/21/1 236/22/1
f 237/10/1 238/9/1 239/11/1 240/12/1
f 241/15/1 242/4/1 243/6/1 244/17/1
f 245/16/1 246/15/1 247/17/1 248/18/1
f 249/19/1 250/20/1 251/21/1 252/22/1
f 253/10/1 254/9/1 255/11/1 256/12/1
f 257/15/1 258/4/1 259/6/1 260/17/1
f 261/16/1 262/15/1 263/17/1 264/18/1
f 265/19/1 266/20/1 267/21/1 268/22/1
f 269/15/1 270/4/1 271/6/1 272/17/1
f 273/16/1 274/15/1 275/17/1 276/18/1
f 277/19/1 278/20/1 279/21/1 280/22/1
f 281/15/1 282/4/1 283/6/1 284/17/1
f 285/16/1 286/15/1 287/17/1 288/18/1
f 289/19/1 290/20/1 291/21/1 292/22/1
f 293/15/1 294/4/1 295/6/1 296/17/1
f 297/16/1 298/15/1 299/17/1 300/18/1
f 301/14/1 302/1/1 303/4/1 304/15/1
f 305/16/1 306/15/1 307/17/1 308/18/1
f 309/19/1 310/20/1 311/21/1 312/22/1
f 313/19/1 314/20/1 315/21/1 316/22/1
f 317/17/1 318/6/1 319/23/1 320/24/1
f 321/16/1 322/15/1 323/17/1 324/18/1
f 325/19/1 326/20/1 327/21/1 328/22/1
f 329/19/1 330/20/1 331/21/1 332/22/1
f 333/17/1 334/6/1 335/23/1 336/24/1
f 337/16/1 338/15/1 339/17/1 340/18/1
f 341/19/1 342/20/1 343/21/1 344/22/1
f 345/19/1 346/20/1 347/21/1 348/22/1
f 349/17/1 350/6/1 351/23/1 352/24/1
f 353/18/1 354/17/1 355/24/1 356/25/1
f 357/19/1 358/20/1 359/21/1 360/22/1
f 361/19/1 362/20/1 363/21/1 364/22/1
f 365/26/1 366/10/1 367/12/1 368/27/1
f 369/26/1 370/10/1 371/12/1 372/27/1
f 373/26/1 374/10/1 375/12/1 376/27/1
f 377/26/1 378/10/1 379/12/1 380/27/1
f 381/19/1 382/20/1 383/21/1 384/22/1
f 385/19/1 386/20/1 387/21/1 388/22/1
f 389/26/1 390/10/1 391/12/1 392/27/1
f 393/26/1 394/10/1 395/12/1 396/27/1
f 397/26/1 398/10/1 399/12/1 400/27/1
f 401/26/1 402/10/1 403/12/1 404/27/1
f 405/19/1 406/20/1 407/21/1 408/22/1
f 409/19/1 410/20/1 411/21/1 412/22/1
f 413/26/1 414/10/1 415/12/1 416/27/1
f 417/26/1 418/10/1 419/12/1 420/27/1
f 421/26/1 422/10/1 423/12/1 424/27/1
f 425/26/1 426/10/1 427/12/1 428/27/1
f 429/19/1 430/20/1 431/21/1 432/22/1
f 433/19/1 434/20/1 435/21/1 436/22/1
f 437/26/1 438/10/1 439/12/1 440/27/1
f 441/26/1 442/10/1 443/12/1 444/27/1
f 445/26/1 446/10/1 447/12/1 448/27/1
f 449/26/1 450/10/1 451/12/1 452/27/1
f 453/26/1 454/10/1 455/12/1 456/27/1
f 457/26/1 458/10/1 459/12/1 460/27/1
f 461/26/1 462/10/1 463/12/1 464/27/1
f 465/26/1 466/10/1 467/12/1 468/27/1
f 469/26/1 470/10/1 471/12/1 472/27/1
f 473/26/1 474/10/1 475/12/1 476/27/1
f 477/26/1 478/10/1 479/12/1 480/27/1
f 481/26/1 482/10/1 483/12/1 484/27/1

