# Tiled2Unity generated file. Do not modify by hand.
# Wavefront file for 'Map_mesh_0002.obj'

# Vertices (Count = 788)
v -77.6 -40 0
v -78.4 -40 0
v -78.4 -39.2 0
v -77.6 -39.2 0
v -77.6 -38.4 0
v -78.4 -38.4 0
v -78.4 -37.6 0
v -77.6 -37.6 0
v -76.8 -38.4 0
v -77.6 -38.4 0
v -77.6 -37.6 0
v -76.8 -37.6 0
v -62.4 -38.4 0
v -63.2 -38.4 0
v -63.2 -37.6 0
v -62.4 -37.6 0
v -60.8 -38.4 0
v -61.6 -38.4 0
v -61.6 -37.6 0
v -60.8 -37.6 0
v -60 -38.4 0
v -60.8 -38.4 0
v -60.8 -37.6 0
v -60 -37.6 0
v -59.2 -38.4 0
v -60 -38.4 0
v -60 -37.6 0
v -59.2 -37.6 0
v -75.2 -37.6 0
v -76 -37.6 0
v -76 -36.8 0
v -75.2 -36.8 0
v -74.4 -37.6 0
v -75.2 -37.6 0
v -75.2 -36.8 0
v -74.4 -36.8 0
v -72 -37.6 0
v -72.8 -37.6 0
v -72.8 -36.8 0
v -72 -36.8 0
v -71.2 -37.6 0
v -72 -37.6 0
v -72 -36.8 0
v -71.2 -36.8 0
v -70.4 -37.6 0
v -71.2 -37.6 0
v -71.2 -36.8 0
v -70.4 -36.8 0
v -69.6 -37.6 0
v -70.4 -37.6 0
v -70.4 -36.8 0
v -69.6 -36.8 0
v -68.8 -37.6 0
v -69.6 -37.6 0
v -69.6 -36.8 0
v -68.8 -36.8 0
v -68 -37.6 0
v -68.8 -37.6 0
v -68.8 -36.8 0
v -68 -36.8 0
v -60.8 -37.6 0
v -61.6 -37.6 0
v -61.6 -36.8 0
v -60.8 -36.8 0
v -60 -37.6 0
v -60.8 -37.6 0
v -60.8 -36.8 0
v -60 -36.8 0
v -76 -36.8 0
v -76.8 -36.8 0
v -76.8 -36 0
v -76 -36 0
v -75.2 -36.8 0
v -76 -36.8 0
v -76 -36 0
v -75.2 -36 0
v -74.4 -36.8 0
v -75.2 -36.8 0
v -75.2 -36 0
v -74.4 -36 0
v -73.6 -36.8 0
v -74.4 -36.8 0
v -74.4 -36 0
v -73.6 -36 0
v -71.2 -36.8 0
v -72 -36.8 0
v -72 -36 0
v -71.2 -36 0
v -70.4 -36.8 0
v -71.2 -36.8 0
v -71.2 -36 0
v -70.4 -36 0
v -69.6 -36.8 0
v -70.4 -36.8 0
v -70.4 -36 0
v -69.6 -36 0
v -68.8 -36.8 0
v -69.6 -36.8 0
v -69.6 -36 0
v -68.8 -36 0
v -58.4 -36.8 0
v -59.2 -36.8 0
v -59.2 -36 0
v -58.4 -36 0
v -77.6 -36 0
v -78.4 -36 0
v -78.4 -35.2 0
v -77.6 -35.2 0
v -74.4 -36 0
v -75.2 -36 0
v -75.2 -35.2 0
v -74.4 -35.2 0
v -73.6 -36 0
v -74.4 -36 0
v -74.4 -35.2 0
v -73.6 -35.2 0
v -69.6 -36 0
v -70.4 -36 0
v -70.4 -35.2 0
v -69.6 -35.2 0
v -68.8 -36 0
v -69.6 -36 0
v -69.6 -35.2 0
v -68.8 -35.2 0
v -77.6 -35.2 0
v -78.4 -35.2 0
v -78.4 -34.4 0
v -77.6 -34.4 0
v -76.8 -35.2 0
v -77.6 -35.2 0
v -77.6 -34.4 0
v -76.8 -34.4 0
v -75.2 -35.2 0
v -76 -35.2 0
v -76 -34.4 0
v -75.2 -34.4 0
v -74.4 -35.2 0
v -75.2 -35.2 0
v -75.2 -34.4 0
v -74.4 -34.4 0
v -73.6 -35.2 0
v -74.4 -35.2 0
v -74.4 -34.4 0
v -73.6 -34.4 0
v -72.8 -35.2 0
v -73.6 -35.2 0
v -73.6 -34.4 0
v -72.8 -34.4 0
v -72 -35.2 0
v -72.8 -35.2 0
v -72.8 -34.4 0
v -72 -34.4 0
v -71.2 -35.2 0
v -72 -35.2 0
v -72 -34.4 0
v -71.2 -34.4 0
v -68.8 -35.2 0
v -69.6 -35.2 0
v -69.6 -34.4 0
v -68.8 -34.4 0
v -68 -35.2 0
v -68.8 -35.2 0
v -68.8 -34.4 0
v -68 -34.4 0
v -60.8 -35.2 0
v -61.6 -35.2 0
v -61.6 -34.4 0
v -60.8 -34.4 0
v -59.2 -35.2 0
v -60 -35.2 0
v -60 -34.4 0
v -59.2 -34.4 0
v -77.6 -34.4 0
v -78.4 -34.4 0
v -78.4 -33.6 0
v -77.6 -33.6 0
v -76.8 -34.4 0
v -77.6 -34.4 0
v -77.6 -33.6 0
v -76.8 -33.6 0
v -76 -34.4 0
v -76.8 -34.4 0
v -76.8 -33.6 0
v -76 -33.6 0
v -74.4 -34.4 0
v -75.2 -34.4 0
v -75.2 -33.6 0
v -74.4 -33.6 0
v -73.6 -34.4 0
v -74.4 -34.4 0
v -74.4 -33.6 0
v -73.6 -33.6 0
v -72.8 -34.4 0
v -73.6 -34.4 0
v -73.6 -33.6 0
v -72.8 -33.6 0
v -72 -34.4 0
v -72.8 -34.4 0
v -72.8 -33.6 0
v -72 -33.6 0
v -71.2 -34.4 0
v -72 -34.4 0
v -72 -33.6 0
v -71.2 -33.6 0
v -70.4 -34.4 0
v -71.2 -34.4 0
v -71.2 -33.6 0
v -70.4 -33.6 0
v -63.2 -34.4 0
v -64 -34.4 0
v -64 -33.6 0
v -63.2 -33.6 0
v -62.4 -34.4 0
v -63.2 -34.4 0
v -63.2 -33.6 0
v -62.4 -33.6 0
v -60 -34.4 0
v -60.8 -34.4 0
v -60.8 -33.6 0
v -60 -33.6 0
v -59.2 -34.4 0
v -60 -34.4 0
v -60 -33.6 0
v -59.2 -33.6 0
v -77.6 -33.6 0
v -78.4 -33.6 0
v -78.4 -32.8 0
v -77.6 -32.8 0
v -76.8 -33.6 0
v -77.6 -33.6 0
v -77.6 -32.8 0
v -76.8 -32.8 0
v -76 -33.6 0
v -76.8 -33.6 0
v -76.8 -32.8 0
v -76 -32.8 0
v -73.6 -33.6 0
v -74.4 -33.6 0
v -74.4 -32.8 0
v -73.6 -32.8 0
v -72.8 -33.6 0
v -73.6 -33.6 0
v -73.6 -32.8 0
v -72.8 -32.8 0
v -72 -33.6 0
v -72.8 -33.6 0
v -72.8 -32.8 0
v -72 -32.8 0
v -71.2 -33.6 0
v -72 -33.6 0
v -72 -32.8 0
v -71.2 -32.8 0
v -70.4 -33.6 0
v -71.2 -33.6 0
v -71.2 -32.8 0
v -70.4 -32.8 0
v -69.6 -33.6 0
v -70.4 -33.6 0
v -70.4 -32.8 0
v -69.6 -32.8 0
v -59.2 -33.6 0
v -60 -33.6 0
v -60 -32.8 0
v -59.2 -32.8 0
v -57.6 -33.6 0
v -58.4 -33.6 0
v -58.4 -32.8 0
v -57.6 -32.8 0
v -56.8 -33.6 0
v -57.6 -33.6 0
v -57.6 -32.8 0
v -56.8 -32.8 0
v -77.6 -32.8 0
v -78.4 -32.8 0
v -78.4 -32 0
v -77.6 -32 0
v -76.8 -32.8 0
v -77.6 -32.8 0
v -77.6 -32 0
v -76.8 -32 0
v -73.6 -32.8 0
v -74.4 -32.8 0
v -74.4 -32 0
v -73.6 -32 0
v -72 -32.8 0
v -72.8 -32.8 0
v -72.8 -32 0
v -72 -32 0
v -71.2 -32.8 0
v -72 -32.8 0
v -72 -32 0
v -71.2 -32 0
v -69.6 -32.8 0
v -70.4 -32.8 0
v -70.4 -32 0
v -69.6 -32 0
v -68.8 -32.8 0
v -69.6 -32.8 0
v -69.6 -32 0
v -68.8 -32 0
v -65.6 -32.8 0
v -66.4 -32.8 0
v -66.4 -32 0
v -65.6 -32 0
v -64.8 -32.8 0
v -65.6 -32.8 0
v -65.6 -32 0
v -64.8 -32 0
v -63.2 -32.8 0
v -64 -32.8 0
v -64 -32 0
v -63.2 -32 0
v -56.8 -32.8 0
v -57.6 -32.8 0
v -57.6 -32 0
v -56.8 -32 0
v -77.6 -32 0
v -78.4 -32 0
v -78.4 -31.2 0
v -77.6 -31.2 0
v -75.2 -32 0
v -76 -32 0
v -76 -31.2 0
v -75.2 -31.2 0
v -63.2 -32 0
v -64 -32 0
v -64 -31.2 0
v -63.2 -31.2 0
v -62.4 -32 0
v -63.2 -32 0
v -63.2 -31.2 0
v -62.4 -31.2 0
v -77.6 -31.2 0
v -78.4 -31.2 0
v -78.4 -30.4 0
v -77.6 -30.4 0
v -76 -31.2 0
v -76.8 -31.2 0
v -76.8 -30.4 0
v -76 -30.4 0
v -69.6 -31.2 0
v -70.4 -31.2 0
v -70.4 -30.4 0
v -69.6 -30.4 0
v -68.8 -31.2 0
v -69.6 -31.2 0
v -69.6 -30.4 0
v -68.8 -30.4 0
v -77.6 -30.4 0
v -78.4 -30.4 0
v -78.4 -29.6 0
v -77.6 -29.6 0
v -76.8 -30.4 0
v -77.6 -30.4 0
v -77.6 -29.6 0
v -76.8 -29.6 0
v -76 -30.4 0
v -76.8 -30.4 0
v -76.8 -29.6 0
v -76 -29.6 0
v -74.4 -30.4 0
v -75.2 -30.4 0
v -75.2 -29.6 0
v -74.4 -29.6 0
v -73.6 -30.4 0
v -74.4 -30.4 0
v -74.4 -29.6 0
v -73.6 -29.6 0
v -72 -30.4 0
v -72.8 -30.4 0
v -72.8 -29.6 0
v -72 -29.6 0
v -71.2 -30.4 0
v -72 -30.4 0
v -72 -29.6 0
v -71.2 -29.6 0
v -70.4 -30.4 0
v -71.2 -30.4 0
v -71.2 -29.6 0
v -70.4 -29.6 0
v -77.6 -29.6 0
v -78.4 -29.6 0
v -78.4 -28.8 0
v -77.6 -28.8 0
v -76.8 -29.6 0
v -77.6 -29.6 0
v -77.6 -28.8 0
v -76.8 -28.8 0
v -76 -29.6 0
v -76.8 -29.6 0
v -76.8 -28.8 0
v -76 -28.8 0
v -75.2 -29.6 0
v -76 -29.6 0
v -76 -28.8 0
v -75.2 -28.8 0
v -74.4 -29.6 0
v -75.2 -29.6 0
v -75.2 -28.8 0
v -74.4 -28.8 0
v -73.6 -29.6 0
v -74.4 -29.6 0
v -74.4 -28.8 0
v -73.6 -28.8 0
v -72.8 -29.6 0
v -73.6 -29.6 0
v -73.6 -28.8 0
v -72.8 -28.8 0
v -72 -29.6 0
v -72.8 -29.6 0
v -72.8 -28.8 0
v -72 -28.8 0
v -71.2 -29.6 0
v -72 -29.6 0
v -72 -28.8 0
v -71.2 -28.8 0
v -70.4 -29.6 0
v -71.2 -29.6 0
v -71.2 -28.8 0
v -70.4 -28.8 0
v -69.6 -29.6 0
v -70.4 -29.6 0
v -70.4 -28.8 0
v -69.6 -28.8 0
v -68.8 -29.6 0
v -69.6 -29.6 0
v -69.6 -28.8 0
v -68.8 -28.8 0
v -68 -29.6 0
v -68.8 -29.6 0
v -68.8 -28.8 0
v -68 -28.8 0
v -67.2 -29.6 0
v -68 -29.6 0
v -68 -28.8 0
v -67.2 -28.8 0
v -66.4 -29.6 0
v -67.2 -29.6 0
v -67.2 -28.8 0
v -66.4 -28.8 0
v -65.6 -29.6 0
v -66.4 -29.6 0
v -66.4 -28.8 0
v -65.6 -28.8 0
v -64.8 -29.6 0
v -65.6 -29.6 0
v -65.6 -28.8 0
v -64.8 -28.8 0
v -64 -29.6 0
v -64.8 -29.6 0
v -64.8 -28.8 0
v -64 -28.8 0
v -63.2 -29.6 0
v -64 -29.6 0
v -64 -28.8 0
v -63.2 -28.8 0
v -62.4 -29.6 0
v -63.2 -29.6 0
v -63.2 -28.8 0
v -62.4 -28.8 0
v -61.6 -29.6 0
v -62.4 -29.6 0
v -62.4 -28.8 0
v -61.6 -28.8 0
v -60.8 -29.6 0
v -61.6 -29.6 0
v -61.6 -28.8 0
v -60.8 -28.8 0
v -60 -29.6 0
v -60.8 -29.6 0
v -60.8 -28.8 0
v -60 -28.8 0
v -59.2 -29.6 0
v -60 -29.6 0
v -60 -28.8 0
v -59.2 -28.8 0
v -58.4 -29.6 0
v -59.2 -29.6 0
v -59.2 -28.8 0
v -58.4 -28.8 0
v -77.6 -28.8 0
v -78.4 -28.8 0
v -78.4 -28 0
v -77.6 -28 0
v -76.8 -28.8 0
v -77.6 -28.8 0
v -77.6 -28 0
v -76.8 -28 0
v -76 -28.8 0
v -76.8 -28.8 0
v -76.8 -28 0
v -76 -28 0
v -75.2 -28.8 0
v -76 -28.8 0
v -76 -28 0
v -75.2 -28 0
v -74.4 -28.8 0
v -75.2 -28.8 0
v -75.2 -28 0
v -74.4 -28 0
v -73.6 -28.8 0
v -74.4 -28.8 0
v -74.4 -28 0
v -73.6 -28 0
v -72.8 -28.8 0
v -73.6 -28.8 0
v -73.6 -28 0
v -72.8 -28 0
v -72 -28.8 0
v -72.8 -28.8 0
v -72.8 -28 0
v -72 -28 0
v -71.2 -28.8 0
v -72 -28.8 0
v -72 -28 0
v -71.2 -28 0
v -70.4 -28.8 0
v -71.2 -28.8 0
v -71.2 -28 0
v -70.4 -28 0
v -69.6 -28.8 0
v -70.4 -28.8 0
v -70.4 -28 0
v -69.6 -28 0
v -68.8 -28.8 0
v -69.6 -28.8 0
v -69.6 -28 0
v -68.8 -28 0
v -68 -28.8 0
v -68.8 -28.8 0
v -68.8 -28 0
v -68 -28 0
v -67.2 -28.8 0
v -68 -28.8 0
v -68 -28 0
v -67.2 -28 0
v -66.4 -28.8 0
v -67.2 -28.8 0
v -67.2 -28 0
v -66.4 -28 0
v -65.6 -28.8 0
v -66.4 -28.8 0
v -66.4 -28 0
v -65.6 -28 0
v -64.8 -28.8 0
v -65.6 -28.8 0
v -65.6 -28 0
v -64.8 -28 0
v -64 -28.8 0
v -64.8 -28.8 0
v -64.8 -28 0
v -64 -28 0
v -63.2 -28.8 0
v -64 -28.8 0
v -64 -28 0
v -63.2 -28 0
v -62.4 -28.8 0
v -63.2 -28.8 0
v -63.2 -28 0
v -62.4 -28 0
v -61.6 -28.8 0
v -62.4 -28.8 0
v -62.4 -28 0
v -61.6 -28 0
v -60.8 -28.8 0
v -61.6 -28.8 0
v -61.6 -28 0
v -60.8 -28 0
v -60 -28.8 0
v -60.8 -28.8 0
v -60.8 -28 0
v -60 -28 0
v -59.2 -28.8 0
v -60 -28.8 0
v -60 -28 0
v -59.2 -28 0
v -58.4 -28.8 0
v -59.2 -28.8 0
v -59.2 -28 0
v -58.4 -28 0
v -77.6 -28 0
v -78.4 -28 0
v -78.4 -27.2 0
v -77.6 -27.2 0
v -76.8 -28 0
v -77.6 -28 0
v -77.6 -27.2 0
v -76.8 -27.2 0
v -76 -28 0
v -76.8 -28 0
v -76.8 -27.2 0
v -76 -27.2 0
v -75.2 -28 0
v -76 -28 0
v -76 -27.2 0
v -75.2 -27.2 0
v -74.4 -28 0
v -75.2 -28 0
v -75.2 -27.2 0
v -74.4 -27.2 0
v -73.6 -28 0
v -74.4 -28 0
v -74.4 -27.2 0
v -73.6 -27.2 0
v -72.8 -28 0
v -73.6 -28 0
v -73.6 -27.2 0
v -72.8 -27.2 0
v -72 -28 0
v -72.8 -28 0
v -72.8 -27.2 0
v -72 -27.2 0
v -71.2 -28 0
v -72 -28 0
v -72 -27.2 0
v -71.2 -27.2 0
v -70.4 -28 0
v -71.2 -28 0
v -71.2 -27.2 0
v -70.4 -27.2 0
v -69.6 -28 0
v -70.4 -28 0
v -70.4 -27.2 0
v -69.6 -27.2 0
v -68.8 -28 0
v -69.6 -28 0
v -69.6 -27.2 0
v -68.8 -27.2 0
v -68 -28 0
v -68.8 -28 0
v -68.8 -27.2 0
v -68 -27.2 0
v -65.6 -28 0
v -66.4 -28 0
v -66.4 -27.2 0
v -65.6 -27.2 0
v -63.2 -28 0
v -64 -28 0
v -64 -27.2 0
v -63.2 -27.2 0
v -62.4 -28 0
v -63.2 -28 0
v -63.2 -27.2 0
v -62.4 -27.2 0
v -77.6 -27.2 0
v -78.4 -27.2 0
v -78.4 -26.4 0
v -77.6 -26.4 0
v -76.8 -27.2 0
v -77.6 -27.2 0
v -77.6 -26.4 0
v -76.8 -26.4 0
v -76 -27.2 0
v -76.8 -27.2 0
v -76.8 -26.4 0
v -76 -26.4 0
v -75.2 -27.2 0
v -76 -27.2 0
v -76 -26.4 0
v -75.2 -26.4 0
v -74.4 -27.2 0
v -75.2 -27.2 0
v -75.2 -26.4 0
v -74.4 -26.4 0
v -73.6 -27.2 0
v -74.4 -27.2 0
v -74.4 -26.4 0
v -73.6 -26.4 0
v -72.8 -27.2 0
v -73.6 -27.2 0
v -73.6 -26.4 0
v -72.8 -26.4 0
v -72 -27.2 0
v -72.8 -27.2 0
v -72.8 -26.4 0
v -72 -26.4 0
v -71.2 -27.2 0
v -72 -27.2 0
v -72 -26.4 0
v -71.2 -26.4 0
v -70.4 -27.2 0
v -71.2 -27.2 0
v -71.2 -26.4 0
v -70.4 -26.4 0
v -69.6 -27.2 0
v -70.4 -27.2 0
v -70.4 -26.4 0
v -69.6 -26.4 0
v -68.8 -27.2 0
v -69.6 -27.2 0
v -69.6 -26.4 0
v -68.8 -26.4 0
v -68 -27.2 0
v -68.8 -27.2 0
v -68.8 -26.4 0
v -68 -26.4 0
v -77.6 -26.4 0
v -78.4 -26.4 0
v -78.4 -25.6 0
v -77.6 -25.6 0
v -76.8 -26.4 0
v -77.6 -26.4 0
v -77.6 -25.6 0
v -76.8 -25.6 0
v -76 -26.4 0
v -76.8 -26.4 0
v -76.8 -25.6 0
v -76 -25.6 0
v -75.2 -26.4 0
v -76 -26.4 0
v -76 -25.6 0
v -75.2 -25.6 0
v -74.4 -26.4 0
v -75.2 -26.4 0
v -75.2 -25.6 0
v -74.4 -25.6 0
v -73.6 -26.4 0
v -74.4 -26.4 0
v -74.4 -25.6 0
v -73.6 -25.6 0
v -72.8 -26.4 0
v -73.6 -26.4 0
v -73.6 -25.6 0
v -72.8 -25.6 0
v -72 -26.4 0
v -72.8 -26.4 0
v -72.8 -25.6 0
v -72 -25.6 0
v -71.2 -26.4 0
v -72 -26.4 0
v -72 -25.6 0
v -71.2 -25.6 0
v -70.4 -26.4 0
v -71.2 -26.4 0
v -71.2 -25.6 0
v -70.4 -25.6 0
v -77.6 -25.6 0
v -78.4 -25.6 0
v -78.4 -24.8 0
v -77.6 -24.8 0
v -76.8 -25.6 0
v -77.6 -25.6 0
v -77.6 -24.8 0
v -76.8 -24.8 0
v -76 -25.6 0
v -76.8 -25.6 0
v -76.8 -24.8 0
v -76 -24.8 0
v -75.2 -25.6 0
v -76 -25.6 0
v -76 -24.8 0
v -75.2 -24.8 0
v -74.4 -25.6 0
v -75.2 -25.6 0
v -75.2 -24.8 0
v -74.4 -24.8 0
v -73.6 -25.6 0
v -74.4 -25.6 0
v -74.4 -24.8 0
v -73.6 -24.8 0
v -72.8 -25.6 0
v -73.6 -25.6 0
v -73.6 -24.8 0
v -72.8 -24.8 0
v -77.6 -24.8 0
v -78.4 -24.8 0
v -78.4 -24 0
v -77.6 -24 0
v -76.8 -24.8 0
v -77.6 -24.8 0
v -77.6 -24 0
v -76.8 -24 0
v -76 -24.8 0
v -76.8 -24.8 0
v -76.8 -24 0
v -76 -24 0
v -75.2 -24.8 0
v -76 -24.8 0
v -76 -24 0
v -75.2 -24 0
v -74.4 -24.8 0
v -75.2 -24.8 0
v -75.2 -24 0
v -74.4 -24 0
v -73.6 -24.8 0
v -74.4 -24.8 0
v -74.4 -24 0
v -73.6 -24 0

# Texture cooridinates (Count = 8)
vt 0.4545455 0.1666667
vt 0.5454546 0.1666667
vt 0.5454546 0.25
vt 0.4545455 0.25
vt 0.09090909 0.3333333
vt 0.1818182 0.3333333
vt 0.1818182 0.4166667
vt 0.09090909 0.4166667

# Normal
vn 0 0 -1

# Mesh description
g Map_mesh_0002

# Faces
f 1/1/1 2/2/1 3/3/1 4/4/1
f 5/1/1 6/2/1 7/3/1 8/4/1
f 9/1/1 10/2/1 11/3/1 12/4/1
f 13/5/1 14/6/1 15/7/1 16/8/1
f 17/5/1 18/6/1 19/7/1 20/8/1
f 21/5/1 22/6/1 23/7/1 24/8/1
f 25/5/1 26/6/1 27/7/1 28/8/1
f 29/1/1 30/2/1 31/3/1 32/4/1
f 33/1/1 34/2/1 35/3/1 36/4/1
f 37/1/1 38/2/1 39/3/1 40/4/1
f 41/1/1 42/2/1 43/3/1 44/4/1
f 45/1/1 46/2/1 47/3/1 48/4/1
f 49/1/1 50/2/1 51/3/1 52/4/1
f 53/1/1 54/2/1 55/3/1 56/4/1
f 57/1/1 58/2/1 59/3/1 60/4/1
f 61/5/1 62/6/1 63/7/1 64/8/1
f 65/5/1 66/6/1 67/7/1 68/8/1
f 69/1/1 70/2/1 71/3/1 72/4/1
f 73/1/1 74/2/1 75/3/1 76/4/1
f 77/1/1 78/2/1 79/3/1 80/4/1
f 81/1/1 82/2/1 83/3/1 84/4/1
f 85/1/1 86/2/1 87/3/1 88/4/1
f 89/1/1 90/2/1 91/3/1 92/4/1
f 93/1/1 94/2/1 95/3/1 96/4/1
f 97/1/1 98/2/1 99/3/1 100/4/1
f 101/5/1 102/6/1 103/7/1 104/8/1
f 105/1/1 106/2/1 107/3/1 108/4/1
f 109/1/1 110/2/1 111/3/1 112/4/1
f 113/1/1 114/2/1 115/3/1 116/4/1
f 117/1/1 118/2/1 119/3/1 120/4/1
f 121/1/1 122/2/1 123/3/1 124/4/1
f 125/1/1 126/2/1 127/3/1 128/4/1
f 129/1/1 130/2/1 131/3/1 132/4/1
f 133/1/1 134/2/1 135/3/1 136/4/1
f 137/1/1 138/2/1 139/3/1 140/4/1
f 141/1/1 142/2/1 143/3/1 144/4/1
f 145/1/1 146/2/1 147/3/1 148/4/1
f 149/1/1 150/2/1 151/3/1 152/4/1
f 153/1/1 154/2/1 155/3/1 156/4/1
f 157/1/1 158/2/1 159/3/1 160/4/1
f 161/1/1 162/2/1 163/3/1 164/4/1
f 165/5/1 166/6/1 167/7/1 168/8/1
f 169/5/1 170/6/1 171/7/1 172/8/1
f 173/1/1 174/2/1 175/3/1 176/4/1
f 177/1/1 178/2/1 179/3/1 180/4/1
f 181/1/1 182/2/1 183/3/1 184/4/1
f 185/1/1 186/2/1 187/3/1 188/4/1
f 189/1/1 190/2/1 191/3/1 192/4/1
f 193/1/1 194/2/1 195/3/1 196/4/1
f 197/1/1 198/2/1 199/3/1 200/4/1
f 201/1/1 202/2/1 203/3/1 204/4/1
f 205/1/1 206/2/1 207/3/1 208/4/1
f 209/5/1 210/6/1 211/7/1 212/8/1
f 213/5/1 214/6/1 215/7/1 216/8/1
f 217/5/1 218/6/1 219/7/1 220/8/1
f 221/5/1 222/6/1 223/7/1 224/8/1
f 225/1/1 226/2/1 227/3/1 228/4/1
f 229/1/1 230/2/1 231/3/1 232/4/1
f 233/1/1 234/2/1 235/3/1 236/4/1
f 237/1/1 238/2/1 239/3/1 240/4/1
f 241/1/1 242/2/1 243/3/1 244/4/1
f 245/1/1 246/2/1 247/3/1 248/4/1
f 249/1/1 250/2/1 251/3/1 252/4/1
f 253/1/1 254/2/1 255/3/1 256/4/1
f 257/1/1 258/2/1 259/3/1 260/4/1
f 261/5/1 262/6/1 263/7/1 264/8/1
f 265/5/1 266/6/1 267/7/1 268/8/1
f 269/5/1 270/6/1 271/7/1 272/8/1
f 273/1/1 274/2/1 275/3/1 276/4/1
f 277/1/1 278/2/1 279/3/1 280/4/1
f 281/1/1 282/2/1 283/3/1 284/4/1
f 285/1/1 286/2/1 287/3/1 288/4/1
f 289/1/1 290/2/1 291/3/1 292/4/1
f 293/1/1 294/2/1 295/3/1 296/4/1
f 297/1/1 298/2/1 299/3/1 300/4/1
f 301/5/1 302/6/1 303/7/1 304/8/1
f 305/5/1 306/6/1 307/7/1 308/8/1
f 309/5/1 310/6/1 311/7/1 312/8/1
f 313/5/1 314/6/1 315/7/1 316/8/1
f 317/1/1 318/2/1 319/3/1 320/4/1
f 321/1/1 322/2/1 323/3/1 324/4/1
f 325/5/1 326/6/1 327/7/1 328/8/1
f 329/5/1 330/6/1 331/7/1 332/8/1
f 333/1/1 334/2/1 335/3/1 336/4/1
f 337/1/1 338/2/1 339/3/1 340/4/1
f 341/1/1 342/2/1 343/3/1 344/4/1
f 345/1/1 346/2/1 347/3/1 348/4/1
f 349/1/1 350/2/1 351/3/1 352/4/1
f 353/1/1 354/2/1 355/3/1 356/4/1
f 357/1/1 358/2/1 359/3/1 360/4/1
f 361/1/1 362/2/1 363/3/1 364/4/1
f 365/1/1 366/2/1 367/3/1 368/4/1
f 369/1/1 370/2/1 371/3/1 372/4/1
f 373/1/1 374/2/1 375/3/1 376/4/1
f 377/1/1 378/2/1 379/3/1 380/4/1
f 381/1/1 382/2/1 383/3/1 384/4/1
f 385/1/1 386/2/1 387/3/1 388/4/1
f 389/1/1 390/2/1 391/3/1 392/4/1
f 393/1/1 394/2/1 395/3/1 396/4/1
f 397/1/1 398/2/1 399/3/1 400/4/1
f 401/1/1 402/2/1 403/3/1 404/4/1
f 405/1/1 406/2/1 407/3/1 408/4/1
f 409/1/1 410/2/1 411/3/1 412/4/1
f 413/1/1 414/2/1 415/3/1 416/4/1
f 417/1/1 418/2/1 419/3/1 420/4/1
f 421/1/1 422/2/1 423/3/1 424/4/1
f 425/1/1 426/2/1 427/3/1 428/4/1
f 429/1/1 430/2/1 431/3/1 432/4/1
f 433/5/1 434/6/1 435/7/1 436/8/1
f 437/5/1 438/6/1 439/7/1 440/8/1
f 441/5/1 442/6/1 443/7/1 444/8/1
f 445/5/1 446/6/1 447/7/1 448/8/1
f 449/5/1 450/6/1 451/7/1 452/8/1
f 453/5/1 454/6/1 455/7/1 456/8/1
f 457/5/1 458/6/1 459/7/1 460/8/1
f 461/5/1 462/6/1 463/7/1 464/8/1
f 465/5/1 466/6/1 467/7/1 468/8/1
f 469/5/1 470/6/1 471/7/1 472/8/1
f 473/5/1 474/6/1 475/7/1 476/8/1
f 477/5/1 478/6/1 479/7/1 480/8/1
f 481/1/1 482/2/1 483/3/1 484/4/1
f 485/1/1 486/2/1 487/3/1 488/4/1
f 489/1/1 490/2/1 491/3/1 492/4/1
f 493/1/1 494/2/1 495/3/1 496/4/1
f 497/1/1 498/2/1 499/3/1 500/4/1
f 501/1/1 502/2/1 503/3/1 504/4/1
f 505/1/1 506/2/1 507/3/1 508/4/1
f 509/1/1 510/2/1 511/3/1 512/4/1
f 513/1/1 514/2/1 515/3/1 516/4/1
f 517/1/1 518/2/1 519/3/1 520/4/1
f 521/1/1 522/2/1 523/3/1 524/4/1
f 525/1/1 526/2/1 527/3/1 528/4/1
f 529/1/1 530/2/1 531/3/1 532/4/1
f 533/5/1 534/6/1 535/7/1 536/8/1
f 537/5/1 538/6/1 539/7/1 540/8/1
f 541/5/1 542/6/1 543/7/1 544/8/1
f 545/5/1 546/6/1 547/7/1 548/8/1
f 549/5/1 550/6/1 551/7/1 552/8/1
f 553/5/1 554/6/1 555/7/1 556/8/1
f 557/5/1 558/6/1 559/7/1 560/8/1
f 561/5/1 562/6/1 563/7/1 564/8/1
f 565/5/1 566/6/1 567/7/1 568/8/1
f 569/5/1 570/6/1 571/7/1 572/8/1
f 573/5/1 574/6/1 575/7/1 576/8/1
f 577/5/1 578/6/1 579/7/1 580/8/1
f 581/1/1 582/2/1 583/3/1 584/4/1
f 585/1/1 586/2/1 587/3/1 588/4/1
f 589/1/1 590/2/1 591/3/1 592/4/1
f 593/1/1 594/2/1 595/3/1 596/4/1
f 597/1/1 598/2/1 599/3/1 600/4/1
f 601/1/1 602/2/1 603/3/1 604/4/1
f 605/1/1 606/2/1 607/3/1 608/4/1
f 609/1/1 610/2/1 611/3/1 612/4/1
f 613/1/1 614/2/1 615/3/1 616/4/1
f 617/1/1 618/2/1 619/3/1 620/4/1
f 621/1/1 622/2/1 623/3/1 624/4/1
f 625/1/1 626/2/1 627/3/1 628/4/1
f 629/1/1 630/2/1 631/3/1 632/4/1
f 633/5/1 634/6/1 635/7/1 636/8/1
f 637/5/1 638/6/1 639/7/1 640/8/1
f 641/5/1 642/6/1 643/7/1 644/8/1
f 645/1/1 646/2/1 647/3/1 648/4/1
f 649/1/1 650/2/1 651/3/1 652/4/1
f 653/1/1 654/2/1 655/3/1 656/4/1
f 657/1/1 658/2/1 659/3/1 660/4/1
f 661/1/1 662/2/1 663/3/1 664/4/1
f 665/1/1 666/2/1 667/3/1 668/4/1
f 669/1/1 670/2/1 671/3/1 672/4/1
f 673/1/1 674/2/1 675/3/1 676/4/1
f 677/1/1 678/2/1 679/3/1 680/4/1
f 681/1/1 682/2/1 683/3/1 684/4/1
f 685/1/1 686/2/1 687/3/1 688/4/1
f 689/1/1 690/2/1 691/3/1 692/4/1
f 693/1/1 694/2/1 695/3/1 696/4/1
f 697/1/1 698/2/1 699/3/1 700/4/1
f 701/1/1 702/2/1 703/3/1 704/4/1
f 705/1/1 706/2/1 707/3/1 708/4/1
f 709/1/1 710/2/1 711/3/1 712/4/1
f 713/1/1 714/2/1 715/3/1 716/4/1
f 717/1/1 718/2/1 719/3/1 720/4/1
f 721/1/1 722/2/1 723/3/1 724/4/1
f 725/1/1 726/2/1 727/3/1 728/4/1
f 729/1/1 730/2/1 731/3/1 732/4/1
f 733/1/1 734/2/1 735/3/1 736/4/1
f 737/1/1 738/2/1 739/3/1 740/4/1
f 741/1/1 742/2/1 743/3/1 744/4/1
f 745/1/1 746/2/1 747/3/1 748/4/1
f 749/1/1 750/2/1 751/3/1 752/4/1
f 753/1/1 754/2/1 755/3/1 756/4/1
f 757/1/1 758/2/1 759/3/1 760/4/1
f 761/1/1 762/2/1 763/3/1 764/4/1
f 765/1/1 766/2/1 767/3/1 768/4/1
f 769/1/1 770/2/1 771/3/1 772/4/1
f 773/1/1 774/2/1 775/3/1 776/4/1
f 777/1/1 778/2/1 779/3/1 780/4/1
f 781/1/1 782/2/1 783/3/1 784/4/1
f 785/1/1 786/2/1 787/3/1 788/4/1

