# Tiled2Unity generated file. Do not modify by hand.
# Wavefront file for 'Map_mesh_0023.obj'

# Vertices (Count = 524)
v -6.4 -30.4 0
v -8 -30.4 0
v -8 -29.6 0
v -6.4 -29.6 0
v -4.8 -30.4 0
v -6.4 -30.4 0
v -6.4 -29.6 0
v -4.8 -29.6 0
v -3.2 -30.4 0
v -4.8 -30.4 0
v -4.8 -29.6 0
v -3.2 -29.6 0
v -1.6 -30.4 0
v -3.2 -30.4 0
v -3.2 -29.6 0
v -1.6 -29.6 0
v 0 -30.4 0
v -1.6 -30.4 0
v -1.6 -29.6 0
v 0 -29.6 0
v -52.8 -28.8 0
v -54.4 -28.8 0
v -54.4 -28 0
v -52.8 -28 0
v -51.2 -28.8 0
v -52.8 -28.8 0
v -52.8 -28 0
v -51.2 -28 0
v -49.6 -28.8 0
v -51.2 -28.8 0
v -51.2 -28 0
v -49.6 -28 0
v -48 -28.8 0
v -49.6 -28.8 0
v -49.6 -28 0
v -48 -28 0
v -46.4 -28.8 0
v -48 -28.8 0
v -48 -28 0
v -46.4 -28 0
v -44.8 -28.8 0
v -46.4 -28.8 0
v -46.4 -28 0
v -44.8 -28 0
v -43.2 -28.8 0
v -44.8 -28.8 0
v -44.8 -28 0
v -43.2 -28 0
v -41.6 -28.8 0
v -43.2 -28.8 0
v -43.2 -28 0
v -41.6 -28 0
v -40 -28.8 0
v -41.6 -28.8 0
v -41.6 -28 0
v -40 -28 0
v -38.4 -28.8 0
v -40 -28.8 0
v -40 -28 0
v -38.4 -28 0
v -36.8 -28.8 0
v -38.4 -28.8 0
v -38.4 -28 0
v -36.8 -28 0
v -35.2 -28.8 0
v -36.8 -28.8 0
v -36.8 -28 0
v -35.2 -28 0
v -33.6 -28.8 0
v -35.2 -28.8 0
v -35.2 -28 0
v -33.6 -28 0
v -32 -28.8 0
v -33.6 -28.8 0
v -33.6 -28 0
v -32 -28 0
v -30.4 -28.8 0
v -32 -28.8 0
v -32 -28 0
v -30.4 -28 0
v -28.8 -28.8 0
v -30.4 -28.8 0
v -30.4 -28 0
v -28.8 -28 0
v -27.2 -28.8 0
v -28.8 -28.8 0
v -28.8 -28 0
v -27.2 -28 0
v -25.6 -28.8 0
v -27.2 -28.8 0
v -27.2 -28 0
v -25.6 -28 0
v -24 -28.8 0
v -25.6 -28.8 0
v -25.6 -28 0
v -24 -28 0
v -22.4 -28.8 0
v -24 -28.8 0
v -24 -28 0
v -22.4 -28 0
v -20.8 -28.8 0
v -22.4 -28.8 0
v -22.4 -28 0
v -20.8 -28 0
v -19.2 -28.8 0
v -20.8 -28.8 0
v -20.8 -28 0
v -19.2 -28 0
v -17.6 -28.8 0
v -19.2 -28.8 0
v -19.2 -28 0
v -17.6 -28 0
v -16 -28.8 0
v -17.6 -28.8 0
v -17.6 -28 0
v -16 -28 0
v -14.4 -28.8 0
v -16 -28.8 0
v -16 -28 0
v -14.4 -28 0
v -53.6 -28 0
v -55.2 -28 0
v -55.2 -27.2 0
v -53.6 -27.2 0
v -52 -28 0
v -53.6 -28 0
v -53.6 -27.2 0
v -52 -27.2 0
v -50.4 -28 0
v -52 -28 0
v -52 -27.2 0
v -50.4 -27.2 0
v -48.8 -28 0
v -50.4 -28 0
v -50.4 -27.2 0
v -48.8 -27.2 0
v -47.2 -28 0
v -48.8 -28 0
v -48.8 -27.2 0
v -47.2 -27.2 0
v -45.6 -28 0
v -47.2 -28 0
v -47.2 -27.2 0
v -45.6 -27.2 0
v -44 -28 0
v -45.6 -28 0
v -45.6 -27.2 0
v -44 -27.2 0
v -42.4 -28 0
v -44 -28 0
v -44 -27.2 0
v -42.4 -27.2 0
v -40.8 -28 0
v -42.4 -28 0
v -42.4 -27.2 0
v -40.8 -27.2 0
v -39.2 -28 0
v -40.8 -28 0
v -40.8 -27.2 0
v -39.2 -27.2 0
v -37.6 -28 0
v -39.2 -28 0
v -39.2 -27.2 0
v -37.6 -27.2 0
v -36 -28 0
v -37.6 -28 0
v -37.6 -27.2 0
v -36 -27.2 0
v -34.4 -28 0
v -36 -28 0
v -36 -27.2 0
v -34.4 -27.2 0
v -32.8 -28 0
v -34.4 -28 0
v -34.4 -27.2 0
v -32.8 -27.2 0
v -31.2 -28 0
v -32.8 -28 0
v -32.8 -27.2 0
v -31.2 -27.2 0
v -29.6 -28 0
v -31.2 -28 0
v -31.2 -27.2 0
v -29.6 -27.2 0
v -28 -28 0
v -29.6 -28 0
v -29.6 -27.2 0
v -28 -27.2 0
v -26.4 -28 0
v -28 -28 0
v -28 -27.2 0
v -26.4 -27.2 0
v -24.8 -28 0
v -26.4 -28 0
v -26.4 -27.2 0
v -24.8 -27.2 0
v -23.2 -28 0
v -24.8 -28 0
v -24.8 -27.2 0
v -23.2 -27.2 0
v -21.6 -28 0
v -23.2 -28 0
v -23.2 -27.2 0
v -21.6 -27.2 0
v -20 -28 0
v -21.6 -28 0
v -21.6 -27.2 0
v -20 -27.2 0
v -18.4 -28 0
v -20 -28 0
v -20 -27.2 0
v -18.4 -27.2 0
v -16.8 -28 0
v -18.4 -28 0
v -18.4 -27.2 0
v -16.8 -27.2 0
v -15.2 -28 0
v -16.8 -28 0
v -16.8 -27.2 0
v -15.2 -27.2 0
v -12 -28 0
v -13.6 -28 0
v -13.6 -27.2 0
v -12 -27.2 0
v -10.4 -28 0
v -12 -28 0
v -12 -27.2 0
v -10.4 -27.2 0
v -8.8 -28 0
v -10.4 -28 0
v -10.4 -27.2 0
v -8.8 -27.2 0
v -7.2 -28 0
v -8.8 -28 0
v -8.8 -27.2 0
v -7.2 -27.2 0
v -5.6 -28 0
v -7.2 -28 0
v -7.2 -27.2 0
v -5.6 -27.2 0
v -4 -28 0
v -5.6 -28 0
v -5.6 -27.2 0
v -4 -27.2 0
v -2.4 -28 0
v -4 -28 0
v -4 -27.2 0
v -2.4 -27.2 0
v -0.8 -28 0
v -2.4 -28 0
v -2.4 -27.2 0
v -0.8 -27.2 0
v -54.4 -27.2 0
v -56 -27.2 0
v -56 -26.4 0
v -54.4 -26.4 0
v -52.8 -27.2 0
v -54.4 -27.2 0
v -54.4 -26.4 0
v -52.8 -26.4 0
v -51.2 -27.2 0
v -52.8 -27.2 0
v -52.8 -26.4 0
v -51.2 -26.4 0
v -49.6 -27.2 0
v -51.2 -27.2 0
v -51.2 -26.4 0
v -49.6 -26.4 0
v -48 -27.2 0
v -49.6 -27.2 0
v -49.6 -26.4 0
v -48 -26.4 0
v -46.4 -27.2 0
v -48 -27.2 0
v -48 -26.4 0
v -46.4 -26.4 0
v -44.8 -27.2 0
v -46.4 -27.2 0
v -46.4 -26.4 0
v -44.8 -26.4 0
v -43.2 -27.2 0
v -44.8 -27.2 0
v -44.8 -26.4 0
v -43.2 -26.4 0
v -41.6 -27.2 0
v -43.2 -27.2 0
v -43.2 -26.4 0
v -41.6 -26.4 0
v -40 -27.2 0
v -41.6 -27.2 0
v -41.6 -26.4 0
v -40 -26.4 0
v -38.4 -27.2 0
v -40 -27.2 0
v -40 -26.4 0
v -38.4 -26.4 0
v -36.8 -27.2 0
v -38.4 -27.2 0
v -38.4 -26.4 0
v -36.8 -26.4 0
v -35.2 -27.2 0
v -36.8 -27.2 0
v -36.8 -26.4 0
v -35.2 -26.4 0
v -33.6 -27.2 0
v -35.2 -27.2 0
v -35.2 -26.4 0
v -33.6 -26.4 0
v -32 -27.2 0
v -33.6 -27.2 0
v -33.6 -26.4 0
v -32 -26.4 0
v -30.4 -27.2 0
v -32 -27.2 0
v -32 -26.4 0
v -30.4 -26.4 0
v -28.8 -27.2 0
v -30.4 -27.2 0
v -30.4 -26.4 0
v -28.8 -26.4 0
v -27.2 -27.2 0
v -28.8 -27.2 0
v -28.8 -26.4 0
v -27.2 -26.4 0
v -25.6 -27.2 0
v -27.2 -27.2 0
v -27.2 -26.4 0
v -25.6 -26.4 0
v -24 -27.2 0
v -25.6 -27.2 0
v -25.6 -26.4 0
v -24 -26.4 0
v -22.4 -27.2 0
v -24 -27.2 0
v -24 -26.4 0
v -22.4 -26.4 0
v -20.8 -27.2 0
v -22.4 -27.2 0
v -22.4 -26.4 0
v -20.8 -26.4 0
v -19.2 -27.2 0
v -20.8 -27.2 0
v -20.8 -26.4 0
v -19.2 -26.4 0
v -17.6 -27.2 0
v -19.2 -27.2 0
v -19.2 -26.4 0
v -17.6 -26.4 0
v -16 -27.2 0
v -17.6 -27.2 0
v -17.6 -26.4 0
v -16 -26.4 0
v -12.8 -27.2 0
v -14.4 -27.2 0
v -14.4 -26.4 0
v -12.8 -26.4 0
v -11.2 -27.2 0
v -12.8 -27.2 0
v -12.8 -26.4 0
v -11.2 -26.4 0
v -9.6 -27.2 0
v -11.2 -27.2 0
v -11.2 -26.4 0
v -9.6 -26.4 0
v -8 -27.2 0
v -9.6 -27.2 0
v -9.6 -26.4 0
v -8 -26.4 0
v -6.4 -27.2 0
v -8 -27.2 0
v -8 -26.4 0
v -6.4 -26.4 0
v -4.8 -27.2 0
v -6.4 -27.2 0
v -6.4 -26.4 0
v -4.8 -26.4 0
v -3.2 -27.2 0
v -4.8 -27.2 0
v -4.8 -26.4 0
v -3.2 -26.4 0
v -1.6 -27.2 0
v -3.2 -27.2 0
v -3.2 -26.4 0
v -1.6 -26.4 0
v 0 -27.2 0
v -1.6 -27.2 0
v -1.6 -26.4 0
v 0 -26.4 0
v -55.2 -26.4 0
v -56.8 -26.4 0
v -56.8 -25.6 0
v -55.2 -25.6 0
v -53.6 -26.4 0
v -55.2 -26.4 0
v -55.2 -25.6 0
v -53.6 -25.6 0
v -52 -26.4 0
v -53.6 -26.4 0
v -53.6 -25.6 0
v -52 -25.6 0
v -50.4 -26.4 0
v -52 -26.4 0
v -52 -25.6 0
v -50.4 -25.6 0
v -48.8 -26.4 0
v -50.4 -26.4 0
v -50.4 -25.6 0
v -48.8 -25.6 0
v -47.2 -26.4 0
v -48.8 -26.4 0
v -48.8 -25.6 0
v -47.2 -25.6 0
v -45.6 -26.4 0
v -47.2 -26.4 0
v -47.2 -25.6 0
v -45.6 -25.6 0
v -44 -26.4 0
v -45.6 -26.4 0
v -45.6 -25.6 0
v -44 -25.6 0
v -42.4 -26.4 0
v -44 -26.4 0
v -44 -25.6 0
v -42.4 -25.6 0
v -40.8 -26.4 0
v -42.4 -26.4 0
v -42.4 -25.6 0
v -40.8 -25.6 0
v -39.2 -26.4 0
v -40.8 -26.4 0
v -40.8 -25.6 0
v -39.2 -25.6 0
v -37.6 -26.4 0
v -39.2 -26.4 0
v -39.2 -25.6 0
v -37.6 -25.6 0
v -36 -26.4 0
v -37.6 -26.4 0
v -37.6 -25.6 0
v -36 -25.6 0
v -34.4 -26.4 0
v -36 -26.4 0
v -36 -25.6 0
v -34.4 -25.6 0
v -32.8 -26.4 0
v -34.4 -26.4 0
v -34.4 -25.6 0
v -32.8 -25.6 0
v -31.2 -26.4 0
v -32.8 -26.4 0
v -32.8 -25.6 0
v -31.2 -25.6 0
v -29.6 -26.4 0
v -31.2 -26.4 0
v -31.2 -25.6 0
v -29.6 -25.6 0
v -28 -26.4 0
v -29.6 -26.4 0
v -29.6 -25.6 0
v -28 -25.6 0
v -26.4 -26.4 0
v -28 -26.4 0
v -28 -25.6 0
v -26.4 -25.6 0
v -24.8 -26.4 0
v -26.4 -26.4 0
v -26.4 -25.6 0
v -24.8 -25.6 0
v -23.2 -26.4 0
v -24.8 -26.4 0
v -24.8 -25.6 0
v -23.2 -25.6 0
v -21.6 -26.4 0
v -23.2 -26.4 0
v -23.2 -25.6 0
v -21.6 -25.6 0
v -20 -26.4 0
v -21.6 -26.4 0
v -21.6 -25.6 0
v -20 -25.6 0
v -18.4 -26.4 0
v -20 -26.4 0
v -20 -25.6 0
v -18.4 -25.6 0
v -16.8 -26.4 0
v -18.4 -26.4 0
v -18.4 -25.6 0
v -16.8 -25.6 0
v -13.6 -26.4 0
v -15.2 -26.4 0
v -15.2 -25.6 0
v -13.6 -25.6 0
v -12 -26.4 0
v -13.6 -26.4 0
v -13.6 -25.6 0
v -12 -25.6 0
v -10.4 -26.4 0
v -12 -26.4 0
v -12 -25.6 0
v -10.4 -25.6 0
v -8.8 -26.4 0
v -10.4 -26.4 0
v -10.4 -25.6 0
v -8.8 -25.6 0
v -7.2 -26.4 0
v -8.8 -26.4 0
v -8.8 -25.6 0
v -7.2 -25.6 0
v -5.6 -26.4 0
v -7.2 -26.4 0
v -7.2 -25.6 0
v -5.6 -25.6 0
v -4 -26.4 0
v -5.6 -26.4 0
v -5.6 -25.6 0
v -4 -25.6 0
v -2.4 -26.4 0
v -4 -26.4 0
v -4 -25.6 0
v -2.4 -25.6 0
v -0.8 -26.4 0
v -2.4 -26.4 0
v -2.4 -25.6 0
v -0.8 -25.6 0

# Texture cooridinates (Count = 6)
vt 0 0.5
vt 0.3333333 0.5
vt 0.3333333 1
vt 0 1
vt 0 0
vt 0.3333333 0

# Normal
vn 0 0 -1

# Mesh description
g Map_mesh_0023

# Faces
f 1/1/1 2/2/1 3/3/1 4/4/1
f 5/1/1 6/2/1 7/3/1 8/4/1
f 9/1/1 10/2/1 11/3/1 12/4/1
f 13/1/1 14/2/1 15/3/1 16/4/1
f 17/1/1 18/2/1 19/3/1 20/4/1
f 21/5/1 22/6/1 23/2/1 24/1/1
f 25/5/1 26/6/1 27/2/1 28/1/1
f 29/5/1 30/6/1 31/2/1 32/1/1
f 33/1/1 34/2/1 35/3/1 36/4/1
f 37/1/1 38/2/1 39/3/1 40/4/1
f 41/5/1 42/6/1 43/2/1 44/1/1
f 45/5/1 46/6/1 47/2/1 48/1/1
f 49/5/1 50/6/1 51/2/1 52/1/1
f 53/1/1 54/2/1 55/3/1 56/4/1
f 57/1/1 58/2/1 59/3/1 60/4/1
f 61/5/1 62/6/1 63/2/1 64/1/1
f 65/5/1 66/6/1 67/2/1 68/1/1
f 69/5/1 70/6/1 71/2/1 72/1/1
f 73/1/1 74/2/1 75/3/1 76/4/1
f 77/1/1 78/2/1 79/3/1 80/4/1
f 81/5/1 82/6/1 83/2/1 84/1/1
f 85/5/1 86/6/1 87/2/1 88/1/1
f 89/5/1 90/6/1 91/2/1 92/1/1
f 93/1/1 94/2/1 95/3/1 96/4/1
f 97/1/1 98/2/1 99/3/1 100/4/1
f 101/5/1 102/6/1 103/2/1 104/1/1
f 105/5/1 106/6/1 107/2/1 108/1/1
f 109/5/1 110/6/1 111/2/1 112/1/1
f 113/5/1 114/6/1 115/2/1 116/1/1
f 117/5/1 118/6/1 119/2/1 120/1/1
f 121/5/1 122/6/1 123/2/1 124/1/1
f 125/5/1 126/6/1 127/2/1 128/1/1
f 129/5/1 130/6/1 131/2/1 132/1/1
f 133/5/1 134/6/1 135/2/1 136/1/1
f 137/1/1 138/2/1 139/3/1 140/4/1
f 141/5/1 142/6/1 143/2/1 144/1/1
f 145/5/1 146/6/1 147/2/1 148/1/1
f 149/5/1 150/6/1 151/2/1 152/1/1
f 153/5/1 154/6/1 155/2/1 156/1/1
f 157/1/1 158/2/1 159/3/1 160/4/1
f 161/5/1 162/6/1 163/2/1 164/1/1
f 165/5/1 166/6/1 167/2/1 168/1/1
f 169/5/1 170/6/1 171/2/1 172/1/1
f 173/5/1 174/6/1 175/2/1 176/1/1
f 177/1/1 178/2/1 179/3/1 180/4/1
f 181/5/1 182/6/1 183/2/1 184/1/1
f 185/5/1 186/6/1 187/2/1 188/1/1
f 189/5/1 190/6/1 191/2/1 192/1/1
f 193/5/1 194/6/1 195/2/1 196/1/1
f 197/1/1 198/2/1 199/3/1 200/4/1
f 201/5/1 202/6/1 203/2/1 204/1/1
f 205/5/1 206/6/1 207/2/1 208/1/1
f 209/5/1 210/6/1 211/2/1 212/1/1
f 213/5/1 214/6/1 215/2/1 216/1/1
f 217/5/1 218/6/1 219/2/1 220/1/1
f 221/1/1 222/2/1 223/3/1 224/4/1
f 225/1/1 226/2/1 227/3/1 228/4/1
f 229/1/1 230/2/1 231/3/1 232/4/1
f 233/1/1 234/2/1 235/3/1 236/4/1
f 237/1/1 238/2/1 239/3/1 240/4/1
f 241/1/1 242/2/1 243/3/1 244/4/1
f 245/1/1 246/2/1 247/3/1 248/4/1
f 249/1/1 250/2/1 251/3/1 252/4/1
f 253/5/1 254/6/1 255/2/1 256/1/1
f 257/5/1 258/6/1 259/2/1 260/1/1
f 261/5/1 262/6/1 263/2/1 264/1/1
f 265/5/1 266/6/1 267/2/1 268/1/1
f 269/1/1 270/2/1 271/3/1 272/4/1
f 273/5/1 274/6/1 275/2/1 276/1/1
f 277/5/1 278/6/1 279/2/1 280/1/1
f 281/5/1 282/6/1 283/2/1 284/1/1
f 285/5/1 286/6/1 287/2/1 288/1/1
f 289/1/1 290/2/1 291/3/1 292/4/1
f 293/5/1 294/6/1 295/2/1 296/1/1
f 297/5/1 298/6/1 299/2/1 300/1/1
f 301/5/1 302/6/1 303/2/1 304/1/1
f 305/5/1 306/6/1 307/2/1 308/1/1
f 309/1/1 310/2/1 311/3/1 312/4/1
f 313/5/1 314/6/1 315/2/1 316/1/1
f 317/5/1 318/6/1 319/2/1 320/1/1
f 321/5/1 322/6/1 323/2/1 324/1/1
f 325/5/1 326/6/1 327/2/1 328/1/1
f 329/1/1 330/2/1 331/3/1 332/4/1
f 333/5/1 334/6/1 335/2/1 336/1/1
f 337/5/1 338/6/1 339/2/1 340/1/1
f 341/5/1 342/6/1 343/2/1 344/1/1
f 345/5/1 346/6/1 347/2/1 348/1/1
f 349/5/1 350/6/1 351/2/1 352/1/1
f 353/5/1 354/6/1 355/2/1 356/1/1
f 357/5/1 358/6/1 359/2/1 360/1/1
f 361/5/1 362/6/1 363/2/1 364/1/1
f 365/5/1 366/6/1 367/2/1 368/1/1
f 369/5/1 370/6/1 371/2/1 372/1/1
f 373/5/1 374/6/1 375/2/1 376/1/1
f 377/5/1 378/6/1 379/2/1 380/1/1
f 381/5/1 382/6/1 383/2/1 384/1/1
f 385/5/1 386/6/1 387/2/1 388/1/1
f 389/5/1 390/6/1 391/2/1 392/1/1
f 393/5/1 394/6/1 395/2/1 396/1/1
f 397/5/1 398/6/1 399/2/1 400/1/1
f 401/5/1 402/6/1 403/2/1 404/1/1
f 405/5/1 406/6/1 407/2/1 408/1/1
f 409/5/1 410/6/1 411/2/1 412/1/1
f 413/5/1 414/6/1 415/2/1 416/1/1
f 417/5/1 418/6/1 419/2/1 420/1/1
f 421/5/1 422/6/1 423/2/1 424/1/1
f 425/5/1 426/6/1 427/2/1 428/1/1
f 429/5/1 430/6/1 431/2/1 432/1/1
f 433/5/1 434/6/1 435/2/1 436/1/1
f 437/5/1 438/6/1 439/2/1 440/1/1
f 441/5/1 442/6/1 443/2/1 444/1/1
f 445/5/1 446/6/1 447/2/1 448/1/1
f 449/5/1 450/6/1 451/2/1 452/1/1
f 453/5/1 454/6/1 455/2/1 456/1/1
f 457/5/1 458/6/1 459/2/1 460/1/1
f 461/5/1 462/6/1 463/2/1 464/1/1
f 465/5/1 466/6/1 467/2/1 468/1/1
f 469/5/1 470/6/1 471/2/1 472/1/1
f 473/5/1 474/6/1 475/2/1 476/1/1
f 477/5/1 478/6/1 479/2/1 480/1/1
f 481/5/1 482/6/1 483/2/1 484/1/1
f 485/5/1 486/6/1 487/2/1 488/1/1
f 489/5/1 490/6/1 491/2/1 492/1/1
f 493/5/1 494/6/1 495/2/1 496/1/1
f 497/5/1 498/6/1 499/2/1 500/1/1
f 501/5/1 502/6/1 503/2/1 504/1/1
f 505/5/1 506/6/1 507/2/1 508/1/1
f 509/5/1 510/6/1 511/2/1 512/1/1
f 513/5/1 514/6/1 515/2/1 516/1/1
f 517/5/1 518/6/1 519/2/1 520/1/1
f 521/5/1 522/6/1 523/2/1 524/1/1

