# Tiled2Unity generated file. Do not modify by hand.
# Wavefront file for 'Map_mesh_0041.obj'

# Vertices (Count = 120)
v -154.4 -62.4 0
v -155.2 -62.4 0
v -155.2 -61.6 0
v -154.4 -61.6 0
v -153.6 -62.4 0
v -154.4 -62.4 0
v -154.4 -61.6 0
v -153.6 -61.6 0
v -152.8 -62.4 0
v -153.6 -62.4 0
v -153.6 -61.6 0
v -152.8 -61.6 0
v -152 -62.4 0
v -152.8 -62.4 0
v -152.8 -61.6 0
v -152 -61.6 0
v -151.2 -62.4 0
v -152 -62.4 0
v -152 -61.6 0
v -151.2 -61.6 0
v -60 -7.2 0
v -60.8 -7.2 0
v -60.8 -6.4 0
v -60 -6.4 0
v -59.2 -7.2 0
v -60 -7.2 0
v -60 -6.4 0
v -59.2 -6.4 0
v -58.4 -7.2 0
v -59.2 -7.2 0
v -59.2 -6.4 0
v -58.4 -6.4 0
v -57.6 -7.2 0
v -58.4 -7.2 0
v -58.4 -6.4 0
v -57.6 -6.4 0
v -56.8 -7.2 0
v -57.6 -7.2 0
v -57.6 -6.4 0
v -56.8 -6.4 0
v -56 -7.2 0
v -56.8 -7.2 0
v -56.8 -6.4 0
v -56 -6.4 0
v -55.2 -7.2 0
v -56 -7.2 0
v -56 -6.4 0
v -55.2 -6.4 0
v -54.4 -7.2 0
v -55.2 -7.2 0
v -55.2 -6.4 0
v -54.4 -6.4 0
v -53.6 -7.2 0
v -54.4 -7.2 0
v -54.4 -6.4 0
v -53.6 -6.4 0
v -52.8 -7.2 0
v -53.6 -7.2 0
v -53.6 -6.4 0
v -52.8 -6.4 0
v -45.6 -7.2 0
v -46.4 -7.2 0
v -46.4 -6.4 0
v -45.6 -6.4 0
v -44.8 -7.2 0
v -45.6 -7.2 0
v -45.6 -6.4 0
v -44.8 -6.4 0
v -44 -7.2 0
v -44.8 -7.2 0
v -44.8 -6.4 0
v -44 -6.4 0
v -43.2 -7.2 0
v -44 -7.2 0
v -44 -6.4 0
v -43.2 -6.4 0
v -42.4 -7.2 0
v -43.2 -7.2 0
v -43.2 -6.4 0
v -42.4 -6.4 0
v -41.6 -7.2 0
v -42.4 -7.2 0
v -42.4 -6.4 0
v -41.6 -6.4 0
v -40.8 -7.2 0
v -41.6 -7.2 0
v -41.6 -6.4 0
v -40.8 -6.4 0
v -40 -7.2 0
v -40.8 -7.2 0
v -40.8 -6.4 0
v -40 -6.4 0
v -39.2 -7.2 0
v -40 -7.2 0
v -40 -6.4 0
v -39.2 -6.4 0
v -38.4 -7.2 0
v -39.2 -7.2 0
v -39.2 -6.4 0
v -38.4 -6.4 0
v -37.6 -7.2 0
v -38.4 -7.2 0
v -38.4 -6.4 0
v -37.6 -6.4 0
v -36.8 -7.2 0
v -37.6 -7.2 0
v -37.6 -6.4 0
v -36.8 -6.4 0
v -36 -7.2 0
v -36.8 -7.2 0
v -36.8 -6.4 0
v -36 -6.4 0
v -35.2 -7.2 0
v -36 -7.2 0
v -36 -6.4 0
v -35.2 -6.4 0
v -34.4 -7.2 0
v -35.2 -7.2 0
v -35.2 -6.4 0
v -34.4 -6.4 0

# Texture cooridinates (Count = 12)
vt 0.625 0
vt 0.75 0
vt 0.75 0.125
vt 0.625 0.125
vt 0 0.875
vt 0.125 0.875
vt 0.125 1
vt 0 1
vt 0.25 0.875
vt 0.25 1
vt 0.375 0.875
vt 0.375 1

# Normal
vn 0 0 -1

# Mesh description
g Map_mesh_0041

# Faces
f 1/1/1 2/2/1 3/3/1 4/4/1
f 5/1/1 6/2/1 7/3/1 8/4/1
f 9/1/1 10/2/1 11/3/1 12/4/1
f 13/1/1 14/2/1 15/3/1 16/4/1
f 17/1/1 18/2/1 19/3/1 20/4/1
f 21/5/1 22/6/1 23/7/1 24/8/1
f 25/5/1 26/6/1 27/7/1 28/8/1
f 29/5/1 30/6/1 31/7/1 32/8/1
f 33/5/1 34/6/1 35/7/1 36/8/1
f 37/5/1 38/6/1 39/7/1 40/8/1
f 41/5/1 42/6/1 43/7/1 44/8/1
f 45/5/1 46/6/1 47/7/1 48/8/1
f 49/5/1 50/6/1 51/7/1 52/8/1
f 53/5/1 54/6/1 55/7/1 56/8/1
f 57/5/1 58/6/1 59/7/1 60/8/1
f 61/6/1 62/9/1 63/10/1 64/7/1
f 65/9/1 66/11/1 67/12/1 68/10/1
f 69/5/1 70/6/1 71/7/1 72/8/1
f 73/5/1 74/6/1 75/7/1 76/8/1
f 77/5/1 78/6/1 79/7/1 80/8/1
f 81/5/1 82/6/1 83/7/1 84/8/1
f 85/5/1 86/6/1 87/7/1 88/8/1
f 89/5/1 90/6/1 91/7/1 92/8/1
f 93/5/1 94/6/1 95/7/1 96/8/1
f 97/5/1 98/6/1 99/7/1 100/8/1
f 101/5/1 102/6/1 103/7/1 104/8/1
f 105/5/1 106/6/1 107/7/1 108/8/1
f 109/5/1 110/6/1 111/7/1 112/8/1
f 113/5/1 114/6/1 115/7/1 116/8/1
f 117/5/1 118/6/1 119/7/1 120/8/1

