# Tiled2Unity generated file. Do not modify by hand.
# Wavefront file for 'Map_mesh_0040.obj'

# Vertices (Count = 868)
v -157.6 -42.4 0
v -158.4 -42.4 0
v -158.4 -41.6 0
v -157.6 -41.6 0
v -152 -42.4 0
v -152.8 -42.4 0
v -152.8 -41.6 0
v -152 -41.6 0
v -144.8 -42.4 0
v -145.6 -42.4 0
v -145.6 -41.6 0
v -144.8 -41.6 0
v -139.2 -42.4 0
v -140 -42.4 0
v -140 -41.6 0
v -139.2 -41.6 0
v -157.6 -41.6 0
v -158.4 -41.6 0
v -158.4 -40.8 0
v -157.6 -40.8 0
v -152 -41.6 0
v -152.8 -41.6 0
v -152.8 -40.8 0
v -152 -40.8 0
v -144.8 -41.6 0
v -145.6 -41.6 0
v -145.6 -40.8 0
v -144.8 -40.8 0
v -139.2 -41.6 0
v -140 -41.6 0
v -140 -40.8 0
v -139.2 -40.8 0
v -157.6 -40.8 0
v -158.4 -40.8 0
v -158.4 -40 0
v -157.6 -40 0
v -152 -40.8 0
v -152.8 -40.8 0
v -152.8 -40 0
v -152 -40 0
v -144.8 -40.8 0
v -145.6 -40.8 0
v -145.6 -40 0
v -144.8 -40 0
v -139.2 -40.8 0
v -140 -40.8 0
v -140 -40 0
v -139.2 -40 0
v -157.6 -40 0
v -158.4 -40 0
v -158.4 -39.2 0
v -157.6 -39.2 0
v -152 -40 0
v -152.8 -40 0
v -152.8 -39.2 0
v -152 -39.2 0
v -144.8 -40 0
v -145.6 -40 0
v -145.6 -39.2 0
v -144.8 -39.2 0
v -139.2 -40 0
v -140 -40 0
v -140 -39.2 0
v -139.2 -39.2 0
v -72.8 -40 0
v -73.6 -40 0
v -73.6 -39.2 0
v -72.8 -39.2 0
v -157.6 -39.2 0
v -158.4 -39.2 0
v -158.4 -38.4 0
v -157.6 -38.4 0
v -152 -39.2 0
v -152.8 -39.2 0
v -152.8 -38.4 0
v -152 -38.4 0
v -144.8 -39.2 0
v -145.6 -39.2 0
v -145.6 -38.4 0
v -144.8 -38.4 0
v -139.2 -39.2 0
v -140 -39.2 0
v -140 -38.4 0
v -139.2 -38.4 0
v -72.8 -39.2 0
v -73.6 -39.2 0
v -73.6 -38.4 0
v -72.8 -38.4 0
v -56 -39.2 0
v -56.8 -39.2 0
v -56.8 -38.4 0
v -56 -38.4 0
v -157.6 -38.4 0
v -158.4 -38.4 0
v -158.4 -37.6 0
v -157.6 -37.6 0
v -152 -38.4 0
v -152.8 -38.4 0
v -152.8 -37.6 0
v -152 -37.6 0
v -144.8 -38.4 0
v -145.6 -38.4 0
v -145.6 -37.6 0
v -144.8 -37.6 0
v -139.2 -38.4 0
v -140 -38.4 0
v -140 -37.6 0
v -139.2 -37.6 0
v -72.8 -38.4 0
v -73.6 -38.4 0
v -73.6 -37.6 0
v -72.8 -37.6 0
v -64 -38.4 0
v -64.8 -38.4 0
v -64.8 -37.6 0
v -64 -37.6 0
v -56 -38.4 0
v -56.8 -38.4 0
v -56.8 -37.6 0
v -56 -37.6 0
v -11.2 -38.4 0
v -12 -38.4 0
v -12 -37.6 0
v -11.2 -37.6 0
v -157.6 -37.6 0
v -158.4 -37.6 0
v -158.4 -36.8 0
v -157.6 -36.8 0
v -152 -37.6 0
v -152.8 -37.6 0
v -152.8 -36.8 0
v -152 -36.8 0
v -144.8 -37.6 0
v -145.6 -37.6 0
v -145.6 -36.8 0
v -144.8 -36.8 0
v -139.2 -37.6 0
v -140 -37.6 0
v -140 -36.8 0
v -139.2 -36.8 0
v -72.8 -37.6 0
v -73.6 -37.6 0
v -73.6 -36.8 0
v -72.8 -36.8 0
v -64 -37.6 0
v -64.8 -37.6 0
v -64.8 -36.8 0
v -64 -36.8 0
v -56 -37.6 0
v -56.8 -37.6 0
v -56.8 -36.8 0
v -56 -36.8 0
v -11.2 -37.6 0
v -12 -37.6 0
v -12 -36.8 0
v -11.2 -36.8 0
v -157.6 -36.8 0
v -158.4 -36.8 0
v -158.4 -36 0
v -157.6 -36 0
v -152 -36.8 0
v -152.8 -36.8 0
v -152.8 -36 0
v -152 -36 0
v -144.8 -36.8 0
v -145.6 -36.8 0
v -145.6 -36 0
v -144.8 -36 0
v -139.2 -36.8 0
v -140 -36.8 0
v -140 -36 0
v -139.2 -36 0
v -72.8 -36.8 0
v -73.6 -36.8 0
v -73.6 -36 0
v -72.8 -36 0
v -64 -36.8 0
v -64.8 -36.8 0
v -64.8 -36 0
v -64 -36 0
v -56 -36.8 0
v -56.8 -36.8 0
v -56.8 -36 0
v -56 -36 0
v -12 -36.8 0
v -12.8 -36.8 0
v -12.8 -36 0
v -12 -36 0
v -11.2 -36.8 0
v -12 -36.8 0
v -12 -36 0
v -11.2 -36 0
v -157.6 -36 0
v -158.4 -36 0
v -158.4 -35.2 0
v -157.6 -35.2 0
v -152 -36 0
v -152.8 -36 0
v -152.8 -35.2 0
v -152 -35.2 0
v -144.8 -36 0
v -145.6 -36 0
v -145.6 -35.2 0
v -144.8 -35.2 0
v -139.2 -36 0
v -140 -36 0
v -140 -35.2 0
v -139.2 -35.2 0
v -72.8 -36 0
v -73.6 -36 0
v -73.6 -35.2 0
v -72.8 -35.2 0
v -64 -36 0
v -64.8 -36 0
v -64.8 -35.2 0
v -64 -35.2 0
v -56 -36 0
v -56.8 -36 0
v -56.8 -35.2 0
v -56 -35.2 0
v -12 -36 0
v -12.8 -36 0
v -12.8 -35.2 0
v -12 -35.2 0
v -11.2 -36 0
v -12 -36 0
v -12 -35.2 0
v -11.2 -35.2 0
v -157.6 -35.2 0
v -158.4 -35.2 0
v -158.4 -34.4 0
v -157.6 -34.4 0
v -152 -35.2 0
v -152.8 -35.2 0
v -152.8 -34.4 0
v -152 -34.4 0
v -144.8 -35.2 0
v -145.6 -35.2 0
v -145.6 -34.4 0
v -144.8 -34.4 0
v -139.2 -35.2 0
v -140 -35.2 0
v -140 -34.4 0
v -139.2 -34.4 0
v -72.8 -35.2 0
v -73.6 -35.2 0
v -73.6 -34.4 0
v -72.8 -34.4 0
v -64 -35.2 0
v -64.8 -35.2 0
v -64.8 -34.4 0
v -64 -34.4 0
v -12 -35.2 0
v -12.8 -35.2 0
v -12.8 -34.4 0
v -12 -34.4 0
v -11.2 -35.2 0
v -12 -35.2 0
v -12 -34.4 0
v -11.2 -34.4 0
v -157.6 -34.4 0
v -158.4 -34.4 0
v -158.4 -33.6 0
v -157.6 -33.6 0
v -152 -34.4 0
v -152.8 -34.4 0
v -152.8 -33.6 0
v -152 -33.6 0
v -144.8 -34.4 0
v -145.6 -34.4 0
v -145.6 -33.6 0
v -144.8 -33.6 0
v -139.2 -34.4 0
v -140 -34.4 0
v -140 -33.6 0
v -139.2 -33.6 0
v -92 -34.4 0
v -92.8 -34.4 0
v -92.8 -33.6 0
v -92 -33.6 0
v -72.8 -34.4 0
v -73.6 -34.4 0
v -73.6 -33.6 0
v -72.8 -33.6 0
v -64 -34.4 0
v -64.8 -34.4 0
v -64.8 -33.6 0
v -64 -33.6 0
v -12 -34.4 0
v -12.8 -34.4 0
v -12.8 -33.6 0
v -12 -33.6 0
v -11.2 -34.4 0
v -12 -34.4 0
v -12 -33.6 0
v -11.2 -33.6 0
v -157.6 -33.6 0
v -158.4 -33.6 0
v -158.4 -32.8 0
v -157.6 -32.8 0
v -152 -33.6 0
v -152.8 -33.6 0
v -152.8 -32.8 0
v -152 -32.8 0
v -144.8 -33.6 0
v -145.6 -33.6 0
v -145.6 -32.8 0
v -144.8 -32.8 0
v -139.2 -33.6 0
v -140 -33.6 0
v -140 -32.8 0
v -139.2 -32.8 0
v -92 -33.6 0
v -92.8 -33.6 0
v -92.8 -32.8 0
v -92 -32.8 0
v -72.8 -33.6 0
v -73.6 -33.6 0
v -73.6 -32.8 0
v -72.8 -32.8 0
v -12 -33.6 0
v -12.8 -33.6 0
v -12.8 -32.8 0
v -12 -32.8 0
v -11.2 -33.6 0
v -12 -33.6 0
v -12 -32.8 0
v -11.2 -32.8 0
v -157.6 -32.8 0
v -158.4 -32.8 0
v -158.4 -32 0
v -157.6 -32 0
v -152 -32.8 0
v -152.8 -32.8 0
v -152.8 -32 0
v -152 -32 0
v -92 -32.8 0
v -92.8 -32.8 0
v -92.8 -32 0
v -92 -32 0
v -72.8 -32.8 0
v -73.6 -32.8 0
v -73.6 -32 0
v -72.8 -32 0
v -12 -32.8 0
v -12.8 -32.8 0
v -12.8 -32 0
v -12 -32 0
v -11.2 -32.8 0
v -12 -32.8 0
v -12 -32 0
v -11.2 -32 0
v -157.6 -32 0
v -158.4 -32 0
v -158.4 -31.2 0
v -157.6 -31.2 0
v -152 -32 0
v -152.8 -32 0
v -152.8 -31.2 0
v -152 -31.2 0
v -92 -32 0
v -92.8 -32 0
v -92.8 -31.2 0
v -92 -31.2 0
v -72.8 -32 0
v -73.6 -32 0
v -73.6 -31.2 0
v -72.8 -31.2 0
v -12 -32 0
v -12.8 -32 0
v -12.8 -31.2 0
v -12 -31.2 0
v -11.2 -32 0
v -12 -32 0
v -12 -31.2 0
v -11.2 -31.2 0
v -157.6 -31.2 0
v -158.4 -31.2 0
v -158.4 -30.4 0
v -157.6 -30.4 0
v -152 -31.2 0
v -152.8 -31.2 0
v -152.8 -30.4 0
v -152 -30.4 0
v -92 -31.2 0
v -92.8 -31.2 0
v -92.8 -30.4 0
v -92 -30.4 0
v -12 -31.2 0
v -12.8 -31.2 0
v -12.8 -30.4 0
v -12 -30.4 0
v -11.2 -31.2 0
v -12 -31.2 0
v -12 -30.4 0
v -11.2 -30.4 0
v -157.6 -30.4 0
v -158.4 -30.4 0
v -158.4 -29.6 0
v -157.6 -29.6 0
v -152 -30.4 0
v -152.8 -30.4 0
v -152.8 -29.6 0
v -152 -29.6 0
v -92 -30.4 0
v -92.8 -30.4 0
v -92.8 -29.6 0
v -92 -29.6 0
v -12 -30.4 0
v -12.8 -30.4 0
v -12.8 -29.6 0
v -12 -29.6 0
v -11.2 -30.4 0
v -12 -30.4 0
v -12 -29.6 0
v -11.2 -29.6 0
v -92 -29.6 0
v -92.8 -29.6 0
v -92.8 -28.8 0
v -92 -28.8 0
v -12 -29.6 0
v -12.8 -29.6 0
v -12.8 -28.8 0
v -12 -28.8 0
v -11.2 -29.6 0
v -12 -29.6 0
v -12 -28.8 0
v -11.2 -28.8 0
v -12 -28.8 0
v -12.8 -28.8 0
v -12.8 -28 0
v -12 -28 0
v -11.2 -28.8 0
v -12 -28.8 0
v -12 -28 0
v -11.2 -28 0
v -92.8 -28 0
v -93.6 -28 0
v -93.6 -27.2 0
v -92.8 -27.2 0
v -84 -28 0
v -84.8 -28 0
v -84.8 -27.2 0
v -84 -27.2 0
v -12 -28 0
v -12.8 -28 0
v -12.8 -27.2 0
v -12 -27.2 0
v -11.2 -28 0
v -12 -28 0
v -12 -27.2 0
v -11.2 -27.2 0
v -172.8 -27.2 0
v -173.6 -27.2 0
v -173.6 -26.4 0
v -172.8 -26.4 0
v -165.6 -27.2 0
v -166.4 -27.2 0
v -166.4 -26.4 0
v -165.6 -26.4 0
v -92.8 -27.2 0
v -93.6 -27.2 0
v -93.6 -26.4 0
v -92.8 -26.4 0
v -84 -27.2 0
v -84.8 -27.2 0
v -84.8 -26.4 0
v -84 -26.4 0
v -12 -27.2 0
v -12.8 -27.2 0
v -12.8 -26.4 0
v -12 -26.4 0
v -11.2 -27.2 0
v -12 -27.2 0
v -12 -26.4 0
v -11.2 -26.4 0
v -172.8 -26.4 0
v -173.6 -26.4 0
v -173.6 -25.6 0
v -172.8 -25.6 0
v -165.6 -26.4 0
v -166.4 -26.4 0
v -166.4 -25.6 0
v -165.6 -25.6 0
v -92.8 -26.4 0
v -93.6 -26.4 0
v -93.6 -25.6 0
v -92.8 -25.6 0
v -84 -26.4 0
v -84.8 -26.4 0
v -84.8 -25.6 0
v -84 -25.6 0
v -12 -26.4 0
v -12.8 -26.4 0
v -12.8 -25.6 0
v -12 -25.6 0
v -11.2 -26.4 0
v -12 -26.4 0
v -12 -25.6 0
v -11.2 -25.6 0
v -172.8 -25.6 0
v -173.6 -25.6 0
v -173.6 -24.8 0
v -172.8 -24.8 0
v -165.6 -25.6 0
v -166.4 -25.6 0
v -166.4 -24.8 0
v -165.6 -24.8 0
v -92.8 -25.6 0
v -93.6 -25.6 0
v -93.6 -24.8 0
v -92.8 -24.8 0
v -84 -25.6 0
v -84.8 -25.6 0
v -84.8 -24.8 0
v -84 -24.8 0
v -172.8 -24.8 0
v -173.6 -24.8 0
v -173.6 -24 0
v -172.8 -24 0
v -165.6 -24.8 0
v -166.4 -24.8 0
v -166.4 -24 0
v -165.6 -24 0
v -116 -24.8 0
v -116.8 -24.8 0
v -116.8 -24 0
v -116 -24 0
v -112 -24.8 0
v -112.8 -24.8 0
v -112.8 -24 0
v -112 -24 0
v -105.6 -24.8 0
v -106.4 -24.8 0
v -106.4 -24 0
v -105.6 -24 0
v -100 -24.8 0
v -100.8 -24.8 0
v -100.8 -24 0
v -100 -24 0
v -92.8 -24.8 0
v -93.6 -24.8 0
v -93.6 -24 0
v -92.8 -24 0
v -84 -24.8 0
v -84.8 -24.8 0
v -84.8 -24 0
v -84 -24 0
v -187.2 -24 0
v -188 -24 0
v -188 -23.2 0
v -187.2 -23.2 0
v -180 -24 0
v -180.8 -24 0
v -180.8 -23.2 0
v -180 -23.2 0
v -172.8 -24 0
v -173.6 -24 0
v -173.6 -23.2 0
v -172.8 -23.2 0
v -165.6 -24 0
v -166.4 -24 0
v -166.4 -23.2 0
v -165.6 -23.2 0
v -116 -24 0
v -116.8 -24 0
v -116.8 -23.2 0
v -116 -23.2 0
v -112 -24 0
v -112.8 -24 0
v -112.8 -23.2 0
v -112 -23.2 0
v -105.6 -24 0
v -106.4 -24 0
v -106.4 -23.2 0
v -105.6 -23.2 0
v -100 -24 0
v -100.8 -24 0
v -100.8 -23.2 0
v -100 -23.2 0
v -92.8 -24 0
v -93.6 -24 0
v -93.6 -23.2 0
v -92.8 -23.2 0
v -84 -24 0
v -84.8 -24 0
v -84.8 -23.2 0
v -84 -23.2 0
v -187.2 -23.2 0
v -188 -23.2 0
v -188 -22.4 0
v -187.2 -22.4 0
v -180 -23.2 0
v -180.8 -23.2 0
v -180.8 -22.4 0
v -180 -22.4 0
v -172.8 -23.2 0
v -173.6 -23.2 0
v -173.6 -22.4 0
v -172.8 -22.4 0
v -165.6 -23.2 0
v -166.4 -23.2 0
v -166.4 -22.4 0
v -165.6 -22.4 0
v -116 -23.2 0
v -116.8 -23.2 0
v -116.8 -22.4 0
v -116 -22.4 0
v -112 -23.2 0
v -112.8 -23.2 0
v -112.8 -22.4 0
v -112 -22.4 0
v -105.6 -23.2 0
v -106.4 -23.2 0
v -106.4 -22.4 0
v -105.6 -22.4 0
v -100 -23.2 0
v -100.8 -23.2 0
v -100.8 -22.4 0
v -100 -22.4 0
v -92.8 -23.2 0
v -93.6 -23.2 0
v -93.6 -22.4 0
v -92.8 -22.4 0
v -84 -23.2 0
v -84.8 -23.2 0
v -84.8 -22.4 0
v -84 -22.4 0
v -203.2 -22.4 0
v -204 -22.4 0
v -204 -21.6 0
v -203.2 -21.6 0
v -196 -22.4 0
v -196.8 -22.4 0
v -196.8 -21.6 0
v -196 -21.6 0
v -187.2 -22.4 0
v -188 -22.4 0
v -188 -21.6 0
v -187.2 -21.6 0
v -180 -22.4 0
v -180.8 -22.4 0
v -180.8 -21.6 0
v -180 -21.6 0
v -172.8 -22.4 0
v -173.6 -22.4 0
v -173.6 -21.6 0
v -172.8 -21.6 0
v -165.6 -22.4 0
v -166.4 -22.4 0
v -166.4 -21.6 0
v -165.6 -21.6 0
v -116 -22.4 0
v -116.8 -22.4 0
v -116.8 -21.6 0
v -116 -21.6 0
v -112 -22.4 0
v -112.8 -22.4 0
v -112.8 -21.6 0
v -112 -21.6 0
v -105.6 -22.4 0
v -106.4 -22.4 0
v -106.4 -21.6 0
v -105.6 -21.6 0
v -100 -22.4 0
v -100.8 -22.4 0
v -100.8 -21.6 0
v -100 -21.6 0
v -203.2 -21.6 0
v -204 -21.6 0
v -204 -20.8 0
v -203.2 -20.8 0
v -196 -21.6 0
v -196.8 -21.6 0
v -196.8 -20.8 0
v -196 -20.8 0
v -187.2 -21.6 0
v -188 -21.6 0
v -188 -20.8 0
v -187.2 -20.8 0
v -180 -21.6 0
v -180.8 -21.6 0
v -180.8 -20.8 0
v -180 -20.8 0
v -172.8 -21.6 0
v -173.6 -21.6 0
v -173.6 -20.8 0
v -172.8 -20.8 0
v -165.6 -21.6 0
v -166.4 -21.6 0
v -166.4 -20.8 0
v -165.6 -20.8 0
v -116 -21.6 0
v -116.8 -21.6 0
v -116.8 -20.8 0
v -116 -20.8 0
v -112 -21.6 0
v -112.8 -21.6 0
v -112.8 -20.8 0
v -112 -20.8 0
v -105.6 -21.6 0
v -106.4 -21.6 0
v -106.4 -20.8 0
v -105.6 -20.8 0
v -100 -21.6 0
v -100.8 -21.6 0
v -100.8 -20.8 0
v -100 -20.8 0
v -203.2 -20.8 0
v -204 -20.8 0
v -204 -20 0
v -203.2 -20 0
v -196 -20.8 0
v -196.8 -20.8 0
v -196.8 -20 0
v -196 -20 0
v -187.2 -20.8 0
v -188 -20.8 0
v -188 -20 0
v -187.2 -20 0
v -180 -20.8 0
v -180.8 -20.8 0
v -180.8 -20 0
v -180 -20 0
v -172.8 -20.8 0
v -173.6 -20.8 0
v -173.6 -20 0
v -172.8 -20 0
v -165.6 -20.8 0
v -166.4 -20.8 0
v -166.4 -20 0
v -165.6 -20 0
v -116 -20.8 0
v -116.8 -20.8 0
v -116.8 -20 0
v -116 -20 0
v -112 -20.8 0
v -112.8 -20.8 0
v -112.8 -20 0
v -112 -20 0
v -203.2 -20 0
v -204 -20 0
v -204 -19.2 0
v -203.2 -19.2 0
v -196 -20 0
v -196.8 -20 0
v -196.8 -19.2 0
v -196 -19.2 0
v -187.2 -20 0
v -188 -20 0
v -188 -19.2 0
v -187.2 -19.2 0
v -180 -20 0
v -180.8 -20 0
v -180.8 -19.2 0
v -180 -19.2 0
v -172.8 -20 0
v -173.6 -20 0
v -173.6 -19.2 0
v -172.8 -19.2 0
v -165.6 -20 0
v -166.4 -20 0
v -166.4 -19.2 0
v -165.6 -19.2 0
v -116 -20 0
v -116.8 -20 0
v -116.8 -19.2 0
v -116 -19.2 0
v -112 -20 0
v -112.8 -20 0
v -112.8 -19.2 0
v -112 -19.2 0
v -203.2 -19.2 0
v -204 -19.2 0
v -204 -18.4 0
v -203.2 -18.4 0
v -196 -19.2 0
v -196.8 -19.2 0
v -196.8 -18.4 0
v -196 -18.4 0
v -187.2 -19.2 0
v -188 -19.2 0
v -188 -18.4 0
v -187.2 -18.4 0
v -180 -19.2 0
v -180.8 -19.2 0
v -180.8 -18.4 0
v -180 -18.4 0
v -172.8 -19.2 0
v -173.6 -19.2 0
v -173.6 -18.4 0
v -172.8 -18.4 0
v -203.2 -18.4 0
v -204 -18.4 0
v -204 -17.6 0
v -203.2 -17.6 0
v -196 -18.4 0
v -196.8 -18.4 0
v -196.8 -17.6 0
v -196 -17.6 0
v -187.2 -18.4 0
v -188 -18.4 0
v -188 -17.6 0
v -187.2 -17.6 0
v -180 -18.4 0
v -180.8 -18.4 0
v -180.8 -17.6 0
v -180 -17.6 0
v -172.8 -18.4 0
v -173.6 -18.4 0
v -173.6 -17.6 0
v -172.8 -17.6 0
v -203.2 -17.6 0
v -204 -17.6 0
v -204 -16.8 0
v -203.2 -16.8 0
v -196 -17.6 0
v -196.8 -17.6 0
v -196.8 -16.8 0
v -196 -16.8 0
v -187.2 -17.6 0
v -188 -17.6 0
v -188 -16.8 0
v -187.2 -16.8 0
v -180 -17.6 0
v -180.8 -17.6 0
v -180.8 -16.8 0
v -180 -16.8 0
v -172.8 -17.6 0
v -173.6 -17.6 0
v -173.6 -16.8 0
v -172.8 -16.8 0
v -203.2 -16.8 0
v -204 -16.8 0
v -204 -16 0
v -203.2 -16 0
v -196 -16.8 0
v -196.8 -16.8 0
v -196.8 -16 0
v -196 -16 0
v -187.2 -16.8 0
v -188 -16.8 0
v -188 -16 0
v -187.2 -16 0
v -180 -16.8 0
v -180.8 -16.8 0
v -180.8 -16 0
v -180 -16 0
v -203.2 -16 0
v -204 -16 0
v -204 -15.2 0
v -203.2 -15.2 0
v -196 -16 0
v -196.8 -16 0
v -196.8 -15.2 0
v -196 -15.2 0
v -187.2 -16 0
v -188 -16 0
v -188 -15.2 0
v -187.2 -15.2 0
v -203.2 -15.2 0
v -204 -15.2 0
v -204 -14.4 0
v -203.2 -14.4 0
v -196 -15.2 0
v -196.8 -15.2 0
v -196.8 -14.4 0
v -196 -14.4 0

# Texture cooridinates (Count = 27)
vt 0.2222222 0.3333333
vt 0.3333333 0.3333333
vt 0.3333333 0.6666666
vt 0.2222222 0.6666666
vt 0.2222222 0
vt 0.3333333 0
vt 0.7777778 0
vt 0.8888889 0
vt 0.8888889 0.3333333
vt 0.7777778 0.3333333
vt 0.8888889 0.6666666
vt 0.7777778 0.6666666
vt 0 0
vt 0.1111111 0
vt 0.1111111 0.3333333
vt 0 0.3333333
vt 0.1111111 0.6666666
vt 0 0.6666666
vt 0.4444444 0.3333333
vt 0.5555556 0.3333333
vt 0.5555556 0.6666666
vt 0.4444444 0.6666666
vt 0.2222222 1
vt 0.1111111 1
vt 0 1
vt 0.6666667 0.3333333
vt 0.6666667 0.6666666

# Normal
vn 0 0 -1

# Mesh description
g Map_mesh_0040

# Faces
f 1/1/1 2/2/1 3/3/1 4/4/1
f 5/1/1 6/2/1 7/3/1 8/4/1
f 9/5/1 10/6/1 11/2/1 12/1/1
f 13/5/1 14/6/1 15/2/1 16/1/1
f 17/1/1 18/2/1 19/3/1 20/4/1
f 21/1/1 22/2/1 23/3/1 24/4/1
f 25/1/1 26/2/1 27/3/1 28/4/1
f 29/1/1 30/2/1 31/3/1 32/4/1
f 33/1/1 34/2/1 35/3/1 36/4/1
f 37/1/1 38/2/1 39/3/1 40/4/1
f 41/1/1 42/2/1 43/3/1 44/4/1
f 45/1/1 46/2/1 47/3/1 48/4/1
f 49/1/1 50/2/1 51/3/1 52/4/1
f 53/1/1 54/2/1 55/3/1 56/4/1
f 57/1/1 58/2/1 59/3/1 60/4/1
f 61/1/1 62/2/1 63/3/1 64/4/1
f 65/7/1 66/8/1 67/9/1 68/10/1
f 69/5/1 70/6/1 71/2/1 72/1/1
f 73/5/1 74/6/1 75/2/1 76/1/1
f 77/1/1 78/2/1 79/3/1 80/4/1
f 81/1/1 82/2/1 83/3/1 84/4/1
f 85/10/1 86/9/1 87/11/1 88/12/1
f 89/7/1 90/8/1 91/9/1 92/10/1
f 93/1/1 94/2/1 95/3/1 96/4/1
f 97/1/1 98/2/1 99/3/1 100/4/1
f 101/1/1 102/2/1 103/3/1 104/4/1
f 105/1/1 106/2/1 107/3/1 108/4/1
f 109/10/1 110/9/1 111/11/1 112/12/1
f 113/7/1 114/8/1 115/9/1 116/10/1
f 117/10/1 118/9/1 119/11/1 120/12/1
f 121/13/1 122/14/1 123/15/1 124/16/1
f 125/1/1 126/2/1 127/3/1 128/4/1
f 129/1/1 130/2/1 131/3/1 132/4/1
f 133/1/1 134/2/1 135/3/1 136/4/1
f 137/1/1 138/2/1 139/3/1 140/4/1
f 141/10/1 142/9/1 143/11/1 144/12/1
f 145/10/1 146/9/1 147/11/1 148/12/1
f 149/10/1 150/9/1 151/11/1 152/12/1
f 153/16/1 154/15/1 155/17/1 156/18/1
f 157/1/1 158/2/1 159/3/1 160/4/1
f 161/1/1 162/2/1 163/3/1 164/4/1
f 165/1/1 166/2/1 167/3/1 168/4/1
f 169/1/1 170/2/1 171/3/1 172/4/1
f 173/10/1 174/9/1 175/11/1 176/12/1
f 177/10/1 178/9/1 179/11/1 180/12/1
f 181/10/1 182/9/1 183/11/1 184/12/1
f 185/15/1 186/1/1 187/4/1 188/17/1
f 189/16/1 190/15/1 191/17/1 192/18/1
f 193/1/1 194/2/1 195/3/1 196/4/1
f 197/1/1 198/2/1 199/3/1 200/4/1
f 201/1/1 202/2/1 203/3/1 204/4/1
f 205/1/1 206/2/1 207/3/1 208/4/1
f 209/10/1 210/9/1 211/11/1 212/12/1
f 213/10/1 214/9/1 215/11/1 216/12/1
f 217/10/1 218/9/1 219/11/1 220/12/1
f 221/15/1 222/1/1 223/4/1 224/17/1
f 225/16/1 226/15/1 227/17/1 228/18/1
f 229/1/1 230/2/1 231/3/1 232/4/1
f 233/1/1 234/2/1 235/3/1 236/4/1
f 237/1/1 238/2/1 239/3/1 240/4/1
f 241/1/1 242/2/1 243/3/1 244/4/1
f 245/10/1 246/9/1 247/11/1 248/12/1
f 249/10/1 250/9/1 251/11/1 252/12/1
f 253/15/1 254/1/1 255/4/1 256/17/1
f 257/16/1 258/15/1 259/17/1 260/18/1
f 261/1/1 262/2/1 263/3/1 264/4/1
f 265/1/1 266/2/1 267/3/1 268/4/1
f 269/1/1 270/2/1 271/3/1 272/4/1
f 273/1/1 274/2/1 275/3/1 276/4/1
f 277/19/1 278/20/1 279/21/1 280/22/1
f 281/10/1 282/9/1 283/11/1 284/12/1
f 285/10/1 286/9/1 287/11/1 288/12/1
f 289/15/1 290/1/1 291/4/1 292/17/1
f 293/16/1 294/15/1 295/17/1 296/18/1
f 297/1/1 298/2/1 299/3/1 300/4/1
f 301/1/1 302/2/1 303/3/1 304/4/1
f 305/1/1 306/2/1 307/3/1 308/4/1
f 309/1/1 310/2/1 311/3/1 312/4/1
f 313/19/1 314/20/1 315/21/1 316/22/1
f 317/10/1 318/9/1 319/11/1 320/12/1
f 321/15/1 322/1/1 323/4/1 324/17/1
f 325/16/1 326/15/1 327/17/1 328/18/1
f 329/1/1 330/2/1 331/3/1 332/4/1
f 333/1/1 334/2/1 335/3/1 336/4/1
f 337/19/1 338/20/1 339/21/1 340/22/1
f 341/10/1 342/9/1 343/11/1 344/12/1
f 345/15/1 346/1/1 347/4/1 348/17/1
f 349/16/1 350/15/1 351/17/1 352/18/1
f 353/1/1 354/2/1 355/3/1 356/4/1
f 357/1/1 358/2/1 359/3/1 360/4/1
f 361/19/1 362/20/1 363/21/1 364/22/1
f 365/10/1 366/9/1 367/11/1 368/12/1
f 369/15/1 370/1/1 371/4/1 372/17/1
f 373/16/1 374/15/1 375/17/1 376/18/1
f 377/1/1 378/2/1 379/3/1 380/4/1
f 381/1/1 382/2/1 383/3/1 384/4/1
f 385/19/1 386/20/1 387/21/1 388/22/1
f 389/15/1 390/1/1 391/4/1 392/17/1
f 393/16/1 394/15/1 395/17/1 396/18/1
f 397/1/1 398/2/1 399/3/1 400/4/1
f 401/1/1 402/2/1 403/3/1 404/4/1
f 405/19/1 406/20/1 407/21/1 408/22/1
f 409/15/1 410/1/1 411/4/1 412/17/1
f 413/16/1 414/15/1 415/17/1 416/18/1
f 417/19/1 418/20/1 419/21/1 420/22/1
f 421/15/1 422/1/1 423/4/1 424/17/1
f 425/16/1 426/15/1 427/17/1 428/18/1
f 429/14/1 430/5/1 431/1/1 432/15/1
f 433/16/1 434/15/1 435/17/1 436/18/1
f 437/19/1 438/20/1 439/21/1 440/22/1
f 441/19/1 442/20/1 443/21/1 444/22/1
f 445/17/1 446/4/1 447/23/1 448/24/1
f 449/16/1 450/15/1 451/17/1 452/18/1
f 453/16/1 454/15/1 455/17/1 456/18/1
f 457/16/1 458/15/1 459/17/1 460/18/1
f 461/19/1 462/20/1 463/21/1 464/22/1
f 465/19/1 466/20/1 467/21/1 468/22/1
f 469/17/1 470/4/1 471/23/1 472/24/1
f 473/16/1 474/15/1 475/17/1 476/18/1
f 477/16/1 478/15/1 479/17/1 480/18/1
f 481/16/1 482/15/1 483/17/1 484/18/1
f 485/19/1 486/20/1 487/21/1 488/22/1
f 489/19/1 490/20/1 491/21/1 492/22/1
f 493/17/1 494/4/1 495/23/1 496/24/1
f 497/18/1 498/17/1 499/24/1 500/25/1
f 501/16/1 502/15/1 503/17/1 504/18/1
f 505/16/1 506/15/1 507/17/1 508/18/1
f 509/19/1 510/20/1 511/21/1 512/22/1
f 513/19/1 514/20/1 515/21/1 516/22/1
f 517/16/1 518/15/1 519/17/1 520/18/1
f 521/16/1 522/15/1 523/17/1 524/18/1
f 525/26/1 526/10/1 527/12/1 528/27/1
f 529/26/1 530/10/1 531/12/1 532/27/1
f 533/26/1 534/10/1 535/12/1 536/27/1
f 537/26/1 538/10/1 539/12/1 540/27/1
f 541/19/1 542/20/1 543/21/1 544/22/1
f 545/19/1 546/20/1 547/21/1 548/22/1
f 549/16/1 550/15/1 551/17/1 552/18/1
f 553/16/1 554/15/1 555/17/1 556/18/1
f 557/16/1 558/15/1 559/17/1 560/18/1
f 561/16/1 562/15/1 563/17/1 564/18/1
f 565/26/1 566/10/1 567/12/1 568/27/1
f 569/26/1 570/10/1 571/12/1 572/27/1
f 573/26/1 574/10/1 575/12/1 576/27/1
f 577/26/1 578/10/1 579/12/1 580/27/1
f 581/19/1 582/20/1 583/21/1 584/22/1
f 585/19/1 586/20/1 587/21/1 588/22/1
f 589/16/1 590/15/1 591/17/1 592/18/1
f 593/16/1 594/15/1 595/17/1 596/18/1
f 597/16/1 598/15/1 599/17/1 600/18/1
f 601/16/1 602/15/1 603/17/1 604/18/1
f 605/26/1 606/10/1 607/12/1 608/27/1
f 609/26/1 610/10/1 611/12/1 612/27/1
f 613/26/1 614/10/1 615/12/1 616/27/1
f 617/26/1 618/10/1 619/12/1 620/27/1
f 621/19/1 622/20/1 623/21/1 624/22/1
f 625/19/1 626/20/1 627/21/1 628/22/1
f 629/16/1 630/15/1 631/17/1 632/18/1
f 633/16/1 634/15/1 635/17/1 636/18/1
f 637/16/1 638/15/1 639/17/1 640/18/1
f 641/16/1 642/15/1 643/17/1 644/18/1
f 645/16/1 646/15/1 647/17/1 648/18/1
f 649/16/1 650/15/1 651/17/1 652/18/1
f 653/26/1 654/10/1 655/12/1 656/27/1
f 657/26/1 658/10/1 659/12/1 660/27/1
f 661/26/1 662/10/1 663/12/1 664/27/1
f 665/26/1 666/10/1 667/12/1 668/27/1
f 669/16/1 670/15/1 671/17/1 672/18/1
f 673/16/1 674/15/1 675/17/1 676/18/1
f 677/16/1 678/15/1 679/17/1 680/18/1
f 681/16/1 682/15/1 683/17/1 684/18/1
f 685/16/1 686/15/1 687/17/1 688/18/1
f 689/16/1 690/15/1 691/17/1 692/18/1
f 693/26/1 694/10/1 695/12/1 696/27/1
f 697/26/1 698/10/1 699/12/1 700/27/1
f 701/26/1 702/10/1 703/12/1 704/27/1
f 705/26/1 706/10/1 707/12/1 708/27/1
f 709/16/1 710/15/1 711/17/1 712/18/1
f 713/16/1 714/15/1 715/17/1 716/18/1
f 717/16/1 718/15/1 719/17/1 720/18/1
f 721/16/1 722/15/1 723/17/1 724/18/1
f 725/16/1 726/15/1 727/17/1 728/18/1
f 729/16/1 730/15/1 731/17/1 732/18/1
f 733/26/1 734/10/1 735/12/1 736/27/1
f 737/26/1 738/10/1 739/12/1 740/27/1
f 741/16/1 742/15/1 743/17/1 744/18/1
f 745/16/1 746/15/1 747/17/1 748/18/1
f 749/16/1 750/15/1 751/17/1 752/18/1
f 753/16/1 754/15/1 755/17/1 756/18/1
f 757/16/1 758/15/1 759/17/1 760/18/1
f 761/16/1 762/15/1 763/17/1 764/18/1
f 765/26/1 766/10/1 767/12/1 768/27/1
f 769/26/1 770/10/1 771/12/1 772/27/1
f 773/16/1 774/15/1 775/17/1 776/18/1
f 777/16/1 778/15/1 779/17/1 780/18/1
f 781/16/1 782/15/1 783/17/1 784/18/1
f 785/16/1 786/15/1 787/17/1 788/18/1
f 789/16/1 790/15/1 791/17/1 792/18/1
f 793/16/1 794/15/1 795/17/1 796/18/1
f 797/16/1 798/15/1 799/17/1 800/18/1
f 801/16/1 802/15/1 803/17/1 804/18/1
f 805/16/1 806/15/1 807/17/1 808/18/1
f 809/16/1 810/15/1 811/17/1 812/18/1
f 813/16/1 814/15/1 815/17/1 816/18/1
f 817/16/1 818/15/1 819/17/1 820/18/1
f 821/16/1 822/15/1 823/17/1 824/18/1
f 825/16/1 826/15/1 827/17/1 828/18/1
f 829/16/1 830/15/1 831/17/1 832/18/1
f 833/16/1 834/15/1 835/17/1 836/18/1
f 837/16/1 838/15/1 839/17/1 840/18/1
f 841/16/1 842/15/1 843/17/1 844/18/1
f 845/16/1 846/15/1 847/17/1 848/18/1
f 849/16/1 850/15/1 851/17/1 852/18/1
f 853/16/1 854/15/1 855/17/1 856/18/1
f 857/16/1 858/15/1 859/17/1 860/18/1
f 861/16/1 862/15/1 863/17/1 864/18/1
f 865/16/1 866/15/1 867/17/1 868/18/1

