# Tiled2Unity generated file. Do not modify by hand.
# Wavefront file for 'Map_mesh_0042.obj'

# Vertices (Count = 596)
v -173.6 -40.8 0
v -175.2 -40.8 0
v -175.2 -40 0
v -173.6 -40 0
v -170.4 -40.8 0
v -172 -40.8 0
v -172 -40 0
v -170.4 -40 0
v -167.2 -40.8 0
v -168.8 -40.8 0
v -168.8 -40 0
v -167.2 -40 0
v -164 -40.8 0
v -165.6 -40.8 0
v -165.6 -40 0
v -164 -40 0
v -160.8 -40.8 0
v -162.4 -40.8 0
v -162.4 -40 0
v -160.8 -40 0
v -157.6 -40.8 0
v -159.2 -40.8 0
v -159.2 -40 0
v -157.6 -40 0
v -288.8 -40 0
v -290.4 -40 0
v -290.4 -39.2 0
v -288.8 -39.2 0
v -287.2 -40 0
v -288.8 -40 0
v -288.8 -39.2 0
v -287.2 -39.2 0
v -261.6 -40 0
v -263.2 -40 0
v -263.2 -39.2 0
v -261.6 -39.2 0
v -260 -40 0
v -261.6 -40 0
v -261.6 -39.2 0
v -260 -39.2 0
v -254.4 -40 0
v -256 -40 0
v -256 -39.2 0
v -254.4 -39.2 0
v -252.8 -40 0
v -254.4 -40 0
v -254.4 -39.2 0
v -252.8 -39.2 0
v -244.8 -40 0
v -246.4 -40 0
v -246.4 -39.2 0
v -244.8 -39.2 0
v -243.2 -40 0
v -244.8 -40 0
v -244.8 -39.2 0
v -243.2 -39.2 0
v -237.6 -40 0
v -239.2 -40 0
v -239.2 -39.2 0
v -237.6 -39.2 0
v -236 -40 0
v -237.6 -40 0
v -237.6 -39.2 0
v -236 -39.2 0
v -132 -40 0
v -133.6 -40 0
v -133.6 -39.2 0
v -132 -39.2 0
v -130.4 -40 0
v -132 -40 0
v -132 -39.2 0
v -130.4 -39.2 0
v -128.8 -40 0
v -130.4 -40 0
v -130.4 -39.2 0
v -128.8 -39.2 0
v -127.2 -40 0
v -128.8 -40 0
v -128.8 -39.2 0
v -127.2 -39.2 0
v -125.6 -40 0
v -127.2 -40 0
v -127.2 -39.2 0
v -125.6 -39.2 0
v -124 -40 0
v -125.6 -40 0
v -125.6 -39.2 0
v -124 -39.2 0
v -122.4 -40 0
v -124 -40 0
v -124 -39.2 0
v -122.4 -39.2 0
v -120.8 -40 0
v -122.4 -40 0
v -122.4 -39.2 0
v -120.8 -39.2 0
v -119.2 -40 0
v -120.8 -40 0
v -120.8 -39.2 0
v -119.2 -39.2 0
v -117.6 -40 0
v -119.2 -40 0
v -119.2 -39.2 0
v -117.6 -39.2 0
v -116 -40 0
v -117.6 -40 0
v -117.6 -39.2 0
v -116 -39.2 0
v -114.4 -40 0
v -116 -40 0
v -116 -39.2 0
v -114.4 -39.2 0
v -112.8 -40 0
v -114.4 -40 0
v -114.4 -39.2 0
v -112.8 -39.2 0
v -111.2 -40 0
v -112.8 -40 0
v -112.8 -39.2 0
v -111.2 -39.2 0
v -109.6 -40 0
v -111.2 -40 0
v -111.2 -39.2 0
v -109.6 -39.2 0
v -108 -40 0
v -109.6 -40 0
v -109.6 -39.2 0
v -108 -39.2 0
v -106.4 -40 0
v -108 -40 0
v -108 -39.2 0
v -106.4 -39.2 0
v -104.8 -40 0
v -106.4 -40 0
v -106.4 -39.2 0
v -104.8 -39.2 0
v -79.2 -40 0
v -80.8 -40 0
v -80.8 -39.2 0
v -79.2 -39.2 0
v -76.8 -40 0
v -78.4 -40 0
v -78.4 -39.2 0
v -76.8 -39.2 0
v -74.4 -40 0
v -76 -40 0
v -76 -39.2 0
v -74.4 -39.2 0
v -72 -40 0
v -73.6 -40 0
v -73.6 -39.2 0
v -72 -39.2 0
v -69.6 -40 0
v -71.2 -40 0
v -71.2 -39.2 0
v -69.6 -39.2 0
v -67.2 -40 0
v -68.8 -40 0
v -68.8 -39.2 0
v -67.2 -39.2 0
v -64.8 -40 0
v -66.4 -40 0
v -66.4 -39.2 0
v -64.8 -39.2 0
v -62.4 -40 0
v -64 -40 0
v -64 -39.2 0
v -62.4 -39.2 0
v -60 -40 0
v -61.6 -40 0
v -61.6 -39.2 0
v -60 -39.2 0
v -57.6 -40 0
v -59.2 -40 0
v -59.2 -39.2 0
v -57.6 -39.2 0
v -55.2 -40 0
v -56.8 -40 0
v -56.8 -39.2 0
v -55.2 -39.2 0
v -52.8 -40 0
v -54.4 -40 0
v -54.4 -39.2 0
v -52.8 -39.2 0
v -50.4 -40 0
v -52 -40 0
v -52 -39.2 0
v -50.4 -39.2 0
v -48 -40 0
v -49.6 -40 0
v -49.6 -39.2 0
v -48 -39.2 0
v -45.6 -40 0
v -47.2 -40 0
v -47.2 -39.2 0
v -45.6 -39.2 0
v -43.2 -40 0
v -44.8 -40 0
v -44.8 -39.2 0
v -43.2 -39.2 0
v -40.8 -40 0
v -42.4 -40 0
v -42.4 -39.2 0
v -40.8 -39.2 0
v -38.4 -40 0
v -40 -40 0
v -40 -39.2 0
v -38.4 -39.2 0
v -36 -40 0
v -37.6 -40 0
v -37.6 -39.2 0
v -36 -39.2 0
v -33.6 -40 0
v -35.2 -40 0
v -35.2 -39.2 0
v -33.6 -39.2 0
v -31.2 -40 0
v -32.8 -40 0
v -32.8 -39.2 0
v -31.2 -39.2 0
v -28.8 -40 0
v -30.4 -40 0
v -30.4 -39.2 0
v -28.8 -39.2 0
v -26.4 -40 0
v -28 -40 0
v -28 -39.2 0
v -26.4 -39.2 0
v -24 -40 0
v -25.6 -40 0
v -25.6 -39.2 0
v -24 -39.2 0
v -21.6 -40 0
v -23.2 -40 0
v -23.2 -39.2 0
v -21.6 -39.2 0
v -19.2 -40 0
v -20.8 -40 0
v -20.8 -39.2 0
v -19.2 -39.2 0
v -16.8 -40 0
v -18.4 -40 0
v -18.4 -39.2 0
v -16.8 -39.2 0
v -14.4 -40 0
v -16 -40 0
v -16 -39.2 0
v -14.4 -39.2 0
v -12 -40 0
v -13.6 -40 0
v -13.6 -39.2 0
v -12 -39.2 0
v -9.6 -40 0
v -11.2 -40 0
v -11.2 -39.2 0
v -9.6 -39.2 0
v -7.2 -40 0
v -8.8 -40 0
v -8.8 -39.2 0
v -7.2 -39.2 0
v -4.8 -40 0
v -6.4 -40 0
v -6.4 -39.2 0
v -4.8 -39.2 0
v -2.4 -40 0
v -4 -40 0
v -4 -39.2 0
v -2.4 -39.2 0
v 0 -40 0
v -1.6 -40 0
v -1.6 -39.2 0
v 0 -39.2 0
v -181.6 -38.4 0
v -183.2 -38.4 0
v -183.2 -37.6 0
v -181.6 -37.6 0
v -180 -38.4 0
v -181.6 -38.4 0
v -181.6 -37.6 0
v -180 -37.6 0
v -178.4 -38.4 0
v -180 -38.4 0
v -180 -37.6 0
v -178.4 -37.6 0
v -267.2 -37.6 0
v -268.8 -37.6 0
v -268.8 -36.8 0
v -267.2 -36.8 0
v -265.6 -37.6 0
v -267.2 -37.6 0
v -267.2 -36.8 0
v -265.6 -36.8 0
v -270.4 -34.4 0
v -272 -34.4 0
v -272 -33.6 0
v -270.4 -33.6 0
v -204.8 -34.4 0
v -206.4 -34.4 0
v -206.4 -33.6 0
v -204.8 -33.6 0
v -203.2 -34.4 0
v -204.8 -34.4 0
v -204.8 -33.6 0
v -203.2 -33.6 0
v -201.6 -34.4 0
v -203.2 -34.4 0
v -203.2 -33.6 0
v -201.6 -33.6 0
v -200 -34.4 0
v -201.6 -34.4 0
v -201.6 -33.6 0
v -200 -33.6 0
v -276.8 -32 0
v -278.4 -32 0
v -278.4 -31.2 0
v -276.8 -31.2 0
v -275.2 -32 0
v -276.8 -32 0
v -276.8 -31.2 0
v -275.2 -31.2 0
v -216.8 -32 0
v -218.4 -32 0
v -218.4 -31.2 0
v -216.8 -31.2 0
v -215.2 -32 0
v -216.8 -32 0
v -216.8 -31.2 0
v -215.2 -31.2 0
v -213.6 -32 0
v -215.2 -32 0
v -215.2 -31.2 0
v -213.6 -31.2 0
v -212 -32 0
v -213.6 -32 0
v -213.6 -31.2 0
v -212 -31.2 0
v -210.4 -32 0
v -212 -32 0
v -212 -31.2 0
v -210.4 -31.2 0
v -229.6 -28.8 0
v -231.2 -28.8 0
v -231.2 -28 0
v -229.6 -28 0
v -228 -28.8 0
v -229.6 -28.8 0
v -229.6 -28 0
v -228 -28 0
v -226.4 -28.8 0
v -228 -28.8 0
v -228 -28 0
v -226.4 -28 0
v -224.8 -28.8 0
v -226.4 -28.8 0
v -226.4 -28 0
v -224.8 -28 0
v -223.2 -28.8 0
v -224.8 -28.8 0
v -224.8 -28 0
v -223.2 -28 0
v -164.8 -28.8 0
v -166.4 -28.8 0
v -166.4 -28 0
v -164.8 -28 0
v -163.2 -28.8 0
v -164.8 -28.8 0
v -164.8 -28 0
v -163.2 -28 0
v -161.6 -28.8 0
v -163.2 -28.8 0
v -163.2 -28 0
v -161.6 -28 0
v -160 -28.8 0
v -161.6 -28.8 0
v -161.6 -28 0
v -160 -28 0
v -158.4 -28.8 0
v -160 -28.8 0
v -160 -28 0
v -158.4 -28 0
v -156.8 -28.8 0
v -158.4 -28.8 0
v -158.4 -28 0
v -156.8 -28 0
v -155.2 -28.8 0
v -156.8 -28.8 0
v -156.8 -28 0
v -155.2 -28 0
v -282.4 -28 0
v -284 -28 0
v -284 -27.2 0
v -282.4 -27.2 0
v -280.8 -28 0
v -282.4 -28 0
v -282.4 -27.2 0
v -280.8 -27.2 0
v -244 -28 0
v -245.6 -28 0
v -245.6 -27.2 0
v -244 -27.2 0
v -242.4 -28 0
v -244 -28 0
v -244 -27.2 0
v -242.4 -27.2 0
v -240.8 -28 0
v -242.4 -28 0
v -242.4 -27.2 0
v -240.8 -27.2 0
v -239.2 -28 0
v -240.8 -28 0
v -240.8 -27.2 0
v -239.2 -27.2 0
v -237.6 -28 0
v -239.2 -28 0
v -239.2 -27.2 0
v -237.6 -27.2 0
v -326.4 -26.4 0
v -328 -26.4 0
v -328 -25.6 0
v -326.4 -25.6 0
v -324.8 -26.4 0
v -326.4 -26.4 0
v -326.4 -25.6 0
v -324.8 -25.6 0
v -323.2 -26.4 0
v -324.8 -26.4 0
v -324.8 -25.6 0
v -323.2 -25.6 0
v -321.6 -26.4 0
v -323.2 -26.4 0
v -323.2 -25.6 0
v -321.6 -25.6 0
v -320 -26.4 0
v -321.6 -26.4 0
v -321.6 -25.6 0
v -320 -25.6 0
v -318.4 -26.4 0
v -320 -26.4 0
v -320 -25.6 0
v -318.4 -25.6 0
v -316.8 -26.4 0
v -318.4 -26.4 0
v -318.4 -25.6 0
v -316.8 -25.6 0
v -315.2 -26.4 0
v -316.8 -26.4 0
v -316.8 -25.6 0
v -315.2 -25.6 0
v -313.6 -26.4 0
v -315.2 -26.4 0
v -315.2 -25.6 0
v -313.6 -25.6 0
v -312 -26.4 0
v -313.6 -26.4 0
v -313.6 -25.6 0
v -312 -25.6 0
v -310.4 -26.4 0
v -312 -26.4 0
v -312 -25.6 0
v -310.4 -25.6 0
v -308.8 -26.4 0
v -310.4 -26.4 0
v -310.4 -25.6 0
v -308.8 -25.6 0
v -307.2 -26.4 0
v -308.8 -26.4 0
v -308.8 -25.6 0
v -307.2 -25.6 0
v -305.6 -26.4 0
v -307.2 -26.4 0
v -307.2 -25.6 0
v -305.6 -25.6 0
v -304 -26.4 0
v -305.6 -26.4 0
v -305.6 -25.6 0
v -304 -25.6 0
v -301.6 -26.4 0
v -303.2 -26.4 0
v -303.2 -25.6 0
v -301.6 -25.6 0
v -300.8 -26.4 0
v -302.4 -26.4 0
v -302.4 -25.6 0
v -300.8 -25.6 0
v -300 -26.4 0
v -301.6 -26.4 0
v -301.6 -25.6 0
v -300 -25.6 0
v -299.2 -26.4 0
v -300.8 -26.4 0
v -300.8 -25.6 0
v -299.2 -25.6 0
v -298.4 -26.4 0
v -300 -26.4 0
v -300 -25.6 0
v -298.4 -25.6 0
v -297.6 -26.4 0
v -299.2 -26.4 0
v -299.2 -25.6 0
v -297.6 -25.6 0
v -296.8 -26.4 0
v -298.4 -26.4 0
v -298.4 -25.6 0
v -296.8 -25.6 0
v -296 -26.4 0
v -297.6 -26.4 0
v -297.6 -25.6 0
v -296 -25.6 0
v -295.2 -26.4 0
v -296.8 -26.4 0
v -296.8 -25.6 0
v -295.2 -25.6 0
v -294.4 -26.4 0
v -296 -26.4 0
v -296 -25.6 0
v -294.4 -25.6 0
v -188 -25.6 0
v -189.6 -25.6 0
v -189.6 -24.8 0
v -188 -24.8 0
v -186.4 -25.6 0
v -188 -25.6 0
v -188 -24.8 0
v -186.4 -24.8 0
v -184.8 -25.6 0
v -186.4 -25.6 0
v -186.4 -24.8 0
v -184.8 -24.8 0
v -183.2 -25.6 0
v -184.8 -25.6 0
v -184.8 -24.8 0
v -183.2 -24.8 0
v -177.6 -25.6 0
v -179.2 -25.6 0
v -179.2 -24.8 0
v -177.6 -24.8 0
v -176 -25.6 0
v -177.6 -25.6 0
v -177.6 -24.8 0
v -176 -24.8 0
v -174.4 -25.6 0
v -176 -25.6 0
v -176 -24.8 0
v -174.4 -24.8 0
v -172.8 -25.6 0
v -174.4 -25.6 0
v -174.4 -24.8 0
v -172.8 -24.8 0
v -171.2 -25.6 0
v -172.8 -25.6 0
v -172.8 -24.8 0
v -171.2 -24.8 0
v -258.4 -24.8 0
v -260 -24.8 0
v -260 -24 0
v -258.4 -24 0
v -256.8 -24.8 0
v -258.4 -24.8 0
v -258.4 -24 0
v -256.8 -24 0
v -255.2 -24.8 0
v -256.8 -24.8 0
v -256.8 -24 0
v -255.2 -24 0
v -253.6 -24.8 0
v -255.2 -24.8 0
v -255.2 -24 0
v -253.6 -24 0
v -252 -24.8 0
v -253.6 -24.8 0
v -253.6 -24 0
v -252 -24 0
v -288 -24 0
v -289.6 -24 0
v -289.6 -23.2 0
v -288 -23.2 0
v -273.6 -23.2 0
v -275.2 -23.2 0
v -275.2 -22.4 0
v -273.6 -22.4 0
v -272 -23.2 0
v -273.6 -23.2 0
v -273.6 -22.4 0
v -272 -22.4 0
v -270.4 -23.2 0
v -272 -23.2 0
v -272 -22.4 0
v -270.4 -22.4 0
v -268.8 -23.2 0
v -270.4 -23.2 0
v -270.4 -22.4 0
v -268.8 -22.4 0
v -267.2 -23.2 0
v -268.8 -23.2 0
v -268.8 -22.4 0
v -267.2 -22.4 0

# Texture cooridinates (Count = 10)
vt 0 0
vt 0.3333333 0
vt 0.3333333 0.5
vt 0 0.5
vt 0.3333333 1
vt 0 1
vt 0.6666667 0.5
vt 0.6666667 1
vt 1 0.5
vt 1 1

# Normal
vn 0 0 -1

# Mesh description
g Map_mesh_0042

# Faces
f 1/1/1 2/2/1 3/3/1 4/4/1
f 5/1/1 6/2/1 7/3/1 8/4/1
f 9/4/1 10/3/1 11/5/1 12/6/1
f 13/4/1 14/3/1 15/5/1 16/6/1
f 17/4/1 18/3/1 19/5/1 20/6/1
f 21/4/1 22/3/1 23/5/1 24/6/1
f 25/4/1 26/3/1 27/5/1 28/6/1
f 29/4/1 30/3/1 31/5/1 32/6/1
f 33/4/1 34/3/1 35/5/1 36/6/1
f 37/4/1 38/3/1 39/5/1 40/6/1
f 41/4/1 42/3/1 43/5/1 44/6/1
f 45/4/1 46/3/1 47/5/1 48/6/1
f 49/1/1 50/2/1 51/3/1 52/4/1
f 53/1/1 54/2/1 55/3/1 56/4/1
f 57/4/1 58/3/1 59/5/1 60/6/1
f 61/4/1 62/3/1 63/5/1 64/6/1
f 65/4/1 66/3/1 67/5/1 68/6/1
f 69/4/1 70/3/1 71/5/1 72/6/1
f 73/4/1 74/3/1 75/5/1 76/6/1
f 77/1/1 78/2/1 79/3/1 80/4/1
f 81/4/1 82/3/1 83/5/1 84/6/1
f 85/1/1 86/2/1 87/3/1 88/4/1
f 89/4/1 90/3/1 91/5/1 92/6/1
f 93/1/1 94/2/1 95/3/1 96/4/1
f 97/1/1 98/2/1 99/3/1 100/4/1
f 101/1/1 102/2/1 103/3/1 104/4/1
f 105/4/1 106/3/1 107/5/1 108/6/1
f 109/4/1 110/3/1 111/5/1 112/6/1
f 113/4/1 114/3/1 115/5/1 116/6/1
f 117/1/1 118/2/1 119/3/1 120/4/1
f 121/1/1 122/2/1 123/3/1 124/4/1
f 125/1/1 126/2/1 127/3/1 128/4/1
f 129/4/1 130/3/1 131/5/1 132/6/1
f 133/4/1 134/3/1 135/5/1 136/6/1
f 137/1/1 138/2/1 139/3/1 140/4/1
f 141/1/1 142/2/1 143/3/1 144/4/1
f 145/1/1 146/2/1 147/3/1 148/4/1
f 149/1/1 150/2/1 151/3/1 152/4/1
f 153/4/1 154/3/1 155/5/1 156/6/1
f 157/4/1 158/3/1 159/5/1 160/6/1
f 161/4/1 162/3/1 163/5/1 164/6/1
f 165/4/1 166/3/1 167/5/1 168/6/1
f 169/4/1 170/3/1 171/5/1 172/6/1
f 173/4/1 174/3/1 175/5/1 176/6/1
f 177/4/1 178/3/1 179/5/1 180/6/1
f 181/4/1 182/3/1 183/5/1 184/6/1
f 185/4/1 186/3/1 187/5/1 188/6/1
f 189/4/1 190/3/1 191/5/1 192/6/1
f 193/4/1 194/3/1 195/5/1 196/6/1
f 197/4/1 198/3/1 199/5/1 200/6/1
f 201/4/1 202/3/1 203/5/1 204/6/1
f 205/4/1 206/3/1 207/5/1 208/6/1
f 209/4/1 210/3/1 211/5/1 212/6/1
f 213/4/1 214/3/1 215/5/1 216/6/1
f 217/4/1 218/3/1 219/5/1 220/6/1
f 221/4/1 222/3/1 223/5/1 224/6/1
f 225/4/1 226/3/1 227/5/1 228/6/1
f 229/4/1 230/3/1 231/5/1 232/6/1
f 233/4/1 234/3/1 235/5/1 236/6/1
f 237/4/1 238/3/1 239/5/1 240/6/1
f 241/4/1 242/3/1 243/5/1 244/6/1
f 245/4/1 246/3/1 247/5/1 248/6/1
f 249/4/1 250/3/1 251/5/1 252/6/1
f 253/4/1 254/3/1 255/5/1 256/6/1
f 257/4/1 258/3/1 259/5/1 260/6/1
f 261/4/1 262/3/1 263/5/1 264/6/1
f 265/4/1 266/3/1 267/5/1 268/6/1
f 269/4/1 270/3/1 271/5/1 272/6/1
f 273/1/1 274/2/1 275/3/1 276/4/1
f 277/1/1 278/2/1 279/3/1 280/4/1
f 281/1/1 282/2/1 283/3/1 284/4/1
f 285/4/1 286/3/1 287/5/1 288/6/1
f 289/4/1 290/3/1 291/5/1 292/6/1
f 293/4/1 294/3/1 295/5/1 296/6/1
f 297/4/1 298/3/1 299/5/1 300/6/1
f 301/4/1 302/3/1 303/5/1 304/6/1
f 305/4/1 306/3/1 307/5/1 308/6/1
f 309/4/1 310/3/1 311/5/1 312/6/1
f 313/4/1 314/3/1 315/5/1 316/6/1
f 317/4/1 318/3/1 319/5/1 320/6/1
f 321/4/1 322/3/1 323/5/1 324/6/1
f 325/4/1 326/3/1 327/5/1 328/6/1
f 329/4/1 330/3/1 331/5/1 332/6/1
f 333/4/1 334/3/1 335/5/1 336/6/1
f 337/4/1 338/3/1 339/5/1 340/6/1
f 341/4/1 342/3/1 343/5/1 344/6/1
f 345/4/1 346/3/1 347/5/1 348/6/1
f 349/4/1 350/3/1 351/5/1 352/6/1
f 353/4/1 354/3/1 355/5/1 356/6/1
f 357/4/1 358/3/1 359/5/1 360/6/1
f 361/1/1 362/2/1 363/3/1 364/4/1
f 365/1/1 366/2/1 367/3/1 368/4/1
f 369/1/1 370/2/1 371/3/1 372/4/1
f 373/1/1 374/2/1 375/3/1 376/4/1
f 377/1/1 378/2/1 379/3/1 380/4/1
f 381/1/1 382/2/1 383/3/1 384/4/1
f 385/1/1 386/2/1 387/3/1 388/4/1
f 389/4/1 390/3/1 391/5/1 392/6/1
f 393/4/1 394/3/1 395/5/1 396/6/1
f 397/3/1 398/7/1 399/8/1 400/5/1
f 401/3/1 402/7/1 403/8/1 404/5/1
f 405/3/1 406/7/1 407/8/1 408/5/1
f 409/3/1 410/7/1 411/8/1 412/5/1
f 413/3/1 414/7/1 415/8/1 416/5/1
f 417/1/1 418/2/1 419/3/1 420/4/1
f 421/1/1 422/2/1 423/3/1 424/4/1
f 425/1/1 426/2/1 427/3/1 428/4/1
f 429/1/1 430/2/1 431/3/1 432/4/1
f 433/1/1 434/2/1 435/3/1 436/4/1
f 437/1/1 438/2/1 439/3/1 440/4/1
f 441/1/1 442/2/1 443/3/1 444/4/1
f 445/1/1 446/2/1 447/3/1 448/4/1
f 449/1/1 450/2/1 451/3/1 452/4/1
f 453/1/1 454/2/1 455/3/1 456/4/1
f 457/1/1 458/2/1 459/3/1 460/4/1
f 461/1/1 462/2/1 463/3/1 464/4/1
f 465/1/1 466/2/1 467/3/1 468/4/1
f 469/1/1 470/2/1 471/3/1 472/4/1
f 473/1/1 474/2/1 475/3/1 476/4/1
f 477/7/1 478/9/1 479/10/1 480/8/1
f 481/7/1 482/9/1 483/10/1 484/8/1
f 485/7/1 486/9/1 487/10/1 488/8/1
f 489/7/1 490/9/1 491/10/1 492/8/1
f 493/7/1 494/9/1 495/10/1 496/8/1
f 497/7/1 498/9/1 499/10/1 500/8/1
f 501/7/1 502/9/1 503/10/1 504/8/1
f 505/7/1 506/9/1 507/10/1 508/8/1
f 509/7/1 510/9/1 511/10/1 512/8/1
f 513/7/1 514/9/1 515/10/1 516/8/1
f 517/3/1 518/7/1 519/8/1 520/5/1
f 521/3/1 522/7/1 523/8/1 524/5/1
f 525/3/1 526/7/1 527/8/1 528/5/1
f 529/3/1 530/7/1 531/8/1 532/5/1
f 533/3/1 534/7/1 535/8/1 536/5/1
f 537/3/1 538/7/1 539/8/1 540/5/1
f 541/3/1 542/7/1 543/8/1 544/5/1
f 545/3/1 546/7/1 547/8/1 548/5/1
f 549/3/1 550/7/1 551/8/1 552/5/1
f 553/3/1 554/7/1 555/8/1 556/5/1
f 557/3/1 558/7/1 559/8/1 560/5/1
f 561/3/1 562/7/1 563/8/1 564/5/1
f 565/3/1 566/7/1 567/8/1 568/5/1
f 569/3/1 570/7/1 571/8/1 572/5/1
f 573/1/1 574/2/1 575/3/1 576/4/1
f 577/3/1 578/7/1 579/8/1 580/5/1
f 581/3/1 582/7/1 583/8/1 584/5/1
f 585/3/1 586/7/1 587/8/1 588/5/1
f 589/3/1 590/7/1 591/8/1 592/5/1
f 593/3/1 594/7/1 595/8/1 596/5/1

