# Tiled2Unity generated file. Do not modify by hand.
# Wavefront file for 'Map_mesh_0020.obj'

# Vertices (Count = 20)
v -70.4 -50.4 0
v -71.2 -50.4 0
v -71.2 -49.6 0
v -70.4 -49.6 0
v -64 -50.4 0
v -64.8 -50.4 0
v -64.8 -49.6 0
v -64 -49.6 0
v -5.6 -45.6 0
v -6.4 -45.6 0
v -6.4 -44.8 0
v -5.6 -44.8 0
v -4 -45.6 0
v -4.8 -45.6 0
v -4.8 -44.8 0
v -4 -44.8 0
v -1.6 -45.6 0
v -2.4 -45.6 0
v -2.4 -44.8 0
v -1.6 -44.8 0

# Texture cooridinates (Count = 4)
vt 0 0
vt 1 0
vt 1 1
vt 0 1

# Normal
vn 0 0 -1

# Mesh description
g Map_mesh_0020

# Faces
f 1/1/1 2/2/1 3/3/1 4/4/1
f 5/1/1 6/2/1 7/3/1 8/4/1
f 9/1/1 10/2/1 11/3/1 12/4/1
f 13/1/1 14/2/1 15/3/1 16/4/1
f 17/1/1 18/2/1 19/3/1 20/4/1

