# Tiled2Unity generated file. Do not modify by hand.
# Wavefront file for 'Map_mesh_0042.obj'

# Vertices (Count = 224)
v -101.6 -40.8 0
v -103.2 -40.8 0
v -103.2 -40 0
v -101.6 -40 0
v -98.4 -40.8 0
v -100 -40.8 0
v -100 -40 0
v -98.4 -40 0
v -95.2 -40.8 0
v -96.8 -40.8 0
v -96.8 -40 0
v -95.2 -40 0
v -92 -40.8 0
v -93.6 -40.8 0
v -93.6 -40 0
v -92 -40 0
v -88.8 -40.8 0
v -90.4 -40.8 0
v -90.4 -40 0
v -88.8 -40 0
v -85.6 -40.8 0
v -87.2 -40.8 0
v -87.2 -40 0
v -85.6 -40 0
v -60 -40 0
v -61.6 -40 0
v -61.6 -39.2 0
v -60 -39.2 0
v -58.4 -40 0
v -60 -40 0
v -60 -39.2 0
v -58.4 -39.2 0
v -56.8 -40 0
v -58.4 -40 0
v -58.4 -39.2 0
v -56.8 -39.2 0
v -55.2 -40 0
v -56.8 -40 0
v -56.8 -39.2 0
v -55.2 -39.2 0
v -53.6 -40 0
v -55.2 -40 0
v -55.2 -39.2 0
v -53.6 -39.2 0
v -52 -40 0
v -53.6 -40 0
v -53.6 -39.2 0
v -52 -39.2 0
v -50.4 -40 0
v -52 -40 0
v -52 -39.2 0
v -50.4 -39.2 0
v -48.8 -40 0
v -50.4 -40 0
v -50.4 -39.2 0
v -48.8 -39.2 0
v -47.2 -40 0
v -48.8 -40 0
v -48.8 -39.2 0
v -47.2 -39.2 0
v -45.6 -40 0
v -47.2 -40 0
v -47.2 -39.2 0
v -45.6 -39.2 0
v -44 -40 0
v -45.6 -40 0
v -45.6 -39.2 0
v -44 -39.2 0
v -42.4 -40 0
v -44 -40 0
v -44 -39.2 0
v -42.4 -39.2 0
v -40.8 -40 0
v -42.4 -40 0
v -42.4 -39.2 0
v -40.8 -39.2 0
v -39.2 -40 0
v -40.8 -40 0
v -40.8 -39.2 0
v -39.2 -39.2 0
v -37.6 -40 0
v -39.2 -40 0
v -39.2 -39.2 0
v -37.6 -39.2 0
v -36 -40 0
v -37.6 -40 0
v -37.6 -39.2 0
v -36 -39.2 0
v -34.4 -40 0
v -36 -40 0
v -36 -39.2 0
v -34.4 -39.2 0
v -32.8 -40 0
v -34.4 -40 0
v -34.4 -39.2 0
v -32.8 -39.2 0
v -7.2 -40 0
v -8.8 -40 0
v -8.8 -39.2 0
v -7.2 -39.2 0
v -4.8 -40 0
v -6.4 -40 0
v -6.4 -39.2 0
v -4.8 -39.2 0
v -2.4 -40 0
v -4 -40 0
v -4 -39.2 0
v -2.4 -39.2 0
v 0 -40 0
v -1.6 -40 0
v -1.6 -39.2 0
v 0 -39.2 0
v -109.6 -38.4 0
v -111.2 -38.4 0
v -111.2 -37.6 0
v -109.6 -37.6 0
v -108 -38.4 0
v -109.6 -38.4 0
v -109.6 -37.6 0
v -108 -37.6 0
v -106.4 -38.4 0
v -108 -38.4 0
v -108 -37.6 0
v -106.4 -37.6 0
v -132.8 -34.4 0
v -134.4 -34.4 0
v -134.4 -33.6 0
v -132.8 -33.6 0
v -131.2 -34.4 0
v -132.8 -34.4 0
v -132.8 -33.6 0
v -131.2 -33.6 0
v -129.6 -34.4 0
v -131.2 -34.4 0
v -131.2 -33.6 0
v -129.6 -33.6 0
v -128 -34.4 0
v -129.6 -34.4 0
v -129.6 -33.6 0
v -128 -33.6 0
v -144.8 -32 0
v -146.4 -32 0
v -146.4 -31.2 0
v -144.8 -31.2 0
v -143.2 -32 0
v -144.8 -32 0
v -144.8 -31.2 0
v -143.2 -31.2 0
v -141.6 -32 0
v -143.2 -32 0
v -143.2 -31.2 0
v -141.6 -31.2 0
v -140 -32 0
v -141.6 -32 0
v -141.6 -31.2 0
v -140 -31.2 0
v -138.4 -32 0
v -140 -32 0
v -140 -31.2 0
v -138.4 -31.2 0
v -92.8 -28.8 0
v -94.4 -28.8 0
v -94.4 -28 0
v -92.8 -28 0
v -91.2 -28.8 0
v -92.8 -28.8 0
v -92.8 -28 0
v -91.2 -28 0
v -89.6 -28.8 0
v -91.2 -28.8 0
v -91.2 -28 0
v -89.6 -28 0
v -88 -28.8 0
v -89.6 -28.8 0
v -89.6 -28 0
v -88 -28 0
v -86.4 -28.8 0
v -88 -28.8 0
v -88 -28 0
v -86.4 -28 0
v -84.8 -28.8 0
v -86.4 -28.8 0
v -86.4 -28 0
v -84.8 -28 0
v -83.2 -28.8 0
v -84.8 -28.8 0
v -84.8 -28 0
v -83.2 -28 0
v -116 -25.6 0
v -117.6 -25.6 0
v -117.6 -24.8 0
v -116 -24.8 0
v -114.4 -25.6 0
v -116 -25.6 0
v -116 -24.8 0
v -114.4 -24.8 0
v -112.8 -25.6 0
v -114.4 -25.6 0
v -114.4 -24.8 0
v -112.8 -24.8 0
v -111.2 -25.6 0
v -112.8 -25.6 0
v -112.8 -24.8 0
v -111.2 -24.8 0
v -105.6 -25.6 0
v -107.2 -25.6 0
v -107.2 -24.8 0
v -105.6 -24.8 0
v -104 -25.6 0
v -105.6 -25.6 0
v -105.6 -24.8 0
v -104 -24.8 0
v -102.4 -25.6 0
v -104 -25.6 0
v -104 -24.8 0
v -102.4 -24.8 0
v -100.8 -25.6 0
v -102.4 -25.6 0
v -102.4 -24.8 0
v -100.8 -24.8 0
v -99.2 -25.6 0
v -100.8 -25.6 0
v -100.8 -24.8 0
v -99.2 -24.8 0

# Texture cooridinates (Count = 8)
vt 0 0
vt 0.3333333 0
vt 0.3333333 0.5
vt 0 0.5
vt 0.3333333 1
vt 0 1
vt 0.6666667 0.5
vt 0.6666667 1

# Normal
vn 0 0 -1

# Mesh description
g Map_mesh_0042

# Faces
f 1/1/1 2/2/1 3/3/1 4/4/1
f 5/1/1 6/2/1 7/3/1 8/4/1
f 9/4/1 10/3/1 11/5/1 12/6/1
f 13/4/1 14/3/1 15/5/1 16/6/1
f 17/4/1 18/3/1 19/5/1 20/6/1
f 21/4/1 22/3/1 23/5/1 24/6/1
f 25/4/1 26/3/1 27/5/1 28/6/1
f 29/4/1 30/3/1 31/5/1 32/6/1
f 33/4/1 34/3/1 35/5/1 36/6/1
f 37/1/1 38/2/1 39/3/1 40/4/1
f 41/4/1 42/3/1 43/5/1 44/6/1
f 45/1/1 46/2/1 47/3/1 48/4/1
f 49/4/1 50/3/1 51/5/1 52/6/1
f 53/1/1 54/2/1 55/3/1 56/4/1
f 57/1/1 58/2/1 59/3/1 60/4/1
f 61/1/1 62/2/1 63/3/1 64/4/1
f 65/4/1 66/3/1 67/5/1 68/6/1
f 69/4/1 70/3/1 71/5/1 72/6/1
f 73/4/1 74/3/1 75/5/1 76/6/1
f 77/1/1 78/2/1 79/3/1 80/4/1
f 81/1/1 82/2/1 83/3/1 84/4/1
f 85/1/1 86/2/1 87/3/1 88/4/1
f 89/4/1 90/3/1 91/5/1 92/6/1
f 93/4/1 94/3/1 95/5/1 96/6/1
f 97/1/1 98/2/1 99/3/1 100/4/1
f 101/1/1 102/2/1 103/3/1 104/4/1
f 105/1/1 106/2/1 107/3/1 108/4/1
f 109/1/1 110/2/1 111/3/1 112/4/1
f 113/1/1 114/2/1 115/3/1 116/4/1
f 117/1/1 118/2/1 119/3/1 120/4/1
f 121/1/1 122/2/1 123/3/1 124/4/1
f 125/4/1 126/3/1 127/5/1 128/6/1
f 129/4/1 130/3/1 131/5/1 132/6/1
f 133/4/1 134/3/1 135/5/1 136/6/1
f 137/4/1 138/3/1 139/5/1 140/6/1
f 141/4/1 142/3/1 143/5/1 144/6/1
f 145/4/1 146/3/1 147/5/1 148/6/1
f 149/4/1 150/3/1 151/5/1 152/6/1
f 153/4/1 154/3/1 155/5/1 156/6/1
f 157/4/1 158/3/1 159/5/1 160/6/1
f 161/1/1 162/2/1 163/3/1 164/4/1
f 165/1/1 166/2/1 167/3/1 168/4/1
f 169/1/1 170/2/1 171/3/1 172/4/1
f 173/1/1 174/2/1 175/3/1 176/4/1
f 177/1/1 178/2/1 179/3/1 180/4/1
f 181/1/1 182/2/1 183/3/1 184/4/1
f 185/1/1 186/2/1 187/3/1 188/4/1
f 189/3/1 190/7/1 191/8/1 192/5/1
f 193/3/1 194/7/1 195/8/1 196/5/1
f 197/3/1 198/7/1 199/8/1 200/5/1
f 201/3/1 202/7/1 203/8/1 204/5/1
f 205/3/1 206/7/1 207/8/1 208/5/1
f 209/3/1 210/7/1 211/8/1 212/5/1
f 213/3/1 214/7/1 215/8/1 216/5/1
f 217/3/1 218/7/1 219/8/1 220/5/1
f 221/3/1 222/7/1 223/8/1 224/5/1

