# Tiled2Unity generated file. Do not modify by hand.
# Wavefront file for 'Map_mesh_0043.obj'

# Vertices (Count = 28)
v -82.4 -62.4 0
v -83.2 -62.4 0
v -83.2 -61.6 0
v -82.4 -61.6 0
v -81.6 -62.4 0
v -82.4 -62.4 0
v -82.4 -61.6 0
v -81.6 -61.6 0
v -80.8 -62.4 0
v -81.6 -62.4 0
v -81.6 -61.6 0
v -80.8 -61.6 0
v -80 -62.4 0
v -80.8 -62.4 0
v -80.8 -61.6 0
v -80 -61.6 0
v -79.2 -62.4 0
v -80 -62.4 0
v -80 -61.6 0
v -79.2 -61.6 0
v -1.6 -34.4 0
v -2.4 -34.4 0
v -2.4 -33.6 0
v -1.6 -33.6 0
v 0 -34.4 0
v -0.8 -34.4 0
v -0.8 -33.6 0
v 0 -33.6 0

# Texture cooridinates (Count = 10)
vt 0.625 0
vt 0.75 0
vt 0.75 0.125
vt 0.625 0.125
vt 0.25 0.875
vt 0.375 0.875
vt 0.375 1
vt 0.25 1
vt 0.125 0.875
vt 0.125 1

# Normal
vn 0 0 -1

# Mesh description
g Map_mesh_0043

# Faces
f 1/1/1 2/2/1 3/3/1 4/4/1
f 5/1/1 6/2/1 7/3/1 8/4/1
f 9/1/1 10/2/1 11/3/1 12/4/1
f 13/1/1 14/2/1 15/3/1 16/4/1
f 17/1/1 18/2/1 19/3/1 20/4/1
f 21/5/1 22/6/1 23/7/1 24/8/1
f 25/9/1 26/5/1 27/8/1 28/10/1

