# Tiled2Unity generated file. Do not modify by hand.
# Wavefront file for 'Map_mesh_0035.obj'

# Vertices (Count = 208)
v -72.8 -40 0
v -73.6 -40 0
v -73.6 -39.2 0
v -72.8 -39.2 0
v -72.8 -39.2 0
v -73.6 -39.2 0
v -73.6 -38.4 0
v -72.8 -38.4 0
v -56 -39.2 0
v -56.8 -39.2 0
v -56.8 -38.4 0
v -56 -38.4 0
v -72.8 -38.4 0
v -73.6 -38.4 0
v -73.6 -37.6 0
v -72.8 -37.6 0
v -64 -38.4 0
v -64.8 -38.4 0
v -64.8 -37.6 0
v -64 -37.6 0
v -56 -38.4 0
v -56.8 -38.4 0
v -56.8 -37.6 0
v -56 -37.6 0
v -11.2 -38.4 0
v -12 -38.4 0
v -12 -37.6 0
v -11.2 -37.6 0
v -72.8 -37.6 0
v -73.6 -37.6 0
v -73.6 -36.8 0
v -72.8 -36.8 0
v -64 -37.6 0
v -64.8 -37.6 0
v -64.8 -36.8 0
v -64 -36.8 0
v -56 -37.6 0
v -56.8 -37.6 0
v -56.8 -36.8 0
v -56 -36.8 0
v -11.2 -37.6 0
v -12 -37.6 0
v -12 -36.8 0
v -11.2 -36.8 0
v -72.8 -36.8 0
v -73.6 -36.8 0
v -73.6 -36 0
v -72.8 -36 0
v -64 -36.8 0
v -64.8 -36.8 0
v -64.8 -36 0
v -64 -36 0
v -56 -36.8 0
v -56.8 -36.8 0
v -56.8 -36 0
v -56 -36 0
v -12 -36.8 0
v -12.8 -36.8 0
v -12.8 -36 0
v -12 -36 0
v -11.2 -36.8 0
v -12 -36.8 0
v -12 -36 0
v -11.2 -36 0
v -72.8 -36 0
v -73.6 -36 0
v -73.6 -35.2 0
v -72.8 -35.2 0
v -64 -36 0
v -64.8 -36 0
v -64.8 -35.2 0
v -64 -35.2 0
v -56 -36 0
v -56.8 -36 0
v -56.8 -35.2 0
v -56 -35.2 0
v -12 -36 0
v -12.8 -36 0
v -12.8 -35.2 0
v -12 -35.2 0
v -11.2 -36 0
v -12 -36 0
v -12 -35.2 0
v -11.2 -35.2 0
v -72.8 -35.2 0
v -73.6 -35.2 0
v -73.6 -34.4 0
v -72.8 -34.4 0
v -64 -35.2 0
v -64.8 -35.2 0
v -64.8 -34.4 0
v -64 -34.4 0
v -12 -35.2 0
v -12.8 -35.2 0
v -12.8 -34.4 0
v -12 -34.4 0
v -11.2 -35.2 0
v -12 -35.2 0
v -12 -34.4 0
v -11.2 -34.4 0
v -72.8 -34.4 0
v -73.6 -34.4 0
v -73.6 -33.6 0
v -72.8 -33.6 0
v -64 -34.4 0
v -64.8 -34.4 0
v -64.8 -33.6 0
v -64 -33.6 0
v -12 -34.4 0
v -12.8 -34.4 0
v -12.8 -33.6 0
v -12 -33.6 0
v -11.2 -34.4 0
v -12 -34.4 0
v -12 -33.6 0
v -11.2 -33.6 0
v -72.8 -33.6 0
v -73.6 -33.6 0
v -73.6 -32.8 0
v -72.8 -32.8 0
v -12 -33.6 0
v -12.8 -33.6 0
v -12.8 -32.8 0
v -12 -32.8 0
v -11.2 -33.6 0
v -12 -33.6 0
v -12 -32.8 0
v -11.2 -32.8 0
v -72.8 -32.8 0
v -73.6 -32.8 0
v -73.6 -32 0
v -72.8 -32 0
v -12 -32.8 0
v -12.8 -32.8 0
v -12.8 -32 0
v -12 -32 0
v -11.2 -32.8 0
v -12 -32.8 0
v -12 -32 0
v -11.2 -32 0
v -72.8 -32 0
v -73.6 -32 0
v -73.6 -31.2 0
v -72.8 -31.2 0
v -12 -32 0
v -12.8 -32 0
v -12.8 -31.2 0
v -12 -31.2 0
v -11.2 -32 0
v -12 -32 0
v -12 -31.2 0
v -11.2 -31.2 0
v -12 -31.2 0
v -12.8 -31.2 0
v -12.8 -30.4 0
v -12 -30.4 0
v -11.2 -31.2 0
v -12 -31.2 0
v -12 -30.4 0
v -11.2 -30.4 0
v -12 -30.4 0
v -12.8 -30.4 0
v -12.8 -29.6 0
v -12 -29.6 0
v -11.2 -30.4 0
v -12 -30.4 0
v -12 -29.6 0
v -11.2 -29.6 0
v -12 -29.6 0
v -12.8 -29.6 0
v -12.8 -28.8 0
v -12 -28.8 0
v -11.2 -29.6 0
v -12 -29.6 0
v -12 -28.8 0
v -11.2 -28.8 0
v -12 -28.8 0
v -12.8 -28.8 0
v -12.8 -28 0
v -12 -28 0
v -11.2 -28.8 0
v -12 -28.8 0
v -12 -28 0
v -11.2 -28 0
v -12 -28 0
v -12.8 -28 0
v -12.8 -27.2 0
v -12 -27.2 0
v -11.2 -28 0
v -12 -28 0
v -12 -27.2 0
v -11.2 -27.2 0
v -12 -27.2 0
v -12.8 -27.2 0
v -12.8 -26.4 0
v -12 -26.4 0
v -11.2 -27.2 0
v -12 -27.2 0
v -12 -26.4 0
v -11.2 -26.4 0
v -12 -26.4 0
v -12.8 -26.4 0
v -12.8 -25.6 0
v -12 -25.6 0
v -11.2 -26.4 0
v -12 -26.4 0
v -12 -25.6 0
v -11.2 -25.6 0

# Texture cooridinates (Count = 18)
vt 0.7777778 0
vt 0.8888889 0
vt 0.8888889 0.3333333
vt 0.7777778 0.3333333
vt 0.8888889 0.6666666
vt 0.7777778 0.6666666
vt 0 0
vt 0.1111111 0
vt 0.1111111 0.3333333
vt 0 0.3333333
vt 0.1111111 0.6666666
vt 0 0.6666666
vt 0.2222222 0.3333333
vt 0.2222222 0.6666666
vt 0.2222222 0
vt 0.2222222 1
vt 0.1111111 1
vt 0 1

# Normal
vn 0 0 -1

# Mesh description
g Map_mesh_0035

# Faces
f 1/1/1 2/2/1 3/3/1 4/4/1
f 5/4/1 6/3/1 7/5/1 8/6/1
f 9/1/1 10/2/1 11/3/1 12/4/1
f 13/4/1 14/3/1 15/5/1 16/6/1
f 17/1/1 18/2/1 19/3/1 20/4/1
f 21/4/1 22/3/1 23/5/1 24/6/1
f 25/7/1 26/8/1 27/9/1 28/10/1
f 29/4/1 30/3/1 31/5/1 32/6/1
f 33/4/1 34/3/1 35/5/1 36/6/1
f 37/4/1 38/3/1 39/5/1 40/6/1
f 41/10/1 42/9/1 43/11/1 44/12/1
f 45/4/1 46/3/1 47/5/1 48/6/1
f 49/4/1 50/3/1 51/5/1 52/6/1
f 53/4/1 54/3/1 55/5/1 56/6/1
f 57/9/1 58/13/1 59/14/1 60/11/1
f 61/10/1 62/9/1 63/11/1 64/12/1
f 65/4/1 66/3/1 67/5/1 68/6/1
f 69/4/1 70/3/1 71/5/1 72/6/1
f 73/4/1 74/3/1 75/5/1 76/6/1
f 77/9/1 78/13/1 79/14/1 80/11/1
f 81/10/1 82/9/1 83/11/1 84/12/1
f 85/4/1 86/3/1 87/5/1 88/6/1
f 89/4/1 90/3/1 91/5/1 92/6/1
f 93/9/1 94/13/1 95/14/1 96/11/1
f 97/10/1 98/9/1 99/11/1 100/12/1
f 101/4/1 102/3/1 103/5/1 104/6/1
f 105/4/1 106/3/1 107/5/1 108/6/1
f 109/9/1 110/13/1 111/14/1 112/11/1
f 113/10/1 114/9/1 115/11/1 116/12/1
f 117/4/1 118/3/1 119/5/1 120/6/1
f 121/9/1 122/13/1 123/14/1 124/11/1
f 125/10/1 126/9/1 127/11/1 128/12/1
f 129/4/1 130/3/1 131/5/1 132/6/1
f 133/9/1 134/13/1 135/14/1 136/11/1
f 137/10/1 138/9/1 139/11/1 140/12/1
f 141/4/1 142/3/1 143/5/1 144/6/1
f 145/9/1 146/13/1 147/14/1 148/11/1
f 149/10/1 150/9/1 151/11/1 152/12/1
f 153/9/1 154/13/1 155/14/1 156/11/1
f 157/10/1 158/9/1 159/11/1 160/12/1
f 161/9/1 162/13/1 163/14/1 164/11/1
f 165/10/1 166/9/1 167/11/1 168/12/1
f 169/9/1 170/13/1 171/14/1 172/11/1
f 173/10/1 174/9/1 175/11/1 176/12/1
f 177/8/1 178/15/1 179/13/1 180/9/1
f 181/10/1 182/9/1 183/11/1 184/12/1
f 185/11/1 186/14/1 187/16/1 188/17/1
f 189/10/1 190/9/1 191/11/1 192/12/1
f 193/11/1 194/14/1 195/16/1 196/17/1
f 197/10/1 198/9/1 199/11/1 200/12/1
f 201/11/1 202/14/1 203/16/1 204/17/1
f 205/12/1 206/11/1 207/17/1 208/18/1

