# Tiled2Unity generated file. Do not modify by hand.
# Wavefront file for 'Map_mesh_0039.obj'

# Vertices (Count = 88)
v -60 -40 0
v -61.6 -40 0
v -61.6 -39.2 0
v -60 -39.2 0
v -58.4 -40 0
v -60 -40 0
v -60 -39.2 0
v -58.4 -39.2 0
v -56.8 -40 0
v -58.4 -40 0
v -58.4 -39.2 0
v -56.8 -39.2 0
v -55.2 -40 0
v -56.8 -40 0
v -56.8 -39.2 0
v -55.2 -39.2 0
v -53.6 -40 0
v -55.2 -40 0
v -55.2 -39.2 0
v -53.6 -39.2 0
v -52 -40 0
v -53.6 -40 0
v -53.6 -39.2 0
v -52 -39.2 0
v -50.4 -40 0
v -52 -40 0
v -52 -39.2 0
v -50.4 -39.2 0
v -48.8 -40 0
v -50.4 -40 0
v -50.4 -39.2 0
v -48.8 -39.2 0
v -47.2 -40 0
v -48.8 -40 0
v -48.8 -39.2 0
v -47.2 -39.2 0
v -45.6 -40 0
v -47.2 -40 0
v -47.2 -39.2 0
v -45.6 -39.2 0
v -44 -40 0
v -45.6 -40 0
v -45.6 -39.2 0
v -44 -39.2 0
v -42.4 -40 0
v -44 -40 0
v -44 -39.2 0
v -42.4 -39.2 0
v -40.8 -40 0
v -42.4 -40 0
v -42.4 -39.2 0
v -40.8 -39.2 0
v -39.2 -40 0
v -40.8 -40 0
v -40.8 -39.2 0
v -39.2 -39.2 0
v -37.6 -40 0
v -39.2 -40 0
v -39.2 -39.2 0
v -37.6 -39.2 0
v -36 -40 0
v -37.6 -40 0
v -37.6 -39.2 0
v -36 -39.2 0
v -34.4 -40 0
v -36 -40 0
v -36 -39.2 0
v -34.4 -39.2 0
v -32.8 -40 0
v -34.4 -40 0
v -34.4 -39.2 0
v -32.8 -39.2 0
v -7.2 -40 0
v -8.8 -40 0
v -8.8 -39.2 0
v -7.2 -39.2 0
v -4.8 -40 0
v -6.4 -40 0
v -6.4 -39.2 0
v -4.8 -39.2 0
v -2.4 -40 0
v -4 -40 0
v -4 -39.2 0
v -2.4 -39.2 0
v 0 -40 0
v -1.6 -40 0
v -1.6 -39.2 0
v 0 -39.2 0

# Texture cooridinates (Count = 6)
vt 0 0.5
vt 0.3333333 0.5
vt 0.3333333 1
vt 0 1
vt 0 0
vt 0.3333333 0

# Normal
vn 0 0 -1

# Mesh description
g Map_mesh_0039

# Faces
f 1/1/1 2/2/1 3/3/1 4/4/1
f 5/1/1 6/2/1 7/3/1 8/4/1
f 9/1/1 10/2/1 11/3/1 12/4/1
f 13/5/1 14/6/1 15/2/1 16/1/1
f 17/1/1 18/2/1 19/3/1 20/4/1
f 21/5/1 22/6/1 23/2/1 24/1/1
f 25/1/1 26/2/1 27/3/1 28/4/1
f 29/5/1 30/6/1 31/2/1 32/1/1
f 33/5/1 34/6/1 35/2/1 36/1/1
f 37/5/1 38/6/1 39/2/1 40/1/1
f 41/1/1 42/2/1 43/3/1 44/4/1
f 45/1/1 46/2/1 47/3/1 48/4/1
f 49/1/1 50/2/1 51/3/1 52/4/1
f 53/5/1 54/6/1 55/2/1 56/1/1
f 57/5/1 58/6/1 59/2/1 60/1/1
f 61/5/1 62/6/1 63/2/1 64/1/1
f 65/1/1 66/2/1 67/3/1 68/4/1
f 69/1/1 70/2/1 71/3/1 72/4/1
f 73/5/1 74/6/1 75/2/1 76/1/1
f 77/5/1 78/6/1 79/2/1 80/1/1
f 81/5/1 82/6/1 83/2/1 84/1/1
f 85/5/1 86/6/1 87/2/1 88/1/1

