# Tiled2Unity generated file. Do not modify by hand.
# Wavefront file for 'Map_mesh_0015.obj'

# Vertices (Count = 32)
v -76 -54.4 0
v -76.8 -54.4 0
v -76.8 -53.6 0
v -76 -53.6 0
v -71.2 -51.2 0
v -72 -51.2 0
v -72 -50.4 0
v -71.2 -50.4 0
v -4.8 -45.6 0
v -5.6 -45.6 0
v -5.6 -44.8 0
v -4.8 -44.8 0
v -2.4 -45.6 0
v -3.2 -45.6 0
v -3.2 -44.8 0
v -2.4 -44.8 0
v -9.6 -44.8 0
v -10.4 -44.8 0
v -10.4 -44 0
v -9.6 -44 0
v -56.8 -44 0
v -57.6 -44 0
v -57.6 -43.2 0
v -56.8 -43.2 0
v -61.6 -41.6 0
v -62.4 -41.6 0
v -62.4 -40.8 0
v -61.6 -40.8 0
v -56.8 -41.6 0
v -57.6 -41.6 0
v -57.6 -40.8 0
v -56.8 -40.8 0

# Texture cooridinates (Count = 4)
vt 0 0
vt 1 0
vt 1 1
vt 0 1

# Normal
vn 0 0 -1

# Mesh description
g Map_mesh_0015

# Faces
f 1/1/1 2/2/1 3/3/1 4/4/1
f 5/1/1 6/2/1 7/3/1 8/4/1
f 9/1/1 10/2/1 11/3/1 12/4/1
f 13/1/1 14/2/1 15/3/1 16/4/1
f 17/1/1 18/2/1 19/3/1 20/4/1
f 21/1/1 22/2/1 23/3/1 24/4/1
f 25/1/1 26/2/1 27/3/1 28/4/1
f 29/1/1 30/2/1 31/3/1 32/4/1

