# Tiled2Unity generated file. Do not modify by hand.
# Wavefront file for 'Map_mesh_0064.obj'

# Vertices (Count = 12)
v -94.4 -42.4 0
v -95.2 -42.4 0
v -95.2 -41.6 0
v -94.4 -41.6 0
v -93.6 -42.4 0
v -94.4 -42.4 0
v -94.4 -41.6 0
v -93.6 -41.6 0
v -96.8 -41.6 0
v -97.6 -41.6 0
v -97.6 -40.8 0
v -96.8 -40.8 0

# Texture cooridinates (Count = 4)
vt 0 0
vt 1 0
vt 1 1
vt 0 1

# Normal
vn 0 0 -1

# Mesh description
g Map_mesh_0064

# Faces
f 1/1/1 2/2/1 3/3/1 4/4/1
f 5/1/1 6/2/1 7/3/1 8/4/1
f 9/1/1 10/2/1 11/3/1 12/4/1

