# Tiled2Unity generated file. Do not modify by hand.
# Wavefront file for 'Map_mesh_0079.obj'

# Vertices (Count = 24)
v -207.2 -41.6 0
v -208 -41.6 0
v -208 -40.8 0
v -207.2 -40.8 0
v -204.8 -41.6 0
v -205.6 -41.6 0
v -205.6 -40.8 0
v -204.8 -40.8 0
v -199.2 -41.6 0
v -200 -41.6 0
v -200 -40.8 0
v -199.2 -40.8 0
v -189.6 -41.6 0
v -190.4 -41.6 0
v -190.4 -40.8 0
v -189.6 -40.8 0
v -181.6 -41.6 0
v -182.4 -41.6 0
v -182.4 -40.8 0
v -181.6 -40.8 0
v -172 -41.6 0
v -172.8 -41.6 0
v -172.8 -40.8 0
v -172 -40.8 0

# Texture cooridinates (Count = 4)
vt 0 0
vt 1 0
vt 1 1
vt 0 1

# Normal
vn 0 0 -1

# Mesh description
g Map_mesh_0079

# Faces
f 1/1/1 2/2/1 3/3/1 4/4/1
f 5/1/1 6/2/1 7/3/1 8/4/1
f 9/1/1 10/2/1 11/3/1 12/4/1
f 13/1/1 14/2/1 15/3/1 16/4/1
f 17/1/1 18/2/1 19/3/1 20/4/1
f 21/1/1 22/2/1 23/3/1 24/4/1

