# Tiled2Unity generated file. Do not modify by hand.
# Wavefront file for 'Map_mesh_0043.obj'

# Vertices (Count = 448)
v -8.8 -44.8 0
v -9.6 -44.8 0
v -9.6 -44 0
v -8.8 -44 0
v -8 -44.8 0
v -8.8 -44.8 0
v -8.8 -44 0
v -8 -44 0
v -7.2 -44.8 0
v -8 -44.8 0
v -8 -44 0
v -7.2 -44 0
v -6.4 -44.8 0
v -7.2 -44.8 0
v -7.2 -44 0
v -6.4 -44 0
v -5.6 -44.8 0
v -6.4 -44.8 0
v -6.4 -44 0
v -5.6 -44 0
v -4.8 -44.8 0
v -5.6 -44.8 0
v -5.6 -44 0
v -4.8 -44 0
v -4 -44.8 0
v -4.8 -44.8 0
v -4.8 -44 0
v -4 -44 0
v -3.2 -44.8 0
v -4 -44.8 0
v -4 -44 0
v -3.2 -44 0
v -2.4 -44.8 0
v -3.2 -44.8 0
v -3.2 -44 0
v -2.4 -44 0
v -1.6 -44.8 0
v -2.4 -44.8 0
v -2.4 -44 0
v -1.6 -44 0
v -0.8 -44.8 0
v -1.6 -44.8 0
v -1.6 -44 0
v -0.8 -44 0
v 0 -44.8 0
v -0.8 -44.8 0
v -0.8 -44 0
v 0 -44 0
v -9.6 -44 0
v -10.4 -44 0
v -10.4 -43.2 0
v -9.6 -43.2 0
v -8.8 -44 0
v -9.6 -44 0
v -9.6 -43.2 0
v -8.8 -43.2 0
v -8 -44 0
v -8.8 -44 0
v -8.8 -43.2 0
v -8 -43.2 0
v -7.2 -44 0
v -8 -44 0
v -8 -43.2 0
v -7.2 -43.2 0
v -6.4 -44 0
v -7.2 -44 0
v -7.2 -43.2 0
v -6.4 -43.2 0
v -5.6 -44 0
v -6.4 -44 0
v -6.4 -43.2 0
v -5.6 -43.2 0
v -4.8 -44 0
v -5.6 -44 0
v -5.6 -43.2 0
v -4.8 -43.2 0
v -4 -44 0
v -4.8 -44 0
v -4.8 -43.2 0
v -4 -43.2 0
v -3.2 -44 0
v -4 -44 0
v -4 -43.2 0
v -3.2 -43.2 0
v -2.4 -44 0
v -3.2 -44 0
v -3.2 -43.2 0
v -2.4 -43.2 0
v -1.6 -44 0
v -2.4 -44 0
v -2.4 -43.2 0
v -1.6 -43.2 0
v -0.8 -44 0
v -1.6 -44 0
v -1.6 -43.2 0
v -0.8 -43.2 0
v 0 -44 0
v -0.8 -44 0
v -0.8 -43.2 0
v 0 -43.2 0
v -10.4 -43.2 0
v -11.2 -43.2 0
v -11.2 -42.4 0
v -10.4 -42.4 0
v -9.6 -43.2 0
v -10.4 -43.2 0
v -10.4 -42.4 0
v -9.6 -42.4 0
v -8.8 -43.2 0
v -9.6 -43.2 0
v -9.6 -42.4 0
v -8.8 -42.4 0
v -8 -43.2 0
v -8.8 -43.2 0
v -8.8 -42.4 0
v -8 -42.4 0
v -7.2 -43.2 0
v -8 -43.2 0
v -8 -42.4 0
v -7.2 -42.4 0
v -6.4 -43.2 0
v -7.2 -43.2 0
v -7.2 -42.4 0
v -6.4 -42.4 0
v -5.6 -43.2 0
v -6.4 -43.2 0
v -6.4 -42.4 0
v -5.6 -42.4 0
v -4.8 -43.2 0
v -5.6 -43.2 0
v -5.6 -42.4 0
v -4.8 -42.4 0
v -4 -43.2 0
v -4.8 -43.2 0
v -4.8 -42.4 0
v -4 -42.4 0
v -3.2 -43.2 0
v -4 -43.2 0
v -4 -42.4 0
v -3.2 -42.4 0
v -2.4 -43.2 0
v -3.2 -43.2 0
v -3.2 -42.4 0
v -2.4 -42.4 0
v -1.6 -43.2 0
v -2.4 -43.2 0
v -2.4 -42.4 0
v -1.6 -42.4 0
v -0.8 -43.2 0
v -1.6 -43.2 0
v -1.6 -42.4 0
v -0.8 -42.4 0
v 0 -43.2 0
v -0.8 -43.2 0
v -0.8 -42.4 0
v 0 -42.4 0
v -10.4 -42.4 0
v -11.2 -42.4 0
v -11.2 -41.6 0
v -10.4 -41.6 0
v -9.6 -42.4 0
v -10.4 -42.4 0
v -10.4 -41.6 0
v -9.6 -41.6 0
v -8.8 -42.4 0
v -9.6 -42.4 0
v -9.6 -41.6 0
v -8.8 -41.6 0
v -8 -42.4 0
v -8.8 -42.4 0
v -8.8 -41.6 0
v -8 -41.6 0
v -7.2 -42.4 0
v -8 -42.4 0
v -8 -41.6 0
v -7.2 -41.6 0
v -6.4 -42.4 0
v -7.2 -42.4 0
v -7.2 -41.6 0
v -6.4 -41.6 0
v -5.6 -42.4 0
v -6.4 -42.4 0
v -6.4 -41.6 0
v -5.6 -41.6 0
v -4.8 -42.4 0
v -5.6 -42.4 0
v -5.6 -41.6 0
v -4.8 -41.6 0
v -4 -42.4 0
v -4.8 -42.4 0
v -4.8 -41.6 0
v -4 -41.6 0
v -3.2 -42.4 0
v -4 -42.4 0
v -4 -41.6 0
v -3.2 -41.6 0
v -2.4 -42.4 0
v -3.2 -42.4 0
v -3.2 -41.6 0
v -2.4 -41.6 0
v -1.6 -42.4 0
v -2.4 -42.4 0
v -2.4 -41.6 0
v -1.6 -41.6 0
v -0.8 -42.4 0
v -1.6 -42.4 0
v -1.6 -41.6 0
v -0.8 -41.6 0
v 0 -42.4 0
v -0.8 -42.4 0
v -0.8 -41.6 0
v 0 -41.6 0
v -8 -41.6 0
v -8.8 -41.6 0
v -8.8 -40.8 0
v -8 -40.8 0
v -7.2 -41.6 0
v -8 -41.6 0
v -8 -40.8 0
v -7.2 -40.8 0
v -6.4 -41.6 0
v -7.2 -41.6 0
v -7.2 -40.8 0
v -6.4 -40.8 0
v -5.6 -41.6 0
v -6.4 -41.6 0
v -6.4 -40.8 0
v -5.6 -40.8 0
v -4.8 -41.6 0
v -5.6 -41.6 0
v -5.6 -40.8 0
v -4.8 -40.8 0
v -4 -41.6 0
v -4.8 -41.6 0
v -4.8 -40.8 0
v -4 -40.8 0
v -3.2 -41.6 0
v -4 -41.6 0
v -4 -40.8 0
v -3.2 -40.8 0
v -2.4 -41.6 0
v -3.2 -41.6 0
v -3.2 -40.8 0
v -2.4 -40.8 0
v -1.6 -41.6 0
v -2.4 -41.6 0
v -2.4 -40.8 0
v -1.6 -40.8 0
v -0.8 -41.6 0
v -1.6 -41.6 0
v -1.6 -40.8 0
v -0.8 -40.8 0
v 0 -41.6 0
v -0.8 -41.6 0
v -0.8 -40.8 0
v 0 -40.8 0
v -9.6 -40.8 0
v -10.4 -40.8 0
v -10.4 -40 0
v -9.6 -40 0
v -8.8 -40.8 0
v -9.6 -40.8 0
v -9.6 -40 0
v -8.8 -40 0
v -8 -40.8 0
v -8.8 -40.8 0
v -8.8 -40 0
v -8 -40 0
v -7.2 -40.8 0
v -8 -40.8 0
v -8 -40 0
v -7.2 -40 0
v -6.4 -40.8 0
v -7.2 -40.8 0
v -7.2 -40 0
v -6.4 -40 0
v -5.6 -40.8 0
v -6.4 -40.8 0
v -6.4 -40 0
v -5.6 -40 0
v -4.8 -40.8 0
v -5.6 -40.8 0
v -5.6 -40 0
v -4.8 -40 0
v -4 -40.8 0
v -4.8 -40.8 0
v -4.8 -40 0
v -4 -40 0
v -3.2 -40.8 0
v -4 -40.8 0
v -4 -40 0
v -3.2 -40 0
v -2.4 -40.8 0
v -3.2 -40.8 0
v -3.2 -40 0
v -2.4 -40 0
v -1.6 -40.8 0
v -2.4 -40.8 0
v -2.4 -40 0
v -1.6 -40 0
v -0.8 -40.8 0
v -1.6 -40.8 0
v -1.6 -40 0
v -0.8 -40 0
v 0 -40.8 0
v -0.8 -40.8 0
v -0.8 -40 0
v 0 -40 0
v -10.4 -40 0
v -11.2 -40 0
v -11.2 -39.2 0
v -10.4 -39.2 0
v -9.6 -40 0
v -10.4 -40 0
v -10.4 -39.2 0
v -9.6 -39.2 0
v -8.8 -40 0
v -9.6 -40 0
v -9.6 -39.2 0
v -8.8 -39.2 0
v -8 -40 0
v -8.8 -40 0
v -8.8 -39.2 0
v -8 -39.2 0
v -6.4 -40 0
v -7.2 -40 0
v -7.2 -39.2 0
v -6.4 -39.2 0
v -5.6 -40 0
v -6.4 -40 0
v -6.4 -39.2 0
v -5.6 -39.2 0
v -4 -40 0
v -4.8 -40 0
v -4.8 -39.2 0
v -4 -39.2 0
v -3.2 -40 0
v -4 -40 0
v -4 -39.2 0
v -3.2 -39.2 0
v -1.6 -40 0
v -2.4 -40 0
v -2.4 -39.2 0
v -1.6 -39.2 0
v -0.8 -40 0
v -1.6 -40 0
v -1.6 -39.2 0
v -0.8 -39.2 0
v -10.4 -39.2 0
v -11.2 -39.2 0
v -11.2 -38.4 0
v -10.4 -38.4 0
v -9.6 -39.2 0
v -10.4 -39.2 0
v -10.4 -38.4 0
v -9.6 -38.4 0
v -8.8 -39.2 0
v -9.6 -39.2 0
v -9.6 -38.4 0
v -8.8 -38.4 0
v -3.2 -39.2 0
v -4 -39.2 0
v -4 -38.4 0
v -3.2 -38.4 0
v -1.6 -39.2 0
v -2.4 -39.2 0
v -2.4 -38.4 0
v -1.6 -38.4 0
v 0 -39.2 0
v -0.8 -39.2 0
v -0.8 -38.4 0
v 0 -38.4 0
v -10.4 -38.4 0
v -11.2 -38.4 0
v -11.2 -37.6 0
v -10.4 -37.6 0
v -9.6 -38.4 0
v -10.4 -38.4 0
v -10.4 -37.6 0
v -9.6 -37.6 0
v -3.2 -38.4 0
v -4 -38.4 0
v -4 -37.6 0
v -3.2 -37.6 0
v -1.6 -38.4 0
v -2.4 -38.4 0
v -2.4 -37.6 0
v -1.6 -37.6 0
v 0 -38.4 0
v -0.8 -38.4 0
v -0.8 -37.6 0
v 0 -37.6 0
v -3.2 -37.6 0
v -4 -37.6 0
v -4 -36.8 0
v -3.2 -36.8 0
v -1.6 -37.6 0
v -2.4 -37.6 0
v -2.4 -36.8 0
v -1.6 -36.8 0
v 0 -37.6 0
v -0.8 -37.6 0
v -0.8 -36.8 0
v 0 -36.8 0
v -3.2 -36.8 0
v -4 -36.8 0
v -4 -36 0
v -3.2 -36 0
v -1.6 -36.8 0
v -2.4 -36.8 0
v -2.4 -36 0
v -1.6 -36 0
v 0 -36.8 0
v -0.8 -36.8 0
v -0.8 -36 0
v 0 -36 0
v -3.2 -36 0
v -4 -36 0
v -4 -35.2 0
v -3.2 -35.2 0
v -1.6 -36 0
v -2.4 -36 0
v -2.4 -35.2 0
v -1.6 -35.2 0
v 0 -36 0
v -0.8 -36 0
v -0.8 -35.2 0
v 0 -35.2 0
v -3.2 -35.2 0
v -4 -35.2 0
v -4 -34.4 0
v -3.2 -34.4 0
v -2.4 -35.2 0
v -3.2 -35.2 0
v -3.2 -34.4 0
v -2.4 -34.4 0
v -1.6 -35.2 0
v -2.4 -35.2 0
v -2.4 -34.4 0
v -1.6 -34.4 0
v -0.8 -35.2 0
v -1.6 -35.2 0
v -1.6 -34.4 0
v -0.8 -34.4 0
v 0 -35.2 0
v -0.8 -35.2 0
v -0.8 -34.4 0
v 0 -34.4 0

# Texture cooridinates (Count = 68)
vt 0.5454546 0.08333331
vt 0.6363636 0.08333331
vt 0.6363636 0.1666667
vt 0.5454546 0.1666667
vt 0.4545455 0.08333331
vt 0.4545455 0.1666667
vt 0.5454546 0.25
vt 0.4545455 0.25
vt 0.7272727 0.1666667
vt 0.7272727 0.25
vt 0.6363636 0.25
vt 0.3636364 0.1666667
vt 0.3636364 0.25
vt 0.6363636 0.4166667
vt 0.7272727 0.4166667
vt 0.7272727 0.5
vt 0.6363636 0.5
vt 0.09090909 0.3333333
vt 0.1818182 0.3333333
vt 0.1818182 0.4166667
vt 0.09090909 0.4166667
vt 0.7272727 0.3333333
vt 0.6363636 0.3333333
vt 0.5454546 0.3333333
vt 0.4545455 0.3333333
vt 0.8181818 0.4166667
vt 0.9090909 0.4166667
vt 0.9090909 0.5
vt 0.8181818 0.5
vt 0.09090909 0.75
vt 0.1818182 0.75
vt 0.1818182 0.8333333
vt 0.09090909 0.8333333
vt 0.9090909 0.5833334
vt 0.8181818 0.5833334
vt 0.7272727 0.5833334
vt 0 0.9166667
vt 0.09090909 0.9166667
vt 0.09090909 1
vt 0 1
vt 0.1818182 0.6666666
vt 0.2727273 0.6666666
vt 0.2727273 0.75
vt 0.1818182 0.9166667
vt 0.3636364 0.75
vt 0.4545455 0.75
vt 0.4545455 0.8333333
vt 0.3636364 0.8333333
vt 0.5454546 0.9166667
vt 0.6363636 0.9166667
vt 0.6363636 1
vt 0.5454546 1
vt 0.4545455 0.9166667
vt 0.4545455 1
vt 0.2727273 0.9166667
vt 0.2727273 1
vt 0.1818182 1
vt 0.2727273 0.8333333
vt 0 0.8333333
vt 0.7272727 0.8333333
vt 0.8181818 0.8333333
vt 0.8181818 0.9166667
vt 0.7272727 0.9166667
vt 0.7272727 0.75
vt 0.8181818 0.75
vt 0.7272727 1
vt 0.5454546 0.75
vt 0.5454546 0.8333333

# Normal
vn 0 0 -1

# Mesh description
g Map_mesh_0043

# Faces
f 1/1/1 2/2/1 3/3/1 4/4/1
f 5/5/1 6/1/1 7/4/1 8/6/1
f 9/5/1 10/1/1 11/4/1 12/6/1
f 13/6/1 14/4/1 15/7/1 16/8/1
f 17/6/1 18/4/1 19/7/1 20/8/1
f 21/6/1 22/4/1 23/7/1 24/8/1
f 25/6/1 26/4/1 27/7/1 28/8/1
f 29/6/1 30/4/1 31/7/1 32/8/1
f 33/6/1 34/4/1 35/7/1 36/8/1
f 37/6/1 38/4/1 39/7/1 40/8/1
f 41/6/1 42/4/1 43/7/1 44/8/1
f 45/6/1 46/4/1 47/7/1 48/8/1
f 49/1/1 50/2/1 51/3/1 52/4/1
f 53/6/1 54/4/1 55/7/1 56/8/1
f 57/6/1 58/4/1 59/7/1 60/8/1
f 61/6/1 62/4/1 63/7/1 64/8/1
f 65/6/1 66/4/1 67/7/1 68/8/1
f 69/6/1 70/4/1 71/7/1 72/8/1
f 73/6/1 74/4/1 75/7/1 76/8/1
f 77/6/1 78/4/1 79/7/1 80/8/1
f 81/6/1 82/4/1 83/7/1 84/8/1
f 85/6/1 86/4/1 87/7/1 88/8/1
f 89/6/1 90/4/1 91/7/1 92/8/1
f 93/6/1 94/4/1 95/7/1 96/8/1
f 97/6/1 98/4/1 99/7/1 100/8/1
f 101/3/1 102/9/1 103/10/1 104/11/1
f 105/12/1 106/6/1 107/8/1 108/13/1
f 109/12/1 110/6/1 111/8/1 112/13/1
f 113/12/1 114/6/1 115/8/1 116/13/1
f 117/12/1 118/6/1 119/8/1 120/13/1
f 121/14/1 122/15/1 123/16/1 124/17/1
f 125/14/1 126/15/1 127/16/1 128/17/1
f 129/14/1 130/15/1 131/16/1 132/17/1
f 133/14/1 134/15/1 135/16/1 136/17/1
f 137/14/1 138/15/1 139/16/1 140/17/1
f 141/14/1 142/15/1 143/16/1 144/17/1
f 145/18/1 146/19/1 147/20/1 148/21/1
f 149/18/1 150/19/1 151/20/1 152/21/1
f 153/14/1 154/15/1 155/16/1 156/17/1
f 157/11/1 158/10/1 159/22/1 160/23/1
f 161/7/1 162/11/1 163/23/1 164/24/1
f 165/8/1 166/7/1 167/24/1 168/25/1
f 169/26/1 170/27/1 171/28/1 172/29/1
f 173/15/1 174/26/1 175/29/1 176/16/1
f 177/14/1 178/15/1 179/16/1 180/17/1
f 181/14/1 182/15/1 183/16/1 184/17/1
f 185/18/1 186/19/1 187/20/1 188/21/1
f 189/18/1 190/19/1 191/20/1 192/21/1
f 193/18/1 194/19/1 195/20/1 196/21/1
f 197/18/1 198/19/1 199/20/1 200/21/1
f 201/18/1 202/19/1 203/20/1 204/21/1
f 205/18/1 206/19/1 207/20/1 208/21/1
f 209/30/1 210/31/1 211/32/1 212/33/1
f 213/29/1 214/28/1 215/34/1 216/35/1
f 217/16/1 218/29/1 219/35/1 220/36/1
f 221/18/1 222/19/1 223/20/1 224/21/1
f 225/18/1 226/19/1 227/20/1 228/21/1
f 229/18/1 230/19/1 231/20/1 232/21/1
f 233/18/1 234/19/1 235/20/1 236/21/1
f 237/18/1 238/19/1 239/20/1 240/21/1
f 241/18/1 242/19/1 243/20/1 244/21/1
f 245/30/1 246/31/1 247/32/1 248/33/1
f 249/37/1 250/38/1 251/39/1 252/40/1
f 253/30/1 254/31/1 255/32/1 256/33/1
f 257/41/1 258/42/1 259/43/1 260/31/1
f 261/41/1 262/42/1 263/43/1 264/31/1
f 265/41/1 266/42/1 267/43/1 268/31/1
f 269/41/1 270/42/1 271/43/1 272/31/1
f 273/33/1 274/32/1 275/44/1 276/38/1
f 277/33/1 278/32/1 279/44/1 280/38/1
f 281/33/1 282/32/1 283/44/1 284/38/1
f 285/33/1 286/32/1 287/44/1 288/38/1
f 289/33/1 290/32/1 291/44/1 292/38/1
f 293/33/1 294/32/1 295/44/1 296/38/1
f 297/33/1 298/32/1 299/44/1 300/38/1
f 301/33/1 302/32/1 303/44/1 304/38/1
f 305/33/1 306/32/1 307/44/1 308/38/1
f 309/45/1 310/46/1 311/47/1 312/48/1
f 313/33/1 314/32/1 315/44/1 316/38/1
f 317/33/1 318/32/1 319/44/1 320/38/1
f 321/49/1 322/50/1 323/51/1 324/52/1
f 325/53/1 326/49/1 327/52/1 328/54/1
f 329/44/1 330/55/1 331/56/1 332/57/1
f 333/44/1 334/55/1 335/56/1 336/57/1
f 337/44/1 338/55/1 339/56/1 340/57/1
f 341/44/1 342/55/1 343/56/1 344/57/1
f 345/44/1 346/55/1 347/56/1 348/57/1
f 349/43/1 350/45/1 351/48/1 352/58/1
f 353/33/1 354/32/1 355/44/1 356/38/1
f 357/59/1 358/33/1 359/38/1 360/37/1
f 361/60/1 362/61/1 363/62/1 364/63/1
f 365/64/1 366/65/1 367/61/1 368/60/1
f 369/60/1 370/61/1 371/62/1 372/63/1
f 373/32/1 374/58/1 375/55/1 376/44/1
f 377/38/1 378/44/1 379/57/1 380/39/1
f 381/64/1 382/65/1 383/61/1 384/60/1
f 385/64/1 386/65/1 387/61/1 388/60/1
f 389/50/1 390/63/1 391/66/1 392/51/1
f 393/64/1 394/65/1 395/61/1 396/60/1
f 397/64/1 398/65/1 399/61/1 400/60/1
f 401/50/1 402/63/1 403/66/1 404/51/1
f 405/50/1 406/63/1 407/66/1 408/51/1
f 409/50/1 410/63/1 411/66/1 412/51/1
f 413/60/1 414/61/1 415/62/1 416/63/1
f 417/50/1 418/63/1 419/66/1 420/51/1
f 421/50/1 422/63/1 423/66/1 424/51/1
f 425/60/1 426/61/1 427/62/1 428/63/1
f 429/46/1 430/67/1 431/68/1 432/47/1
f 433/46/1 434/67/1 435/68/1 436/47/1
f 437/46/1 438/67/1 439/68/1 440/47/1
f 441/46/1 442/67/1 443/68/1 444/47/1
f 445/46/1 446/67/1 447/68/1 448/47/1

